<svg width="275" height="280" viewBox="0 0 275 280" fill="none" xmlns="http://www.w3.org/2000/svg">
<path d="M294.769 88.6456C294.769 88.6456 299.09 87.6964 300.291 78.7072C301.492 69.718 297.572 67.6709 297.572 67.6709C297.572 67.6709 237.792 61.9882 230.065 60.9617C222.333 59.9272 218.664 75.2761 227.984 76.5206C237.303 77.7652 294.766 88.6575 294.766 88.6575L294.769 88.6456Z" fill="#95C11F"/>
<g style="mix-blend-mode:soft-light">
<path d="M297.135 69.4418C286.801 68.4564 238.47 63.8381 231.57 62.9146C231.518 62.9106 231.47 62.9146 231.423 62.8987C234.339 69.6774 296.766 71.0296 297.131 69.4338L297.135 69.4418Z" fill="white"/>
</g>
<g style="mix-blend-mode:multiply">
<path d="M295.791 70.2542C294.571 73.4817 292.65 76.3436 289.52 77.9806C285.522 80.0717 280.95 80.5794 276.514 80.8006C266.01 81.3432 255.7 80.8433 245.961 76.4953C238.785 73.292 231.959 68.3815 228.935 60.9304C222.012 61.4513 219.142 75.3355 227.992 76.5166C237.311 77.7612 294.774 88.6535 294.774 88.6535C294.774 88.6535 299.094 87.7043 300.295 78.7151C301.496 69.726 297.576 67.6788 297.576 67.6788C297.576 67.6788 297.222 67.6472 296.581 67.5799C296.379 68.5071 296.109 69.4184 295.795 70.2621L295.791 70.2542Z" fill="#BBCBC8"/>
</g>
<g style="mix-blend-mode:soft-light">
<path d="M272.797 65.2885L280.476 85.9514C281.22 86.0863 281.944 86.2212 282.64 86.3601L274.886 65.4864C274.198 65.4231 273.498 65.3558 272.797 65.2885Z" fill="white"/>
<path d="M261.29 64.1645L268.557 83.7294C269.282 83.8643 270.006 83.9992 270.718 84.1301L263.379 64.3623C262.678 64.2951 261.986 64.2238 261.286 64.1565L261.29 64.1645Z" fill="white"/>
<path d="M249.778 63.0324L256.651 81.5311C257.371 81.6581 258.088 81.797 258.82 81.9279L251.875 63.2462C251.17 63.1709 250.47 63.1037 249.782 63.0404L249.778 63.0324Z" fill="white"/>
<path d="M238.246 61.8607L244.749 79.3608C245.461 79.4918 246.181 79.6187 246.914 79.7497L240.343 62.0744C239.619 61.9992 238.915 61.924 238.246 61.8607Z" fill="white"/>
<path d="M228.332 65.0331L232.882 77.2821C233.555 77.3931 234.275 77.5201 235.035 77.647L228.867 61.034L228.336 65.0212L228.332 65.0331Z" fill="white"/>
</g>
<path d="M219.241 60.271C210.626 59.1216 162.111 21.3624 149.13 10.8169C149.041 16.3238 169.875 46.4897 169.875 46.4897C169.875 46.4897 168.585 37.0561 177.003 42.8213C188.554 50.7295 201.706 60.3239 204.313 62.2325C208.477 65.2822 207.245 67.71 203.434 69.0808C201.114 69.9136 185.77 75.7747 171.985 80.3378C165.071 82.6254 166.193 74.6708 166.193 74.6708C166.193 74.6708 126.292 105.513 136.688 103.88C154 94.974 207.956 73.4235 217.327 74.672C226.698 75.9205 227.876 61.4204 219.257 60.2631L219.241 60.271Z" fill="#352E35"/>
<path d="M86.9198 105.235C49.3595 100.209 22.1802 71.7775 26.1952 41.738C30.0042 13.2545 60.4969 -6.44949 95.6524 -4.1401C95.7031 -6.24501 95.5905 -8.41746 95.8441 -10.4946C56.6099 -13.0804 22.5731 8.9053 18.3282 40.6917C13.8454 74.2091 44.1739 105.93 86.0756 111.538C91.1173 112.208 96.0952 112.472 100.965 112.362C101.08 110.225 100.872 108.101 100.751 105.972C96.2311 106.105 91.6074 105.873 86.9159 105.247L86.9198 105.235Z" fill="#95C11F"/>
<path d="M37.3675 17.4882L39.0387 17.7061L38.139 24.4152L32.7551 23.6978C32.5404 24.0441 32.3217 24.4023 32.119 24.7526L37.9964 25.5413L37.0966 32.2504L30.3876 31.3506L30.9979 26.7665C30.4255 27.8491 29.8969 28.9595 29.416 30.0858L29.2614 31.208L28.963 31.1683C28.8239 31.5265 28.6769 31.8887 28.5497 32.2508L29.1148 32.3261L28.2151 39.0352L26.6791 38.8291C26.6037 39.1952 26.5402 39.5653 26.4688 39.9393L28.0565 40.1494L27.1568 46.8584L25.8038 46.6801C25.7961 47.0621 25.7923 47.4321 25.7964 47.8181L27.0101 47.9766L26.2214 53.854C26.3931 55.0715 26.6086 56.277 26.8758 57.4666L27.0819 55.9505L33.791 56.8502L32.8912 63.5593L28.4543 62.9647C28.5938 63.3625 28.7452 63.7643 28.8927 64.1582L32.7406 64.6695L31.936 70.6941C32.3104 71.3623 32.6848 72.0306 33.0909 72.683L39.5214 73.5431L38.6217 80.2521L38.5779 80.2442C38.9442 80.6777 39.3264 81.1032 39.7086 81.5288L46.2983 82.4087L45.6443 87.3032C45.9787 87.5935 46.3211 87.8798 46.6634 88.1661L47.4165 82.5553L54.1255 83.4551L53.2258 90.1641L48.3393 89.5062C48.9403 89.9714 49.5533 90.4406 50.1743 90.8859L53.0752 91.2743L52.881 92.7546C53.2233 92.9812 53.5775 93.2118 53.9278 93.4345L54.1973 91.4289L60.9064 92.3287L60.2722 97.0441C60.6304 97.223 60.9806 97.4058 61.3349 97.5767L62.0166 92.4793L68.7256 93.379L67.8259 100.088L66.6003 99.9256C68.2081 100.573 69.8398 101.169 71.5073 101.718L75.4985 102.257L75.4153 102.905C75.7854 103.008 76.1436 103.108 76.5097 103.203L76.6207 102.411L83.3297 103.311L83.1514 104.664C83.5215 104.727 83.8915 104.791 84.2616 104.854L84.4479 103.458L91.157 104.357L90.9786 105.69C91.3526 105.722 91.7267 105.754 92.1007 105.785L92.2751 104.504L98.9842 105.404L98.9009 106.013C99.2789 106.012 99.6609 106 100.047 105.996L100.106 105.558L102.677 105.903C104.499 105.807 106.302 105.651 108.084 105.435L108.98 98.7774L115.689 99.6772L115.075 104.293C115.468 104.205 115.854 104.122 116.248 104.034L116.811 99.8318L123.52 100.731L123.342 102.065C123.744 101.933 124.141 101.794 124.531 101.658L124.638 100.878L126.123 101.08C126.843 100.809 127.555 100.522 128.263 100.228L124.797 99.7639L125.697 93.0549L132.406 93.9546L131.775 98.6581C132.181 98.455 132.587 98.2518 132.993 98.0487L133.52 94.0933L138.693 94.7869C139.445 94.3011 140.193 93.8073 140.912 93.2976L141.725 87.2292L147.407 87.9863C147.757 87.6519 148.099 87.3214 148.437 86.983L141.872 86.1111L142.771 79.402L149.48 80.3018L148.608 86.8278C149.058 86.3739 149.499 85.9042 149.933 85.4384L150.599 80.4484L153.702 80.8646C153.957 80.5183 154.203 80.1759 154.438 79.8297L150.749 79.3382L151.649 72.6291L158.135 73.5011C158.902 71.9131 159.578 70.2814 160.154 68.6099L160.526 65.8562L160.996 65.9197C161.099 65.5496 161.195 65.1834 161.282 64.8213L160.673 64.7381L161.573 58.029L162.416 58.144C162.448 57.7699 162.48 57.3959 162.507 57.0139L161.727 56.9069L162.508 51.0733C162.404 49.5533 162.228 48.0494 161.977 46.5534L161.664 48.929L154.955 48.0293L155.854 41.3203L160.984 42.0059C160.876 41.6121 160.756 41.2142 160.641 40.8244L156.001 40.2021L156.901 33.493L157.82 33.6199C157.617 33.2141 157.414 32.8084 157.21 32.4026L157.051 32.3828L157.083 32.148C156.788 31.5792 156.486 31.0143 156.171 30.4654L155.933 32.2362L149.224 31.3364L150.124 24.6274L152.599 24.9603C152.288 24.5387 151.966 24.1132 151.647 23.6955L150.27 23.5092L150.445 22.1881C150.122 21.8023 149.796 21.4086 149.457 21.0307L149.148 23.3546L143.112 22.5461L144.011 15.837L144.469 15.8965C143.975 15.4471 143.482 14.9977 142.972 14.5563L136.331 13.6725L136.842 9.82451C136.496 9.58994 136.15 9.35536 135.799 9.11283L135.209 13.5179L128.5 12.6181L129.308 6.5816L132.432 6.99775C131.568 6.48491 130.685 5.99196 129.793 5.50301L129.463 5.45942L129.479 5.33209C129.124 5.14128 128.774 4.95842 128.412 4.7716L128.341 5.30483L121.632 4.40509L121.973 1.82654C121.61 1.67951 121.252 1.54043 120.894 1.40135L120.514 4.25846L113.804 3.35873L114.367 -0.823498C114.005 -0.930738 113.643 -1.03798 113.273 -1.14124L112.694 3.20811L105.985 2.30838L106.655 -2.71348C106.289 -2.78889 105.919 -2.85235 105.545 -2.92377L104.867 2.16172L98.158 1.26199L98.8397 -3.87525C98.4617 -3.91485 98.0956 -3.95046 97.7175 -3.99005L97.0358 1.10739L90.3268 0.207656L90.9292 -4.33268C90.5472 -4.34043 90.1732 -4.33228 89.7952 -4.33208L89.2086 0.0610227L82.4996 -0.838715L82.9236 -4.0261C82.5417 -3.99406 82.1518 -3.95805 81.7738 -3.91807L81.3814 -0.985345L74.6723 -1.88508L74.8071 -2.90777C74.4172 -2.83197 74.0273 -2.75616 73.6414 -2.6724L73.5542 -2.03174L71.8033 -2.26956C70.8126 -2.04224 69.8339 -1.79106 68.8632 -1.52397L73.4075 -0.913548L72.599 5.123L65.8899 4.22327L66.5716 -0.854288C66.1738 -0.734706 65.78 -0.60718 65.3781 -0.475661L64.7717 4.07661L58.0627 3.17688L58.1776 2.31338C57.7719 2.49663 57.3701 2.68782 56.9683 2.87902L56.9525 3.02626L56.7177 2.99456C56.117 3.28533 55.5124 3.58805 54.9197 3.89475L56.7979 4.14841L55.8981 10.8575L49.1891 9.95773L49.5815 6.98521C49.1598 7.256 48.7422 7.53476 48.3325 7.80953L48.0669 9.80313L45.946 9.52172C45.5204 9.84424 45.1028 10.1628 44.6891 10.4893L47.9203 10.9213L47.0206 17.6304L40.3115 16.7306L40.6762 14.0008C40.2268 14.4348 39.7973 14.8687 39.3638 15.3146L39.1973 16.5919L38.2821 16.473C37.9719 16.8074 37.6737 17.1458 37.3794 17.4921L37.3675 17.4882ZM107.874 98.6149L106.974 105.324L100.265 104.424L101.165 97.7151L107.874 98.6149ZM100.046 97.5685L99.1467 104.278L92.4377 103.378L93.3374 96.6688L100.046 97.5685ZM92.2192 96.5221L91.3195 103.231L84.6105 102.331L85.5102 95.6224L92.2192 96.5221ZM84.392 95.4757L83.4923 102.185L76.7832 101.285L77.683 94.576L84.392 95.4757ZM76.5728 94.4254L75.673 101.134L68.964 100.235L69.8637 93.5256L76.5728 94.4254ZM124.567 92.8844L123.667 99.5934L116.958 98.6937L117.857 91.9846L124.567 92.8844ZM116.747 91.834L115.848 98.5431L109.138 97.6433L110.038 90.9343L116.747 91.834ZM108.92 90.7876L108.02 97.4967L101.311 96.597L102.211 89.8879L108.92 90.7876ZM101.093 89.7413L100.193 96.4503L93.484 95.5506L94.3838 88.8415L101.093 89.7413ZM93.2656 88.6949L92.3659 95.4039L85.6568 94.5042L86.5566 87.7952L93.2656 88.6949ZM85.4384 87.6485L84.5387 94.3576L77.8296 93.4578L78.7293 86.7488L85.4384 87.6485ZM77.6112 86.6021L76.7114 93.3112L70.0024 92.4115L70.9021 85.7024L77.6112 86.6021ZM69.7919 85.5518L68.8922 92.2608L62.1831 91.3611L63.0829 84.6521L69.7919 85.5518ZM61.9647 84.5054L61.065 91.2145L54.3559 90.3147L55.2556 83.6057L61.9647 84.5054ZM140.595 87.0587L139.695 93.7678L133.659 92.9592L134.558 86.2502L140.595 87.0587ZM133.44 86.1035L132.54 92.8126L125.831 91.9128L126.731 85.2038L133.44 86.1035ZM125.613 85.0572L124.713 91.7662L118.004 90.8665L118.904 84.1574L125.613 85.0572ZM117.794 84.0068L116.894 90.7158L110.185 89.8161L111.085 83.1071L117.794 84.0068ZM109.966 82.9604L109.067 89.6695L102.358 88.7697L103.257 82.0607L109.966 82.9604ZM102.139 81.9141L101.239 88.6231L94.5304 87.7234L95.4302 81.0143L102.139 81.9141ZM94.312 80.8677L93.4122 87.5767L86.7032 86.677L87.6029 79.9679L94.312 80.8677ZM86.4848 79.8213L85.585 86.5304L78.876 85.6306L79.7757 78.9216L86.4848 79.8213ZM78.6575 78.7749L77.7578 85.484L71.0488 84.5842L71.9485 77.8752L78.6575 78.7749ZM70.8383 77.7246L69.9385 84.4336L63.2295 83.5339L64.1292 76.8248L70.8383 77.7246ZM63.0111 76.6782L62.1113 83.3872L55.4023 82.4875L56.302 75.7785L63.0111 76.6782ZM55.1838 75.6318L54.2841 82.3409L47.5751 81.4411L48.4748 74.7321L55.1838 75.6318ZM47.3566 74.5854L46.4569 81.2945L39.7478 80.3948L40.6476 73.6857L47.3566 74.5854ZM141.641 79.2315L140.741 85.9406L134.705 85.132L135.605 78.4229L141.641 79.2315ZM134.487 78.2763L133.587 84.9854L126.878 84.0856L127.777 77.3766L134.487 78.2763ZM126.659 77.2299L125.76 83.939L119.05 83.0393L119.95 76.3302L126.659 77.2299ZM118.84 76.1796L117.94 82.8886L111.231 81.9889L112.131 75.2799L118.84 76.1796ZM111.013 75.1332L110.113 81.8422L103.404 80.9425L104.304 74.2335L111.013 75.1332ZM103.186 74.0868L102.286 80.7959L95.5768 79.8961L96.4765 73.1871L103.186 74.0868ZM95.3584 73.0405L94.4586 79.7495L87.7496 78.8498L88.6493 72.1407L95.3584 73.0405ZM87.5311 71.9941L86.6314 78.7031L79.9224 77.8034L80.8221 71.0943L87.5311 71.9941ZM79.7039 70.9477L78.8042 77.6568L72.0951 76.757L72.9949 70.048L79.7039 70.9477ZM71.8847 69.8974L70.9849 76.6064L64.2759 75.7067L65.1756 68.9976L71.8847 69.8974ZM64.0574 68.851L63.1577 75.56L56.4487 74.6603L57.3484 67.9512L64.0574 68.851ZM56.2342 67.8126L55.3345 74.5216L48.6254 73.6219L49.5252 66.9128L56.2342 67.8126ZM48.407 66.7662L47.5072 73.4752L40.7982 72.5755L41.6979 65.8665L48.407 66.7662ZM40.5798 65.7198L39.68 72.4289L32.971 71.5291L33.8707 64.8201L40.5798 65.7198ZM150.519 72.4586L149.619 79.1677L142.91 78.2679L143.81 71.5589L150.519 72.4586ZM142.692 71.4123L141.792 78.1213L135.755 77.3127L136.655 70.6037L142.692 71.4123ZM135.537 70.4571L134.637 77.1661L127.928 76.2664L128.828 69.5573L135.537 70.4571ZM127.71 69.4107L126.81 76.1197L120.101 75.22L121.001 68.5109L127.71 69.4107ZM119.882 68.3643L118.983 75.0733L112.274 74.1736L113.173 67.4646L119.882 68.3643ZM112.063 67.3139L111.163 74.023L104.454 73.1233L105.354 66.4142L112.063 67.3139ZM104.236 66.2676L103.336 72.9766L96.6272 72.0769L97.5269 65.3678L104.236 66.2676ZM96.4087 65.2212L95.509 71.9302L88.7999 71.0305L89.6997 64.3215L96.4087 65.2212ZM88.5815 64.1748L87.6818 70.8839L80.9727 69.9841L81.8725 63.2751L88.5815 64.1748ZM80.7543 63.1284L79.8545 69.8375L73.1455 68.9378L74.0452 62.2287L80.7543 63.1284ZM72.935 62.0781L72.0353 68.7871L65.3262 67.8874L66.226 61.1784L72.935 62.0781ZM65.1078 61.0317L64.2081 67.7408L57.499 66.841L58.3987 60.132L65.1078 61.0317ZM57.2806 59.9853L56.3808 66.6944L49.6718 65.7946L50.5715 59.0856L57.2806 59.9853ZM49.4534 58.939L48.5536 65.648L41.8446 64.7483L42.7443 58.0392L49.4534 58.939ZM41.6261 57.8926L40.7264 64.6016L34.0174 63.7019L34.9171 56.9929L41.6261 57.8926ZM159.392 65.6778L158.493 72.3868L151.784 71.4871L152.683 64.778L159.392 65.6778ZM151.565 64.6314L150.665 71.3405L143.956 70.4407L144.856 63.7317L151.565 64.6314ZM143.738 63.585L142.838 70.2941L136.802 69.4855L137.701 62.7765L143.738 63.585ZM136.583 62.6298L135.683 69.3389L128.974 68.4391L129.874 61.7301L136.583 62.6298ZM128.756 61.5835L127.856 68.2925L121.147 67.3928L122.047 60.6837L128.756 61.5835ZM120.929 60.5371L120.029 67.2461L113.32 66.3464L114.22 59.6373L120.929 60.5371ZM113.11 59.4867L112.21 66.1958L105.501 65.296L106.4 58.587L113.11 59.4867ZM105.282 58.4403L104.383 65.1494L97.6735 64.2497L98.5733 57.5406L105.282 58.4403ZM97.4551 57.394L96.5554 64.103L89.8463 63.2033L90.746 56.4942L97.4551 57.394ZM89.6279 56.3476L88.7281 63.0566L82.0191 62.1569L82.9188 55.4479L89.6279 56.3476ZM81.8007 55.3012L80.9009 62.0103L74.1919 61.1105L75.0916 54.4015L81.8007 55.3012ZM73.9814 54.2509L73.0817 60.9599L66.3726 60.0602L67.2723 53.3511L73.9814 54.2509ZM66.1542 53.2045L65.2544 59.9135L58.5454 59.0138L59.4451 52.3048L66.1542 53.2045ZM58.327 52.1581L57.4272 58.8672L50.7182 57.9674L51.6179 51.2584L58.327 52.1581ZM50.4997 51.1117L49.6 57.8208L42.8909 56.9211L43.7907 50.212L50.4997 51.1117ZM42.6725 50.0654L41.7728 56.7744L35.0637 55.8747L35.9635 49.1656L42.6725 50.0654ZM34.8453 49.019L33.9456 55.728L27.2365 54.8283L28.1362 48.1193L34.8453 49.019ZM160.439 57.8506L159.539 64.5596L152.83 63.6599L153.73 56.9508L160.439 57.8506ZM152.612 56.8042L151.712 63.5132L145.003 62.6135L145.903 55.9045L152.612 56.8042ZM144.784 55.7578L143.885 62.4669L137.848 61.6583L138.748 54.9493L144.784 55.7578ZM137.63 54.8026L136.73 61.5117L130.021 60.6119L130.921 53.9029L137.63 54.8026ZM129.802 53.7562L128.903 60.4653L122.194 59.5655L123.093 52.8565L129.802 53.7562ZM121.983 52.7059L121.083 59.4149L114.374 58.5152L115.274 51.8061L121.983 52.7059ZM114.156 51.6595L113.256 58.3686L106.547 57.4688L107.447 50.7598L114.156 51.6595ZM106.329 50.6131L105.429 57.3222L98.7199 56.4224L99.6196 49.7134L106.329 50.6131ZM98.5015 49.5667L97.6017 56.2758L90.8927 55.3761L91.7924 48.667L98.5015 49.5667ZM90.6742 48.5204L89.7745 55.2294L83.0655 54.3297L83.9652 47.6206L90.6742 48.5204ZM82.847 47.474L81.9473 54.183L75.2382 53.2833L76.138 46.5743L82.847 47.474ZM75.0278 46.4236L74.128 53.1327L67.419 52.233L68.3187 45.5239L75.0278 46.4236ZM67.2005 45.3773L66.3008 52.0863L59.5918 51.1866L60.4915 44.4775L67.2005 45.3773ZM59.3733 44.3309L58.4736 51.0399L51.7645 50.1402L52.6643 43.4312L59.3733 44.3309ZM51.5461 43.2845L50.6464 49.9936L43.9373 49.0938L44.8371 42.3848L51.5461 43.2845ZM43.7189 42.2382L42.8192 48.9472L36.1101 48.0475L37.0098 41.3384L43.7189 42.2382ZM35.8917 41.1918L34.9919 47.9008L28.2829 47.0011L29.1826 40.292L35.8917 41.1918ZM161.485 50.0234L160.585 56.7324L153.876 55.8327L154.776 49.1236L161.485 50.0234ZM153.658 48.977L152.758 55.686L146.049 54.7863L146.949 48.0772L153.658 48.977ZM145.831 47.9306L144.931 54.6396L138.894 53.8311L139.794 47.122L145.831 47.9306ZM138.676 46.9754L137.776 53.6844L131.067 52.7847L131.967 46.0757L138.676 46.9754ZM130.849 45.929L129.949 52.6381L123.24 51.7383L124.14 45.0293L130.849 45.929ZM123.022 44.8826L122.122 51.5917L115.413 50.6919L116.312 43.9829L123.022 44.8826ZM115.202 43.8323L114.303 50.5413L107.594 49.6416L108.493 42.9325L115.202 43.8323ZM107.375 42.7859L106.475 49.495L99.7663 48.5952L100.666 41.8862L107.375 42.7859ZM99.5478 41.7395L98.6481 48.4486L91.9391 47.5488L92.8388 40.8398L99.5478 41.7395ZM91.7206 40.6932L90.8209 47.4022L84.1118 46.5025L85.0116 39.7934L91.7206 40.6932ZM83.8934 39.6468L82.9937 46.3558L76.2846 45.4561L77.1844 38.747L83.8934 39.6468ZM76.0662 38.6004L75.1665 45.3095L68.4574 44.4097L69.3571 37.7007L76.0662 38.6004ZM68.2469 37.5501L67.3472 44.2591L60.6381 43.3594L61.5379 36.6503L68.2469 37.5501ZM60.4197 36.5037L59.52 43.2127L52.8109 42.313L53.7106 35.6039L60.4197 36.5037ZM52.5925 35.4573L51.6928 42.1664L44.9837 41.2666L45.8834 34.5576L52.5925 35.4573ZM44.7653 34.4109L43.8655 41.12L37.1565 40.2202L38.0562 33.5112L44.7653 34.4109ZM36.938 33.3645L36.0383 40.0736L29.3293 39.1739L30.229 32.4648L36.938 33.3645ZM154.708 41.1577L153.809 47.8668L147.099 46.967L147.999 40.258L154.708 41.1577ZM146.877 40.1034L145.977 46.8124L139.941 46.0039L140.841 39.2948L146.877 40.1034ZM139.722 39.1482L138.823 45.8572L132.114 44.9575L133.013 38.2484L139.722 39.1482ZM131.895 38.1018L130.995 44.8108L124.286 43.9111L125.186 37.2021L131.895 38.1018ZM124.068 37.0554L123.168 43.7645L116.459 42.8647L117.359 36.1557L124.068 37.0554ZM116.249 36.0051L115.349 42.7141L108.64 41.8144L109.54 35.1053L116.249 36.0051ZM108.421 34.9587L107.522 41.6677L100.813 40.768L101.712 34.0589L108.421 34.9587ZM100.594 33.9123L99.6945 40.6214L92.9854 39.7216L93.8852 33.0126L100.594 33.9123ZM92.767 32.866L91.8673 39.575L85.1582 38.6752L86.058 31.9662L92.767 32.866ZM84.9398 31.8196L84.04 38.5286L77.331 37.6289L78.2307 30.9198L84.9398 31.8196ZM77.1126 30.7732L76.2128 37.4822L69.5038 36.5825L70.4035 29.8735L77.1126 30.7732ZM69.2973 29.7308L68.3975 36.4398L61.6885 35.5401L62.5882 28.831L69.2973 29.7308ZM61.4661 28.6764L60.5663 35.3855L53.8573 34.4858L54.757 27.7767L61.4661 28.6764ZM53.6389 27.6301L52.7391 34.3391L46.0301 33.4394L46.9298 26.7303L53.6389 27.6301ZM45.8156 26.5917L44.9159 33.3007L38.2068 32.401L39.1066 25.6919L45.8156 26.5917ZM155.755 33.3305L154.855 40.0395L148.146 39.1398L149.046 32.4308L155.755 33.3305ZM147.927 32.2841L147.028 38.9932L140.991 38.1846L141.891 31.4756L147.927 32.2841ZM140.769 31.321L139.869 38.03L133.16 37.1303L134.06 30.4212L140.769 31.321ZM132.942 30.2746L132.042 36.9836L125.333 36.0839L126.232 29.3748L132.942 30.2746ZM125.118 29.2362L124.219 35.9452L117.509 35.0455L118.409 28.3364L125.118 29.2362ZM117.287 28.1818L116.387 34.8909L109.678 33.9911L110.578 27.2821L117.287 28.1818ZM109.468 27.1315L108.568 33.8405L101.859 32.9408L102.759 26.2317L109.468 27.1315ZM101.645 26.093L100.745 32.8021L94.0358 31.9024L94.9355 25.1933L101.645 26.093ZM93.8173 25.0467L92.9176 31.7557L86.2086 30.856L87.1083 24.1469L93.8173 25.0467ZM85.9901 24.0003L85.0904 30.7094L78.3814 29.8096L79.2811 23.1006L85.9901 24.0003ZM78.1629 22.9539L77.2632 29.663L70.5541 28.7632L71.4539 22.0542L78.1629 22.9539ZM70.3436 21.9036L69.4439 28.6126L62.7349 27.7129L63.6346 21.0038L70.3436 21.9036ZM62.5164 20.8572L61.6167 27.5663L54.9077 26.6665L55.8074 19.9575L62.5164 20.8572ZM54.6892 19.8108L53.7895 26.5199L47.0804 25.6201L47.9802 18.9111L54.6892 19.8108ZM46.862 18.7644L45.9623 25.4735L39.2532 24.5738L40.1529 17.8647L46.862 18.7644ZM73.7012 5.2776L74.5098 -0.758949L81.2188 0.140782L80.4103 6.17734L73.7012 5.2776ZM81.5205 6.32795L82.329 0.291401L89.0381 1.19113L88.2295 7.22769L81.5205 6.32795ZM89.3477 7.37432L90.1563 1.33779L96.8653 2.23752L96.0567 8.27408L89.3477 7.37432ZM97.1749 8.42071L97.9835 2.38415L104.693 3.28389L103.884 9.32045L97.1749 8.42071ZM105.002 9.46708L105.811 3.43052L112.52 4.33026L111.711 10.3668L105.002 9.46708ZM112.829 10.5134L113.638 4.47692L120.347 5.37665L119.538 11.4132L112.829 10.5134ZM120.657 11.5598L121.465 5.52328L128.174 6.42302L127.366 12.4596L120.657 11.5598ZM57.0004 11.0121L57.9001 4.30303L64.6092 5.20277L63.7094 11.9118L57.0004 11.0121ZM64.8276 12.0585L65.7274 5.3494L72.4364 6.24913L71.5367 12.9582L64.8276 12.0585ZM72.6548 13.1048L73.5546 6.39577L80.2636 7.2955L79.3639 14.0046L72.6548 13.1048ZM80.4821 14.1512L81.3818 7.44216L88.0908 8.34189L87.1911 15.0509L80.4821 14.1512ZM88.3013 15.2016L89.2011 8.49251L95.9101 9.39224L95.0104 16.1013L88.3013 15.2016ZM96.1285 16.2479L97.0283 9.53888L103.737 10.4386L102.838 17.1477L96.1285 16.2479ZM103.956 17.2943L104.856 10.5853L111.565 11.485L110.665 18.194L103.956 17.2943ZM111.783 18.3407L112.683 11.6316L119.392 12.5314L118.492 19.2404L111.783 18.3407ZM119.61 19.387L120.51 12.678L127.219 13.5777L126.319 20.2868L119.61 19.387ZM127.429 20.4374L128.329 13.7284L135.038 14.6281L134.139 21.3371L127.429 20.4374ZM135.257 21.4838L136.156 14.7747L142.865 15.6745L141.966 22.3835L135.257 21.4838ZM148.974 24.4569L148.074 31.1659L142.038 30.3574L142.937 23.6483L148.974 24.4569ZM141.815 23.4937L140.915 30.2028L134.206 29.303L135.106 22.594L141.815 23.4937ZM133.992 22.4553L133.092 29.1644L126.383 28.2646L127.283 21.5556L133.992 22.4553ZM126.165 21.4089L125.265 28.118L118.556 27.2182L119.456 20.5092L126.165 21.4089ZM118.345 20.3586L117.446 27.0676L110.737 26.1679L111.636 19.4588L118.345 20.3586ZM110.518 19.3122L109.618 26.0212L102.909 25.1215L103.809 18.4125L110.518 19.3122ZM102.691 18.2658L101.791 24.9749L95.0822 24.0751L95.9819 17.3661L102.691 18.2658ZM94.8637 17.2195L93.964 23.9285L87.2549 23.0288L88.1547 16.3197L94.8637 17.2195ZM87.0365 16.1731L86.1368 22.8821L79.4277 21.9824L80.3275 15.2734L87.0365 16.1731ZM79.2093 15.1267L78.3096 21.8358L71.6005 20.936L72.5002 14.227L79.2093 15.1267ZM71.39 14.0763L70.4903 20.7854L63.7813 19.8857L64.681 13.1766L71.39 14.0763ZM63.5628 13.03L62.6631 19.739L55.954 18.8393L56.8538 12.1302L63.5628 13.03ZM49.0265 11.0839L55.7356 11.9836L54.8359 18.6926L48.1268 17.7929L49.0265 11.0839Z" fill="#9D9D9C"/>
<path d="M91.634 -10.6756C92.1643 -8.56301 92.5912 -6.43844 92.7873 -4.27795C95.6482 -4.18793 98.545 -3.94672 101.466 -3.5583C139.026 1.46748 166.213 29.8951 162.19 59.9386C158.528 87.3239 130.196 106.593 96.768 105.986C96.9362 108.13 97.037 110.637 96.7355 112.36C134.174 113.168 165.951 91.6373 170.05 60.989C174.532 27.4716 144.204 -4.24905 102.302 -9.85748C98.7088 -10.3371 95.1395 -10.6098 91.6221 -10.6796L91.634 -10.6756Z" fill="#352E35"/>
<path d="M89.363 105.524L89.7125 111.946C94.7303 112.429 99.6722 112.502 104.491 112.209L104.149 105.803C99.3426 106.14 94.3967 106.059 89.3749 105.528L89.363 105.524Z" fill="#D1D1D1"/>
<path d="M98.2666 -3.92663L97.9211 -10.3406C92.9034 -10.7836 87.9615 -10.8168 83.151 -10.488L83.4926 -4.06215C88.2871 -4.44266 93.2369 -4.41342 98.2666 -3.92663Z" fill="#D1D1D1"/>
<g style="mix-blend-mode:soft-light">
<path d="M24.0982 41.7828C28.0539 12.2208 60.1418 -8.03302 96.5077 -4.45895C95.5407 -4.62158 94.5697 -4.77229 93.5948 -4.91104C56.8344 -9.82982 25.4311 11.0365 21.3645 41.4102C17.2979 71.784 45.6425 99.1049 75.4642 105.03C83.5423 106.637 91.8748 107.5 102.757 107.316C98.3683 107.015 81.6122 106.101 70.8712 102.812C40.7057 93.5766 20.5548 68.2529 24.0943 41.7749L24.0982 41.7828Z" fill="white"/>
</g>
<path d="M167.375 60.2782C163.241 91.213 134.146 103.611 122.812 108.638C147.881 103.301 166.875 84.797 170.109 60.6508C173.653 34.1807 154.68 10.058 131.027 -0.736615C143.923 6.81674 171.089 32.5785 167.379 60.2861L167.375 60.2782Z" fill="#2B242A"/>
<path d="M219.487 58.4366C220.554 58.5793 221.275 59.6811 221.116 60.8948L219.328 74.2174C219.17 75.431 218.172 76.299 217.117 76.1603C216.063 76.0215 215.33 74.9158 215.488 73.7021L217.276 60.3795C217.435 59.1658 218.429 58.2899 219.487 58.4366Z" fill="#2B242A"/>
<path d="M218.585 75.272L226.054 76.2706L228.134 60.7142L220.665 59.7156L218.585 75.272Z" fill="#161013"/>
<path d="M228.285 59.6137C229.344 59.7604 230.073 60.8582 229.914 62.0719L228.127 75.3945C227.968 76.6082 226.97 77.4761 225.915 77.3374C224.857 77.1907 224.128 76.0929 224.291 74.8872L226.078 61.5646C226.237 60.3509 227.235 59.483 228.289 59.6217L228.285 59.6137Z" fill="#2B242A"/>
<path d="M248.288 -1.51386C249.437 -3.81033 251.262 -5.2318 252.353 -4.68326L264.376 1.32672C265.475 1.87126 265.428 4.18308 264.28 6.47955C263.131 8.77603 261.305 10.1975 260.215 9.64895L248.191 3.63899C247.093 3.09444 247.139 0.782616 248.288 -1.51386Z" fill="#2B242A"/>
<path d="M265.112 8.50039C265.112 8.50039 265.619 4.10732 257.508 0.0489953C249.389 -4.00534 246.179 -0.955769 246.179 -0.955769C246.179 -0.955769 221.411 53.7523 217.925 60.7214C214.443 67.6984 227.769 76.1507 231.966 67.7409C236.172 59.3272 265.116 8.50835 265.116 8.50835L265.112 8.50039Z" fill="#A1D2D9"/>
<g style="mix-blend-mode:soft-light">
<path d="M247.708 0.0303058C243.419 9.4906 223.368 53.7076 220.264 59.9284C220.236 59.9722 220.228 60.016 220.204 60.0677C227.557 59.5108 249.097 0.897004 247.708 0.0303058Z" fill="white"/>
</g>
<g style="mix-blend-mode:multiply">
<path d="M248.051 1.56999C250.706 3.77297 252.784 6.51341 253.323 10.0146C254.002 14.4708 252.998 18.9636 251.774 23.2376C248.879 33.3537 245.06 42.9371 237.791 50.7358C232.438 56.4802 225.573 61.3501 217.535 61.792C215.776 68.5134 227.984 75.7249 231.966 67.741C236.172 59.3272 265.116 8.50842 265.116 8.50842C265.116 8.50842 265.623 4.11534 257.512 0.0570157C249.393 -3.99732 246.183 -0.947734 246.183 -0.947734C246.183 -0.947734 246.036 -0.625369 245.774 -0.0363419C246.586 0.452653 247.358 1.00134 248.059 1.58589L248.051 1.56999Z" fill="#BACDD8"/>
</g>
<g style="mix-blend-mode:soft-light">
<path d="M244.267 3.25507L261.807 2.81222C261.098 2.21177 260.246 1.60342 259.219 0.983234L245.138 1.33674C244.887 1.88995 244.601 2.53072 244.267 3.25507Z" fill="white"/>
<path d="M240.675 11.1831L263.924 10.598C264.476 9.6348 264.85 8.97009 265.013 8.67954L241.537 9.26873C241.259 9.88562 240.961 10.5224 240.671 11.1751L240.675 11.1831Z" fill="white"/>
<path d="M235.889 21.6981L257.929 21.1415C258.298 20.4888 258.664 19.848 259.018 19.2231L236.76 19.7798C236.47 20.4126 236.183 21.0534 235.885 21.6902L235.889 21.6981Z" fill="white"/>
<path d="M231.092 32.229L251.954 31.7049C252.319 31.0641 252.685 30.4232 253.035 29.7904L231.959 30.3226C231.668 30.9554 231.374 31.6002 231.084 32.233L231.092 32.229Z" fill="white"/>
<path d="M226.279 42.748L246.007 42.2443C246.364 41.6075 246.722 40.9707 247.088 40.3298L227.161 40.8336C226.867 41.4784 226.577 42.1112 226.287 42.744L226.279 42.748Z" fill="white"/>
<path d="M221.438 53.2709L240.107 52.7996C240.461 52.1747 240.815 51.5299 241.177 50.8812L222.333 51.3605C222.026 52.0212 221.728 52.658 221.45 53.2749L221.438 53.2709Z" fill="white"/>
<path d="M221.217 63.6801L234.288 63.355C234.614 62.754 234.959 62.1132 235.329 61.4405L217.615 61.8914L221.213 63.692L221.217 63.6801Z" fill="white"/>
</g>
<path d="M213.768 70.7426C209.881 78.5196 158.43 112.149 144.241 121.014C149.427 122.885 184.719 112.967 184.719 112.967C184.719 112.967 175.372 111.13 183.557 105.041C194.786 96.6836 208.126 87.3579 210.772 85.5062C215.004 82.5516 216.907 84.5043 216.968 88.5629C217.005 91.0219 217.571 107.435 217.412 121.962C217.336 129.244 210.172 125.607 210.172 125.607C210.172 125.607 226.395 173.354 228.232 162.992C225.425 143.731 222.545 85.6911 226.775 77.2455C231 68.7919 217.659 62.9736 213.772 70.7506L213.768 70.7426Z" fill="#259DAB"/>
<path d="M114.288 228.884L115.035 227.375L121.089 230.404L118.664 235.26C118.923 235.578 119.182 235.896 119.449 236.21L122.096 230.905L128.149 233.934L125.121 239.988L120.981 237.921C121.825 238.811 122.693 239.67 123.605 240.498L124.616 241.006L124.481 241.273C124.775 241.524 125.07 241.774 125.372 242.021L125.627 241.515L131.68 244.544L130.989 245.925C131.315 246.12 131.645 246.303 131.972 246.478L132.687 245.045L138.737 248.066L138.125 249.288C138.479 249.419 138.841 249.546 139.199 249.665L139.744 248.567L145.049 251.214C146.251 251.448 147.469 251.634 148.682 251.773L147.313 251.085L150.342 245.032L156.396 248.061L154.392 252.068C154.818 252.064 155.244 252.06 155.662 252.04L157.395 248.565L162.835 251.284C163.587 251.156 164.339 251.009 165.091 250.841L167.993 245.03L174.046 248.059L174.027 248.099C174.56 247.892 175.085 247.669 175.61 247.446L178.583 241.5L183.005 243.714C183.391 243.491 183.773 243.26 184.154 243.029L179.088 240.501L182.117 234.447L188.17 237.476L185.964 241.894C186.601 241.475 187.241 241.045 187.866 240.603L189.173 237.989L190.503 238.656C190.833 238.401 191.163 238.147 191.481 237.888L189.666 236.986L192.695 230.932L196.954 233.058C197.244 232.784 197.522 232.505 197.809 232.222L193.204 229.921L196.233 223.867L202.286 226.896L201.734 227.999C202.859 226.689 203.965 225.34 205.022 223.934L206.823 220.336L207.408 220.631C207.619 220.316 207.829 220.002 208.048 219.683L207.332 219.326L210.36 213.272L211.582 213.884C211.765 213.554 211.948 213.223 212.123 212.897L210.865 212.273L213.894 206.219L215.1 206.82C215.255 206.473 215.402 206.131 215.549 205.789L214.395 205.212L217.424 199.159L217.969 199.433C218.088 199.075 218.203 198.709 218.323 198.351L217.925 198.152L219.089 195.827C219.594 194.072 220.026 192.314 220.404 190.563L214.394 187.562L217.423 181.508L221.59 183.591C221.637 183.189 221.681 182.799 221.728 182.397L217.931 180.497L220.96 174.443L222.166 175.044C222.174 174.622 222.174 174.204 222.161 173.782L221.461 173.436L222.133 172.095C222.105 171.323 222.068 170.555 222.016 169.795L220.45 172.928L214.396 169.899L217.425 163.845L221.672 165.968C221.616 165.518 221.56 165.069 221.496 164.623L217.926 162.838L220.255 158.17C220.04 157.302 219.817 156.439 219.57 155.588L214.089 152.849L216.653 147.715C216.454 147.277 216.247 146.844 216.043 146.418L213.082 152.348L207.029 149.319L210.057 143.266L215.948 146.207C215.661 145.634 215.374 145.061 215.068 144.509L210.566 142.255L211.961 139.457C211.718 139.111 211.476 138.765 211.217 138.427L209.551 141.758L203.498 138.729L206.427 132.875C205.169 131.634 203.847 130.465 202.458 129.379L199.967 128.139L200.173 127.717C199.859 127.506 199.545 127.296 199.23 127.085L198.956 127.63L192.902 124.601L193.28 123.845C192.934 123.69 192.591 123.543 192.245 123.388L191.891 124.092L186.634 121.461C185.161 121.064 183.677 120.742 182.181 120.497L184.33 121.57L181.301 127.623L175.247 124.595L177.557 119.966C177.147 119.942 176.737 119.918 176.323 119.907L174.229 124.09L168.175 121.061L168.592 120.225C168.143 120.281 167.693 120.337 167.24 120.405L167.164 120.552L166.953 120.449C166.324 120.545 165.688 120.644 165.063 120.768L166.659 121.571L163.63 127.625L157.577 124.596L158.694 122.355C158.196 122.514 157.687 122.67 157.19 122.849L156.57 124.095L155.376 123.499C154.898 123.678 154.433 123.861 153.96 124.049L156.057 125.098L153.334 130.551L147.281 127.522L147.491 127.108C146.903 127.422 146.322 127.753 145.745 128.092L142.752 134.078L139.273 132.337C138.939 132.583 138.601 132.842 138.267 133.089L142.247 135.077L139.218 141.13L133.766 138.407L135.173 135.593C134.405 136.246 133.65 136.923 132.906 137.604L132.759 137.907L132.643 137.855C132.353 138.13 132.063 138.404 131.772 138.679L132.25 138.917L129.221 144.971L126.897 143.806C126.646 144.101 126.392 144.388 126.145 144.69L128.72 145.978L125.691 152.032L121.91 150.144C121.688 150.454 121.473 150.761 121.254 151.079L125.183 153.043L122.154 159.096L117.617 156.831C117.43 157.153 117.247 157.483 117.064 157.814L121.653 160.103L118.624 166.157L113.991 163.839C113.836 164.186 113.677 164.524 113.522 164.87L118.127 167.172L115.098 173.225L110.999 171.178C110.872 171.54 110.753 171.899 110.634 172.257L114.602 174.24L111.573 180.294L108.695 178.859C108.604 179.233 108.513 179.607 108.425 179.989L111.068 181.313L108.039 187.366L107.12 186.901C107.06 187.299 107.009 187.693 106.965 188.083L107.538 188.373L106.747 189.953C106.644 190.96 106.561 191.967 106.498 192.974L108.545 188.874L113.998 191.597L110.969 197.65L106.38 195.361C106.368 195.775 106.361 196.197 106.349 196.61L110.46 198.661L107.431 204.715L106.651 204.329C106.695 204.775 106.739 205.221 106.791 205.662L106.927 205.734L106.823 205.945C106.899 206.613 106.991 207.274 107.091 207.93L107.934 206.235L113.987 209.264L110.958 215.317L108.276 213.974C108.399 214.459 108.523 214.944 108.655 215.426L110.458 216.324L109.496 218.239C109.659 218.744 109.83 219.245 110.006 219.734L111.465 216.825L117.518 219.854L114.489 225.907L112.022 224.675C112.285 225.24 112.559 225.789 112.838 226.346L113.981 226.918L113.567 227.742C113.786 228.14 114.005 228.538 114.24 228.928L114.288 228.884ZM213.897 188.517L219.95 191.546L216.922 197.599L210.868 194.57L213.897 188.517ZM210.371 195.585L216.425 198.614L213.396 204.668L207.342 201.639L210.371 195.585ZM206.841 202.646L212.895 205.675L209.866 211.728L203.813 208.7L206.841 202.646ZM203.312 209.706L209.365 212.735L206.337 218.789L200.283 215.76L203.312 209.706ZM199.782 216.767L205.836 219.796L202.807 225.849L196.753 222.821L199.782 216.767ZM213.896 170.866L219.949 173.895L216.92 179.948L210.867 176.92L213.896 170.866ZM210.366 177.927L216.42 180.955L213.391 187.009L207.337 183.98L210.366 177.927ZM206.836 184.987L212.89 188.016L209.861 194.07L203.807 191.041L206.836 184.987ZM203.307 192.048L209.36 195.077L206.331 201.13L200.278 198.101L203.307 192.048ZM199.773 199.12L205.827 202.149L202.798 208.203L196.744 205.174L199.773 199.12ZM196.243 206.181L202.297 209.21L199.268 215.263L193.214 212.234L196.243 206.181ZM192.714 213.241L198.767 216.27L195.738 222.324L189.685 219.295L192.714 213.241ZM189.184 220.302L195.238 223.331L192.209 229.384L186.155 226.356L189.184 220.302ZM185.654 227.362L191.708 230.391L188.679 236.445L182.625 233.416L185.654 227.362ZM213.588 153.816L219.642 156.845L216.919 162.298L210.866 159.269L213.588 153.816ZM210.365 160.276L216.418 163.305L213.389 169.358L207.336 166.329L210.365 160.276ZM206.835 167.336L212.889 170.365L209.86 176.419L203.806 173.39L206.835 167.336ZM203.305 174.397L209.359 177.426L206.33 183.479L200.277 180.451L203.305 174.397ZM199.768 181.461L205.821 184.49L202.793 190.544L196.739 187.515L199.768 181.461ZM196.238 188.522L202.292 191.551L199.263 197.604L193.209 194.576L196.238 188.522ZM192.712 195.591L198.766 198.619L195.737 204.673L189.684 201.644L192.712 195.591ZM189.183 202.651L195.236 205.68L192.208 211.734L186.154 208.705L189.183 202.651ZM185.653 209.712L191.707 212.741L188.678 218.794L182.624 215.765L185.653 209.712ZM182.123 216.772L188.177 219.801L185.148 225.855L179.095 222.826L182.123 216.772ZM178.594 223.833L184.647 226.862L181.619 232.915L175.569 229.894L178.598 223.841L178.594 223.833ZM175.068 230.901L181.122 233.93L178.093 239.984L172.039 236.955L175.068 230.901ZM171.538 237.962L177.592 240.991L174.563 247.044L168.51 244.016L171.538 237.962ZM206.528 150.287L212.581 153.315L209.859 158.768L203.805 155.739L206.528 150.287ZM203.292 156.742L209.346 159.771L206.317 165.825L200.263 162.796L203.292 156.742ZM199.767 163.811L205.82 166.839L202.791 172.893L196.738 169.864L199.767 163.811ZM196.237 170.871L202.29 173.9L199.262 179.954L193.208 176.925L196.237 170.871ZM192.707 177.932L198.761 180.961L195.732 187.014L189.678 183.985L192.707 177.932ZM189.178 184.992L195.231 188.021L192.202 194.075L186.149 191.046L189.178 184.992ZM185.648 192.053L191.701 195.082L188.673 201.135L182.619 198.107L185.648 192.053ZM182.122 199.121L188.176 202.15L185.147 208.204L179.093 205.175L182.122 199.121ZM178.593 206.182L184.646 209.211L181.617 215.264L175.564 212.236L178.593 206.182ZM175.063 213.243L181.116 216.271L178.088 222.325L172.034 219.296L175.063 213.243ZM171.533 220.303L177.587 223.332L174.558 229.386L168.504 226.357L171.533 220.303ZM168.007 227.372L174.061 230.401L171.032 236.454L164.979 233.425L168.007 227.372ZM164.47 234.436L170.523 237.465L167.495 243.519L161.441 240.49L164.47 234.436ZM160.94 241.497L166.994 244.526L163.965 250.579L157.911 247.55L160.94 241.497ZM202.993 139.688L209.046 142.717L206.018 148.771L199.964 145.742L202.993 139.688ZM199.467 146.757L205.521 149.786L202.798 155.238L196.744 152.209L199.467 146.757ZM196.232 153.212L202.285 156.241L199.256 162.295L193.203 159.266L196.232 153.212ZM192.706 160.281L198.76 163.31L195.731 169.363L189.681 166.343L192.71 160.289L192.706 160.281ZM189.176 167.342L195.23 170.37L192.201 176.424L186.147 173.395L189.176 167.342ZM185.647 174.402L191.7 177.431L188.671 183.485L182.618 180.456L185.647 174.402ZM182.117 181.463L188.171 184.492L185.142 190.545L179.088 187.516L182.117 181.463ZM178.591 188.531L184.641 191.552L181.612 197.606L175.558 194.577L178.587 188.523L178.591 188.531ZM175.062 195.592L181.115 198.621L178.086 204.674L172.033 201.645L175.062 195.592ZM171.532 202.652L177.586 205.681L174.557 211.735L168.503 208.706L171.532 202.652ZM168.002 209.713L174.056 212.742L171.027 218.795L164.973 215.767L168.002 209.713ZM164.465 216.777L170.518 219.806L167.489 225.86L161.436 222.831L164.465 216.777ZM160.939 223.846L166.989 226.867L163.96 232.92L157.906 229.892L160.935 223.838L160.939 223.846ZM157.409 230.907L163.463 233.935L160.434 239.989L154.38 236.96L157.409 230.907ZM153.88 237.967L159.933 240.996L156.904 247.05L150.851 244.021L153.88 237.967ZM199.454 129.102L205.508 132.131L202.479 138.185L196.425 135.156L199.446 129.106L199.454 129.102ZM195.924 136.163L201.978 139.191L198.949 145.245L192.895 142.216L195.924 136.163ZM192.395 143.223L198.448 146.252L195.726 151.705L189.672 148.676L192.395 143.223ZM189.171 149.683L195.225 152.712L192.196 158.765L186.142 155.736L189.171 149.683ZM185.641 156.743L191.695 159.772L188.666 165.826L182.613 162.797L185.641 156.743ZM182.116 163.812L188.169 166.841L185.14 172.894L179.087 169.866L182.116 163.812ZM178.586 170.872L184.64 173.901L181.611 179.955L175.557 176.926L178.586 170.872ZM175.056 177.933L181.11 180.962L178.081 187.015L172.028 183.987L175.056 177.933ZM171.527 184.994L177.58 188.022L174.551 194.076L168.498 191.047L171.527 184.994ZM167.989 192.058L174.043 195.087L171.014 201.141L164.96 198.112L167.989 192.058ZM164.463 199.127L170.517 202.156L167.488 208.209L161.435 205.18L164.463 199.127ZM160.934 206.187L166.987 209.216L163.959 215.27L157.905 212.241L160.934 206.187ZM157.404 213.248L163.458 216.277L160.429 222.33L154.375 219.301L157.404 213.248ZM153.874 220.308L159.928 223.337L156.899 229.391L150.846 226.362L153.874 220.308ZM150.349 227.377L156.402 230.406L153.374 236.459L147.32 233.431L150.349 227.377ZM146.819 234.437L152.873 237.466L149.844 243.52L143.79 240.491L146.819 234.437ZM143.289 241.498L149.343 244.527L146.314 250.58L140.261 247.552L143.289 241.498ZM192.393 125.572L198.443 128.593L195.414 134.647L189.361 131.618L192.389 125.564L192.393 125.572ZM188.864 132.633L194.917 135.662L191.889 141.715L185.835 138.687L188.864 132.633ZM185.338 139.702L191.392 142.73L188.669 148.183L182.615 145.154L185.338 139.702ZM182.11 146.153L188.164 149.182L185.135 155.236L179.082 152.207L182.11 146.153ZM178.581 153.214L184.634 156.243L181.606 162.296L175.552 159.267L178.581 153.214ZM175.055 160.282L181.109 163.311L178.08 169.365L172.026 166.336L175.055 160.282ZM171.525 167.343L177.579 170.372L174.55 176.425L168.497 173.396L171.525 167.343ZM167.988 174.407L174.041 177.436L171.013 183.49L164.959 180.461L167.988 174.407ZM164.458 181.468L170.512 184.497L167.483 190.55L161.429 187.522L164.458 181.468ZM160.929 188.528L166.982 191.557L163.953 197.611L157.9 194.582L160.929 188.528ZM157.403 195.597L163.456 198.626L160.428 204.679L154.374 201.651L157.403 195.597ZM153.873 202.658L159.927 205.686L156.898 211.74L150.844 208.711L153.873 202.658ZM150.344 209.718L156.397 212.747L153.368 218.801L147.315 215.772L150.344 209.718ZM146.814 216.779L152.867 219.808L149.839 225.861L143.785 222.832L146.814 216.779ZM143.284 223.839L149.338 226.868L146.309 232.922L140.255 229.893L143.284 223.839ZM139.759 230.908L145.812 233.937L142.783 239.99L136.73 236.961L139.759 230.908ZM136.229 237.968L142.282 240.997L139.254 247.051L133.2 244.022L136.229 237.968ZM185.333 122.043L191.386 125.072L188.358 131.125L182.304 128.096L185.333 122.043ZM181.803 129.103L187.857 132.132L184.828 138.186L178.774 135.157L181.803 129.103ZM178.274 136.164L184.327 139.193L181.604 144.645L175.551 141.617L178.274 136.164ZM175.05 142.623L181.104 145.652L178.075 151.706L172.025 148.685L175.054 142.631L175.05 142.623ZM171.52 149.684L177.574 152.713L174.545 158.766L168.491 155.738L171.52 149.684ZM167.983 156.749L174.036 159.777L171.007 165.831L164.954 162.802L167.983 156.749ZM164.457 163.817L170.511 166.846L167.482 172.9L161.432 169.879L164.461 163.825L164.457 163.817ZM160.927 170.878L166.977 173.899L163.948 179.952L157.894 176.923L160.923 170.87L160.927 170.878ZM157.398 177.938L163.451 180.967L160.422 187.021L154.369 183.992L157.398 177.938ZM153.868 184.999L159.922 188.028L156.893 194.081L150.839 191.052L153.868 184.999ZM150.342 192.067L156.396 195.096L153.367 201.15L147.313 198.121L150.342 192.067ZM146.813 199.128L152.862 202.149L149.833 208.202L143.78 205.174L146.809 199.12L146.813 199.128ZM143.283 206.188L149.333 209.209L146.304 215.263L140.25 212.234L143.279 206.181L143.283 206.188ZM139.753 213.249L145.807 216.278L142.778 222.332L136.724 219.303L139.753 213.249ZM136.224 220.31L142.277 223.338L139.248 229.392L133.195 226.363L136.224 220.31ZM132.698 227.378L138.752 230.407L135.723 236.461L129.669 233.432L132.698 227.378ZM129.16 234.443L135.214 237.472L132.185 243.525L126.131 240.496L129.16 234.443ZM174.743 125.574L180.796 128.602L177.767 134.656L171.714 131.627L174.743 125.574ZM171.213 132.634L177.267 135.663L174.544 141.116L168.49 138.087L171.213 132.634ZM167.981 139.098L174.035 142.127L171.006 148.18L164.953 145.151L167.981 139.098ZM164.452 146.158L170.505 149.187L167.477 155.241L161.423 152.212L164.452 146.158ZM160.922 153.219L166.976 156.248L163.947 162.301L157.893 159.273L160.922 153.219ZM157.396 160.287L163.45 163.316L160.421 169.37L154.368 166.341L157.396 160.287ZM153.867 167.348L159.92 170.377L156.892 176.43L150.838 173.402L153.867 167.348ZM150.337 174.409L156.391 177.437L153.362 183.491L147.308 180.462L150.337 174.409ZM146.807 181.469L152.861 184.498L149.832 190.552L143.779 187.523L146.807 181.469ZM143.278 188.53L149.331 191.559L146.303 197.612L140.249 194.583L143.278 188.53ZM139.752 195.598L145.806 198.627L142.777 204.681L136.723 201.652L139.752 195.598ZM136.222 202.659L142.276 205.688L139.247 211.741L133.194 208.712L136.222 202.659ZM132.693 209.719L138.746 212.748L135.718 218.802L129.664 215.773L132.693 209.719ZM129.155 216.784L135.209 219.813L132.18 225.866L126.126 222.838L129.155 216.784ZM125.625 223.844L131.679 226.873L128.65 232.927L122.597 229.898L125.625 223.844ZM167.682 122.044L173.736 125.073L170.707 131.126L164.653 128.098L167.682 122.044ZM164.152 129.105L170.206 132.133L167.483 137.586L161.43 134.557L164.152 129.105ZM160.921 135.568L166.974 138.597L163.946 144.651L157.892 141.622L160.921 135.568ZM157.391 142.629L163.445 145.658L160.416 151.711L154.362 148.682L157.391 142.629ZM153.861 149.689L159.915 152.718L156.886 158.772L150.833 155.743L153.861 149.689ZM150.336 156.758L156.389 159.787L153.361 165.84L147.307 162.811L150.336 156.758ZM146.806 163.818L152.86 166.847L149.831 172.901L143.777 169.872L146.806 163.818ZM143.276 170.879L149.33 173.908L146.301 179.961L140.248 176.933L143.276 170.879ZM139.747 177.939L145.8 180.968L142.772 187.022L136.718 183.993L139.747 177.939ZM136.217 185L142.271 188.029L139.242 194.083L133.188 191.054L136.217 185ZM132.691 192.069L138.745 195.097L135.716 201.151L129.663 198.122L132.691 192.069ZM129.154 199.133L135.207 202.162L132.179 208.216L126.125 205.187L129.154 199.133ZM125.624 206.194L131.678 209.223L128.649 215.276L122.595 212.247L125.624 206.194ZM122.095 213.254L128.148 216.283L125.119 222.337L119.066 219.308L122.095 213.254ZM118.569 220.323L124.622 223.352L121.594 229.405L115.54 226.376L118.569 220.323ZM114.523 190.558L109.07 187.835L112.099 181.782L117.551 184.504L114.523 190.558ZM118.06 183.494L112.608 180.771L115.636 174.717L121.089 177.44L118.06 183.494ZM121.59 176.433L116.137 173.71L119.166 167.657L124.619 170.379L121.59 176.433ZM125.12 169.372L119.667 166.65L122.696 160.596L128.148 163.319L125.12 169.372ZM128.645 162.304L123.193 159.581L126.221 153.527L131.674 156.25L128.645 162.304ZM132.175 155.243L126.722 152.521L129.751 146.467L135.204 149.19L132.175 155.243ZM135.705 148.183L130.252 145.46L133.281 139.406L138.733 142.129L135.705 148.183ZM114.528 208.217L108.474 205.188L111.503 199.134L117.557 202.163L114.528 208.217ZM118.061 201.144L112.008 198.115L115.037 192.062L121.09 195.091L118.061 201.144ZM121.591 194.084L115.538 191.055L118.566 185.001L124.62 188.03L121.591 194.084ZM125.121 187.023L119.067 183.994L122.096 177.941L128.15 180.97L125.121 187.023ZM128.65 179.963L122.597 176.934L125.626 170.88L131.679 173.909L128.65 179.963ZM132.18 172.902L126.127 169.873L129.155 163.82L135.209 166.848L132.18 172.902ZM135.706 165.834L129.652 162.805L132.681 156.751L138.735 159.78L135.706 165.834ZM139.235 158.773L133.182 155.744L136.211 149.691L142.264 152.719L139.235 158.773ZM142.765 151.712L136.712 148.684L139.74 142.63L145.794 145.659L142.765 151.712ZM146.295 144.652L140.241 141.623L143.27 135.569L149.324 138.598L146.295 144.652ZM149.824 137.591L143.771 134.562L146.8 128.509L152.853 131.538L149.824 137.591ZM157.084 125.579L163.137 128.608L160.415 134.06L154.361 131.032L157.084 125.579ZM153.86 132.038L159.914 135.067L156.885 141.121L150.831 138.092L153.86 132.038ZM150.331 139.099L156.384 142.128L153.355 148.181L147.302 145.153L150.331 139.099ZM146.801 146.16L152.855 149.188L149.826 155.242L143.772 152.213L146.801 146.16ZM143.275 153.228L149.329 156.257L146.3 162.311L140.246 159.282L143.275 153.228ZM139.746 160.289L145.799 163.318L142.77 169.371L136.717 166.342L139.746 160.289ZM136.216 167.349L142.27 170.378L139.241 176.432L133.187 173.403L136.216 167.349ZM132.678 174.414L138.732 177.443L135.703 183.496L129.649 180.467L132.678 174.414ZM129.149 181.474L135.202 184.503L132.173 190.557L126.12 187.528L129.149 181.474ZM125.623 188.543L131.677 191.572L128.648 197.625L122.594 194.597L125.623 188.543ZM122.093 195.603L128.147 198.632L125.118 204.686L119.064 201.657L122.093 195.603ZM118.564 202.664L124.617 205.693L121.588 211.746L115.535 208.718L118.564 202.664ZM112.005 215.778L115.034 209.725L121.084 212.745L118.055 218.799L112.001 215.77L112.005 215.778Z" fill="#DADADA"/>
<path d="M107.62 162.581C107.541 162.741 107.473 162.904 107.406 163.067C107.295 163.322 107.187 163.584 107.068 163.843C106.977 164.058 106.877 164.277 106.79 164.5C106.73 164.639 106.675 164.786 106.607 164.929C106.472 165.256 106.341 165.59 106.206 165.916C106.202 165.928 106.198 165.94 106.194 165.952C106.162 166.028 106.13 166.104 106.098 166.179C106.075 166.231 106.055 166.291 106.035 166.35C105.777 167.007 105.526 167.66 105.288 168.316C105.276 168.352 105.264 168.388 105.248 168.416C104.255 171.102 103.401 173.808 102.682 176.506C93.9809 209.091 104.514 241.657 130.05 254.425C160.306 269.545 200.146 251.141 219.047 213.331C220.144 211.13 221.145 208.917 222.051 206.692C222.067 206.645 222.087 206.605 222.107 206.565C222.294 206.103 222.473 205.646 222.643 205.192C222.691 205.069 222.747 204.941 222.791 204.81C222.941 204.416 223.085 204.026 223.228 203.636C223.243 203.588 223.263 203.548 223.279 203.501C223.291 203.465 223.307 203.417 223.319 203.381C223.363 203.27 223.398 203.162 223.442 203.051C223.537 202.784 223.633 202.518 223.724 202.243C223.796 202.048 223.859 201.857 223.931 201.662C223.971 201.543 224.01 201.423 224.05 201.304C224.125 201.077 224.201 200.85 224.28 200.611C224.356 200.385 224.431 200.158 224.499 199.935C224.539 199.816 224.582 199.684 224.622 199.565C224.63 199.541 224.638 199.517 224.646 199.493C224.69 199.342 224.741 199.187 224.785 199.035C224.868 198.765 224.952 198.494 225.035 198.224C225.123 197.941 225.206 197.651 225.285 197.372C225.369 197.082 225.456 196.799 225.532 196.512C225.567 196.385 225.611 196.254 225.647 196.126C234.702 163.295 224.204 130.343 198.481 117.48C168.225 102.36 128.385 120.763 109.489 158.582C108.821 159.911 108.205 161.244 107.613 162.585L107.62 162.581ZM194.936 124.588C218.079 136.155 227.469 165.861 219.201 195.394C219.181 195.453 219.169 195.509 219.149 195.569C219.034 195.995 218.907 196.416 218.78 196.838C218.752 196.942 218.712 197.041 218.684 197.145C218.557 197.547 218.438 197.945 218.303 198.351C218.267 198.478 218.219 198.601 218.184 198.729C218.06 199.119 217.925 199.505 217.794 199.899C217.747 200.022 217.707 200.141 217.659 200.265C217.528 200.639 217.401 201.021 217.262 201.399C217.238 201.451 217.222 201.498 217.202 201.558C217.027 202.044 216.849 202.521 216.662 203.003C216.63 203.078 216.606 203.15 216.574 203.226C216.376 203.743 216.173 204.252 215.959 204.758C215.943 204.806 215.923 204.845 215.899 204.897C215.672 205.438 215.446 205.98 215.211 206.525C215.199 206.541 215.192 206.565 215.188 206.577C214.933 207.142 214.679 207.707 214.424 208.272C214.079 209.012 213.725 209.757 213.359 210.497C196.426 244.387 160.712 260.875 133.6 247.324C110.83 235.948 101.373 207.002 108.953 177.944C109.045 177.589 109.14 177.243 109.231 176.889C109.287 176.682 109.343 176.475 109.406 176.264C109.51 175.914 109.613 175.564 109.716 175.214C109.78 175.003 109.839 174.804 109.903 174.593C110.018 174.227 110.133 173.86 110.248 173.494C110.304 173.307 110.368 173.116 110.427 172.937C110.602 172.412 110.777 171.887 110.959 171.357C111.027 171.154 111.106 170.955 111.174 170.752C111.297 170.402 111.428 170.048 111.563 169.702C111.659 169.435 111.77 169.16 111.869 168.902C111.941 168.707 112.02 168.508 112.1 168.309C112.14 168.209 112.179 168.11 112.219 168.01C112.326 167.748 112.434 167.485 112.541 167.222C112.632 167.007 112.72 166.784 112.811 166.57C112.911 166.331 113.018 166.088 113.117 165.849C113.28 165.479 113.435 165.113 113.598 164.743C114.095 163.628 114.608 162.526 115.16 161.424C132.101 127.53 167.812 111.034 194.928 124.592L194.936 124.588Z" fill="#259DAB"/>
<g style="mix-blend-mode:soft-light">
<path d="M132.956 249.318C106.27 235.983 97.5328 199.054 112.715 165.822C112.25 166.681 111.789 167.549 111.348 168.437C94.7687 201.602 104.305 238.081 131.724 251.786C159.134 265.475 194.172 247.535 209.45 221.25C213.584 214.126 217.117 206.536 220.466 196.173C218.753 200.224 212.455 215.786 205.862 224.877C187.346 250.416 156.844 261.259 132.956 249.318Z" fill="white"/>
</g>
<g style="mix-blend-mode:multiply">
<path d="M196.942 119.793C224.862 133.744 227.151 165.285 228.22 177.635C231.302 152.191 219.965 128.216 198.175 117.325C174.287 105.384 145.313 115.502 127.429 134.376C138.764 124.622 171.94 107.296 196.942 119.793Z" fill="#9D9D9C"/>
</g>
<path d="M212.108 69.9119C212.585 68.9567 213.862 68.6257 214.961 69.1703L226.984 75.1803C228.083 75.7248 228.577 76.9501 228.1 77.9053C227.623 78.8605 226.346 79.1914 225.247 78.6469L213.224 72.6369C212.125 72.0923 211.631 70.8671 212.108 69.9119Z" fill="#2B242A"/>
<path d="M213.686 69.1863L227.733 76.2068L231.102 69.4658L217.055 62.4453L213.686 69.1863Z" fill="#161013"/>
<path d="M216.087 61.9598C216.564 61.0046 217.841 60.6737 218.94 61.2183L230.963 67.2282C232.062 67.7728 232.556 68.9981 232.079 69.9533C231.602 70.9085 230.325 71.2394 229.226 70.6948L217.203 64.6849C216.104 64.1403 215.61 62.915 216.087 61.9598Z" fill="#2B242A"/>
<path d="M196.643 49.1376C211.919 41.49 230.5 47.6796 238.143 62.947C245.787 78.2144 239.609 96.7995 224.334 104.447C209.059 112.095 190.477 105.905 182.834 90.6378C175.19 75.3704 181.368 56.7853 196.643 49.1376Z" fill="#D4D921"/>
<g style="mix-blend-mode:multiply">
<path d="M228.381 89.8937C223.439 97.0545 215.165 101.615 206.874 103.756C203.993 104.501 201.049 104.98 198.089 105.129C206.212 108.674 215.793 108.733 224.338 104.455C239.613 96.8073 245.791 78.2222 238.147 62.9549C235.709 58.0858 232.166 54.1485 227.967 51.2858C235.191 62.7336 236.217 78.5376 228.385 89.9017L228.381 89.8937Z" fill="#C1CCBC"/>
</g>
<g style="mix-blend-mode:multiply">
<path d="M241.228 80.1784C240.889 79.5419 240.423 78.9095 239.818 78.3766L239.58 78.1778L239.524 78.1261C239.568 78.1539 239.428 78.0545 239.432 78.0625L239.404 78.0466L239.309 77.975C239.174 77.8836 239.062 77.8001 238.907 77.6887C238.72 77.5735 238.525 77.4621 238.322 77.3548C238.131 77.2515 237.944 77.176 237.753 77.0925C236.208 76.4328 234.418 76.2746 232.731 76.4824C231.028 76.6782 229.381 77.1645 227.778 77.7781C226.166 78.3957 224.591 79.1644 223.044 80.0287C221.492 80.885 219.957 81.8328 218.422 82.8204C217.674 83.3142 216.906 83.808 216.142 84.3097C215.753 84.5646 215.403 84.7796 215.025 85.0186C214.651 85.2456 214.265 85.4686 213.883 85.6996C210.824 87.4798 207.475 88.9975 204.089 89.5086C203.241 89.6443 202.406 89.6845 201.578 89.681C200.751 89.6774 199.939 89.5863 199.151 89.4037C197.571 89.0703 196.091 88.3787 194.761 87.4125C193.424 86.4503 192.241 85.2015 191.194 83.8253L190.402 82.7196L189.756 81.6894C189.549 81.3155 189.35 80.9376 189.143 80.5636C188.968 80.1738 188.789 79.7959 188.613 79.406C187.94 77.8625 187.498 76.2433 187.278 74.612C187.054 72.9927 187.037 71.3494 187.303 69.7537C187.561 68.1619 187.986 66.586 188.654 65.1174C189.258 63.621 190.12 62.2438 191.003 60.9263L191.166 60.6756C191.09 60.7632 191.166 60.6756 191.146 60.6955L191.17 60.6636L191.218 60.6L191.313 60.4726L191.699 59.971C191.953 59.6446 192.212 59.3063 192.458 58.9838C192.959 58.2952 193.472 57.7697 193.973 57.2005C194.22 56.9178 194.478 56.6392 194.721 56.3685C194.975 56.1017 195.254 55.843 195.52 55.5802C195.787 55.3175 196.049 55.0666 196.316 54.8039C196.451 54.6765 196.578 54.5531 196.713 54.4257C196.853 54.3062 196.988 54.1987 197.127 54.0793C199.275 52.1682 201.482 50.6949 203.523 49.5439C205.572 48.3889 207.453 47.5563 209.036 46.9626C209.868 46.6558 210.934 46.0823 211.59 45.883C208.439 45.7692 204.237 46.1216 200.876 47.3966C199.05 48.4003 197.272 50.4742 195.343 51.9873C195.192 52.1027 195.033 52.2222 194.882 52.3377C194.735 52.4611 194.58 52.5885 194.437 52.7199C194.134 52.9707 193.836 53.2295 193.53 53.4923C193.224 53.755 192.909 54.0019 192.603 54.2846C192.301 54.5752 191.999 54.8658 191.696 55.1564C191.096 55.7456 190.444 56.3508 189.915 56.9638C189.64 57.2704 189.358 57.5809 189.076 57.8914L188.654 58.3611L188.543 58.4766L188.491 58.5323L188.467 58.5641C188.467 58.5641 188.491 58.5323 188.4 58.6477L188.193 58.9105C187.067 60.3196 185.962 61.8282 185.084 63.5516C184.145 65.2352 183.482 67.1295 183.017 69.1033C182.545 71.0812 182.459 73.1741 182.627 75.2392C182.819 77.3121 183.325 79.357 184.102 81.3063C185.72 85.1731 188.208 88.6534 191.819 91.2737C193.626 92.558 195.755 93.5317 198.003 93.9881C199.126 94.2223 200.268 94.3371 201.39 94.3325C202.516 94.3359 203.634 94.2438 204.708 94.0443C206.868 93.6691 208.897 92.9917 210.787 92.175C212.68 91.3663 214.435 90.3985 216.105 89.3829C216.523 89.1241 216.921 88.8652 217.334 88.5984C217.736 88.3277 218.162 88.0449 218.524 87.7941C219.268 87.2724 220.007 86.7428 220.735 86.2292C222.179 85.2178 223.599 84.278 225.007 83.4337C226.419 82.5974 227.8 81.8367 229.168 81.2311C230.529 80.6296 231.865 80.1793 233.115 79.9717C234.364 79.7642 235.49 79.8272 236.425 80.1451C236.537 80.1888 236.668 80.2325 236.76 80.2762C236.851 80.3199 236.943 80.3636 237.03 80.3994C237.142 80.463 237.301 80.5624 237.428 80.6379L237.528 80.6976L237.536 80.7135L237.663 80.8089C238.001 81.0674 238.28 81.3856 238.503 81.7515C238.734 82.1135 238.897 82.5391 239.033 82.9688C239.16 83.4024 239.264 83.848 239.308 84.2937C239.424 85.1809 239.413 86.0523 239.369 86.8402C239.338 87.3137 239.294 87.7435 239.243 88.1573C240.244 85.6062 240.903 82.928 241.208 80.1983L241.228 80.1784Z" fill="#C1CCBC"/>
</g>
<path d="M239.127 79.32L238.88 79.1053L238.824 79.0536C238.868 79.0814 238.729 78.982 238.729 78.982L238.701 78.9661L238.605 78.8945C238.466 78.7951 238.354 78.7116 238.187 78.5963C237.988 78.477 237.797 78.3538 237.594 78.2465C237.399 78.1351 237.212 78.0597 237.013 77.9603C235.449 77.2608 233.642 77.0708 231.947 77.2626C230.237 77.4426 228.582 77.9129 226.978 78.5265C225.367 79.1441 223.792 79.9129 222.241 80.7692C220.689 81.6255 219.154 82.5733 217.626 83.5768C216.879 84.0706 216.115 84.5723 215.351 85.0741C214.965 85.3369 214.611 85.544 214.233 85.7829C213.86 86.0099 213.478 86.2409 213.096 86.4719C210.041 88.26 206.687 89.7698 203.286 90.2491C202.434 90.3768 201.595 90.4091 200.759 90.3897C199.923 90.3702 199.108 90.2711 198.304 90.0766C196.708 89.7114 195.208 88.98 193.854 87.9661C192.493 86.9561 191.287 85.6596 190.211 84.2277L189.399 83.0822L188.734 82.0122C188.519 81.6224 188.316 81.2365 188.101 80.8467C187.922 80.4489 187.734 80.055 187.551 79.6493C186.85 78.0501 186.38 76.3752 186.14 74.7041C185.892 73.0371 185.852 71.346 186.098 69.7105C186.331 68.0711 186.74 66.4633 187.4 64.9589C187.996 63.4267 188.835 62.0217 189.706 60.6803L189.869 60.4295C189.793 60.5171 189.861 60.4335 189.853 60.4375L189.877 60.4057L189.924 60.342L190.02 60.2146L190.402 59.7051C190.652 59.3707 190.903 59.0364 191.153 58.702C191.65 58.0054 192.159 57.472 192.656 56.8947C192.903 56.6121 193.149 56.3295 193.396 56.0468C193.646 55.7722 193.925 55.5134 194.191 55.2506C194.458 54.9879 194.716 54.7291 194.983 54.4663C195.118 54.339 195.241 54.2076 195.376 54.0802C195.516 53.9607 195.647 53.8453 195.786 53.7258C197.922 51.7909 200.121 50.3017 202.162 49.1507C204.211 47.9957 206.092 47.1631 207.675 46.5694C208.507 46.2626 209.263 46.0234 209.911 45.8281C206.466 45.8817 202.996 46.5241 199.627 47.7832C197.801 48.7869 195.868 50.0134 193.955 51.5384C193.803 51.6538 193.644 51.7733 193.493 51.8887C193.346 52.0122 193.195 52.1475 193.048 52.271C192.749 52.5298 192.451 52.7885 192.145 53.0513C191.843 53.322 191.528 53.5689 191.222 53.8516C190.92 54.1422 190.622 54.4408 190.323 54.7394C189.727 55.3365 189.079 55.9496 188.554 56.5706C188.279 56.8771 188.001 57.1956 187.719 57.5061L187.297 57.9758L187.19 58.0993L187.138 58.155L187.114 58.1868C187.114 58.1868 187.138 58.155 187.047 58.2704L186.844 58.5411C185.73 59.9741 184.641 61.5146 183.778 63.2697C182.856 64.9852 182.213 66.9193 181.776 68.9488C181.327 70.9743 181.277 73.119 181.469 75.2517C181.689 77.3803 182.231 79.4969 183.036 81.5019C184.721 85.5038 187.274 89.1115 190.944 91.8511C192.783 93.199 194.94 94.2284 197.208 94.7246C198.342 94.9827 199.492 95.1134 200.622 95.1247C201.756 95.144 202.878 95.0599 203.96 94.8763C206.129 94.517 208.166 93.8555 210.055 93.0388C211.953 92.238 213.703 91.2623 215.37 90.2388C215.787 89.9799 216.185 89.7211 216.595 89.4463C216.997 89.1755 217.422 88.8928 217.78 88.634C218.52 88.1044 219.26 87.5748 219.988 87.0611C221.428 86.0418 222.844 85.094 224.252 84.2498C225.66 83.4055 227.048 82.6408 228.409 82.0392C229.769 81.4377 231.11 80.9953 232.367 80.8037C233.62 80.6041 234.758 80.691 235.702 81.0248C235.813 81.0685 235.944 81.1122 236.04 81.1639C236.131 81.2076 236.223 81.2513 236.314 81.295C236.426 81.3587 236.589 81.466 236.72 81.5495L236.824 81.6171L236.832 81.633L236.959 81.7284C237.302 81.9948 237.588 82.3289 237.819 82.7108C238.058 83.0887 238.226 83.5223 238.369 83.9679C238.505 84.4174 238.604 84.8749 238.664 85.3325C238.796 86.2516 238.792 87.1389 238.761 87.9506C238.733 88.4918 238.686 88.9931 238.638 89.4547C239.708 87.0787 240.474 84.5755 240.923 82.0128C240.819 81.7463 240.699 81.4678 240.556 81.2013C240.206 80.5211 239.712 79.8529 239.079 79.2842L239.127 79.32Z" fill="white"/>
<g style="mix-blend-mode:soft-light" opacity="0.4">
<path d="M192.48 54.5353C203.69 48.9231 217.336 53.464 222.948 64.6738C228.561 75.8837 224.02 89.53 212.81 95.1423C201.6 100.755 187.954 96.2136 182.341 85.0038C176.729 73.7939 181.27 60.1476 192.48 54.5353Z" fill="white"/>
</g>
<g style="mix-blend-mode:soft-light" opacity="0.4">
<path d="M204.759 56.8052C195.444 53.7053 185.379 58.7443 182.279 68.0599C179.179 77.3755 184.218 87.4403 193.534 90.5401C202.85 93.6399 212.914 88.601 216.014 79.2854C219.114 69.9697 214.075 59.905 204.759 56.8052Z" fill="white"/>
</g>
<g style="mix-blend-mode:soft-light" opacity="0.4">
<path d="M188.321 60.6373C194.575 57.5065 202.18 60.0372 205.31 66.2905C208.441 72.5438 205.911 80.149 199.657 83.2798C193.404 86.4105 185.799 83.8798 182.668 77.6265C179.537 71.3732 182.068 63.768 188.321 60.6373Z" fill="white"/>
</g>
</svg>
