<svg width="87" height="87" viewBox="0 0 87 87" fill="none" xmlns="http://www.w3.org/2000/svg">
<path d="M31.2311 15.7056C46.5064 8.05802 65.0875 14.2476 72.7312 29.515C80.3748 44.7824 74.1972 63.3675 58.9218 71.0151C43.6465 78.6627 25.0653 72.4731 17.4217 57.2058C9.77807 41.9384 15.9557 23.3533 31.2311 15.7056Z" fill="#D4D921" fill-opacity="0.2"/>
<g style="mix-blend-mode:multiply">
<path d="M62.9692 56.4617C58.027 63.6225 49.7531 68.1828 41.462 70.3238C38.5816 71.0694 35.6374 71.5484 32.6771 71.6972C40.8001 75.2422 50.3815 75.3008 58.9261 71.023C74.2015 63.3753 80.3791 44.7902 72.7355 29.5228C70.2978 24.6538 66.7545 20.7165 62.5551 17.8538C69.779 29.3016 70.8058 45.1056 62.9732 56.4697L62.9692 56.4617Z" fill="#C1CCBC" fill-opacity="0.2"/>
</g>
<g style="mix-blend-mode:multiply">
<path d="M75.8163 46.7464C75.4777 46.1099 75.0118 45.4775 74.4068 44.9446L74.1679 44.7458L74.1122 44.6941C74.156 44.7219 74.0167 44.6225 74.0206 44.6305L73.9928 44.6146L73.8972 44.543C73.7619 44.4516 73.6504 44.3681 73.4952 44.2567C73.3081 44.1414 73.1131 44.0301 72.9101 43.9228C72.7191 43.8194 72.532 43.744 72.341 43.6605C70.7968 43.0008 69.0062 42.8426 67.3192 43.0503C65.6163 43.2462 63.9692 43.7325 62.366 44.3461C60.7549 44.9637 59.1796 45.7324 57.6322 46.5967C56.0808 47.453 54.5454 48.4008 53.0101 49.3884C52.2623 49.8822 51.4946 50.3759 50.7309 50.8777C50.3411 51.1326 49.991 51.3476 49.6132 51.5865C49.2393 51.8135 48.8534 52.0366 48.4715 52.2676C45.4126 54.0478 42.0631 55.5655 38.6773 56.0766C37.8298 56.2123 36.9942 56.2525 36.1666 56.249C35.339 56.2454 34.5272 56.1543 33.7393 55.9717C32.1594 55.6383 30.6789 54.9467 29.3494 53.9805C28.012 53.0183 26.8296 51.7695 25.7824 50.3933L24.99 49.2876L24.3448 48.2574C24.1377 47.8834 23.9386 47.5055 23.7315 47.1316C23.5562 46.7418 23.377 46.3639 23.2017 45.974C22.5284 44.4305 22.0859 42.8113 21.8662 41.18C21.6425 39.5607 21.6258 37.9174 21.8915 36.3217C22.1493 34.7299 22.5743 33.154 23.242 31.6854C23.846 30.189 24.7087 28.8118 25.5914 27.4943L25.7544 27.2436C25.6788 27.3312 25.7544 27.2436 25.7345 27.2635L25.7584 27.2316L25.8061 27.1679L25.9015 27.0406L26.2872 26.539C26.5417 26.2126 26.8001 25.8743 27.0467 25.5518C27.5477 24.8632 28.0607 24.3377 28.5617 23.7685C28.8083 23.4858 29.0668 23.2071 29.3093 22.9364C29.5639 22.6697 29.8423 22.4109 30.1087 22.1482C30.3752 21.8854 30.6377 21.6346 30.9041 21.3719C31.0393 21.2445 31.1666 21.1211 31.3018 20.9937C31.441 20.8742 31.5762 20.7667 31.7155 20.6473C33.8631 18.7362 36.0707 17.2629 38.1113 16.1119C40.1599 14.9569 42.0415 14.1243 43.6248 13.5306C44.4563 13.2238 45.5224 12.6503 46.1788 12.451C43.0274 12.3372 38.8257 12.6896 35.4641 13.9646C33.6383 14.9683 31.8608 17.0422 29.9318 18.5553C29.7806 18.6707 29.6215 18.7902 29.4704 18.9056C29.3232 19.0291 29.1681 19.1565 29.0249 19.2879C28.7227 19.5387 28.4244 19.7975 28.1181 20.0603C27.8119 20.323 27.4977 20.5699 27.1914 20.8526C26.8892 21.1432 26.5869 21.4338 26.2847 21.7244C25.6842 22.3136 25.0319 22.9188 24.503 23.5318C24.2286 23.8384 23.9463 24.1489 23.664 24.4594L23.2424 24.9291L23.1311 25.0446L23.0794 25.1003L23.0555 25.1321C23.0555 25.1321 23.0794 25.1003 22.9879 25.2157L22.7812 25.4784C21.6558 26.8876 20.5505 28.3962 19.672 30.1196C18.7338 31.8032 18.0703 33.6975 17.6058 35.6713C17.1334 37.6491 17.0469 39.7421 17.2151 41.8071C17.4072 43.8801 17.9136 45.925 18.6905 47.8743C20.308 51.7411 22.7967 55.2214 26.407 57.8417C28.2141 59.1259 30.3434 60.0997 32.5917 60.5561C33.7139 60.7903 34.856 60.9051 35.978 60.9005C37.1041 60.9039 38.2221 60.8118 39.2964 60.6123C41.4568 60.2371 43.4857 59.5597 45.3753 58.743C47.2689 57.9343 49.0231 56.9664 50.6937 55.9509C51.1114 55.6921 51.5092 55.4332 51.9228 55.1664C52.3246 54.8957 52.7502 54.6129 53.1121 54.3621C53.8559 53.8404 54.5957 53.3108 55.3236 52.7972C56.7675 51.7857 58.1875 50.846 59.5956 50.0017C61.0077 49.1654 62.388 48.4047 63.7565 47.7991C65.117 47.1976 66.4537 46.7473 67.703 46.5397C68.9523 46.3322 70.0784 46.3952 71.0136 46.7131C71.125 46.7568 71.2564 46.8005 71.3479 46.8442C71.4394 46.8879 71.531 46.9316 71.6185 46.9674C71.73 47.031 71.8892 47.1304 72.0166 47.2059L72.1161 47.2656L72.124 47.2815L72.2514 47.3769C72.5898 47.6354 72.8685 47.9536 73.0915 48.3195C73.3224 48.6815 73.4858 49.1071 73.6213 49.5368C73.7489 49.9704 73.8525 50.416 73.8965 50.8617C74.0124 51.7489 74.0009 52.6203 73.9576 53.4082C73.926 53.8817 73.8824 54.3114 73.8309 54.7253C74.8323 52.1742 75.4914 49.496 75.7964 46.7663L75.8163 46.7464Z" fill="#C1CCBC" fill-opacity="0.2"/>
</g>
<path d="M73.7147 45.888L73.4679 45.6733L73.4122 45.6216C73.456 45.6494 73.3167 45.55 73.3167 45.55L73.2888 45.5341L73.1933 45.4625C73.0539 45.3631 72.9425 45.2796 72.7753 45.1643C72.5763 45.045 72.3852 44.9218 72.1822 44.8145C71.9872 44.7031 71.8002 44.6277 71.6012 44.5283C70.0371 43.8288 68.2305 43.6387 66.5355 43.8306C64.8247 44.0106 63.1697 44.4809 61.5665 45.0945C59.9553 45.7121 58.38 46.4809 56.8286 47.3372C55.2773 48.1935 53.7419 49.1413 52.2145 50.1448C51.4667 50.6386 50.703 51.1403 49.9393 51.6421C49.5534 51.9049 49.1994 52.112 48.8215 52.3509C48.4476 52.5779 48.0658 52.8089 47.6839 53.0399C44.629 54.828 41.2755 56.3378 37.8737 56.8171C37.0222 56.9448 36.1827 56.9771 35.3471 56.9576C34.5115 56.9382 33.6958 56.8391 32.8919 56.6446C31.2961 56.2793 29.7957 55.548 28.4423 54.5341C27.081 53.5241 25.8746 52.2276 24.7996 50.7957L23.9873 49.6502L23.3222 48.5802C23.1071 48.1903 22.904 47.8045 22.6889 47.4147C22.5097 47.0169 22.3225 46.623 22.1392 46.2173C21.4381 44.6181 20.9677 42.9432 20.7281 41.2721C20.4805 39.605 20.4398 37.914 20.6857 36.2785C20.9196 34.639 21.3286 33.0313 21.9883 31.5269C22.5844 29.9947 23.4232 28.5897 24.2939 27.2483L24.4569 26.9975C24.3814 27.0851 24.449 27.0015 24.441 27.0055L24.4649 26.9737L24.5126 26.91L24.608 26.7826L24.9897 26.2731C25.2402 25.9387 25.4907 25.6044 25.7412 25.27C26.2382 24.5734 26.7473 24.04 27.2443 23.4627C27.4909 23.1801 27.7374 22.8975 27.984 22.6148C28.2345 22.3402 28.5129 22.0814 28.7794 21.8186C29.0458 21.5559 29.3043 21.2971 29.5708 21.0343C29.706 20.9069 29.8293 20.7756 29.9645 20.6482C30.1037 20.5287 30.2349 20.4133 30.3742 20.2938C32.5099 18.3589 34.7095 16.8696 36.7501 15.7187C38.7987 14.5637 40.6803 13.7311 42.2636 13.1374C43.0951 12.8306 43.851 12.5914 44.4994 12.3961C41.0537 12.4497 37.5843 13.0921 34.2148 14.3512C32.3889 15.3549 30.4558 16.5814 28.5427 18.1063C28.3915 18.2218 28.2324 18.3413 28.0813 18.4567C27.9341 18.5802 27.783 18.7155 27.6359 18.839C27.3376 19.0977 27.0393 19.3565 26.733 19.6193C26.4308 19.89 26.1166 20.1369 25.8103 20.4196C25.5081 20.7102 25.2098 21.0088 24.9115 21.3074C24.315 21.9045 23.6667 22.5176 23.1418 23.1386C22.8674 23.4451 22.5891 23.7636 22.3067 24.0741L21.8852 24.5438L21.7778 24.6673L21.7261 24.723L21.7023 24.7548C21.7023 24.7548 21.7261 24.723 21.6347 24.8384L21.4319 25.1091C20.3185 26.5421 19.2291 28.0825 18.3666 29.8377C17.4443 31.5532 16.8007 33.4873 16.3641 35.5168C15.9155 37.5423 15.8649 39.687 16.057 41.8197C16.277 43.9483 16.8192 46.0649 17.624 48.0699C19.3092 52.0718 21.8616 55.6795 25.5317 58.4191C27.3707 59.767 29.5278 60.7964 31.7961 61.2926C32.9303 61.5507 34.0803 61.6814 35.2103 61.6927C36.3443 61.712 37.4664 61.6279 38.5486 61.4443C40.7169 61.085 42.7538 60.4235 44.6434 59.6068C46.541 58.806 48.2912 57.8302 49.9579 56.8068C50.3755 56.5479 50.7733 56.2891 51.183 56.0143C51.5847 55.7435 52.0103 55.4608 52.3683 55.202C53.1081 54.6724 53.8479 54.1428 54.5758 53.6291C56.0157 52.6098 57.4317 51.662 58.8398 50.8178C60.248 49.9735 61.6362 49.2088 62.9967 48.6072C64.3572 48.0057 65.6979 47.5633 66.9552 47.3717C68.2085 47.1721 69.3465 47.259 70.2897 47.5928C70.4011 47.6365 70.5325 47.6802 70.628 47.7319C70.7195 47.7756 70.8111 47.8193 70.9026 47.863C71.014 47.9266 71.1772 48.034 71.3086 48.1175L71.4121 48.1851L71.42 48.201L71.5474 48.2964C71.8898 48.5628 72.1764 48.8969 72.4074 49.2788C72.6463 49.6566 72.8137 50.0903 72.9572 50.5359C73.0927 50.9854 73.1924 51.4429 73.2523 51.9005C73.3841 52.8196 73.3806 53.7069 73.3492 54.5186C73.3216 55.0598 73.2741 55.5611 73.2266 56.0227C74.2957 53.6467 75.0624 51.1435 75.5106 48.5808C75.4071 48.3143 75.2875 48.0358 75.1442 47.7693C74.7937 47.0891 74.2999 46.4209 73.667 45.8522L73.7147 45.888Z" fill="white" fill-opacity="0.2"/>
<g style="mix-blend-mode:soft-light" opacity="0.4">
<path d="M27.0683 21.1033C38.2781 15.4911 51.9245 20.032 57.5367 31.2418C63.1489 42.4517 58.6081 56.098 47.3982 61.7103C36.1883 67.3225 22.542 62.7816 16.9298 51.5718C11.3175 40.3619 15.8584 26.7156 27.0683 21.1033Z" fill="white" fill-opacity="0.2"/>
</g>
<g style="mix-blend-mode:soft-light" opacity="0.4">
<path d="M39.3477 23.3732C30.0321 20.2733 19.9673 25.3122 16.8675 34.6279C13.7677 43.9435 18.8066 54.0083 28.1223 57.1081C37.4379 60.2079 47.5027 55.169 50.6025 45.8533C53.7023 36.5377 48.6634 26.473 39.3477 23.3732Z" fill="white" fill-opacity="0.2"/>
</g>
<g style="mix-blend-mode:soft-light" opacity="0.4">
<path d="M22.9091 27.2052C29.1624 24.0745 36.7676 26.6052 39.8983 32.8585C43.0291 39.1118 40.4984 46.717 34.2451 49.8477C27.9917 52.9785 20.3866 50.4478 17.2558 44.1945C14.1251 37.9412 16.6557 30.336 22.9091 27.2052Z" fill="white" fill-opacity="0.2"/>
</g>
</svg>
