<svg width="100" height="107" viewBox="0 0 100 107" fill="none" xmlns="http://www.w3.org/2000/svg">
<path d="M8.39979 42.5C9.39979 42.6 18.5998 43.9 23.2998 43.3C24.3998 43.2 25.2998 42.9 26.1998 42.5C29.1998 41.3 31.0998 38.9 32.3998 36.8C33.8998 40.2 35.0998 44.2 35.7998 47.5C34.7998 47 33.7998 46.4 32.5998 45.6C31.4998 44.9 30.2998 44.2 29.0998 43.5C28.4998 43.9 27.7998 44.3 26.9998 44.6C25.8998 45 24.7998 45.3 23.5998 45.5C21.3998 45.8 18.2998 45.7 15.3998 45.5C10.3998 51 8.89979 61.4 8.49979 64.9C8.39979 66.1 8.69979 67.3 9.39979 68.3H17.6998C18.1998 67.6 18.4998 66.8 18.5998 66C19.3998 58.7 21.8998 52.8 23.1998 51.9C23.9998 52 25.8998 53.2 27.1998 54.1C28.5998 55 30.2998 56 32.0998 56.9C32.3998 56.9 32.6998 56.8 32.9998 56.8H48.4998C50.3998 55.7 51.6998 54 52.4998 52C53.6998 48.8 53.0998 45.4 52.3998 43C50.8998 36.4 46.6998 26.3 44.3998 23.3C42.1998 20.4 37.7998 18.5 33.5998 20.8C33.0998 21.1 32.6998 21.4 32.1998 22C31.7998 22.5 28.5998 27.3 27.2998 30.2L27.0998 30.7C25.8998 33.5 24.7998 35.6 22.1998 36C19.0998 36.4 11.8998 35.6 9.39979 35.2C7.39979 34.9 5.59979 36.3 5.29979 38.3C5.09979 40.4 6.49979 42.3 8.39979 42.5Z" fill="#E9E100"/>
<path d="M24.1149 27.7992C28.8716 25.8613 31.1566 20.4343 29.2187 15.6776C27.2808 10.9209 21.8538 8.63585 17.0971 10.5738C12.3404 12.5117 10.0554 17.9387 11.9933 22.6954C13.9312 27.4521 19.3582 29.7371 24.1149 27.7992Z" fill="#E9E100"/>
<path d="M95 48.8H61.3C59.9 48.8 58.8 49.9 58.8 51.3V60.3H33.1C31.7 60.3 30.6 61.4 30.6 62.8V71.8001H5C3.6 71.8001 2.5 72.9001 2.5 74.3001V87.8001C2.5 89.2001 3.6 90.3001 5 90.3001H58.9H80.4H95C96.4 90.3001 97.5 89.2001 97.5 87.8001V51.3C97.5 49.9 96.4 48.8 95 48.8Z" fill="#E9E100"/>
<path d="M69.5999 27.8C70.7999 30.3 73.2999 32.1 76.1999 32.3V36.4001H74.1999C73.6999 36.4001 73.2999 36.8 73.2999 37.3V39.7001H70.3999C69.8999 39.7001 69.4999 40.1 69.4999 40.6V44.4001C69.4999 44.9001 69.8999 45.3 70.3999 45.3H85.8999C86.3999 45.3 86.7999 44.9001 86.7999 44.4001V40.6C86.7999 40.1 86.3999 39.7001 85.8999 39.7001H82.9999V37.3C82.9999 36.8 82.5999 36.4001 82.0999 36.4001H80.0999V32.3C82.9999 32.1 85.4999 30.3 86.6999 27.8C91.2999 27.2 94.8999 23.3 94.8999 18.5V15.3C94.8999 14.4 94.1999 13.7 93.2999 13.7H87.4999V10.7C87.4999 10.2 87.0999 9.80005 86.5999 9.80005H69.6999C69.1999 9.80005 68.7999 10.2 68.7999 10.7V13.7H62.9999C62.0999 13.7 61.3999 14.4 61.3999 15.3V18.5C61.3999 23.3 64.9999 27.2 69.5999 27.8ZM87.4999 16.9H91.6999V18.4C91.6999 21.1 89.8999 23.4 87.4999 24.2V16.9ZM73.8999 18.2L76.3999 17.7C76.4999 17.7 76.5999 17.6 76.6999 17.5L77.8999 15.3C77.9999 15 78.3999 15 78.5999 15.3L79.7999 17.5C79.8999 17.6 79.9999 17.7 80.0999 17.7L82.5999 18.2C82.8999 18.3 82.9999 18.6 82.7999 18.8L81.0999 20.6C80.9999 20.7 80.9999 20.8 80.9999 20.9L81.2999 23.4C81.2999 23.7 80.9999 23.9 80.7999 23.8L78.4999 22.7C78.3999 22.7 78.2999 22.7 78.1999 22.7L75.8999 23.8C75.5999 23.9 75.2999 23.7 75.3999 23.4L75.6999 20.9C75.6999 20.8 75.6999 20.7 75.5999 20.6L73.8999 18.8C73.4999 18.6 73.5999 18.2 73.8999 18.2ZM64.5999 16.9H68.7999V24.3C66.3999 23.5 64.5999 21.2 64.5999 18.5V16.9Z" fill="#E9E100"/>
</svg>
