<svg width="24" height="24" viewBox="0 0 24 24" fill="none" xmlns="http://www.w3.org/2000/svg">
<path d="M21.375 12C21.3752 14.4648 20.4048 16.8305 18.6737 18.5851C16.9426 20.3397 14.5902 21.342 12.1256 21.375H12C9.60663 21.38 7.30309 20.4639 5.56687 18.8166C5.34994 18.6117 5.22327 18.329 5.21474 18.0307C5.20622 17.7325 5.31653 17.443 5.52141 17.2261C5.72629 17.0092 6.00895 16.8825 6.30722 16.874C6.60549 16.8654 6.89494 16.9757 7.11188 17.1806C8.13023 18.142 9.40933 18.782 10.7893 19.0206C12.1694 19.2592 13.5891 19.0858 14.8711 18.522C16.1531 17.9583 17.2406 17.0292 17.9976 15.851C18.7546 14.6727 19.1475 13.2975 19.1274 11.8971C19.1072 10.4968 18.6748 9.13344 17.8842 7.97746C17.0935 6.82148 15.9798 5.92414 14.6821 5.39756C13.3843 4.87098 11.9602 4.73853 10.5876 5.01675C9.21507 5.29497 7.95493 5.97153 6.96469 6.96188C6.9525 6.97406 6.94125 6.98531 6.92813 6.99656L5.14594 8.625H6.75C7.04837 8.625 7.33452 8.74353 7.5455 8.9545C7.75647 9.16548 7.875 9.45163 7.875 9.75C7.875 10.0484 7.75647 10.3345 7.5455 10.5455C7.33452 10.7565 7.04837 10.875 6.75 10.875H2.25C1.95163 10.875 1.66548 10.7565 1.4545 10.5455C1.24353 10.3345 1.125 10.0484 1.125 9.75V5.25C1.125 4.95163 1.24353 4.66548 1.4545 4.45451C1.66548 4.24353 1.95163 4.125 2.25 4.125C2.54837 4.125 2.83452 4.24353 3.0455 4.45451C3.25647 4.66548 3.375 4.95163 3.375 5.25V7.1925L5.38875 5.34938C6.70209 4.04309 8.37297 3.15514 10.1905 2.79761C12.008 2.44008 13.8907 2.62899 15.601 3.3405C17.3113 4.05201 18.7724 5.25422 19.8001 6.7954C20.8277 8.33658 21.3757 10.1476 21.375 12Z" fill="#59BE19"/>
</svg>
