<svg width="71" height="70" viewBox="0 0 71 70" fill="none" xmlns="http://www.w3.org/2000/svg">
<rect y="0.975098" width="23.0111" height="22.0277" rx="3.14681" fill="#007206"/>
<g clip-path="url(#clip0_21_2833)">
<path d="M17.6475 18.0625C17.745 18.172 17.7814 18.2985 17.7285 18.345L17.152 18.855C17.0996 18.9016 16.9777 18.8505 16.8804 18.7406C16.7829 18.6312 16.7466 18.5041 16.7993 18.4581L17.3758 17.9481C17.4287 17.9017 17.5501 17.9526 17.6475 18.0625Z" fill="#2B242A"/>
<path d="M16.7509 18.7419C16.7509 18.7419 16.9734 18.8618 17.3627 18.5174C17.7519 18.1731 17.6591 17.9384 17.6591 17.9384C17.6591 17.9384 15.2859 15.4648 14.9901 15.1324C14.6944 14.7995 13.9598 15.3272 14.3163 15.7284C14.6728 16.1295 16.7503 18.7423 16.7503 18.7423L16.7509 18.7419Z" fill="#95C11F"/>
<g style="mix-blend-mode:soft-light">
<path d="M17.5739 18.0003C17.1637 17.5724 15.2454 15.5708 14.9815 15.2736C14.9794 15.2715 14.9772 15.2699 14.9757 15.2675C14.8475 15.6697 17.4983 18.0552 17.574 17.9998L17.5739 18.0003Z" fill="white"/>
</g>
<g style="mix-blend-mode:multiply">
<path d="M17.485 17.9838C17.3112 18.0781 17.1207 18.1304 16.9238 18.0846C16.6724 18.0262 16.4555 17.8778 16.2553 17.722C15.7805 17.3541 15.3531 16.9483 15.0949 16.3972C14.9046 15.9911 14.7935 15.5242 14.9423 15.0889C14.6232 14.8535 13.9781 15.3476 14.3167 15.7285C14.6732 16.1296 16.7507 18.7424 16.7507 18.7424C16.7507 18.7424 16.9732 18.8623 17.3625 18.5179C17.7517 18.1736 17.6589 17.9389 17.6589 17.9389C17.6589 17.9389 17.6448 17.9243 17.6196 17.8975C17.576 17.9301 17.5301 17.9595 17.4849 17.9843L17.485 17.9838Z" fill="#BBCBC8"/>
</g>
<g style="mix-blend-mode:soft-light">
<path d="M17.4801 17.7493L17.1287 18.6874C17.1752 18.663 17.2259 18.6307 17.2806 18.589L17.5628 17.8356C17.5388 17.8107 17.5111 17.7817 17.4801 17.7493Z" fill="white"/>
<path d="M17.1357 17.39L16.6695 18.6338C16.7088 18.683 16.7357 18.717 16.7475 18.732L17.2183 17.4762C17.1915 17.448 17.1642 17.4197 17.1357 17.39Z" fill="white"/>
<path d="M16.6779 16.9132L16.2362 18.092C16.2632 18.1255 16.2894 18.1583 16.3142 18.1902L16.7605 16.9995C16.7332 16.9711 16.7055 16.9422 16.6779 16.9132Z" fill="white"/>
<path d="M16.2208 16.4356L15.8024 17.5517C15.8286 17.5845 15.8548 17.6172 15.8806 17.6494L16.3034 16.5219C16.2758 16.4929 16.2486 16.4641 16.2209 16.4351L16.2208 16.4356Z" fill="white"/>
<path d="M15.7641 15.9575L15.3686 17.0128C15.3949 17.0451 15.4206 17.0778 15.4473 17.1107L15.8465 16.0448C15.819 16.0153 15.7913 15.9863 15.764 15.958L15.7641 15.9575Z" fill="white"/>
<path d="M15.3078 15.4769L14.9337 16.4753C14.9595 16.5074 14.9858 16.5397 15.0124 16.5726L15.3902 15.5641C15.3618 15.5339 15.3343 15.5045 15.3078 15.4769Z" fill="white"/>
<path d="M14.7587 15.2443L14.4968 15.943C14.5216 15.9729 14.5479 16.0052 14.5759 16.0389L14.9314 15.0913L14.7594 15.2439L14.7587 15.2443Z" fill="white"/>
</g>
<path d="M14.5362 14.6988C14.2066 14.3281 13.5245 10.8865 13.3585 9.94646C13.1481 10.1815 12.9177 12.2632 12.9177 12.2632C12.9177 12.2632 13.2158 11.8069 13.3637 12.37C13.5667 13.1426 13.7757 14.0478 13.8168 14.2276C13.8825 14.5147 13.7382 14.5738 13.5219 14.4912C13.3903 14.4408 12.5067 14.1228 11.7392 13.8067C11.3542 13.6481 11.7012 13.3457 11.7012 13.3457C11.7012 13.3457 8.81805 13.1939 9.32904 13.5106C10.412 13.7701 13.5546 14.8476 13.9131 15.2508C14.2717 15.6539 14.8666 15.0703 14.5372 14.6991L14.5362 14.6988Z" fill="#352E35"/>
<path d="M7.11572 11.7106C5.68 10.0943 5.57091 7.85204 6.87103 6.70197C8.10389 5.61154 10.1614 5.89471 11.595 7.30391C11.6761 7.21473 11.7527 7.11655 11.8416 7.03613C10.242 5.46308 7.94565 5.14663 6.57008 6.36372C5.11932 7.64683 5.24124 10.1487 6.84284 11.9518C7.03574 12.1686 7.24109 12.3654 7.45582 12.542C7.54089 12.4538 7.61157 12.3542 7.68619 12.2576C7.48572 12.095 7.29449 11.9128 7.1151 11.7109L7.11572 11.7106Z" fill="#95C11F"/>
<path d="M8.26567 6.06935L8.32979 6.14104L8.03918 6.39788L7.83319 6.16625C7.81091 6.17324 7.78802 6.18059 7.76611 6.1882L7.99076 6.4413L7.70015 6.69813L7.44368 6.40925L7.64206 6.23359C7.57669 6.25912 7.51216 6.28748 7.44911 6.31831L7.40032 6.36112L7.3889 6.34829C7.36945 6.35861 7.3495 6.3688 7.33041 6.37974L7.35203 6.40405L7.06142 6.66088L7.00271 6.59474C6.98571 6.60777 6.96908 6.62142 6.95196 6.63495L7.01276 6.70319L6.72216 6.96003L6.67032 6.9019C6.65565 6.91815 6.64161 6.93402 6.62731 6.95088L6.67386 7.00296L6.41926 7.22793C6.38101 7.28702 6.34511 7.34722 6.31204 7.40866L6.37783 7.35072L6.6343 7.63961L6.3437 7.89644L6.17407 7.70541C6.16518 7.72783 6.15665 7.75086 6.14825 7.7734L6.29553 7.93888L6.03471 8.16964C6.02584 8.2125 6.01696 8.25537 6.01006 8.29874L6.25597 8.57553L5.96536 8.83237L5.96376 8.83039C5.96335 8.8628 5.96392 8.89546 5.96449 8.92811L6.21653 9.21169L6.00463 9.39915C6.0082 9.42417 6.01227 9.44932 6.01634 9.47446L6.2594 9.2597L6.51587 9.54858L6.22526 9.80542L6.03856 9.59489C6.04711 9.63742 6.05603 9.68056 6.06618 9.72297L6.1771 9.84785L6.11317 9.90468C6.11947 9.92724 6.12615 9.95042 6.13295 9.97311L6.21984 9.89635L6.47631 10.1852L6.27198 10.3657C6.28076 10.3868 6.28906 10.4077 6.29797 10.4283L6.51869 10.2331L6.77516 10.522L6.48455 10.7788L6.43763 10.7261C6.48288 10.8141 6.5311 10.9007 6.58267 10.9865L6.7351 11.1585L6.70717 11.1835C6.7193 11.2018 6.73107 11.2194 6.74334 11.2372L6.77784 11.207L7.03431 11.4959L6.97584 11.5478C6.98947 11.5644 7.0031 11.5809 7.01673 11.5974L7.07718 11.5439L7.33365 11.8328L7.27593 11.8839C7.29092 11.8992 7.30591 11.9145 7.32091 11.9298L7.37652 11.8808L7.63299 12.1697L7.60655 12.1929C7.62291 12.207 7.63989 12.2207 7.65674 12.2349L7.67573 12.2182L7.774 12.3289C7.85645 12.3926 7.94027 12.453 8.02547 12.5101L8.31397 12.2553L8.57044 12.5442L8.3707 12.7211C8.39103 12.732 8.41087 12.7427 8.4312 12.7536L8.61318 12.5927L8.86965 12.8816L8.81193 12.9326C8.83424 12.9419 8.85668 12.9507 8.87863 12.9594L8.91252 12.9296L8.96914 12.9936C9.01046 13.0087 9.05202 13.0229 9.09371 13.0365L8.96118 12.8873L9.25179 12.6304L9.50826 12.9193L9.30455 13.0994C9.32972 13.1057 9.35489 13.1121 9.38006 13.1184L9.55125 12.9668L9.74901 13.1896C9.79976 13.1966 9.85063 13.2031 9.90089 13.2078L10.1637 12.9755L10.3811 13.2199C10.4088 13.2185 10.436 13.2169 10.4633 13.2149L10.212 12.9325L10.5026 12.6757L10.7591 12.9646L10.4765 13.2145C10.513 13.2116 10.5497 13.2078 10.5859 13.2037L10.8019 13.0126L10.9206 13.1462C10.9446 13.1407 10.9681 13.1351 10.9912 13.1289L10.8501 12.9702L11.1407 12.7133L11.3886 12.9927C11.4813 12.9526 11.5718 12.9071 11.6594 12.8562L11.7788 12.7509L11.7967 12.7712C11.8151 12.759 11.833 12.7467 11.8503 12.7343L11.8271 12.708L12.1177 12.4512L12.1499 12.4876C12.1653 12.4726 12.1807 12.4576 12.1962 12.4421L12.1665 12.4084L12.4191 12.185C12.4716 12.1153 12.5204 12.0437 12.5657 11.9696L12.463 12.0607L12.2066 11.7718L12.4972 11.515L12.6933 11.7358C12.7034 11.7147 12.7132 11.6931 12.7228 11.6719L12.5455 11.4721L12.8361 11.2153L12.8711 11.255C12.8775 11.2299 12.8839 11.2047 12.8904 11.1796L12.8842 11.1728L12.8944 11.1638C12.903 11.1282 12.9111 11.0925 12.9181 11.057L12.8414 11.1248L12.5849 10.8359L12.8755 10.5791L12.9701 10.6857C12.9725 10.6559 12.9745 10.6255 12.9764 10.5955L12.9238 10.5362L12.9809 10.4855C12.9814 10.4568 12.9821 10.4276 12.9816 10.3986L12.881 10.4877L12.6502 10.2278L12.9409 9.97095L12.9584 9.99057C12.9539 9.95273 12.9494 9.91489 12.9439 9.87681L12.6898 9.59113L12.8563 9.44364C12.8501 9.42059 12.8439 9.39754 12.8379 9.37399L12.6471 9.54263L12.3906 9.25374L12.652 9.02262L12.7715 9.157C12.7534 9.10263 12.7337 9.04838 12.7135 8.994L12.7008 8.97981L12.7063 8.97489C12.6981 8.95344 12.6898 8.93248 12.6812 8.9109L12.6581 8.93132L12.4016 8.64243L12.5131 8.54353C12.5029 8.52368 12.4927 8.50431 12.4824 8.48495L12.3587 8.59443L12.1023 8.30554L12.2835 8.14551C12.2719 8.12738 12.2602 8.10924 12.2481 8.09099L12.0599 8.25766L11.8034 7.96877L12.0208 7.77639C12.0078 7.75949 11.9942 7.74296 11.9807 7.72593L11.7606 7.92077L11.5041 7.63188L11.7263 7.43495C11.7114 7.41915 11.6969 7.40397 11.6821 7.38818L11.4613 7.58339L11.2049 7.2945L11.4013 7.12045C11.385 7.10588 11.3685 7.0923 11.3522 7.07822L11.162 7.24649L10.9055 6.95761L11.0435 6.83546C11.0257 6.82262 11.0075 6.80965 10.9897 6.7973L10.8627 6.9096L10.6062 6.62072L10.6504 6.58148C10.6307 6.57023 10.611 6.55899 10.5911 6.54824L10.5633 6.57271L10.4965 6.49719C10.4451 6.47012 10.3934 6.44453 10.3414 6.41992L10.515 6.61564L10.2536 6.84677L9.99713 6.55788L10.2171 6.36354C10.1954 6.35389 10.1736 6.34473 10.1513 6.33546L9.95426 6.50988L9.69779 6.22099L9.73516 6.1879C9.71073 6.18072 9.68618 6.17402 9.66162 6.16733L9.65542 6.17311L9.64645 6.16299C9.60956 6.1532 9.57204 6.14377 9.5349 6.13496L9.60663 6.21592L9.31602 6.47275L9.05955 6.18386L9.18804 6.06984C9.15964 6.06585 9.13112 6.06235 9.10309 6.05898L9.01681 6.13537L8.93562 6.04417C8.90511 6.04227 8.87509 6.0405 8.84495 6.03922L8.96852 6.1783L8.67791 6.43513L8.42144 6.14624L8.53962 6.04169C8.5039 6.04373 8.46904 6.04651 8.43357 6.04965L8.37845 6.09873L8.34332 6.05949C8.31735 6.0624 8.29176 6.06594 8.26604 6.06996L8.26567 6.06935ZM8.27221 12.2071L7.98161 12.4639L7.72514 12.175L8.01575 11.9182L8.27221 12.2071ZM7.97288 11.8702L7.68227 12.127L7.4258 11.8381L7.71641 11.5813L7.97288 11.8702ZM7.67354 11.5333L7.38293 11.7901L7.12646 11.5012L7.41707 11.2444L7.67354 11.5333ZM7.3742 11.1964L7.08359 11.4532L6.82712 11.1643L7.11773 10.9075L7.3742 11.1964ZM7.07536 10.8596L6.78475 11.1165L6.52828 10.8276L6.81889 10.5707L7.07536 10.8596ZM9.2093 12.581L8.91869 12.8378L8.66222 12.5489L8.95283 12.2921L9.2093 12.581ZM8.91045 12.2442L8.61984 12.501L8.36338 12.2121L8.65398 11.9553L8.91045 12.2442ZM8.61111 11.9073L8.32051 12.1641L8.06404 11.8753L8.35465 11.6184L8.61111 11.9073ZM8.31178 11.5704L8.02117 11.8273L7.7647 11.5384L8.05531 11.2815L8.31178 11.5704ZM8.01244 11.2335L7.72183 11.4904L7.46536 11.2015L7.75597 10.9446L8.01244 11.2335ZM7.7131 10.8966L7.42249 11.1535L7.16602 10.8646L7.45663 10.6078L7.7131 10.8966ZM7.41376 10.5597L7.12315 10.8166L6.86668 10.5277L7.15729 10.2709L7.41376 10.5597ZM7.11492 10.223L6.82431 10.4798L6.56784 10.1909L6.85845 9.93409L7.11492 10.223ZM6.81558 9.88609L6.52497 10.1429L6.2685 9.85404L6.55911 9.5972L6.81558 9.88609ZM10.1212 12.926L9.83059 13.1828L9.5998 12.9229L9.8904 12.6661L10.1212 12.926ZM9.84753 12.6181L9.55693 12.8749L9.30046 12.586L9.59107 12.3292L9.84753 12.6181ZM9.5482 12.2812L9.25759 12.538L9.00112 12.2492L9.29173 11.9923L9.5482 12.2812ZM9.24935 11.9444L8.95874 12.2013L8.70227 11.9124L8.99288 11.6556L9.24935 11.9444ZM8.95001 11.6075L8.65941 11.8644L8.40294 11.5755L8.69354 11.3187L8.95001 11.6075ZM8.65068 11.2707L8.36007 11.5275L8.1036 11.2386L8.39421 10.9818L8.65068 11.2707ZM8.35134 10.9338L8.06073 11.1906L7.80426 10.9017L8.09487 10.6449L8.35134 10.9338ZM8.052 10.5969L7.76139 10.8537L7.50492 10.5648L7.79553 10.308L8.052 10.5969ZM7.75266 10.26L7.46205 10.5168L7.20558 10.2279L7.49619 9.9711L7.75266 10.26ZM7.45382 9.92322L7.16321 10.1801L6.90674 9.89117L7.19735 9.63433L7.45382 9.92322ZM7.15448 9.58633L6.86387 9.84316L6.6074 9.55428L6.89801 9.29744L7.15448 9.58633ZM6.85514 9.24944L6.56453 9.50627L6.30806 9.21738L6.59867 8.96055L6.85514 9.24944ZM6.5558 8.91255L6.26519 9.16938L6.00872 8.88049L6.29933 8.62366L6.5558 8.91255ZM10.4601 12.6262L10.1695 12.8831L9.93869 12.6232L10.2293 12.3663L10.4601 12.6262ZM10.1864 12.3183L9.89583 12.5752L9.63936 12.2863L9.92997 12.0294L10.1864 12.3183ZM9.8871 11.9814L9.59649 12.2383L9.34002 11.9494L9.63063 11.6926L9.8871 11.9814ZM9.58825 11.6447L9.29764 11.9015L9.04117 11.6126L9.33178 11.3558L9.58825 11.6447ZM9.28891 11.3078L8.99831 11.5646L8.74184 11.2757L9.03244 11.0189L9.28891 11.3078ZM8.98957 10.9709L8.69897 11.2277L8.4425 10.9388L8.73311 10.682L8.98957 10.9709ZM8.69024 10.634L8.39963 10.8908L8.14316 10.602L8.43377 10.3451L8.69024 10.634ZM8.3909 10.2971L8.10029 10.5539L7.84382 10.2651L8.13443 10.0082L8.3909 10.2971ZM8.09156 9.96022L7.80095 10.2171L7.54448 9.92817L7.83509 9.67134L8.09156 9.96022ZM7.79272 9.62346L7.50211 9.88029L7.24564 9.5914L7.53625 9.33457L7.79272 9.62346ZM7.49338 9.28657L7.20277 9.5434L6.9463 9.25451L7.23691 8.99768L7.49338 9.28657ZM7.19391 8.95017L6.9033 9.207L6.64684 8.91811L6.93744 8.66128L7.19391 8.95017ZM6.89457 8.61328L6.60397 8.87011L6.3475 8.58122L6.6381 8.32439L6.89457 8.61328ZM6.59524 8.27639L6.30463 8.53322L6.04816 8.24433L6.33877 7.9875L6.59524 8.27639ZM11.0982 12.6638L10.8076 12.9207L10.5511 12.6318L10.8417 12.375L11.0982 12.6638ZM10.7989 12.327L10.5083 12.5838L10.2775 12.3239L10.5681 12.0671L10.7989 12.327ZM10.5252 12.0191L10.2346 12.2759L9.97813 11.987L10.2687 11.7302L10.5252 12.0191ZM10.2259 11.6822L9.93526 11.939L9.67879 11.6501L9.9694 11.3933L10.2259 11.6822ZM9.92653 11.3453L9.63592 11.6021L9.37945 11.3132L9.67006 11.0564L9.92653 11.3453ZM9.62769 11.0085L9.33708 11.2653L9.08061 10.9765L9.37122 10.7196L9.62769 11.0085ZM9.32835 10.6716L9.03774 10.9285L8.78127 10.6396L9.07188 10.3827L9.32835 10.6716ZM9.02901 10.3347L8.7384 10.5916L8.48193 10.3027L8.77254 10.0458L9.02901 10.3347ZM8.72967 9.99784L8.43906 10.2547L8.18259 9.96579L8.4732 9.70896L8.72967 9.99784ZM8.43033 9.66095L8.13972 9.91779L7.88326 9.6289L8.17386 9.37207L8.43033 9.66095ZM8.13149 9.32419L7.84088 9.58102L7.58441 9.29213L7.87502 9.0353L8.13149 9.32419ZM7.83215 8.9873L7.54154 9.24413L7.28507 8.95524L7.57568 8.69841L7.83215 8.9873ZM7.53281 8.65041L7.2422 8.90724L6.98573 8.61835L7.27634 8.36152L7.53281 8.65041ZM7.23347 8.31351L6.94287 8.57035L6.6864 8.28146L6.977 8.02463L7.23347 8.31351ZM6.93414 7.97662L6.64353 8.23346L6.38706 7.94457L6.67767 7.68774L6.93414 7.97662ZM11.7365 12.701L11.4458 12.9578L11.1894 12.6689L11.48 12.4121L11.7365 12.701ZM11.4371 12.3641L11.1465 12.6209L10.89 12.332L11.1806 12.0752L11.4371 12.3641ZM11.1378 12.0272L10.8472 12.284L10.6164 12.0241L10.907 11.7673L11.1378 12.0272ZM10.8641 11.7193L10.5735 11.9761L10.317 11.6872L10.6076 11.4304L10.8641 11.7193ZM10.5648 11.3824L10.2742 11.6392L10.0177 11.3504L10.3083 11.0935L10.5648 11.3824ZM10.2654 11.0455L9.97482 11.3024L9.71835 11.0135L10.009 10.7566L10.2654 11.0455ZM9.96659 10.7088L9.67598 10.9656L9.41951 10.6767L9.71012 10.4199L9.96659 10.7088ZM9.66725 10.3719L9.37664 10.6287L9.12017 10.3398L9.41078 10.083L9.66725 10.3719ZM9.36791 10.035L9.0773 10.2918L8.82083 10.0029L9.11144 9.74608L9.36791 10.035ZM9.06857 9.69808L8.77796 9.95491L8.52149 9.66603L8.8121 9.40919L9.06857 9.69808ZM8.76923 9.36119L8.47862 9.61802L8.22216 9.32914L8.51276 9.0723L8.76923 9.36119ZM8.47039 9.02442L8.17978 9.28126L7.92331 8.99237L8.21392 8.73554L8.47039 9.02442ZM8.17105 8.68753L7.88044 8.94437L7.62397 8.65548L7.91458 8.39865L8.17105 8.68753ZM7.87171 8.35064L7.5811 8.60748L7.32463 8.31859L7.61524 8.06176L7.87171 8.35064ZM7.57237 8.01375L7.28176 8.27059L7.0253 7.9817L7.3159 7.72486L7.57237 8.01375ZM7.27303 7.67686L6.98243 7.9337L6.72596 7.64481L7.01657 7.38797L7.27303 7.67686ZM6.9737 7.33997L6.68309 7.5968L6.42662 7.30792L6.71723 7.05108L6.9737 7.33997ZM12.0754 12.4012L11.7847 12.658L11.5283 12.3692L11.8189 12.1123L12.0754 12.4012ZM11.776 12.0643L11.4854 12.3212L11.2289 12.0323L11.5195 11.7754L11.776 12.0643ZM11.4767 11.7274L11.1861 11.9843L10.9553 11.7244L11.2459 11.4675L11.4767 11.7274ZM11.203 11.4195L10.9124 11.6764L10.6559 11.3875L10.9465 11.1307L11.203 11.4195ZM10.9037 11.0826L10.6131 11.3395L10.3566 11.0506L10.6472 10.7938L10.9037 11.0826ZM10.6048 10.7459L10.3142 11.0027L10.0577 10.7138L10.3484 10.457L10.6048 10.7459ZM10.3055 10.409L10.0149 10.6658L9.75841 10.3769L10.049 10.1201L10.3055 10.409ZM10.0061 10.0721L9.71554 10.3289L9.45907 10.04L9.74968 9.78321L10.0061 10.0721ZM9.70681 9.73521L9.4162 9.99204L9.15973 9.70316L9.45034 9.44632L9.70681 9.73521ZM9.40747 9.39832L9.11686 9.65515L8.86039 9.36626L9.151 9.10943L9.40747 9.39832ZM9.10813 9.06143L8.81752 9.31826L8.56105 9.02937L8.85166 8.77254L9.10813 9.06143ZM8.80929 8.72466L8.51868 8.98149L8.26221 8.69261L8.55282 8.43577L8.80929 8.72466ZM8.50995 8.38777L8.21934 8.6446L7.96287 8.35572L8.25348 8.09888L8.50995 8.38777ZM8.21061 8.05088L7.92 8.30771L7.66353 8.01883L7.95414 7.76199L8.21061 8.05088ZM7.91127 7.71399L7.62066 7.97082L7.3642 7.68194L7.6548 7.4251L7.91127 7.71399ZM7.61193 7.3771L7.32133 7.63393L7.06486 7.34505L7.35546 7.08821L7.61193 7.3771ZM7.3126 7.04021L7.02199 7.29704L6.76552 7.00815L7.05613 6.75132L7.3126 7.04021ZM12.4142 12.1014L12.1236 12.3583L11.8672 12.0694L12.1578 11.8126L12.4142 12.1014ZM12.1149 11.7646L11.8243 12.0214L11.5678 11.7325L11.8584 11.4757L12.1149 11.7646ZM11.8156 11.4277L11.525 11.6845L11.2942 11.4246L11.5848 11.1678L11.8156 11.4277ZM11.5419 11.1198L11.2513 11.3766L10.9948 11.0877L11.2854 10.8309L11.5419 11.1198ZM11.2426 10.7829L10.952 11.0397L10.6955 10.7508L10.9861 10.494L11.2426 10.7829ZM10.9432 10.446L10.6526 10.7028L10.3962 10.4139L10.6868 10.1571L10.9432 10.446ZM10.6444 10.1092L10.3538 10.3661L10.0973 10.0772L10.3879 9.82034L10.6444 10.1092ZM10.345 9.77234L10.0544 10.0292L9.79797 9.74028L10.0886 9.48345L10.345 9.77234ZM10.0457 9.43545L9.7551 9.69228L9.49863 9.40339L9.78924 9.14656L10.0457 9.43545ZM9.74637 9.09856L9.45576 9.35539L9.19929 9.0665L9.4899 8.80967L9.74637 9.09856ZM9.44703 8.76166L9.15642 9.0185L8.89995 8.72961L9.19056 8.47278L9.44703 8.76166ZM9.14769 8.42477L8.85709 8.68161L8.60062 8.39272L8.89122 8.13589L9.14769 8.42477ZM8.84885 8.08801L8.55824 8.34484L8.30177 8.05595L8.59238 7.79912L8.84885 8.08801ZM8.54951 7.75112L8.2589 8.00795L8.00243 7.71906L8.29304 7.46223L8.54951 7.75112ZM8.25017 7.41423L7.95956 7.67106L7.70309 7.38217L7.9937 7.12534L8.25017 7.41423ZM7.95083 7.07734L7.66023 7.33417L7.40376 7.04528L7.69436 6.78845L7.95083 7.07734ZM7.6515 6.74044L7.36089 6.99728L7.10442 6.70839L7.39503 6.45156L7.6515 6.74044ZM12.4537 11.4653L12.1631 11.7221L11.9066 11.4332L12.1972 11.1764L12.4537 11.4653ZM12.1545 11.1279L11.8639 11.3847L11.6331 11.1248L11.9237 10.868L12.1545 11.1279ZM11.8808 10.82L11.5902 11.0768L11.3337 10.788L11.6243 10.5311L11.8808 10.82ZM11.5815 10.4831L11.2909 10.74L11.0344 10.4511L11.325 10.1942L11.5815 10.4831ZM11.2821 10.1462L10.9915 10.4031L10.7351 10.1142L11.0257 9.85734L11.2821 10.1462ZM10.9833 9.80946L10.6927 10.0663L10.4362 9.77741L10.7268 9.52058L10.9833 9.80946ZM10.6839 9.47257L10.3933 9.72941L10.1369 9.44052L10.4275 9.18369L10.6839 9.47257ZM10.3846 9.13568L10.094 9.39252L9.83753 9.10363L10.1281 8.8468L10.3846 9.13568ZM10.0853 8.79879L9.79466 9.05563L9.53819 8.76674L9.8288 8.50991L10.0853 8.79879ZM9.78593 8.4619L9.49532 8.71874L9.23885 8.42985L9.52946 8.17302L9.78593 8.4619ZM9.48659 8.12501L9.19598 8.38185L8.93952 8.09296L9.23012 7.83613L9.48659 8.12501ZM9.18762 7.78874L8.89701 8.04557L8.64054 7.75668L8.93115 7.49985L9.18762 7.78874ZM8.88841 7.45135L8.5978 7.70819L8.34133 7.4193L8.63194 7.16247L8.88841 7.45135ZM8.58907 7.11446L8.29846 7.3713L8.04199 7.08241L8.3326 6.82558L8.58907 7.11446ZM8.28961 6.77807L7.999 7.0349L7.74253 6.74601L8.03314 6.48918L8.28961 6.77807ZM12.7926 11.1655L12.502 11.4224L12.2455 11.1335L12.5361 10.8766L12.7926 11.1655ZM12.4932 10.8286L12.2026 11.0855L11.9718 10.8256L12.2624 10.5687L12.4932 10.8286ZM12.2197 10.5202L11.9291 10.7771L11.6726 10.4882L11.9632 10.2314L12.2197 10.5202ZM11.9204 10.1834L11.6298 10.4402L11.3733 10.1513L11.6639 9.89447L11.9204 10.1834ZM11.6209 9.84696L11.3303 10.1038L11.0738 9.81491L11.3644 9.55807L11.6209 9.84696ZM11.3217 9.50958L11.0311 9.76641L10.7746 9.47752L11.0652 9.22069L11.3217 9.50958ZM11.0228 9.17281L10.7322 9.42964L10.4758 9.14076L10.7664 8.88392L11.0228 9.17281ZM10.7234 8.83641L10.4328 9.09325L10.1763 8.80436L10.4669 8.54753L10.7234 8.83641ZM10.424 8.49952L10.1334 8.75636L9.87697 8.46747L10.1676 8.21064L10.424 8.49952ZM10.1247 8.16263L9.8341 8.41947L9.57763 8.13058L9.86823 7.87375L10.1247 8.16263ZM9.82537 7.82574L9.53476 8.08257L9.27829 7.79369L9.5689 7.53685L9.82537 7.82574ZM9.52652 7.48897L9.23591 7.74581L8.97944 7.45692L9.27005 7.20009L9.52652 7.48897ZM9.22718 7.15208L8.93657 7.40892L8.68011 7.12003L8.97071 6.8632L9.22718 7.15208ZM8.92784 6.81519L8.63724 7.07203L8.38077 6.78314L8.67138 6.52631L8.92784 6.81519ZM8.62851 6.4783L8.3379 6.73514L8.08143 6.44625L8.37204 6.18942L8.62851 6.4783ZM10.2955 6.89452L10.5569 6.6634L10.8134 6.95229L10.5519 7.18341L10.2955 6.89452ZM10.5943 7.23129L10.8558 7.00016L11.1122 7.28905L10.8508 7.52018L10.5943 7.23129ZM10.8937 7.56818L11.1551 7.33706L11.4116 7.62594L11.1501 7.85707L10.8937 7.56818ZM11.193 7.90507L11.4544 7.67395L11.7109 7.96283L11.4495 8.19396L11.193 7.90507ZM11.4923 8.24196L11.7538 8.01084L12.0102 8.29972L11.7488 8.53085L11.4923 8.24196ZM11.7917 8.57885L12.0531 8.34773L12.3096 8.63661L12.0481 8.86774L11.7917 8.57885ZM12.091 8.91574L12.3525 8.68462L12.6089 8.9735L12.3475 9.20463L12.091 8.91574ZM9.3579 6.52051L9.64851 6.26367L9.90498 6.55256L9.61437 6.80939L9.3579 6.52051ZM9.65724 6.8574L9.94785 6.60056L10.2043 6.88945L9.91371 7.14628L9.65724 6.8574ZM9.95658 7.19429L10.2472 6.93745L10.5037 7.22634L10.2131 7.48317L9.95658 7.19429ZM10.2559 7.53118L10.5465 7.27434L10.803 7.56323L10.5124 7.82006L10.2559 7.53118ZM10.5548 7.86794L10.8454 7.61111L11.1018 7.9L10.8112 8.15683L10.5548 7.86794ZM10.8541 8.20484L11.1447 7.948L11.4012 8.23689L11.1106 8.49372L10.8541 8.20484ZM11.1534 8.54173L11.444 8.28489L11.7005 8.57378L11.4099 8.83061L11.1534 8.54173ZM11.4528 8.87862L11.7434 8.62178L11.9999 8.91067L11.7092 9.1675L11.4528 8.87862ZM11.7521 9.21551L12.0427 8.95867L12.2992 9.24756L12.0086 9.50439L11.7521 9.21551ZM12.051 9.55227L12.3416 9.29544L12.598 9.58433L12.3074 9.84116L12.051 9.55227ZM12.3503 9.88916L12.6409 9.63233L12.8974 9.92122L12.6068 10.178L12.3503 9.88916ZM12.8321 10.5289L12.5415 10.7857L12.3107 10.5258L12.6013 10.269L12.8321 10.5289ZM12.5586 10.2205L12.268 10.4773L12.0115 10.1884L12.3021 9.9316L12.5586 10.2205ZM12.2591 9.88409L11.9685 10.1409L11.7121 9.85204L12.0027 9.5952L12.2591 9.88409ZM11.9598 9.5472L11.6692 9.80403L11.4127 9.51515L11.7033 9.25831L11.9598 9.5472ZM11.661 9.21043L11.3703 9.46727L11.1139 9.17838L11.4045 8.92155L11.661 9.21043ZM11.3616 8.87354L11.071 9.13037L10.8145 8.84149L11.1051 8.58465L11.3616 8.87354ZM11.0623 8.53665L10.7717 8.79348L10.5152 8.5046L10.8058 8.24776L11.0623 8.53665ZM10.7629 8.19976L10.4723 8.45659L10.2159 8.16771L10.5065 7.91087L10.7629 8.19976ZM10.4636 7.86287L10.173 8.1197L9.91653 7.83082L10.2071 7.57398L10.4636 7.86287ZM10.1643 7.52598L9.87366 7.78281L9.61719 7.49393L9.9078 7.23709L10.1643 7.52598ZM9.86542 7.18921L9.57481 7.44605L9.31834 7.15716L9.60895 6.90033L9.86542 7.18921ZM9.56608 6.85232L9.27547 7.10915L9.01901 6.82027L9.30961 6.56344L9.56608 6.85232ZM9.01028 6.22654L9.26674 6.51543L8.97614 6.77226L8.71967 6.48338L9.01028 6.22654Z" fill="#9D9D9C"/>
<path d="M11.6715 6.87494C11.6152 6.98609 11.554 7.0939 11.4815 7.19467C11.6018 7.30511 11.718 7.42343 11.8298 7.549C13.2654 9.16524 13.375 11.4076 12.0745 12.5575C10.8892 13.6058 8.94146 13.3843 7.51879 12.1131C7.44564 12.2122 7.356 12.3244 7.27835 12.3877C8.86693 13.8169 11.0484 14.0689 12.3749 12.8956C13.8256 11.6125 13.7037 9.11075 12.1021 7.30763C11.9648 7.15307 11.8206 7.00834 11.6712 6.87433L11.6715 6.87494Z" fill="#352E35"/>
<path d="M7.21488 11.8096L6.98903 12.1006C7.18798 12.3085 7.39903 12.4958 7.61846 12.6626L7.84405 12.3726C7.62349 12.208 7.41257 12.0203 7.21524 11.8102L7.21488 11.8096Z" fill="#D1D1D1"/>
<path d="M11.7003 7.41827L11.926 7.12772C11.7256 6.92157 11.513 6.73599 11.2926 6.57099L11.0662 6.8619C11.2879 7.02408 11.501 7.20978 11.7003 7.41827Z" fill="#D1D1D1"/>
<g style="mix-blend-mode:soft-light">
<path d="M6.77864 6.6259C8.05828 5.49428 10.2054 5.81307 11.6439 7.32206C11.6082 7.27901 11.5718 7.23633 11.5349 7.19402C10.1297 5.61216 7.98928 5.34536 6.6744 6.50797C5.35951 7.67058 5.56065 9.9082 6.62801 11.2752C6.91705 11.6456 7.245 11.9932 7.72251 12.3905C7.54398 12.2141 6.8537 11.5505 6.51257 11.0082C5.55448 9.48517 5.63277 7.63912 6.77877 6.62541L6.77864 6.6259Z" fill="white"/>
</g>
<path d="M12.2884 12.7653C10.9497 13.9496 9.22678 13.4024 8.54823 13.1978C9.83226 13.9005 11.3474 13.8073 12.3926 12.8832C13.5383 11.8701 13.6225 10.12 13.0046 8.77226C13.279 9.57925 13.4876 11.7053 12.2882 12.7658L12.2884 12.7653Z" fill="#2B242A"/>
<path d="M14.6219 14.6289C14.6627 14.6748 14.6526 14.7493 14.6002 14.7959L14.0233 15.3056C13.971 15.3522 13.8953 15.3526 13.8549 15.3073C13.8145 15.2621 13.8243 15.1869 13.8766 15.1403L14.4535 14.6306C14.5058 14.584 14.5817 14.5831 14.6219 14.6289Z" fill="#2B242A"/>
<path d="M13.952 15.3235L14.2378 15.6444L14.9117 15.0498L14.6259 14.7289L13.952 15.3235Z" fill="#161013"/>
<path d="M14.9594 15.0078C14.9996 15.0535 14.99 15.1281 14.9376 15.1747L14.3608 15.6845C14.3084 15.7311 14.2327 15.7315 14.1923 15.6862C14.152 15.6404 14.1617 15.5658 14.2139 15.5197L14.7908 15.0099C14.8431 14.9633 14.9188 14.963 14.9592 15.0082L14.9594 15.0078Z" fill="#2B242A"/>
</g>
<rect y="23.9862" width="23.0111" height="22.0277" rx="3.14681" fill="#007206"/>
<g clip-path="url(#clip1_21_2833)">
<path d="M17.6475 41.0736C17.745 41.183 17.7814 41.3096 17.7285 41.3561L17.152 41.8661C17.0996 41.9127 16.9777 41.8616 16.8804 41.7517C16.7829 41.6423 16.7466 41.5152 16.7993 41.4692L17.3758 40.9592C17.4287 40.9127 17.5501 40.9637 17.6475 41.0736Z" fill="#2B242A"/>
<path d="M16.7509 41.753C16.7509 41.753 16.9734 41.8729 17.3627 41.5285C17.7519 41.1842 17.6591 40.9495 17.6591 40.9495C17.6591 40.9495 15.2859 38.4759 14.9901 38.1435C14.6944 37.8106 13.9598 38.3383 14.3163 38.7394C14.6728 39.1406 16.7503 41.7533 16.7503 41.7533L16.7509 41.753Z" fill="#95C11F"/>
<g style="mix-blend-mode:soft-light">
<path d="M17.5739 41.0113C17.1637 40.5835 15.2454 38.5819 14.9815 38.2847C14.9794 38.2826 14.9772 38.281 14.9757 38.2785C14.8475 38.6808 17.4983 41.0663 17.574 41.0108L17.5739 41.0113Z" fill="white"/>
</g>
<g style="mix-blend-mode:multiply">
<path d="M17.485 40.9949C17.3112 41.0892 17.1207 41.1415 16.9238 41.0957C16.6724 41.0372 16.4555 40.8889 16.2553 40.7331C15.7805 40.3652 15.3531 39.9594 15.0949 39.4082C14.9046 39.0022 14.7935 38.5352 14.9423 38.1C14.6232 37.8646 13.9781 38.3587 14.3167 38.7396C14.6732 39.1407 16.7507 41.7535 16.7507 41.7535C16.7507 41.7535 16.9732 41.8734 17.3625 41.529C17.7517 41.1846 17.6589 40.9499 17.6589 40.9499C17.6589 40.9499 17.6448 40.9354 17.6196 40.9086C17.576 40.9412 17.5301 40.9706 17.4849 40.9954L17.485 40.9949Z" fill="#BBCBC8"/>
</g>
<g style="mix-blend-mode:soft-light">
<path d="M17.4801 40.7604L17.1287 41.6985C17.1752 41.6741 17.2259 41.6418 17.2806 41.6001L17.5628 40.8467C17.5388 40.8218 17.5111 40.7928 17.4801 40.7604Z" fill="white"/>
<path d="M17.1357 40.4011L16.6695 41.6449C16.7088 41.6941 16.7357 41.7281 16.7475 41.7431L17.2183 40.4873C17.1915 40.4591 17.1642 40.4308 17.1357 40.4011Z" fill="white"/>
<path d="M16.6779 39.9243L16.2362 41.1031C16.2632 41.1366 16.2894 41.1694 16.3142 41.2013L16.7605 40.0106C16.7332 39.9822 16.7055 39.9533 16.6779 39.9243Z" fill="white"/>
<path d="M16.2208 39.4467L15.8024 40.5628C15.8286 40.5956 15.8548 40.6283 15.8806 40.6605L16.3034 39.533C16.2758 39.504 16.2486 39.4752 16.2209 39.4462L16.2208 39.4467Z" fill="white"/>
<path d="M15.7641 38.9686L15.3686 40.0239C15.3949 40.0562 15.4206 40.0889 15.4473 40.1218L15.8465 39.0559C15.819 39.0264 15.7913 38.9974 15.764 38.9691L15.7641 38.9686Z" fill="white"/>
<path d="M15.3078 38.488L14.9337 39.4864C14.9595 39.5185 14.9858 39.5508 15.0124 39.5837L15.3902 38.5752C15.3618 38.545 15.3343 38.5156 15.3078 38.488Z" fill="white"/>
<path d="M14.7587 38.2554L14.4968 38.9542C14.5216 38.984 14.5479 39.0163 14.5759 39.05L14.9314 38.1024L14.7594 38.255L14.7587 38.2554Z" fill="white"/>
</g>
<path d="M14.5362 37.7099C14.2066 37.3392 13.5245 33.8976 13.3585 32.9575C13.1481 33.1926 12.9177 35.2743 12.9177 35.2743C12.9177 35.2743 13.2158 34.818 13.3637 35.3811C13.5667 36.1537 13.7757 37.0589 13.8168 37.2387C13.8825 37.5258 13.7382 37.5849 13.5219 37.5023C13.3903 37.4519 12.5067 37.1339 11.7392 36.8178C11.3542 36.6592 11.7012 36.3568 11.7012 36.3568C11.7012 36.3568 8.81805 36.205 9.32904 36.5217C10.412 36.7812 13.5546 37.8587 13.9131 38.2619C14.2717 38.665 14.8666 38.0814 14.5372 37.7102L14.5362 37.7099Z" fill="#352E35"/>
<path d="M7.11572 34.7217C5.68 33.1054 5.57091 30.8631 6.87103 29.7131C8.10389 28.6226 10.1614 28.9058 11.595 30.315C11.6761 30.2258 11.7527 30.1276 11.8416 30.0472C10.242 28.4742 7.94565 28.1577 6.57008 29.3748C5.11932 30.6579 5.24124 33.1597 6.84284 34.9629C7.03574 35.1797 7.24109 35.3765 7.45582 35.5531C7.54089 35.4649 7.61157 35.3652 7.68619 35.2687C7.48572 35.1061 7.29449 34.9238 7.1151 34.722L7.11572 34.7217Z" fill="#95C11F"/>
<path d="M8.26567 29.0804L8.32979 29.1521L8.03918 29.409L7.83319 29.1773C7.81091 29.1843 7.78802 29.1917 7.76611 29.1993L7.99076 29.4524L7.70015 29.7092L7.44368 29.4203L7.64206 29.2447C7.57669 29.2702 7.51216 29.2986 7.44911 29.3294L7.40032 29.3722L7.3889 29.3594C7.36945 29.3697 7.3495 29.3799 7.33041 29.3908L7.35203 29.4151L7.06142 29.672L7.00271 29.6058C6.98571 29.6188 6.96908 29.6325 6.95196 29.646L7.01276 29.7143L6.72216 29.9711L6.67032 29.913C6.65565 29.9292 6.64161 29.9451 6.62731 29.962L6.67386 30.014L6.41926 30.239C6.38101 30.2981 6.34511 30.3583 6.31204 30.4197L6.37783 30.3618L6.6343 30.6507L6.3437 30.9075L6.17407 30.7165C6.16518 30.7389 6.15665 30.7619 6.14825 30.7845L6.29553 30.95L6.03471 31.1807C6.02584 31.2236 6.01696 31.2665 6.01006 31.3098L6.25597 31.5866L5.96536 31.8434L5.96376 31.8415C5.96335 31.8739 5.96392 31.9065 5.96449 31.9392L6.21653 32.2228L6.00463 32.4102C6.0082 32.4353 6.01227 32.4604 6.01634 32.4855L6.2594 32.2708L6.51587 32.5597L6.22526 32.8165L6.03856 32.606C6.04711 32.6485 6.05603 32.6916 6.06618 32.734L6.1771 32.8589L6.11317 32.9158C6.11947 32.9383 6.12615 32.9615 6.13295 32.9842L6.21984 32.9074L6.47631 33.1963L6.27198 33.3768C6.28076 33.3978 6.28906 33.4188 6.29797 33.4394L6.51869 33.2442L6.77516 33.5331L6.48455 33.7899L6.43763 33.7372C6.48288 33.8252 6.5311 33.9117 6.58267 33.9976L6.7351 34.1696L6.70717 34.1946C6.7193 34.2128 6.73107 34.2305 6.74334 34.2482L6.77784 34.2181L7.03431 34.507L6.97584 34.5589C6.98947 34.5754 7.0031 34.592 7.01673 34.6085L7.07718 34.555L7.33365 34.8439L7.27593 34.8949C7.29092 34.9102 7.30591 34.9255 7.32091 34.9408L7.37652 34.8919L7.63299 35.1808L7.60655 35.204C7.62291 35.2181 7.63989 35.2318 7.65674 35.246L7.67573 35.2293L7.774 35.34C7.85645 35.4037 7.94027 35.4641 8.02547 35.5211L8.31397 35.2664L8.57044 35.5553L8.3707 35.7322C8.39103 35.743 8.41087 35.7538 8.4312 35.7647L8.61318 35.6038L8.86965 35.8927L8.81193 35.9437C8.83424 35.953 8.85668 35.9618 8.87863 35.9704L8.91252 35.9407L8.96914 36.0047C9.01046 36.0198 9.05202 36.0339 9.09371 36.0476L8.96118 35.8984L9.25179 35.6415L9.50826 35.9304L9.30455 36.1105C9.32972 36.1168 9.35489 36.1231 9.38006 36.1295L9.55125 35.9779L9.74901 36.2007C9.79976 36.2076 9.85063 36.2141 9.90089 36.2189L10.1637 35.9865L10.3811 36.231C10.4088 36.2296 10.436 36.228 10.4633 36.226L10.212 35.9436L10.5026 35.6868L10.7591 35.9757L10.4765 36.2256C10.513 36.2227 10.5497 36.2188 10.5859 36.2148L10.8019 36.0237L10.9206 36.1573C10.9446 36.1518 10.9681 36.1462 10.9912 36.1399L10.8501 35.9812L11.1407 35.7244L11.3886 36.0038C11.4813 35.9636 11.5718 35.9182 11.6594 35.8673L11.7788 35.762L11.7967 35.7823C11.8151 35.7701 11.833 35.7578 11.8503 35.7454L11.8271 35.7191L12.1177 35.4623L12.1499 35.4987C12.1653 35.4837 12.1807 35.4686 12.1962 35.4531L12.1665 35.4195L12.4191 35.1961C12.4716 35.1264 12.5204 35.0548 12.5657 34.9807L12.463 35.0718L12.2066 34.7829L12.4972 34.5261L12.6933 34.7469C12.7034 34.7258 12.7132 34.7041 12.7228 34.683L12.5455 34.4832L12.8361 34.2263L12.8711 34.2661C12.8775 34.2409 12.8839 34.2158 12.8904 34.1907L12.8842 34.1839L12.8944 34.1749C12.903 34.1393 12.9111 34.1036 12.9181 34.0681L12.8414 34.1359L12.5849 33.847L12.8755 33.5902L12.9701 33.6968C12.9725 33.667 12.9745 33.6365 12.9764 33.6066L12.9238 33.5472L12.9809 33.4966C12.9814 33.4679 12.9821 33.4386 12.9816 33.4097L12.881 33.4987L12.6502 33.2389L12.9409 32.982L12.9584 33.0016C12.9539 32.9638 12.9494 32.926 12.9439 32.8879L12.6898 32.6022L12.8563 32.4547C12.8501 32.4317 12.8439 32.4086 12.8379 32.3851L12.6471 32.5537L12.3906 32.2648L12.652 32.0337L12.7715 32.1681C12.7534 32.1137 12.7337 32.0595 12.7135 32.0051L12.7008 31.9909L12.7063 31.986C12.6981 31.9645 12.6898 31.9436 12.6812 31.922L12.6581 31.9424L12.4016 31.6535L12.5131 31.5546C12.5029 31.5348 12.4927 31.5154 12.4824 31.496L12.3587 31.6055L12.1023 31.3166L12.2835 31.1566C12.2719 31.1385 12.2602 31.1203 12.2481 31.1021L12.0599 31.2687L11.8034 30.9799L12.0208 30.7875C12.0078 30.7706 11.9942 30.754 11.9807 30.737L11.7606 30.9318L11.5041 30.643L11.7263 30.446C11.7114 30.4302 11.6969 30.4151 11.6821 30.3993L11.4613 30.5945L11.2049 30.3056L11.4013 30.1315C11.385 30.117 11.3685 30.1034 11.3522 30.0893L11.162 30.2576L10.9055 29.9687L11.0435 29.8465C11.0257 29.8337 11.0075 29.8207 10.9897 29.8084L10.8627 29.9207L10.6062 29.6318L10.6504 29.5926C10.6307 29.5813 10.611 29.5701 10.5911 29.5593L10.5633 29.5838L10.4965 29.5083C10.4451 29.4812 10.3934 29.4556 10.3414 29.431L10.515 29.6267L10.2536 29.8578L9.99713 29.569L10.2171 29.3746C10.1954 29.365 10.1736 29.3558 10.1513 29.3465L9.95426 29.521L9.69779 29.2321L9.73516 29.199C9.71073 29.1918 9.68618 29.1851 9.66162 29.1784L9.65542 29.1842L9.64645 29.1741C9.60956 29.1643 9.57204 29.1549 9.5349 29.146L9.60663 29.227L9.31602 29.4838L9.05955 29.1949L9.18804 29.0809C9.15964 29.0769 9.13112 29.0734 9.10309 29.0701L9.01681 29.1464L8.93562 29.0552C8.90511 29.0534 8.87509 29.0516 8.84495 29.0503L8.96852 29.1894L8.67791 29.4462L8.42144 29.1573L8.53962 29.0528C8.5039 29.0548 8.46904 29.0576 8.43357 29.0607L8.37845 29.1098L8.34332 29.0706C8.31735 29.0735 8.29176 29.077 8.26604 29.081L8.26567 29.0804ZM8.27221 35.2182L7.98161 35.475L7.72514 35.1861L8.01575 34.9293L8.27221 35.2182ZM7.97288 34.8813L7.68227 35.1381L7.4258 34.8492L7.71641 34.5924L7.97288 34.8813ZM7.67354 34.5444L7.38293 34.8012L7.12646 34.5123L7.41707 34.2555L7.67354 34.5444ZM7.3742 34.2075L7.08359 34.4643L6.82712 34.1754L7.11773 33.9186L7.3742 34.2075ZM7.07536 33.8707L6.78475 34.1275L6.52828 33.8387L6.81889 33.5818L7.07536 33.8707ZM9.2093 35.592L8.91869 35.8489L8.66222 35.56L8.95283 35.3032L9.2093 35.592ZM8.91045 35.2553L8.61984 35.5121L8.36338 35.2232L8.65398 34.9664L8.91045 35.2553ZM8.61111 34.9184L8.32051 35.1752L8.06404 34.8863L8.35465 34.6295L8.61111 34.9184ZM8.31178 34.5815L8.02117 34.8383L7.7647 34.5494L8.05531 34.2926L8.31178 34.5815ZM8.01244 34.2446L7.72183 34.5014L7.46536 34.2126L7.75597 33.9557L8.01244 34.2446ZM7.7131 33.9077L7.42249 34.1645L7.16602 33.8757L7.45663 33.6188L7.7131 33.9077ZM7.41376 33.5708L7.12315 33.8277L6.86668 33.5388L7.15729 33.2819L7.41376 33.5708ZM7.11492 33.2341L6.82431 33.4909L6.56784 33.202L6.85845 32.9452L7.11492 33.2341ZM6.81558 32.8972L6.52497 33.154L6.2685 32.8651L6.55911 32.6083L6.81558 32.8972ZM10.1212 35.9371L9.83059 36.1939L9.5998 35.934L9.8904 35.6772L10.1212 35.9371ZM9.84753 35.6292L9.55693 35.886L9.30046 35.5971L9.59107 35.3403L9.84753 35.6292ZM9.5482 35.2923L9.25759 35.5491L9.00112 35.2602L9.29173 35.0034L9.5482 35.2923ZM9.24935 34.9555L8.95874 35.2123L8.70227 34.9235L8.99288 34.6666L9.24935 34.9555ZM8.95001 34.6186L8.65941 34.8755L8.40294 34.5866L8.69354 34.3297L8.95001 34.6186ZM8.65068 34.2817L8.36007 34.5386L8.1036 34.2497L8.39421 33.9928L8.65068 34.2817ZM8.35134 33.9448L8.06073 34.2017L7.80426 33.9128L8.09487 33.656L8.35134 33.9448ZM8.052 33.608L7.76139 33.8648L7.50492 33.5759L7.79553 33.3191L8.052 33.608ZM7.75266 33.2711L7.46205 33.5279L7.20558 33.239L7.49619 32.9822L7.75266 33.2711ZM7.45382 32.9343L7.16321 33.1911L6.90674 32.9022L7.19735 32.6454L7.45382 32.9343ZM7.15448 32.5974L6.86387 32.8542L6.6074 32.5654L6.89801 32.3085L7.15448 32.5974ZM6.85514 32.2605L6.56453 32.5173L6.30806 32.2285L6.59867 31.9716L6.85514 32.2605ZM6.5558 31.9236L6.26519 32.1805L6.00872 31.8916L6.29933 31.6347L6.5558 31.9236ZM10.4601 35.6373L10.1695 35.8941L9.93869 35.6342L10.2293 35.3774L10.4601 35.6373ZM10.1864 35.3294L9.89583 35.5862L9.63936 35.2974L9.92997 35.0405L10.1864 35.3294ZM9.8871 34.9925L9.59649 35.2494L9.34002 34.9605L9.63063 34.7036L9.8871 34.9925ZM9.58825 34.6558L9.29764 34.9126L9.04117 34.6237L9.33178 34.3669L9.58825 34.6558ZM9.28891 34.3189L8.99831 34.5757L8.74184 34.2868L9.03244 34.03L9.28891 34.3189ZM8.98957 33.982L8.69897 34.2388L8.4425 33.9499L8.73311 33.6931L8.98957 33.982ZM8.69024 33.6451L8.39963 33.9019L8.14316 33.613L8.43377 33.3562L8.69024 33.6451ZM8.3909 33.3082L8.10029 33.565L7.84382 33.2761L8.13443 33.0193L8.3909 33.3082ZM8.09156 32.9713L7.80095 33.2281L7.54448 32.9392L7.83509 32.6824L8.09156 32.9713ZM7.79272 32.6345L7.50211 32.8914L7.24564 32.6025L7.53625 32.3456L7.79272 32.6345ZM7.49338 32.2976L7.20277 32.5545L6.9463 32.2656L7.23691 32.0088L7.49338 32.2976ZM7.19391 31.9612L6.9033 32.2181L6.64684 31.9292L6.93744 31.6724L7.19391 31.9612ZM6.89457 31.6244L6.60397 31.8812L6.3475 31.5923L6.6381 31.3355L6.89457 31.6244ZM6.59524 31.2875L6.30463 31.5443L6.04816 31.2554L6.33877 30.9986L6.59524 31.2875ZM11.0982 35.6749L10.8076 35.9318L10.5511 35.6429L10.8417 35.386L11.0982 35.6749ZM10.7989 35.338L10.5083 35.5949L10.2775 35.335L10.5681 35.0781L10.7989 35.338ZM10.5252 35.0301L10.2346 35.287L9.97813 34.9981L10.2687 34.7413L10.5252 35.0301ZM10.2259 34.6932L9.93526 34.9501L9.67879 34.6612L9.9694 34.4044L10.2259 34.6932ZM9.92653 34.3564L9.63592 34.6132L9.37945 34.3243L9.67006 34.0675L9.92653 34.3564ZM9.62769 34.0196L9.33708 34.2764L9.08061 33.9875L9.37122 33.7307L9.62769 34.0196ZM9.32835 33.6827L9.03774 33.9395L8.78127 33.6506L9.07188 33.3938L9.32835 33.6827ZM9.02901 33.3458L8.7384 33.6026L8.48193 33.3138L8.77254 33.0569L9.02901 33.3458ZM8.72967 33.0089L8.43906 33.2658L8.18259 32.9769L8.4732 32.72L8.72967 33.0089ZM8.43033 32.672L8.13972 32.9289L7.88326 32.64L8.17386 32.3831L8.43033 32.672ZM8.13149 32.3353L7.84088 32.5921L7.58441 32.3032L7.87502 32.0464L8.13149 32.3353ZM7.83215 31.9984L7.54154 32.2552L7.28507 31.9663L7.57568 31.7095L7.83215 31.9984ZM7.53281 31.6615L7.2422 31.9183L6.98573 31.6294L7.27634 31.3726L7.53281 31.6615ZM7.23347 31.3246L6.94287 31.5814L6.6864 31.2925L6.977 31.0357L7.23347 31.3246ZM6.93414 30.9877L6.64353 31.2445L6.38706 30.9556L6.67767 30.6988L6.93414 30.9877ZM11.7365 35.712L11.4458 35.9689L11.1894 35.68L11.48 35.4232L11.7365 35.712ZM11.4371 35.3752L11.1465 35.632L10.89 35.3431L11.1806 35.0863L11.4371 35.3752ZM11.1378 35.0383L10.8472 35.2951L10.6164 35.0352L10.907 34.7784L11.1378 35.0383ZM10.8641 34.7304L10.5735 34.9872L10.317 34.6983L10.6076 34.4415L10.8641 34.7304ZM10.5648 34.3935L10.2742 34.6503L10.0177 34.3614L10.3083 34.1046L10.5648 34.3935ZM10.2654 34.0566L9.97482 34.3134L9.71835 34.0245L10.009 33.7677L10.2654 34.0566ZM9.96659 33.7198L9.67598 33.9767L9.41951 33.6878L9.71012 33.4309L9.96659 33.7198ZM9.66725 33.3829L9.37664 33.6398L9.12017 33.3509L9.41078 33.0941L9.66725 33.3829ZM9.36791 33.046L9.0773 33.3029L8.82083 33.014L9.11144 32.7572L9.36791 33.046ZM9.06857 32.7092L8.77796 32.966L8.52149 32.6771L8.8121 32.4203L9.06857 32.7092ZM8.76923 32.3723L8.47862 32.6291L8.22216 32.3402L8.51276 32.0834L8.76923 32.3723ZM8.47039 32.0355L8.17978 32.2923L7.92331 32.0034L8.21392 31.7466L8.47039 32.0355ZM8.17105 31.6986L7.88044 31.9554L7.62397 31.6666L7.91458 31.4097L8.17105 31.6986ZM7.87171 31.3617L7.5811 31.6186L7.32463 31.3297L7.61524 31.0728L7.87171 31.3617ZM7.57237 31.0248L7.28176 31.2817L7.0253 30.9928L7.3159 30.7359L7.57237 31.0248ZM7.27303 30.6879L6.98243 30.9448L6.72596 30.6559L7.01657 30.3991L7.27303 30.6879ZM6.9737 30.351L6.68309 30.6079L6.42662 30.319L6.71723 30.0622L6.9737 30.351ZM12.0754 35.4123L11.7847 35.6691L11.5283 35.3802L11.8189 35.1234L12.0754 35.4123ZM11.776 35.0754L11.4854 35.3322L11.2289 35.0433L11.5195 34.7865L11.776 35.0754ZM11.4767 34.7385L11.1861 34.9953L10.9553 34.7355L11.2459 34.4786L11.4767 34.7385ZM11.203 34.4306L10.9124 34.6874L10.6559 34.3986L10.9465 34.1417L11.203 34.4306ZM10.9037 34.0937L10.6131 34.3506L10.3566 34.0617L10.6472 33.8048L10.9037 34.0937ZM10.6048 33.757L10.3142 34.0138L10.0577 33.7249L10.3484 33.4681L10.6048 33.757ZM10.3055 33.4201L10.0149 33.6769L9.75841 33.388L10.049 33.1312L10.3055 33.4201ZM10.0061 33.0832L9.71554 33.34L9.45907 33.0511L9.74968 32.7943L10.0061 33.0832ZM9.70681 32.7463L9.4162 33.0031L9.15973 32.7142L9.45034 32.4574L9.70681 32.7463ZM9.40747 32.4094L9.11686 32.6662L8.86039 32.3773L9.151 32.1205L9.40747 32.4094ZM9.10813 32.0725L8.81752 32.3293L8.56105 32.0405L8.85166 31.7836L9.10813 32.0725ZM8.80929 31.7357L8.51868 31.9926L8.26221 31.7037L8.55282 31.4469L8.80929 31.7357ZM8.50995 31.3988L8.21934 31.6557L7.96287 31.3668L8.25348 31.11L8.50995 31.3988ZM8.21061 31.062L7.92 31.3188L7.66353 31.0299L7.95414 30.7731L8.21061 31.062ZM7.91127 30.7251L7.62066 30.9819L7.3642 30.693L7.6548 30.4362L7.91127 30.7251ZM7.61193 30.3882L7.32133 30.645L7.06486 30.3561L7.35546 30.0993L7.61193 30.3882ZM7.3126 30.0513L7.02199 30.3081L6.76552 30.0192L7.05613 29.7624L7.3126 30.0513ZM12.4142 35.1125L12.1236 35.3694L11.8672 35.0805L12.1578 34.8236L12.4142 35.1125ZM12.1149 34.7756L11.8243 35.0325L11.5678 34.7436L11.8584 34.4867L12.1149 34.7756ZM11.8156 34.4387L11.525 34.6956L11.2942 34.4357L11.5848 34.1789L11.8156 34.4387ZM11.5419 34.1309L11.2513 34.3877L10.9948 34.0988L11.2854 33.842L11.5419 34.1309ZM11.2426 33.794L10.952 34.0508L10.6955 33.7619L10.9861 33.5051L11.2426 33.794ZM10.9432 33.4571L10.6526 33.7139L10.3962 33.425L10.6868 33.1682L10.9432 33.4571ZM10.6444 33.1203L10.3538 33.3771L10.0973 33.0883L10.3879 32.8314L10.6444 33.1203ZM10.345 32.7834L10.0544 33.0402L9.79797 32.7514L10.0886 32.4945L10.345 32.7834ZM10.0457 32.4465L9.7551 32.7034L9.49863 32.4145L9.78924 32.1576L10.0457 32.4465ZM9.74637 32.1096L9.45576 32.3665L9.19929 32.0776L9.4899 31.8207L9.74637 32.1096ZM9.44703 31.7727L9.15642 32.0296L8.89995 31.7407L9.19056 31.4839L9.44703 31.7727ZM9.14769 31.4359L8.85709 31.6927L8.60062 31.4038L8.89122 31.147L9.14769 31.4359ZM8.84885 31.0991L8.55824 31.3559L8.30177 31.067L8.59238 30.8102L8.84885 31.0991ZM8.54951 30.7622L8.2589 31.019L8.00243 30.7301L8.29304 30.4733L8.54951 30.7622ZM8.25017 30.4253L7.95956 30.6821L7.70309 30.3933L7.9937 30.1364L8.25017 30.4253ZM7.95083 30.0884L7.66023 30.3452L7.40376 30.0564L7.69436 29.7995L7.95083 30.0884ZM7.6515 29.7515L7.36089 30.0084L7.10442 29.7195L7.39503 29.4626L7.6515 29.7515ZM12.4537 34.4764L12.1631 34.7332L11.9066 34.4443L12.1972 34.1875L12.4537 34.4764ZM12.1545 34.139L11.8639 34.3958L11.6331 34.1359L11.9237 33.8791L12.1545 34.139ZM11.8808 33.8311L11.5902 34.0879L11.3337 33.799L11.6243 33.5422L11.8808 33.8311ZM11.5815 33.4942L11.2909 33.751L11.0344 33.4621L11.325 33.2053L11.5815 33.4942ZM11.2821 33.1573L10.9915 33.4141L10.7351 33.1253L11.0257 32.8684L11.2821 33.1573ZM10.9833 32.8205L10.6927 33.0774L10.4362 32.7885L10.7268 32.5317L10.9833 32.8205ZM10.6839 32.4837L10.3933 32.7405L10.1369 32.4516L10.4275 32.1948L10.6839 32.4837ZM10.3846 32.1468L10.094 32.4036L9.83753 32.1147L10.1281 31.8579L10.3846 32.1468ZM10.0853 31.8099L9.79466 32.0667L9.53819 31.7778L9.8288 31.521L10.0853 31.8099ZM9.78593 31.473L9.49532 31.7298L9.23885 31.4409L9.52946 31.1841L9.78593 31.473ZM9.48659 31.1361L9.19598 31.3929L8.93952 31.104L9.23012 30.8472L9.48659 31.1361ZM9.18762 30.7998L8.89701 31.0566L8.64054 30.7678L8.93115 30.5109L9.18762 30.7998ZM8.88841 30.4624L8.5978 30.7193L8.34133 30.4304L8.63194 30.1735L8.88841 30.4624ZM8.58907 30.1255L8.29846 30.3824L8.04199 30.0935L8.3326 29.8367L8.58907 30.1255ZM8.28961 29.7891L7.999 30.046L7.74253 29.7571L8.03314 29.5003L8.28961 29.7891ZM12.7926 34.1766L12.502 34.4334L12.2455 34.1445L12.5361 33.8877L12.7926 34.1766ZM12.4932 33.8397L12.2026 34.0965L11.9718 33.8367L12.2624 33.5798L12.4932 33.8397ZM12.2197 33.5313L11.9291 33.7882L11.6726 33.4993L11.9632 33.2424L12.2197 33.5313ZM11.9204 33.1944L11.6298 33.4513L11.3733 33.1624L11.6639 32.9055L11.9204 33.1944ZM11.6209 32.858L11.3303 33.1149L11.0738 32.826L11.3644 32.5692L11.6209 32.858ZM11.3217 32.5207L11.0311 32.7775L10.7746 32.4886L11.0652 32.2318L11.3217 32.5207ZM11.0228 32.1839L10.7322 32.4407L10.4758 32.1518L10.7664 31.895L11.0228 32.1839ZM10.7234 31.8475L10.4328 32.1043L10.1763 31.8154L10.4669 31.5586L10.7234 31.8475ZM10.424 31.5106L10.1334 31.7674L9.87697 31.4785L10.1676 31.2217L10.424 31.5106ZM10.1247 31.1737L9.8341 31.4305L9.57763 31.1417L9.86823 30.8848L10.1247 31.1737ZM9.82537 30.8368L9.53476 31.0937L9.27829 30.8048L9.5689 30.5479L9.82537 30.8368ZM9.52652 30.5001L9.23591 30.7569L8.97944 30.468L9.27005 30.2112L9.52652 30.5001ZM9.22718 30.1632L8.93657 30.42L8.68011 30.1311L8.97071 29.8743L9.22718 30.1632ZM8.92784 29.8263L8.63724 30.0831L8.38077 29.7942L8.67138 29.5374L8.92784 29.8263ZM8.62851 29.4894L8.3379 29.7462L8.08143 29.4573L8.37204 29.2005L8.62851 29.4894ZM10.2955 29.9056L10.5569 29.6745L10.8134 29.9634L10.5519 30.1945L10.2955 29.9056ZM10.5943 30.2424L10.8558 30.0112L11.1122 30.3001L10.8508 30.5313L10.5943 30.2424ZM10.8937 30.5793L11.1551 30.3481L11.4116 30.637L11.1501 30.8681L10.8937 30.5793ZM11.193 30.9162L11.4544 30.685L11.7109 30.9739L11.4495 31.205L11.193 30.9162ZM11.4923 31.253L11.7538 31.0219L12.0102 31.3108L11.7488 31.5419L11.4923 31.253ZM11.7917 31.5899L12.0531 31.3588L12.3096 31.6477L12.0481 31.8788L11.7917 31.5899ZM12.091 31.9268L12.3525 31.6957L12.6089 31.9846L12.3475 32.2157L12.091 31.9268ZM9.3579 29.5316L9.64851 29.2748L9.90498 29.5636L9.61437 29.8205L9.3579 29.5316ZM9.65724 29.8685L9.94785 29.6116L10.2043 29.9005L9.91371 30.1574L9.65724 29.8685ZM9.95658 30.2054L10.2472 29.9485L10.5037 30.2374L10.2131 30.4943L9.95658 30.2054ZM10.2559 30.5423L10.5465 30.2854L10.803 30.5743L10.5124 30.8311L10.2559 30.5423ZM10.5548 30.879L10.8454 30.6222L11.1018 30.9111L10.8112 31.1679L10.5548 30.879ZM10.8541 31.2159L11.1447 30.9591L11.4012 31.248L11.1106 31.5048L10.8541 31.2159ZM11.1534 31.5528L11.444 31.296L11.7005 31.5849L11.4099 31.8417L11.1534 31.5528ZM11.4528 31.8897L11.7434 31.6329L11.9999 31.9217L11.7092 32.1786L11.4528 31.8897ZM11.7521 32.2266L12.0427 31.9698L12.2992 32.2586L12.0086 32.5155L11.7521 32.2266ZM12.051 32.5634L12.3416 32.3065L12.598 32.5954L12.3074 32.8522L12.051 32.5634ZM12.3503 32.9002L12.6409 32.6434L12.8974 32.9323L12.6068 33.1891L12.3503 32.9002ZM12.8321 33.5399L12.5415 33.7968L12.3107 33.5369L12.6013 33.2801L12.8321 33.5399ZM12.5586 33.2316L12.268 33.4884L12.0115 33.1995L12.3021 32.9427L12.5586 33.2316ZM12.2591 32.8952L11.9685 33.152L11.7121 32.8631L12.0027 32.6063L12.2591 32.8952ZM11.9598 32.5583L11.6692 32.8151L11.4127 32.5262L11.7033 32.2694L11.9598 32.5583ZM11.661 32.2215L11.3703 32.4783L11.1139 32.1895L11.4045 31.9326L11.661 32.2215ZM11.3616 31.8846L11.071 32.1415L10.8145 31.8526L11.1051 31.5957L11.3616 31.8846ZM11.0623 31.5477L10.7717 31.8046L10.5152 31.5157L10.8058 31.2588L11.0623 31.5477ZM10.7629 31.2108L10.4723 31.4677L10.2159 31.1788L10.5065 30.922L10.7629 31.2108ZM10.4636 30.8739L10.173 31.1308L9.91653 30.8419L10.2071 30.5851L10.4636 30.8739ZM10.1643 30.5371L9.87366 30.7939L9.61719 30.505L9.9078 30.2482L10.1643 30.5371ZM9.86542 30.2003L9.57481 30.4571L9.31834 30.1682L9.60895 29.9114L9.86542 30.2003ZM9.56608 29.8634L9.27547 30.1202L9.01901 29.8313L9.30961 29.5745L9.56608 29.8634ZM9.01028 29.2376L9.26674 29.5265L8.97614 29.7833L8.71967 29.4945L9.01028 29.2376Z" fill="#9D9D9C"/>
<path d="M11.6715 29.886C11.6152 29.9972 11.554 30.105 11.4815 30.2057C11.6018 30.3162 11.718 30.4345 11.8298 30.5601C13.2654 32.1763 13.375 34.4187 12.0745 35.5686C10.8892 36.6169 8.94146 36.3954 7.51879 35.1242C7.44564 35.2233 7.356 35.3355 7.27835 35.3988C8.86693 36.828 11.0484 37.08 12.3749 35.9067C13.8256 34.6236 13.7037 32.1218 12.1021 30.3187C11.9648 30.1641 11.8206 30.0194 11.6712 29.8854L11.6715 29.886Z" fill="#352E35"/>
<path d="M7.21488 34.8206L6.98903 35.1117C7.18798 35.3195 7.39903 35.5068 7.61846 35.6737L7.84405 35.3836C7.62349 35.2191 7.41257 35.0313 7.21524 34.8212L7.21488 34.8206Z" fill="#D1D1D1"/>
<path d="M11.7003 30.4293L11.926 30.1388C11.7256 29.9327 11.513 29.7471 11.2926 29.5821L11.0662 29.873C11.2879 30.0352 11.501 30.2209 11.7003 30.4293Z" fill="#D1D1D1"/>
<g style="mix-blend-mode:soft-light">
<path d="M6.77864 29.637C8.05828 28.5054 10.2054 28.8242 11.6439 30.3331C11.6082 30.2901 11.5718 30.2474 11.5349 30.2051C10.1297 28.6232 7.98928 28.3564 6.6744 29.5191C5.35951 30.6817 5.56065 32.9193 6.62801 34.2862C6.91705 34.6566 7.245 35.0043 7.72251 35.4016C7.54398 35.2252 6.8537 34.5616 6.51257 34.0192C5.55448 32.4962 5.63277 30.6502 6.77877 29.6365L6.77864 29.637Z" fill="white"/>
</g>
<path d="M12.2884 35.7764C10.9497 36.9607 9.22678 36.4135 8.54823 36.2089C9.83226 36.9116 11.3474 36.8184 12.3926 35.8943C13.5383 34.8812 13.6225 33.1311 13.0046 31.7833C13.279 32.5903 13.4876 34.7164 12.2882 35.7769L12.2884 35.7764Z" fill="#2B242A"/>
<path d="M14.6219 37.64C14.6627 37.6858 14.6526 37.7603 14.6002 37.8069L14.0233 38.3167C13.971 38.3633 13.8953 38.3637 13.8549 38.3184C13.8145 38.2731 13.8243 38.198 13.8766 38.1514L14.4535 37.6417C14.5058 37.5951 14.5817 37.5942 14.6219 37.64Z" fill="#2B242A"/>
<path d="M13.952 38.3346L14.2378 38.6555L14.9117 38.0609L14.6259 37.74L13.952 38.3346Z" fill="#161013"/>
<path d="M14.9594 38.0188C14.9996 38.0646 14.99 38.1392 14.9376 38.1858L14.3608 38.6956C14.3084 38.7422 14.2327 38.7426 14.1923 38.6973C14.152 38.6515 14.1617 38.5769 14.2139 38.5308L14.7908 38.021C14.8431 37.9744 14.9188 37.974 14.9592 38.0193L14.9594 38.0188Z" fill="#2B242A"/>
</g>
<rect y="46.9973" width="23.0111" height="22.0277" rx="3.14681" fill="#007206"/>
<g clip-path="url(#clip2_21_2833)">
<path d="M17.6475 64.0847C17.745 64.1941 17.7814 64.3207 17.7285 64.3672L17.152 64.8772C17.0996 64.9238 16.9777 64.8727 16.8804 64.7628C16.7829 64.6533 16.7466 64.5263 16.7993 64.4803L17.3758 63.9703C17.4287 63.9238 17.5501 63.9748 17.6475 64.0847Z" fill="#2B242A"/>
<path d="M16.7509 64.7641C16.7509 64.7641 16.9734 64.884 17.3627 64.5396C17.7519 64.1952 17.6591 63.9605 17.6591 63.9605C17.6591 63.9605 15.2859 61.487 14.9901 61.1546C14.6944 60.8217 13.9598 61.3494 14.3163 61.7505C14.6728 62.1517 16.7503 64.7644 16.7503 64.7644L16.7509 64.7641Z" fill="#95C11F"/>
<g style="mix-blend-mode:soft-light">
<path d="M17.5739 64.0224C17.1637 63.5945 15.2454 61.593 14.9815 61.2958C14.9794 61.2937 14.9772 61.2921 14.9757 61.2896C14.8475 61.6918 17.4983 64.0774 17.574 64.0219L17.5739 64.0224Z" fill="white"/>
</g>
<g style="mix-blend-mode:multiply">
<path d="M17.485 64.006C17.3112 64.1002 17.1207 64.1526 16.9238 64.1068C16.6724 64.0483 16.4555 63.8999 16.2553 63.7442C15.7805 63.3763 15.3531 62.9704 15.0949 62.4193C14.9046 62.0133 14.7935 61.5463 14.9423 61.1111C14.6232 60.8757 13.9781 61.3697 14.3167 61.7507C14.6732 62.1518 16.7507 64.7645 16.7507 64.7645C16.7507 64.7645 16.9732 64.8845 17.3625 64.5401C17.7517 64.1957 17.6589 63.961 17.6589 63.961C17.6589 63.961 17.6448 63.9465 17.6196 63.9197C17.576 63.9523 17.5301 63.9816 17.4849 64.0065L17.485 64.006Z" fill="#BBCBC8"/>
</g>
<g style="mix-blend-mode:soft-light">
<path d="M17.4801 63.7714L17.1287 64.7096C17.1752 64.6852 17.2259 64.6529 17.2806 64.6111L17.5628 63.8577C17.5388 63.8328 17.5111 63.8039 17.4801 63.7714Z" fill="white"/>
<path d="M17.1357 63.4121L16.6695 64.656C16.7088 64.7051 16.7357 64.7392 16.7475 64.7542L17.2183 63.4984C17.1915 63.4702 17.1642 63.4418 17.1357 63.4121Z" fill="white"/>
<path d="M16.6779 62.9354L16.2362 64.1142C16.2632 64.1477 16.2894 64.1805 16.3142 64.2124L16.7605 63.0216C16.7332 62.9933 16.7055 62.9643 16.6779 62.9354Z" fill="white"/>
<path d="M16.2208 62.4578L15.8024 63.5738C15.8286 63.6066 15.8548 63.6394 15.8806 63.6715L16.3034 62.544C16.2758 62.5151 16.2486 62.4862 16.2209 62.4573L16.2208 62.4578Z" fill="white"/>
<path d="M15.7641 61.9797L15.3686 63.035C15.3949 63.0673 15.4206 63.0999 15.4473 63.1328L15.8465 62.0669C15.819 62.0375 15.7913 62.0085 15.764 61.9801L15.7641 61.9797Z" fill="white"/>
<path d="M15.3078 61.499L14.9337 62.4974C14.9595 62.5296 14.9858 62.5619 15.0124 62.5948L15.3902 61.5863C15.3618 61.5561 15.3343 61.5266 15.3078 61.499Z" fill="white"/>
<path d="M14.7587 61.2664L14.4968 61.9652C14.5216 61.995 14.5479 62.0273 14.5759 62.0611L14.9314 61.1134L14.7594 61.2661L14.7587 61.2664Z" fill="white"/>
</g>
<path d="M14.5362 60.721C14.2066 60.3503 13.5245 56.9086 13.3585 55.9686C13.1481 56.2037 12.9177 58.2854 12.9177 58.2854C12.9177 58.2854 13.2158 57.829 13.3637 58.3922C13.5667 59.1648 13.7757 60.07 13.8168 60.2497C13.8825 60.5368 13.7382 60.596 13.5219 60.5133C13.3903 60.463 12.5067 60.145 11.7392 59.8289C11.3542 59.6703 11.7012 59.3678 11.7012 59.3678C11.7012 59.3678 8.81805 59.2161 9.32904 59.5327C10.412 59.7923 13.5546 60.8698 13.9131 61.2729C14.2717 61.6761 14.8666 61.0925 14.5372 60.7213L14.5362 60.721Z" fill="#352E35"/>
<path d="M7.11572 57.7327C5.68 56.1165 5.57091 53.8742 6.87103 52.7241C8.10389 51.6337 10.1614 51.9169 11.595 53.3261C11.6761 53.2369 11.7527 53.1387 11.8416 53.0583C10.242 51.4852 7.94565 51.1688 6.57008 52.3859C5.11932 53.669 5.24124 56.1708 6.84284 57.974C7.03574 58.1907 7.24109 58.3875 7.45582 58.5642C7.54089 58.476 7.61157 58.3763 7.68619 58.2797C7.48572 58.1172 7.29449 57.9349 7.1151 57.7331L7.11572 57.7327Z" fill="#95C11F"/>
<path d="M8.26567 52.0915L8.32979 52.1632L8.03918 52.42L7.83319 52.1884C7.81091 52.1954 7.78802 52.2028 7.76611 52.2104L7.99076 52.4635L7.70015 52.7203L7.44368 52.4314L7.64206 52.2558C7.57669 52.2813 7.51216 52.3096 7.44911 52.3405L7.40032 52.3833L7.3889 52.3704C7.36945 52.3808 7.3495 52.391 7.33041 52.4019L7.35203 52.4262L7.06142 52.683L7.00271 52.6169C6.98571 52.6299 6.96908 52.6436 6.95196 52.6571L7.01276 52.7253L6.72216 52.9822L6.67032 52.9241C6.65565 52.9403 6.64161 52.9562 6.62731 52.973L6.67386 53.0251L6.41926 53.2501C6.38101 53.3092 6.34511 53.3694 6.31204 53.4308L6.37783 53.3729L6.6343 53.6618L6.3437 53.9186L6.17407 53.7276C6.16518 53.75 6.15665 53.773 6.14825 53.7956L6.29553 53.961L6.03471 54.1918C6.02584 54.2347 6.01696 54.2775 6.01006 54.3209L6.25597 54.5977L5.96536 54.8545L5.96376 54.8525C5.96335 54.885 5.96392 54.9176 5.96449 54.9503L6.21653 55.2338L6.00463 55.4213C6.0082 55.4463 6.01227 55.4715 6.01634 55.4966L6.2594 55.2819L6.51587 55.5707L6.22526 55.8276L6.03856 55.617C6.04711 55.6596 6.05603 55.7027 6.06618 55.7451L6.1771 55.87L6.11317 55.9268C6.11947 55.9494 6.12615 55.9726 6.13295 55.9953L6.21984 55.9185L6.47631 56.2074L6.27198 56.3878C6.28076 56.4089 6.28906 56.4299 6.29797 56.4505L6.51869 56.2553L6.77516 56.5442L6.48455 56.801L6.43763 56.7483C6.48288 56.8362 6.5311 56.9228 6.58267 57.0087L6.7351 57.1807L6.70717 57.2057C6.7193 57.2239 6.73107 57.2416 6.74334 57.2593L6.77784 57.2292L7.03431 57.5181L6.97584 57.57C6.98947 57.5865 7.0031 57.603 7.01673 57.6196L7.07718 57.5661L7.33365 57.855L7.27593 57.906C7.29092 57.9213 7.30591 57.9366 7.32091 57.9519L7.37652 57.903L7.63299 58.1919L7.60655 58.2151C7.62291 58.2292 7.63989 58.2429 7.65674 58.2571L7.67573 58.2403L7.774 58.351C7.85645 58.4148 7.94027 58.4752 8.02547 58.5322L8.31397 58.2775L8.57044 58.5664L8.3707 58.7432C8.39103 58.7541 8.41087 58.7649 8.4312 58.7758L8.61318 58.6149L8.86965 58.9037L8.81193 58.9548C8.83424 58.9641 8.85668 58.9729 8.87863 58.9815L8.91252 58.9518L8.96914 59.0158C9.01046 59.0309 9.05202 59.045 9.09371 59.0586L8.96118 58.9094L9.25179 58.6526L9.50826 58.9415L9.30455 59.1216C9.32972 59.1279 9.35489 59.1342 9.38006 59.1405L9.55125 58.989L9.74901 59.2117C9.79976 59.2187 9.85063 59.2252 9.90089 59.23L10.1637 58.9976L10.3811 59.2421C10.4088 59.2407 10.436 59.2391 10.4633 59.237L10.212 58.9547L10.5026 58.6979L10.7591 58.9867L10.4765 59.2367C10.513 59.2338 10.5497 59.2299 10.5859 59.2259L10.8019 59.0348L10.9206 59.1684C10.9446 59.1629 10.9681 59.1573 10.9912 59.151L10.8501 58.9923L11.1407 58.7355L11.3886 59.0149C11.4813 58.9747 11.5718 58.9293 11.6594 58.8784L11.7788 58.7731L11.7967 58.7933C11.8151 58.7812 11.833 58.7689 11.8503 58.7565L11.8271 58.7302L12.1177 58.4733L12.1499 58.5097C12.1653 58.4947 12.1807 58.4797 12.1962 58.4642L12.1665 58.4305L12.4191 58.2072C12.4716 58.1375 12.5204 58.0659 12.5657 57.9917L12.463 58.0829L12.2066 57.794L12.4972 57.5372L12.6933 57.7579C12.7034 57.7369 12.7132 57.7152 12.7228 57.694L12.5455 57.4942L12.8361 57.2374L12.8711 57.2771C12.8775 57.252 12.8839 57.2269 12.8904 57.2018L12.8842 57.195L12.8944 57.186C12.903 57.1504 12.9111 57.1147 12.9181 57.0792L12.8414 57.147L12.5849 56.8581L12.8755 56.6012L12.9701 56.7079C12.9725 56.6781 12.9745 56.6476 12.9764 56.6177L12.9238 56.5583L12.9809 56.5076C12.9814 56.4789 12.9821 56.4497 12.9816 56.4208L12.881 56.5098L12.6502 56.2499L12.9409 55.9931L12.9584 56.0127C12.9539 55.9749 12.9494 55.937 12.9439 55.899L12.6898 55.6133L12.8563 55.4658C12.8501 55.4427 12.8439 55.4197 12.8379 55.3961L12.6471 55.5648L12.3906 55.2759L12.652 55.0448L12.7715 55.1792C12.7534 55.1248 12.7337 55.0705 12.7135 55.0162L12.7008 55.002L12.7063 54.997C12.6981 54.9756 12.6898 54.9546 12.6812 54.9331L12.6581 54.9535L12.4016 54.6646L12.5131 54.5657C12.5029 54.5458 12.4927 54.5265 12.4824 54.5071L12.3587 54.6166L12.1023 54.3277L12.2835 54.1677C12.2719 54.1495 12.2602 54.1314 12.2481 54.1131L12.0599 54.2798L11.8034 53.9909L12.0208 53.7985C12.0078 53.7816 11.9942 53.7651 11.9807 53.7481L11.7606 53.9429L11.5041 53.654L11.7263 53.4571C11.7114 53.4413 11.6969 53.4261 11.6821 53.4103L11.4613 53.6055L11.2049 53.3167L11.4013 53.1426C11.385 53.128 11.3685 53.1145 11.3522 53.1004L11.162 53.2687L10.9055 52.9798L11.0435 52.8576C11.0257 52.8448 11.0075 52.8318 10.9897 52.8195L10.8627 52.9318L10.6062 52.6429L10.6504 52.6036C10.6307 52.5924 10.611 52.5811 10.5911 52.5704L10.5633 52.5949L10.4965 52.5193C10.4451 52.4923 10.3934 52.4667 10.3414 52.4421L10.515 52.6378L10.2536 52.8689L9.99713 52.58L10.2171 52.3857C10.1954 52.376 10.1736 52.3669 10.1513 52.3576L9.95426 52.532L9.69779 52.2431L9.73516 52.2101C9.71073 52.2029 9.68618 52.1962 9.66162 52.1895L9.65542 52.1953L9.64645 52.1851C9.60956 52.1754 9.57204 52.1659 9.5349 52.1571L9.60663 52.2381L9.31602 52.4949L9.05955 52.206L9.18804 52.092C9.15964 52.088 9.13112 52.0845 9.10309 52.0811L9.01681 52.1575L8.93562 52.0663C8.90511 52.0644 8.87509 52.0627 8.84495 52.0614L8.96852 52.2005L8.67791 52.4573L8.42144 52.1684L8.53962 52.0638C8.5039 52.0659 8.46904 52.0687 8.43357 52.0718L8.37845 52.1209L8.34332 52.0816C8.31735 52.0846 8.29176 52.0881 8.26604 52.0921L8.26567 52.0915ZM8.27221 58.2292L7.98161 58.4861L7.72514 58.1972L8.01575 57.9403L8.27221 58.2292ZM7.97288 57.8923L7.68227 58.1492L7.4258 57.8603L7.71641 57.6035L7.97288 57.8923ZM7.67354 57.5554L7.38293 57.8123L7.12646 57.5234L7.41707 57.2666L7.67354 57.5554ZM7.3742 57.2186L7.08359 57.4754L6.82712 57.1865L7.11773 56.9297L7.3742 57.2186ZM7.07536 56.8818L6.78475 57.1386L6.52828 56.8497L6.81889 56.5929L7.07536 56.8818ZM9.2093 58.6031L8.91869 58.86L8.66222 58.5711L8.95283 58.3142L9.2093 58.6031ZM8.91045 58.2664L8.61984 58.5232L8.36338 58.2343L8.65398 57.9775L8.91045 58.2664ZM8.61111 57.9295L8.32051 58.1863L8.06404 57.8974L8.35465 57.6406L8.61111 57.9295ZM8.31178 57.5926L8.02117 57.8494L7.7647 57.5605L8.05531 57.3037L8.31178 57.5926ZM8.01244 57.2557L7.72183 57.5125L7.46536 57.2236L7.75597 56.9668L8.01244 57.2557ZM7.7131 56.9188L7.42249 57.1756L7.16602 56.8867L7.45663 56.6299L7.7131 56.9188ZM7.41376 56.5819L7.12315 56.8387L6.86668 56.5499L7.15729 56.293L7.41376 56.5819ZM7.11492 56.2451L6.82431 56.502L6.56784 56.2131L6.85845 55.9563L7.11492 56.2451ZM6.81558 55.9082L6.52497 56.1651L6.2685 55.8762L6.55911 55.6194L6.81558 55.9082ZM10.1212 58.9481L9.83059 59.205L9.5998 58.9451L9.8904 58.6883L10.1212 58.9481ZM9.84753 58.6403L9.55693 58.8971L9.30046 58.6082L9.59107 58.3514L9.84753 58.6403ZM9.5482 58.3034L9.25759 58.5602L9.00112 58.2713L9.29173 58.0145L9.5482 58.3034ZM9.24935 57.9666L8.95874 58.2234L8.70227 57.9345L8.99288 57.6777L9.24935 57.9666ZM8.95001 57.6297L8.65941 57.8865L8.40294 57.5977L8.69354 57.3408L8.95001 57.6297ZM8.65068 57.2928L8.36007 57.5496L8.1036 57.2608L8.39421 57.0039L8.65068 57.2928ZM8.35134 56.9559L8.06073 57.2128L7.80426 56.9239L8.09487 56.667L8.35134 56.9559ZM8.052 56.619L7.76139 56.8759L7.50492 56.587L7.79553 56.3301L8.052 56.619ZM7.75266 56.2821L7.46205 56.539L7.20558 56.2501L7.49619 55.9933L7.75266 56.2821ZM7.45382 55.9454L7.16321 56.2022L6.90674 55.9133L7.19735 55.6565L7.45382 55.9454ZM7.15448 55.6085L6.86387 55.8653L6.6074 55.5764L6.89801 55.3196L7.15448 55.6085ZM6.85514 55.2716L6.56453 55.5284L6.30806 55.2395L6.59867 54.9827L6.85514 55.2716ZM6.5558 54.9347L6.26519 55.1915L6.00872 54.9026L6.29933 54.6458L6.5558 54.9347ZM10.4601 58.6484L10.1695 58.9052L9.93869 58.6453L10.2293 58.3885L10.4601 58.6484ZM10.1864 58.3405L9.89583 58.5973L9.63936 58.3084L9.92997 58.0516L10.1864 58.3405ZM9.8871 58.0036L9.59649 58.2604L9.34002 57.9715L9.63063 57.7147L9.8871 58.0036ZM9.58825 57.6668L9.29764 57.9237L9.04117 57.6348L9.33178 57.3779L9.58825 57.6668ZM9.28891 57.3299L8.99831 57.5868L8.74184 57.2979L9.03244 57.0411L9.28891 57.3299ZM8.98957 56.993L8.69897 57.2499L8.4425 56.961L8.73311 56.7042L8.98957 56.993ZM8.69024 56.6562L8.39963 56.913L8.14316 56.6241L8.43377 56.3673L8.69024 56.6562ZM8.3909 56.3193L8.10029 56.5761L7.84382 56.2872L8.13443 56.0304L8.3909 56.3193ZM8.09156 55.9824L7.80095 56.2392L7.54448 55.9503L7.83509 55.6935L8.09156 55.9824ZM7.79272 55.6456L7.50211 55.9024L7.24564 55.6136L7.53625 55.3567L7.79272 55.6456ZM7.49338 55.3087L7.20277 55.5656L6.9463 55.2767L7.23691 55.0198L7.49338 55.3087ZM7.19391 54.9723L6.9033 55.2292L6.64684 54.9403L6.93744 54.6834L7.19391 54.9723ZM6.89457 54.6354L6.60397 54.8923L6.3475 54.6034L6.6381 54.3465L6.89457 54.6354ZM6.59524 54.2985L6.30463 54.5554L6.04816 54.2665L6.33877 54.0097L6.59524 54.2985ZM11.0982 58.686L10.8076 58.9428L10.5511 58.6539L10.8417 58.3971L11.0982 58.686ZM10.7989 58.3491L10.5083 58.6059L10.2775 58.3461L10.5681 58.0892L10.7989 58.3491ZM10.5252 58.0412L10.2346 58.2981L9.97813 58.0092L10.2687 57.7523L10.5252 58.0412ZM10.2259 57.7043L9.93526 57.9612L9.67879 57.6723L9.9694 57.4154L10.2259 57.7043ZM9.92653 57.3674L9.63592 57.6243L9.37945 57.3354L9.67006 57.0786L9.92653 57.3674ZM9.62769 57.0307L9.33708 57.2875L9.08061 56.9986L9.37122 56.7418L9.62769 57.0307ZM9.32835 56.6938L9.03774 56.9506L8.78127 56.6617L9.07188 56.4049L9.32835 56.6938ZM9.02901 56.3569L8.7384 56.6137L8.48193 56.3248L8.77254 56.068L9.02901 56.3569ZM8.72967 56.02L8.43906 56.2768L8.18259 55.9879L8.4732 55.7311L8.72967 56.02ZM8.43033 55.6831L8.13972 55.9399L7.88326 55.6511L8.17386 55.3942L8.43033 55.6831ZM8.13149 55.3463L7.84088 55.6032L7.58441 55.3143L7.87502 55.0575L8.13149 55.3463ZM7.83215 55.0095L7.54154 55.2663L7.28507 54.9774L7.57568 54.7206L7.83215 55.0095ZM7.53281 54.6726L7.2422 54.9294L6.98573 54.6405L7.27634 54.3837L7.53281 54.6726ZM7.23347 54.3357L6.94287 54.5925L6.6864 54.3036L6.977 54.0468L7.23347 54.3357ZM6.93414 53.9988L6.64353 54.2556L6.38706 53.9667L6.67767 53.7099L6.93414 53.9988ZM11.7365 58.7231L11.4458 58.98L11.1894 58.6911L11.48 58.4342L11.7365 58.7231ZM11.4371 58.3862L11.1465 58.6431L10.89 58.3542L11.1806 58.0974L11.4371 58.3862ZM11.1378 58.0493L10.8472 58.3062L10.6164 58.0463L10.907 57.7895L11.1378 58.0493ZM10.8641 57.7415L10.5735 57.9983L10.317 57.7094L10.6076 57.4526L10.8641 57.7415ZM10.5648 57.4046L10.2742 57.6614L10.0177 57.3725L10.3083 57.1157L10.5648 57.4046ZM10.2654 57.0677L9.97482 57.3245L9.71835 57.0356L10.009 56.7788L10.2654 57.0677ZM9.96659 56.7309L9.67598 56.9877L9.41951 56.6989L9.71012 56.442L9.96659 56.7309ZM9.66725 56.394L9.37664 56.6509L9.12017 56.362L9.41078 56.1051L9.66725 56.394ZM9.36791 56.0571L9.0773 56.314L8.82083 56.0251L9.11144 55.7682L9.36791 56.0571ZM9.06857 55.7202L8.77796 55.9771L8.52149 55.6882L8.8121 55.4313L9.06857 55.7202ZM8.76923 55.3833L8.47862 55.6402L8.22216 55.3513L8.51276 55.0945L8.76923 55.3833ZM8.47039 55.0466L8.17978 55.3034L7.92331 55.0145L8.21392 54.7577L8.47039 55.0466ZM8.17105 54.7097L7.88044 54.9665L7.62397 54.6776L7.91458 54.4208L8.17105 54.7097ZM7.87171 54.3728L7.5811 54.6296L7.32463 54.3407L7.61524 54.0839L7.87171 54.3728ZM7.57237 54.0359L7.28176 54.2927L7.0253 54.0039L7.3159 53.747L7.57237 54.0359ZM7.27303 53.699L6.98243 53.9559L6.72596 53.667L7.01657 53.4101L7.27303 53.699ZM6.9737 53.3621L6.68309 53.619L6.42662 53.3301L6.71723 53.0732L6.9737 53.3621ZM12.0754 58.4234L11.7847 58.6802L11.5283 58.3913L11.8189 58.1345L12.0754 58.4234ZM11.776 58.0865L11.4854 58.3433L11.2289 58.0544L11.5195 57.7976L11.776 58.0865ZM11.4767 57.7496L11.1861 58.0064L10.9553 57.7465L11.2459 57.4897L11.4767 57.7496ZM11.203 57.4417L10.9124 57.6985L10.6559 57.4096L10.9465 57.1528L11.203 57.4417ZM10.9037 57.1048L10.6131 57.3616L10.3566 57.0727L10.6472 56.8159L10.9037 57.1048ZM10.6048 56.768L10.3142 57.0249L10.0577 56.736L10.3484 56.4791L10.6048 56.768ZM10.3055 56.4311L10.0149 56.688L9.75841 56.3991L10.049 56.1423L10.3055 56.4311ZM10.0061 56.0943L9.71554 56.3511L9.45907 56.0622L9.74968 55.8054L10.0061 56.0943ZM9.70681 55.7574L9.4162 56.0142L9.15973 55.7253L9.45034 55.4685L9.70681 55.7574ZM9.40747 55.4205L9.11686 55.6773L8.86039 55.3884L9.151 55.1316L9.40747 55.4205ZM9.10813 55.0836L8.81752 55.3404L8.56105 55.0515L8.85166 54.7947L9.10813 55.0836ZM8.80929 54.7468L8.51868 55.0037L8.26221 54.7148L8.55282 54.4579L8.80929 54.7468ZM8.50995 54.4099L8.21934 54.6668L7.96287 54.3779L8.25348 54.121L8.50995 54.4099ZM8.21061 54.073L7.92 54.3299L7.66353 54.041L7.95414 53.7841L8.21061 54.073ZM7.91127 53.7361L7.62066 53.993L7.3642 53.7041L7.6548 53.4473L7.91127 53.7361ZM7.61193 53.3993L7.32133 53.6561L7.06486 53.3672L7.35546 53.1104L7.61193 53.3993ZM7.3126 53.0624L7.02199 53.3192L6.76552 53.0303L7.05613 52.7735L7.3126 53.0624ZM12.4142 58.1236L12.1236 58.3804L11.8672 58.0915L12.1578 57.8347L12.4142 58.1236ZM12.1149 57.7867L11.8243 58.0435L11.5678 57.7547L11.8584 57.4978L12.1149 57.7867ZM11.8156 57.4498L11.525 57.7067L11.2942 57.4468L11.5848 57.1899L11.8156 57.4498ZM11.5419 57.1419L11.2513 57.3988L10.9948 57.1099L11.2854 56.853L11.5419 57.1419ZM11.2426 56.805L10.952 57.0619L10.6955 56.773L10.9861 56.5162L11.2426 56.805ZM10.9432 56.4681L10.6526 56.725L10.3962 56.4361L10.6868 56.1793L10.9432 56.4681ZM10.6444 56.1314L10.3538 56.3882L10.0973 56.0993L10.3879 55.8425L10.6444 56.1314ZM10.345 55.7945L10.0544 56.0513L9.79797 55.7624L10.0886 55.5056L10.345 55.7945ZM10.0457 55.4576L9.7551 55.7144L9.49863 55.4255L9.78924 55.1687L10.0457 55.4576ZM9.74637 55.1207L9.45576 55.3775L9.19929 55.0887L9.4899 54.8318L9.74637 55.1207ZM9.44703 54.7838L9.15642 55.0407L8.89995 54.7518L9.19056 54.4949L9.44703 54.7838ZM9.14769 54.4469L8.85709 54.7038L8.60062 54.4149L8.89122 54.158L9.14769 54.4469ZM8.84885 54.1102L8.55824 54.367L8.30177 54.0781L8.59238 53.8213L8.84885 54.1102ZM8.54951 53.7733L8.2589 54.0301L8.00243 53.7412L8.29304 53.4844L8.54951 53.7733ZM8.25017 53.4364L7.95956 53.6932L7.70309 53.4043L7.9937 53.1475L8.25017 53.4364ZM7.95083 53.0995L7.66023 53.3563L7.40376 53.0674L7.69436 52.8106L7.95083 53.0995ZM7.6515 52.7626L7.36089 53.0194L7.10442 52.7305L7.39503 52.4737L7.6515 52.7626ZM12.4537 57.4874L12.1631 57.7443L11.9066 57.4554L12.1972 57.1986L12.4537 57.4874ZM12.1545 57.1501L11.8639 57.4069L11.6331 57.147L11.9237 56.8902L12.1545 57.1501ZM11.8808 56.8422L11.5902 57.099L11.3337 56.8101L11.6243 56.5533L11.8808 56.8422ZM11.5815 56.5053L11.2909 56.7621L11.0344 56.4732L11.325 56.2164L11.5815 56.5053ZM11.2821 56.1684L10.9915 56.4252L10.7351 56.1363L11.0257 55.8795L11.2821 56.1684ZM10.9833 55.8316L10.6927 56.0885L10.4362 55.7996L10.7268 55.5427L10.9833 55.8316ZM10.6839 55.4947L10.3933 55.7516L10.1369 55.4627L10.4275 55.2058L10.6839 55.4947ZM10.3846 55.1578L10.094 55.4147L9.83753 55.1258L10.1281 54.869L10.3846 55.1578ZM10.0853 54.8209L9.79466 55.0778L9.53819 54.7889L9.8288 54.5321L10.0853 54.8209ZM9.78593 54.4841L9.49532 54.7409L9.23885 54.452L9.52946 54.1952L9.78593 54.4841ZM9.48659 54.1472L9.19598 54.404L8.93952 54.1151L9.23012 53.8583L9.48659 54.1472ZM9.18762 53.8109L8.89701 54.0677L8.64054 53.7788L8.93115 53.522L9.18762 53.8109ZM8.88841 53.4735L8.5978 53.7303L8.34133 53.4415L8.63194 53.1846L8.88841 53.4735ZM8.58907 53.1366L8.29846 53.3935L8.04199 53.1046L8.3326 52.8477L8.58907 53.1366ZM8.28961 52.8002L7.999 53.0571L7.74253 52.7682L8.03314 52.5113L8.28961 52.8002ZM12.7926 57.1877L12.502 57.4445L12.2455 57.1556L12.5361 56.8988L12.7926 57.1877ZM12.4932 56.8508L12.2026 57.1076L11.9718 56.8477L12.2624 56.5909L12.4932 56.8508ZM12.2197 56.5424L11.9291 56.7992L11.6726 56.5104L11.9632 56.2535L12.2197 56.5424ZM11.9204 56.2055L11.6298 56.4623L11.3733 56.1735L11.6639 55.9166L11.9204 56.2055ZM11.6209 55.8691L11.3303 56.1259L11.0738 55.8371L11.3644 55.5802L11.6209 55.8691ZM11.3217 55.5317L11.0311 55.7886L10.7746 55.4997L11.0652 55.2428L11.3217 55.5317ZM11.0228 55.195L10.7322 55.4518L10.4758 55.1629L10.7664 54.9061L11.0228 55.195ZM10.7234 54.8586L10.4328 55.1154L10.1763 54.8265L10.4669 54.5697L10.7234 54.8586ZM10.424 54.5217L10.1334 54.7785L9.87697 54.4896L10.1676 54.2328L10.424 54.5217ZM10.1247 54.1848L9.8341 54.4416L9.57763 54.1527L9.86823 53.8959L10.1247 54.1848ZM9.82537 53.8479L9.53476 54.1047L9.27829 53.8158L9.5689 53.559L9.82537 53.8479ZM9.52652 53.5111L9.23591 53.768L8.97944 53.4791L9.27005 53.2222L9.52652 53.5111ZM9.22718 53.1742L8.93657 53.4311L8.68011 53.1422L8.97071 52.8854L9.22718 53.1742ZM8.92784 52.8374L8.63724 53.0942L8.38077 52.8053L8.67138 52.5485L8.92784 52.8374ZM8.62851 52.5005L8.3379 52.7573L8.08143 52.4684L8.37204 52.2116L8.62851 52.5005ZM10.2955 52.9167L10.5569 52.6856L10.8134 52.9744L10.5519 53.2056L10.2955 52.9167ZM10.5943 53.2534L10.8558 53.0223L11.1122 53.3112L10.8508 53.5423L10.5943 53.2534ZM10.8937 53.5903L11.1551 53.3592L11.4116 53.6481L11.1501 53.8792L10.8937 53.5903ZM11.193 53.9272L11.4544 53.6961L11.7109 53.985L11.4495 54.2161L11.193 53.9272ZM11.4923 54.2641L11.7538 54.033L12.0102 54.3219L11.7488 54.553L11.4923 54.2641ZM11.7917 54.601L12.0531 54.3699L12.3096 54.6588L12.0481 54.8899L11.7917 54.601ZM12.091 54.9379L12.3525 54.7068L12.6089 54.9957L12.3475 55.2268L12.091 54.9379ZM9.3579 52.5427L9.64851 52.2858L9.90498 52.5747L9.61437 52.8315L9.3579 52.5427ZM9.65724 52.8796L9.94785 52.6227L10.2043 52.9116L9.91371 53.1684L9.65724 52.8796ZM9.95658 53.2164L10.2472 52.9596L10.5037 53.2485L10.2131 53.5053L9.95658 53.2164ZM10.2559 53.5533L10.5465 53.2965L10.803 53.5854L10.5124 53.8422L10.2559 53.5533ZM10.5548 53.8901L10.8454 53.6333L11.1018 53.9222L10.8112 54.179L10.5548 53.8901ZM10.8541 54.227L11.1447 53.9702L11.4012 54.259L11.1106 54.5159L10.8541 54.227ZM11.1534 54.5639L11.444 54.307L11.7005 54.5959L11.4099 54.8528L11.1534 54.5639ZM11.4528 54.9008L11.7434 54.6439L11.9999 54.9328L11.7092 55.1897L11.4528 54.9008ZM11.7521 55.2377L12.0427 54.9808L12.2992 55.2697L12.0086 55.5265L11.7521 55.2377ZM12.051 55.5744L12.3416 55.3176L12.598 55.6065L12.3074 55.8633L12.051 55.5744ZM12.3503 55.9113L12.6409 55.6545L12.8974 55.9434L12.6068 56.2002L12.3503 55.9113ZM12.8321 56.551L12.5415 56.8079L12.3107 56.548L12.6013 56.2911L12.8321 56.551ZM12.5586 56.2426L12.268 56.4995L12.0115 56.2106L12.3021 55.9538L12.5586 56.2426ZM12.2591 55.9062L11.9685 56.1631L11.7121 55.8742L12.0027 55.6174L12.2591 55.9062ZM11.9598 55.5694L11.6692 55.8262L11.4127 55.5373L11.7033 55.2805L11.9598 55.5694ZM11.661 55.2326L11.3703 55.4894L11.1139 55.2005L11.4045 54.9437L11.661 55.2326ZM11.3616 54.8957L11.071 55.1525L10.8145 54.8636L11.1051 54.6068L11.3616 54.8957ZM11.0623 54.5588L10.7717 54.8156L10.5152 54.5268L10.8058 54.2699L11.0623 54.5588ZM10.7629 54.2219L10.4723 54.4787L10.2159 54.1899L10.5065 53.933L10.7629 54.2219ZM10.4636 53.885L10.173 54.1419L9.91653 53.853L10.2071 53.5961L10.4636 53.885ZM10.1643 53.5481L9.87366 53.805L9.61719 53.5161L9.9078 53.2592L10.1643 53.5481ZM9.86542 53.2114L9.57481 53.4682L9.31834 53.1793L9.60895 52.9225L9.86542 53.2114ZM9.56608 52.8745L9.27547 53.1313L9.01901 52.8424L9.30961 52.5856L9.56608 52.8745ZM9.01028 52.2487L9.26674 52.5376L8.97614 52.7944L8.71967 52.5055L9.01028 52.2487Z" fill="#9D9D9C"/>
<path d="M11.6715 52.8971C11.6152 53.0082 11.554 53.1161 11.4815 53.2168C11.6018 53.3273 11.718 53.4456 11.8298 53.5712C13.2654 55.1874 13.375 57.4297 12.0745 58.5796C10.8892 59.628 8.94146 59.4065 7.51879 58.1353C7.44564 58.2343 7.356 58.3465 7.27835 58.4099C8.86693 59.8391 11.0484 60.0911 12.3749 58.9178C13.8256 57.6347 13.7037 55.1329 12.1021 53.3298C11.9648 53.1752 11.8206 53.0305 11.6712 52.8965L11.6715 52.8971Z" fill="#352E35"/>
<path d="M7.21488 57.8317L6.98903 58.1227C7.18798 58.3306 7.39903 58.5179 7.61846 58.6848L7.84405 58.3947C7.62349 58.2302 7.41257 58.0424 7.21524 57.8323L7.21488 57.8317Z" fill="#D1D1D1"/>
<path d="M11.7003 53.4404L11.926 53.1499C11.7256 52.9437 11.513 52.7582 11.2926 52.5931L11.0662 52.8841C11.2879 53.0462 11.501 53.2319 11.7003 53.4404Z" fill="#D1D1D1"/>
<g style="mix-blend-mode:soft-light">
<path d="M6.77864 52.6481C8.05828 51.5164 10.2054 51.8352 11.6439 53.3442C11.6082 53.3012 11.5718 53.2585 11.5349 53.2162C10.1297 51.6343 7.98928 51.3675 6.6744 52.5301C5.35951 53.6927 5.56065 55.9304 6.62801 57.2973C6.91705 57.6677 7.245 58.0154 7.72251 58.4127C7.54398 58.2362 6.8537 57.5726 6.51257 57.0303C5.55448 55.5073 5.63277 53.6613 6.77877 52.6476L6.77864 52.6481Z" fill="white"/>
</g>
<path d="M12.2884 58.7875C10.9497 59.9717 9.22678 59.4246 8.54823 59.22C9.83226 59.9227 11.3474 59.8295 12.3926 58.9054C13.5383 57.8923 13.6225 56.1422 13.0046 54.7944C13.279 55.6014 13.4876 57.7275 12.2882 58.788L12.2884 58.7875Z" fill="#2B242A"/>
<path d="M14.6219 60.651C14.6627 60.6969 14.6526 60.7714 14.6002 60.818L14.0233 61.3278C13.971 61.3744 13.8953 61.3748 13.8549 61.3295C13.8145 61.2842 13.8243 61.2091 13.8766 61.1625L14.4535 60.6527C14.5058 60.6061 14.5817 60.6053 14.6219 60.651Z" fill="#2B242A"/>
<path d="M13.952 61.3457L14.2378 61.6666L14.9117 61.072L14.6259 60.7511L13.952 61.3457Z" fill="#161013"/>
<path d="M14.9594 61.0299C14.9996 61.0757 14.99 61.1503 14.9376 61.1969L14.3608 61.7067C14.3084 61.7533 14.2327 61.7536 14.1923 61.7084C14.152 61.6626 14.1617 61.588 14.2139 61.5419L14.7908 61.0321C14.8431 60.9855 14.9188 60.9851 14.9592 61.0304L14.9594 61.0299Z" fill="#2B242A"/>
</g>
<rect x="23.9944" y="0.975098" width="23.0111" height="22.0277" rx="3.14681" fill="#083697"/>
<rect x="23.9944" y="23.9862" width="23.0111" height="22.0277" rx="3.14681" fill="#083697"/>
<path d="M36.1968 28.9182C39.67 28.9182 42.4847 31.7304 42.4847 35.1964C42.4847 38.6625 39.67 41.4747 36.1968 41.4747C32.7237 41.4747 29.9089 38.6625 29.9089 35.1964C29.9089 31.7304 32.7237 28.9182 36.1968 28.9182Z" fill="#D4D921"/>
<g style="mix-blend-mode:multiply">
<path d="M38.2572 39.2007C36.7069 40.0514 34.7876 40.1273 33.0854 39.7624C32.4939 39.636 31.915 39.4554 31.3633 39.2133C32.5174 40.5951 34.254 41.4765 36.1968 41.4765C39.6699 41.4765 42.4847 38.6643 42.4847 35.1982C42.4847 34.0928 42.1988 33.0561 41.696 32.1548C41.9673 34.8894 40.7155 37.8515 38.2572 39.2025L38.2572 39.2007Z" fill="#C1CCBC"/>
</g>
<g style="mix-blend-mode:multiply">
<path d="M41.477 38.6047C41.4734 38.4584 41.4463 38.3013 41.3848 38.1495L41.3594 38.0917L41.354 38.0773C41.3594 38.0863 41.3432 38.0556 41.3432 38.0574L41.3395 38.052L41.3287 38.0303C41.3124 38.0014 41.2998 37.9761 41.2817 37.9418C41.2581 37.9039 41.2328 37.866 41.2057 37.828C41.1804 37.7919 41.1532 37.7612 41.1261 37.7287C40.9054 37.4686 40.5943 37.2772 40.2687 37.1616C39.9412 37.0424 39.5975 36.9809 39.2502 36.9466C38.9011 36.9123 38.5447 36.9087 38.1848 36.9249C37.8248 36.9394 37.4594 36.9719 37.0903 37.0116C36.9094 37.0333 36.7249 37.0532 36.5404 37.0749C36.4464 37.0857 36.3631 37.0929 36.2727 37.102C36.1841 37.1092 36.0936 37.1146 36.0032 37.1218C35.285 37.167 34.5379 37.1381 33.8759 36.9231C33.7094 36.8708 33.5539 36.8021 33.4037 36.7263C33.2536 36.6504 33.1143 36.5601 32.9877 36.4553C32.7308 36.2512 32.5246 35.9912 32.3708 35.6949C32.2152 35.3987 32.1139 35.0646 32.0488 34.7196L32.0054 34.4469L31.9819 34.2012C31.9783 34.1146 31.9765 34.0279 31.9728 33.9412C31.9765 33.8545 31.9783 33.7696 31.9819 33.6829C32 33.3415 32.0669 33.0074 32.1754 32.6913C32.2822 32.377 32.4287 32.0772 32.6223 31.8117C32.814 31.5462 33.0347 31.2987 33.2898 31.0928C33.5358 30.8761 33.818 30.7045 34.0983 30.5456L34.1508 30.5149C34.1291 30.5239 34.1508 30.5149 34.1454 30.5167L34.1526 30.513L34.1671 30.5058L34.196 30.4914L34.3118 30.4354C34.3878 30.3993 34.4656 30.3613 34.5397 30.3252C34.6935 30.2457 34.8346 30.197 34.9775 30.1392C35.048 30.1103 35.1204 30.0832 35.1891 30.0561C35.2597 30.0308 35.3339 30.0091 35.4062 29.9856C35.4786 29.9622 35.5491 29.9405 35.6215 29.917C35.6577 29.9062 35.692 29.8953 35.7282 29.8845C35.7644 29.8755 35.7988 29.8682 35.8349 29.8592C36.3993 29.7075 36.9348 29.6407 37.4105 29.6172C37.8881 29.5937 38.306 29.6136 38.6478 29.6497C38.8269 29.6696 39.0729 29.6623 39.2104 29.6858C38.6478 29.3788 37.8519 29.0609 37.1247 28.9868C36.7014 29.0031 36.1895 29.218 35.7011 29.3174C35.6631 29.3246 35.6233 29.3318 35.5853 29.339C35.5473 29.3481 35.5075 29.3571 35.4695 29.3679C35.3917 29.386 35.314 29.4059 35.2344 29.4257C35.1548 29.4456 35.0752 29.4619 34.9938 29.4853C34.9124 29.5106 34.831 29.5359 34.7496 29.5612C34.5868 29.6136 34.4131 29.6641 34.2612 29.7274C34.1834 29.7581 34.1038 29.7888 34.0242 29.8195L33.9048 29.8664L33.874 29.8773L33.8596 29.8827L33.8523 29.8863C33.8523 29.8863 33.8596 29.8827 33.8324 29.8953L33.7709 29.9242C33.4381 30.0778 33.0998 30.2512 32.7832 30.4842C32.4594 30.7045 32.1664 30.9881 31.9023 31.3042C31.6364 31.6202 31.4302 31.9923 31.2728 32.3824C31.119 32.7762 31.025 33.1934 30.9888 33.6179C30.9309 34.4668 31.0666 35.3247 31.4844 36.1284C31.6961 36.5258 31.9945 36.8961 32.3618 37.1832C32.5445 37.3277 32.7416 37.4524 32.9461 37.5535C33.1505 37.6565 33.3621 37.7413 33.5756 37.8027C34.0025 37.931 34.433 37.9924 34.8509 38.0159C35.2687 38.0412 35.6757 38.0249 36.0719 37.9924C36.1714 37.9834 36.2673 37.9725 36.3668 37.9617C36.4644 37.949 36.5676 37.9364 36.6562 37.9238C36.8389 37.8967 37.0216 37.8678 37.2007 37.8407C37.5552 37.7883 37.8989 37.7468 38.2318 37.7215C38.5646 37.698 38.8848 37.6853 39.1887 37.6998C39.4908 37.7142 39.7748 37.754 40.0208 37.8298C40.2668 37.9057 40.4658 38.0195 40.6069 38.1622C40.6232 38.1802 40.6431 38.2001 40.6558 38.2164C40.6684 38.2326 40.6811 38.2489 40.6938 38.2633C40.7082 38.285 40.7281 38.3175 40.7444 38.3428L40.7571 38.3627L40.7571 38.3663L40.7715 38.3952C40.8095 38.4728 40.8312 38.5559 40.8385 38.6426C40.8475 38.7293 40.8385 38.8214 40.824 38.9117C40.8077 39.002 40.786 39.0924 40.7535 39.1772C40.6938 39.3488 40.6124 39.506 40.5328 39.645C40.4839 39.7281 40.4369 39.8022 40.3899 39.8726C40.8041 39.5005 41.1677 39.0743 41.4716 38.6065L41.477 38.6047Z" fill="#C1CCBC"/>
</g>
<path d="M41.1731 38.2579L41.1478 38.1965L41.1424 38.182C41.1478 38.1911 41.1315 38.1604 41.1315 38.1604L41.1279 38.1549L41.117 38.1333C41.1007 38.1026 41.0881 38.0773 41.0682 38.0411C41.0429 38.0014 41.0193 37.9617 40.9922 37.9237C40.9669 37.8858 40.9397 37.8551 40.9126 37.819C40.6919 37.5499 40.3808 37.3512 40.0552 37.232C39.7278 37.1092 39.3841 37.0441 39.0367 37.0098C38.6876 36.9755 38.3313 36.9719 37.9713 36.9863C37.6113 37.0008 37.2459 37.0333 36.8769 37.0767C36.696 37.0983 36.5115 37.12 36.3269 37.1417C36.2329 37.1543 36.1497 37.1597 36.0592 37.1688C35.9706 37.176 35.8801 37.1832 35.7897 37.1904C35.0715 37.2374 34.3244 37.2067 33.6624 36.9845C33.4959 36.9304 33.3404 36.8599 33.1902 36.7804C33.0401 36.701 32.9008 36.6089 32.7724 36.5005C32.5155 36.2892 32.3093 36.02 32.1555 35.713C32 35.4059 31.8986 35.061 31.8335 34.7033L31.7901 34.4216L31.7666 34.1669C31.763 34.0766 31.7612 33.9881 31.7576 33.8978C31.7612 33.8093 31.763 33.7208 31.7666 33.6305C31.7847 33.2765 31.8516 32.9297 31.9602 32.6046C32.0669 32.2795 32.2134 31.9688 32.407 31.6943C32.5987 31.4179 32.8194 31.1633 33.0763 30.9501C33.3241 30.7262 33.6045 30.5474 33.8849 30.383L33.9373 30.3523C33.9156 30.3613 33.9355 30.3523 33.9337 30.3523L33.9409 30.3487L33.9554 30.3414L33.9844 30.327L34.1001 30.2692C34.1761 30.2313 34.2521 30.1933 34.3281 30.1554C34.4818 30.0741 34.6229 30.0236 34.7658 29.964C34.8364 29.9351 34.9069 29.9062 34.9775 29.8773C35.048 29.8502 35.1222 29.8285 35.1945 29.805C35.2669 29.7815 35.3375 29.7581 35.4098 29.7346C35.446 29.7237 35.4804 29.7111 35.5165 29.7003C35.5527 29.6912 35.5871 29.6822 35.6233 29.6732C36.1877 29.516 36.7231 29.4456 37.1989 29.4221C37.6764 29.3986 38.0943 29.4185 38.4362 29.4546C38.6153 29.4745 38.7744 29.4998 38.9101 29.5233C38.2788 29.2198 37.5896 29.0211 36.8624 28.9435C36.4391 28.9597 35.976 29.0067 35.4894 29.1096C35.4514 29.1169 35.4116 29.1241 35.3736 29.1313C35.3356 29.1403 35.2958 29.1512 35.2579 29.1602C35.1801 29.1801 35.1023 29.2 35.0227 29.2198C34.9431 29.2415 34.8635 29.2577 34.7821 29.2812C34.7007 29.3065 34.6193 29.3336 34.5379 29.3607C34.3751 29.4149 34.2014 29.4673 34.0495 29.5323C33.9717 29.563 33.8921 29.5955 33.8125 29.6262L33.6931 29.6732L33.6624 29.6858L33.6479 29.6912L33.6407 29.6948C33.6407 29.6948 33.6479 29.6912 33.6208 29.7039L33.5593 29.7346C33.2264 29.8935 32.8881 30.0741 32.5716 30.3144C32.2478 30.5419 31.9547 30.8345 31.6906 31.1633C31.4247 31.4902 31.2203 31.8749 31.0611 32.2795C30.9073 32.6859 30.8133 33.1193 30.7771 33.5564C30.7192 34.436 30.8549 35.3229 31.2728 36.1537C31.4844 36.5655 31.7829 36.9484 32.1501 37.2446C32.3328 37.3945 32.53 37.5228 32.7344 37.6275C32.9388 37.7341 33.1504 37.8208 33.3639 37.8858C33.7908 38.0177 34.2213 38.0827 34.6392 38.1062C35.0571 38.1333 35.4641 38.1152 35.8602 38.0809C35.9597 38.0719 36.0556 38.061 36.1551 38.0484C36.2528 38.0357 36.3559 38.0231 36.4445 38.0086C36.6272 37.9797 36.8099 37.9508 36.989 37.9237C37.3436 37.8696 37.6873 37.8262 38.0201 37.8009C38.353 37.7756 38.675 37.763 38.977 37.7774C39.2791 37.7919 39.5631 37.8334 39.8092 37.9129C40.0552 37.9906 40.2542 38.1098 40.3953 38.2561C40.4115 38.2741 40.4314 38.294 40.4441 38.3121C40.4568 38.3283 40.4694 38.3446 40.4821 38.3608C40.4966 38.3825 40.5165 38.4168 40.5327 38.4439L40.5454 38.4656L40.5454 38.4692L40.5599 38.4981C40.5979 38.5776 40.6196 38.6643 40.6268 38.7546C40.6358 38.8449 40.6268 38.9388 40.6123 39.0327C40.596 39.1267 40.5725 39.2188 40.5418 39.3073C40.4821 39.4861 40.4007 39.6468 40.3211 39.7913C40.2668 39.8871 40.2126 39.9738 40.1619 40.0532C40.5725 39.7191 40.9397 39.3344 41.2545 38.9099C41.2599 38.8521 41.2636 38.7907 41.2617 38.7293C41.2599 38.574 41.231 38.4078 41.1677 38.2471L41.1731 38.2579Z" fill="white"/>
<g style="mix-blend-mode:soft-light" opacity="0.4">
<path d="M34.9485 29.5197C37.4973 29.5197 39.5649 31.5841 39.5649 34.129C39.5649 36.6739 37.4973 38.7383 34.9485 38.7383C32.3997 38.7383 30.332 36.6739 30.332 34.129C30.332 31.5841 32.3997 29.5197 34.9485 29.5197Z" fill="white"/>
</g>
<g style="mix-blend-mode:soft-light" opacity="0.4">
<path d="M36.9744 31.0476C35.5629 29.6383 33.2745 29.6383 31.863 31.0476C30.4516 32.4569 30.4516 34.7419 31.863 36.1512C33.2745 37.5605 35.5629 37.5604 36.9744 36.1512C38.3858 34.7419 38.3858 32.4569 36.9744 31.0476Z" fill="white"/>
</g>
<g style="mix-blend-mode:soft-light" opacity="0.4">
<path d="M33.6371 30.2493C35.0589 30.2493 36.2112 31.3999 36.2112 32.8195C36.2112 34.2391 35.0589 35.3897 33.6371 35.3897C32.2153 35.3897 31.063 34.2391 31.063 32.8195C31.063 31.3999 32.2153 30.2493 33.6371 30.2493Z" fill="white"/>
</g>
<rect x="23.9944" y="46.9973" width="23.0111" height="22.0277" rx="3.14681" fill="#083697"/>
<path d="M36.1968 51.9293C39.67 51.9293 42.4847 54.7415 42.4847 58.2075C42.4847 61.6735 39.67 64.4857 36.1968 64.4857C32.7237 64.4857 29.9089 61.6735 29.9089 58.2075C29.9089 54.7415 32.7237 51.9293 36.1968 51.9293Z" fill="#D4D921"/>
<g style="mix-blend-mode:multiply">
<path d="M38.2572 62.2118C36.7069 63.0625 34.7876 63.1383 33.0854 62.7735C32.4939 62.6471 31.915 62.4664 31.3633 62.2244C32.5174 63.6061 34.254 64.4875 36.1968 64.4875C39.6699 64.4875 42.4847 61.6753 42.4847 58.2093C42.4847 57.1039 42.1988 56.0672 41.696 55.1659C41.9673 57.9004 40.7155 60.8626 38.2572 62.2136L38.2572 62.2118Z" fill="#C1CCBC"/>
</g>
<g style="mix-blend-mode:multiply">
<path d="M41.477 61.6157C41.4734 61.4694 41.4463 61.3123 41.3848 61.1606L41.3594 61.1028L41.354 61.0883C41.3594 61.0974 41.3432 61.0667 41.3432 61.0685L41.3395 61.063L41.3287 61.0414C41.3124 61.0125 41.2998 60.9872 41.2817 60.9529C41.2581 60.9149 41.2328 60.877 41.2057 60.8391C41.1804 60.803 41.1532 60.7723 41.1261 60.7397C40.9054 60.4797 40.5943 60.2882 40.2687 60.1726C39.9412 60.0534 39.5975 59.992 39.2502 59.9577C38.9011 59.9234 38.5447 59.9197 38.1848 59.936C37.8248 59.9504 37.4594 59.983 37.0903 60.0227C36.9094 60.0444 36.7249 60.0642 36.5404 60.0859C36.4464 60.0967 36.3631 60.104 36.2727 60.113C36.1841 60.1202 36.0936 60.1256 36.0032 60.1329C35.285 60.178 34.5379 60.1491 33.8759 59.9342C33.7094 59.8818 33.5539 59.8132 33.4037 59.7373C33.2536 59.6615 33.1143 59.5712 32.9877 59.4664C32.7308 59.2623 32.5246 59.0022 32.3708 58.706C32.2152 58.4098 32.1139 58.0756 32.0488 57.7307L32.0054 57.4579L31.9819 57.2123C31.9783 57.1256 31.9765 57.0389 31.9728 56.9522C31.9765 56.8655 31.9783 56.7806 31.9819 56.6939C32 56.3526 32.0669 56.0184 32.1754 55.7023C32.2822 55.3881 32.4287 55.0882 32.6223 54.8227C32.814 54.5572 33.0347 54.3098 33.2898 54.1039C33.5358 53.8871 33.818 53.7156 34.0983 53.5566L34.1508 53.5259C34.1291 53.5349 34.1508 53.5259 34.1454 53.5277L34.1526 53.5241L34.1671 53.5169L34.196 53.5024L34.3118 53.4464C34.3878 53.4103 34.4656 53.3724 34.5397 53.3363C34.6935 53.2568 34.8346 53.208 34.9775 53.1502C35.048 53.1213 35.1204 53.0942 35.1891 53.0671C35.2597 53.0418 35.3339 53.0202 35.4062 52.9967C35.4786 52.9732 35.5491 52.9515 35.6215 52.9281C35.6577 52.9172 35.692 52.9064 35.7282 52.8955C35.7644 52.8865 35.7988 52.8793 35.8349 52.8703C36.3993 52.7185 36.9348 52.6517 37.4105 52.6282C37.8881 52.6048 38.306 52.6246 38.6478 52.6607C38.8269 52.6806 39.0729 52.6734 39.2104 52.6969C38.6478 52.3898 37.8519 52.0719 37.1247 51.9979C36.7014 52.0141 36.1895 52.2291 35.7011 52.3284C35.6631 52.3356 35.6233 52.3429 35.5853 52.3501C35.5473 52.3591 35.5075 52.3681 35.4695 52.379C35.3917 52.397 35.314 52.4169 35.2344 52.4368C35.1548 52.4567 35.0752 52.4729 34.9938 52.4964C34.9124 52.5217 34.831 52.547 34.7496 52.5722C34.5868 52.6246 34.4131 52.6752 34.2612 52.7384C34.1834 52.7691 34.1038 52.7998 34.0242 52.8305L33.9048 52.8775L33.874 52.8883L33.8596 52.8937L33.8523 52.8974C33.8523 52.8974 33.8596 52.8937 33.8324 52.9064L33.7709 52.9353C33.4381 53.0888 33.0998 53.2622 32.7832 53.4952C32.4594 53.7156 32.1664 53.9991 31.9023 54.3152C31.6364 54.6313 31.4302 55.0033 31.2728 55.3935C31.119 55.7872 31.025 56.2045 30.9888 56.6289C30.9309 57.4778 31.0666 58.3357 31.4844 59.1395C31.6961 59.5368 31.9945 59.9071 32.3618 60.1943C32.5445 60.3388 32.7416 60.4634 32.9461 60.5645C33.1505 60.6675 33.3621 60.7524 33.5756 60.8138C34.0025 60.942 34.433 61.0034 34.8509 61.0269C35.2687 61.0522 35.6757 61.036 36.0719 61.0034C36.1714 60.9944 36.2673 60.9836 36.3668 60.9727C36.4644 60.9601 36.5676 60.9475 36.6562 60.9348C36.8389 60.9077 37.0216 60.8788 37.2007 60.8517C37.5552 60.7993 37.8989 60.7578 38.2318 60.7325C38.5646 60.709 38.8848 60.6964 39.1887 60.7108C39.4908 60.7253 39.7748 60.765 40.0208 60.8409C40.2668 60.9167 40.4658 61.0305 40.6069 61.1732C40.6232 61.1913 40.6431 61.2112 40.6558 61.2274C40.6684 61.2437 40.6811 61.2599 40.6938 61.2744C40.7082 61.296 40.7281 61.3286 40.7444 61.3538L40.7571 61.3737L40.7571 61.3773L40.7715 61.4062C40.8095 61.4839 40.8312 61.567 40.8385 61.6537C40.8475 61.7404 40.8385 61.8325 40.824 61.9228C40.8077 62.0131 40.786 62.1034 40.7535 62.1883C40.6938 62.3599 40.6124 62.517 40.5328 62.6561C40.4839 62.7392 40.4369 62.8132 40.3899 62.8837C40.8041 62.5116 41.1677 62.0853 41.4716 61.6175L41.477 61.6157Z" fill="#C1CCBC"/>
</g>
<path d="M41.1731 61.2689L41.1478 61.2075L41.1424 61.1931C41.1478 61.2021 41.1315 61.1714 41.1315 61.1714L41.1279 61.166L41.117 61.1443C41.1007 61.1136 41.0881 61.0883 41.0682 61.0522C41.0429 61.0125 41.0193 60.9727 40.9922 60.9348C40.9669 60.8969 40.9397 60.8662 40.9126 60.83C40.6919 60.5609 40.3808 60.3622 40.0552 60.243C39.7278 60.1202 39.3841 60.0552 39.0367 60.0209C38.6876 59.9866 38.3313 59.9829 37.9713 59.9974C37.6113 60.0118 37.2459 60.0444 36.8769 60.0877C36.696 60.1094 36.5115 60.1311 36.3269 60.1527C36.2329 60.1654 36.1497 60.1708 36.0592 60.1798C35.9706 60.187 35.8801 60.1943 35.7897 60.2015C35.0715 60.2485 34.3244 60.2177 33.6624 59.9956C33.4959 59.9414 33.3404 59.871 33.1902 59.7915C33.0401 59.712 32.9008 59.6199 32.7724 59.5115C32.5155 59.3002 32.3093 59.0311 32.1555 58.724C32 58.417 31.8986 58.072 31.8335 57.7144L31.7901 57.4326L31.7666 57.178C31.763 57.0877 31.7612 56.9992 31.7576 56.9088C31.7612 56.8203 31.763 56.7318 31.7666 56.6415C31.7847 56.2875 31.8516 55.9407 31.9602 55.6156C32.0669 55.2905 32.2134 54.9799 32.407 54.7053C32.5987 54.429 32.8194 54.1743 33.0763 53.9612C33.3241 53.7372 33.6045 53.5584 33.8849 53.394L33.9373 53.3633C33.9156 53.3724 33.9355 53.3633 33.9337 53.3633L33.9409 53.3597L33.9554 53.3525L33.9844 53.338L34.1001 53.2803C34.1761 53.2423 34.2521 53.2044 34.3281 53.1665C34.4818 53.0852 34.6229 53.0346 34.7658 52.975C34.8364 52.9461 34.9069 52.9172 34.9775 52.8883C35.048 52.8612 35.1222 52.8395 35.1945 52.8161C35.2669 52.7926 35.3375 52.7691 35.4098 52.7456C35.446 52.7348 35.4804 52.7221 35.5165 52.7113C35.5527 52.7023 35.5871 52.6932 35.6233 52.6842C36.1877 52.5271 36.7231 52.4566 37.1989 52.4332C37.6764 52.4097 38.0943 52.4295 38.4362 52.4657C38.6153 52.4855 38.7744 52.5108 38.9101 52.5343C38.2788 52.2309 37.5896 52.0322 36.8624 51.9545C36.4391 51.9708 35.976 52.0177 35.4894 52.1207C35.4514 52.1279 35.4116 52.1351 35.3736 52.1424C35.3356 52.1514 35.2958 52.1622 35.2579 52.1713C35.1801 52.1911 35.1023 52.211 35.0227 52.2309C34.9431 52.2525 34.8635 52.2688 34.7821 52.2923C34.7007 52.3176 34.6193 52.3447 34.5379 52.3717C34.3751 52.4259 34.2014 52.4783 34.0495 52.5433C33.9717 52.574 33.8921 52.6065 33.8125 52.6373L33.6931 52.6842L33.6624 52.6969L33.6479 52.7023L33.6407 52.7059C33.6407 52.7059 33.6479 52.7023 33.6208 52.7149L33.5593 52.7456C33.2264 52.9046 32.8881 53.0852 32.5716 53.3254C32.2478 53.553 31.9547 53.8456 31.6906 54.1743C31.4247 54.5012 31.2203 54.8859 31.0611 55.2905C30.9073 55.6969 30.8133 56.1304 30.7771 56.5675C30.7192 57.4471 30.8549 58.3339 31.2728 59.1648C31.4844 59.5766 31.7829 59.9595 32.1501 60.2557C32.3328 60.4056 32.53 60.5338 32.7344 60.6386C32.9388 60.7451 33.1504 60.8318 33.3639 60.8969C33.7908 61.0287 34.2213 61.0937 34.6392 61.1172C35.0571 61.1443 35.4641 61.1263 35.8602 61.0919C35.9597 61.0829 36.0556 61.0721 36.1551 61.0594C36.2528 61.0468 36.3559 61.0341 36.4445 61.0197C36.6272 60.9908 36.8099 60.9619 36.989 60.9348C37.3436 60.8806 37.6873 60.8373 38.0201 60.812C38.353 60.7867 38.675 60.774 38.977 60.7885C39.2791 60.8029 39.5631 60.8445 39.8092 60.924C40.0552 61.0016 40.2542 61.1208 40.3953 61.2671C40.4115 61.2852 40.4314 61.3051 40.4441 61.3231C40.4568 61.3394 40.4694 61.3556 40.4821 61.3719C40.4966 61.3936 40.5165 61.4279 40.5327 61.455L40.5454 61.4766L40.5454 61.4803L40.5599 61.5092C40.5979 61.5886 40.6196 61.6753 40.6268 61.7656C40.6358 61.8559 40.6268 61.9499 40.6123 62.0438C40.596 62.1377 40.5725 62.2298 40.5418 62.3183C40.4821 62.4971 40.4007 62.6579 40.3211 62.8024C40.2668 62.8981 40.2126 62.9848 40.1619 63.0643C40.5725 62.7301 40.9397 62.3454 41.2545 61.921C41.2599 61.8632 41.2636 61.8018 41.2617 61.7403C41.2599 61.585 41.231 61.4188 41.1677 61.2581L41.1731 61.2689Z" fill="white"/>
<g style="mix-blend-mode:soft-light" opacity="0.4">
<path d="M34.9485 52.5307C37.4973 52.5307 39.5649 54.5952 39.5649 57.14C39.5649 59.6849 37.4973 61.7494 34.9485 61.7494C32.3997 61.7494 30.332 59.6849 30.332 57.14C30.332 54.5952 32.3997 52.5307 34.9485 52.5307Z" fill="white"/>
</g>
<g style="mix-blend-mode:soft-light" opacity="0.4">
<path d="M36.9744 54.0587C35.5629 52.6494 33.2745 52.6494 31.863 54.0587C30.4516 55.468 30.4516 57.7529 31.863 59.1622C33.2745 60.5715 35.5629 60.5715 36.9744 59.1622C38.3858 57.7529 38.3858 55.468 36.9744 54.0587Z" fill="white"/>
</g>
<g style="mix-blend-mode:soft-light" opacity="0.4">
<path d="M33.6371 53.2604C35.0589 53.2604 36.2112 54.4109 36.2112 55.8306C36.2112 57.2502 35.0589 58.4008 33.6371 58.4008C32.2153 58.4008 31.063 57.2502 31.063 55.8306C31.063 54.4109 32.2153 53.2604 33.6371 53.2604Z" fill="white"/>
</g>
<rect x="47.989" y="0.975098" width="23.0111" height="22.0277" rx="3.14681" fill="#083697"/>
<rect x="47.989" y="23.9862" width="23.0111" height="22.0277" rx="3.14681" fill="#083697"/>
<rect x="47.989" y="46.9973" width="23.0111" height="22.0277" rx="3.14681" fill="#083697"/>
<defs>
<clipPath id="clip0_21_2833">
<rect width="12.9806" height="13.1773" fill="white" transform="translate(5.31299 18.4654) rotate(-90)"/>
</clipPath>
<clipPath id="clip1_21_2833">
<rect width="12.9806" height="13.1773" fill="white" transform="translate(5.31299 41.4765) rotate(-90)"/>
</clipPath>
<clipPath id="clip2_21_2833">
<rect width="12.9806" height="13.1773" fill="white" transform="translate(5.31299 64.4875) rotate(-90)"/>
</clipPath>
</defs>
</svg>
