<svg width="71" height="70" viewBox="0 0 71 70" fill="none" xmlns="http://www.w3.org/2000/svg">
<rect y="0.975098" width="23.0111" height="22.0277" rx="3.14681" fill="#007206"/>
<path d="M12.2024 5.90711C15.6756 5.90711 18.4903 8.71931 18.4903 12.1853C18.4903 15.6514 15.6756 18.4636 12.2024 18.4636C8.72927 18.4636 5.91455 15.6514 5.91455 12.1853C5.91455 8.71931 8.72927 5.90711 12.2024 5.90711Z" fill="#D4D921"/>
<g style="mix-blend-mode:multiply">
<path d="M14.2628 16.1896C12.7125 17.0403 10.7932 17.1162 9.09101 16.7514C8.49948 16.6249 7.92062 16.4443 7.3689 16.2023C8.523 17.584 10.2596 18.4654 12.2024 18.4654C15.6756 18.4654 18.4903 15.6532 18.4903 12.1872C18.4903 11.0818 18.2045 10.045 17.7016 9.14377C17.9729 11.8783 16.7211 14.8404 14.2628 16.1914L14.2628 16.1896Z" fill="#C1CCBC"/>
</g>
<g style="mix-blend-mode:multiply">
<path d="M17.4826 15.5936C17.479 15.4473 17.4519 15.2902 17.3904 15.1384L17.3651 15.0806L17.3596 15.0662C17.3651 15.0752 17.3488 15.0445 17.3488 15.0463L17.3452 15.0409L17.3343 15.0192C17.318 14.9903 17.3054 14.965 17.2873 14.9307C17.2638 14.8928 17.2384 14.8549 17.2113 14.8169C17.186 14.7808 17.1588 14.7501 17.1317 14.7176C16.911 14.4575 16.5999 14.2661 16.2743 14.1505C15.9469 14.0313 15.6032 13.9698 15.2558 13.9355C14.9067 13.9012 14.5503 13.8976 14.1904 13.9139C13.8304 13.9283 13.465 13.9608 13.096 14.0006C12.9151 14.0222 12.7306 14.0421 12.546 14.0638C12.452 14.0746 12.3688 14.0818 12.2783 14.0909C12.1897 14.0981 12.0992 14.1035 12.0088 14.1107C11.2906 14.1559 10.5435 14.127 9.88147 13.9121C9.71504 13.8597 9.55947 13.791 9.40933 13.7152C9.25919 13.6393 9.1199 13.549 8.99327 13.4443C8.7364 13.2402 8.53018 12.9801 8.37642 12.6839C8.22085 12.3876 8.11955 12.0535 8.05443 11.7085L8.01102 11.4358L7.9875 11.1902C7.98388 11.1035 7.98207 11.0168 7.97846 10.9301C7.98207 10.8434 7.98388 10.7585 7.9875 10.6718C8.00559 10.3304 8.07252 9.99628 8.18106 9.6802C8.28778 9.36592 8.43431 9.0661 8.62787 8.80059C8.81961 8.53508 9.04031 8.28764 9.29537 8.08174C9.54138 7.865 9.82358 7.69341 10.104 7.53447L10.1564 7.50376C10.1347 7.51279 10.1564 7.50376 10.151 7.50557L10.1582 7.50195L10.1727 7.49473L10.2016 7.48028L10.3174 7.42429C10.3934 7.38817 10.4712 7.35024 10.5453 7.31411C10.6991 7.23464 10.8402 7.18588 10.9831 7.12808C11.0537 7.09918 11.126 7.07209 11.1948 7.04499C11.2653 7.01971 11.3395 6.99803 11.4118 6.97455C11.4842 6.95107 11.5547 6.9294 11.6271 6.90592C11.6633 6.89508 11.6976 6.88424 11.7338 6.87341C11.77 6.86438 11.8044 6.85715 11.8406 6.84812C12.4049 6.6964 12.9404 6.62958 13.4161 6.6061C13.8937 6.58262 14.3116 6.60248 14.6535 6.6386C14.8325 6.65847 15.0786 6.65125 15.216 6.67473C14.6535 6.36768 13.8575 6.04979 13.1303 5.97574C12.707 5.992 12.1951 6.20693 11.7067 6.30627C11.6687 6.3135 11.6289 6.32072 11.5909 6.32794C11.5529 6.33697 11.5131 6.34601 11.4751 6.35684C11.3974 6.37491 11.3196 6.39477 11.24 6.41464C11.1604 6.43451 11.0808 6.45077 10.9994 6.47425C10.918 6.49953 10.8366 6.52482 10.7552 6.5501C10.5924 6.60248 10.4187 6.65306 10.2668 6.71627C10.189 6.74698 10.1094 6.77768 10.0298 6.80839L9.91041 6.85535L9.87965 6.86618L9.86518 6.8716L9.85795 6.87521C9.85795 6.87521 9.86518 6.8716 9.83805 6.88424L9.77655 6.91314C9.4437 7.06667 9.10543 7.24006 8.78886 7.47306C8.46506 7.69341 8.17201 7.97698 7.90791 8.29306C7.64199 8.60914 7.43577 8.98121 7.2784 9.37134C7.12464 9.76509 7.03057 10.1823 6.99439 10.6068C6.9365 11.4557 7.07218 12.3136 7.49004 13.1173C7.70169 13.5147 8.00016 13.885 8.36738 14.1721C8.55008 14.3166 8.74726 14.4413 8.95167 14.5424C9.15608 14.6454 9.36773 14.7302 9.58118 14.7917C10.0081 14.9199 10.4386 14.9813 10.8565 15.0048C11.2744 15.0301 11.6814 15.0138 12.0775 14.9813C12.177 14.9723 12.2729 14.9614 12.3724 14.9506C12.4701 14.938 12.5732 14.9253 12.6618 14.9127C12.8445 14.8856 13.0272 14.8567 13.2063 14.8296C13.5609 14.7772 13.9046 14.7357 14.2374 14.7104C14.5702 14.6869 14.8904 14.6743 15.1943 14.6887C15.4964 14.7032 15.7804 14.7429 16.0264 14.8187C16.2725 14.8946 16.4714 15.0084 16.6125 15.1511C16.6288 15.1691 16.6487 15.189 16.6614 15.2053C16.674 15.2215 16.6867 15.2378 16.6994 15.2522C16.7138 15.2739 16.7337 15.3064 16.75 15.3317L16.7627 15.3516L16.7627 15.3552L16.7772 15.3841C16.8151 15.4617 16.8369 15.5448 16.8441 15.6315C16.8531 15.7182 16.8441 15.8103 16.8296 15.9006C16.8133 15.991 16.7916 16.0813 16.7591 16.1661C16.6994 16.3377 16.618 16.4949 16.5384 16.6339C16.4895 16.717 16.4425 16.7911 16.3955 16.8615C16.8097 16.4895 17.1733 16.0632 17.4772 15.5954L17.4826 15.5936Z" fill="#C1CCBC"/>
</g>
<path d="M17.1787 15.2468L17.1534 15.1854L17.148 15.1709C17.1534 15.18 17.1371 15.1493 17.1371 15.1493L17.1335 15.1438L17.1226 15.1222C17.1064 15.0915 17.0937 15.0662 17.0738 15.0301C17.0485 14.9903 17.025 14.9506 16.9978 14.9127C16.9725 14.8747 16.9454 14.844 16.9182 14.8079C16.6975 14.5388 16.3864 14.3401 16.0608 14.2209C15.7334 14.0981 15.3897 14.033 15.0424 13.9987C14.6932 13.9644 14.3369 13.9608 13.9769 13.9753C13.6169 13.9897 13.2515 14.0222 12.8825 14.0656C12.7016 14.0872 12.5171 14.1089 12.3326 14.1306C12.2385 14.1432 12.1553 14.1486 12.0648 14.1577C11.9762 14.1649 11.8858 14.1721 11.7953 14.1793C11.0772 14.2263 10.3301 14.1956 9.66798 13.9734C9.50156 13.9193 9.34599 13.8488 9.19585 13.7694C9.04571 13.6899 8.90642 13.5978 8.77799 13.4894C8.52112 13.2781 8.31489 13.009 8.16113 12.7019C8.00557 12.3949 7.90427 12.0499 7.83914 11.6923L7.79573 11.4105L7.77221 11.1558C7.7686 11.0655 7.76679 10.977 7.76317 10.8867C7.76679 10.7982 7.7686 10.7097 7.77221 10.6194C7.7903 10.2654 7.85723 9.9186 7.96577 9.59349C8.0725 9.26838 8.21902 8.95771 8.41258 8.68318C8.60433 8.40683 8.82502 8.15216 9.08189 7.93904C9.32971 7.71507 9.6101 7.53626 9.89048 7.3719L9.94294 7.34119C9.92124 7.35022 9.94113 7.34119 9.93933 7.34119L9.94656 7.33758L9.96103 7.33036L9.98998 7.31591L10.1057 7.25811C10.1817 7.22018 10.2577 7.18225 10.3337 7.14432C10.4874 7.06304 10.6285 7.01247 10.7714 6.95287C10.842 6.92397 10.9125 6.89507 10.9831 6.86617C11.0536 6.83908 11.1278 6.8174 11.2002 6.79392C11.2725 6.77044 11.3431 6.74696 11.4154 6.72348C11.4516 6.71265 11.486 6.7 11.5222 6.68916C11.5583 6.68013 11.5927 6.6711 11.6289 6.66207C12.1933 6.50494 12.7287 6.4345 13.2045 6.41102C13.682 6.38754 14.0999 6.4074 14.4418 6.44352C14.6209 6.46339 14.7801 6.48868 14.9157 6.51216C14.2844 6.20872 13.5952 6.01005 12.868 5.93238C12.4447 5.94864 11.9816 5.9956 11.495 6.09855C11.457 6.10577 11.4172 6.113 11.3792 6.12022C11.3413 6.12925 11.3015 6.14009 11.2635 6.14912C11.1857 6.16899 11.1079 6.18886 11.0283 6.20873C10.9487 6.2304 10.8691 6.24665 10.7877 6.27013C10.7063 6.29542 10.6249 6.32251 10.5435 6.34961C10.3807 6.40379 10.207 6.45617 10.0551 6.52119C9.97731 6.5519 9.89772 6.58441 9.81813 6.61511L9.69874 6.66207L9.66798 6.67472L9.65351 6.68014L9.64628 6.68375C9.64628 6.68375 9.65351 6.68013 9.62638 6.69278L9.56488 6.72348C9.23203 6.88243 8.89376 7.06304 8.57719 7.30326C8.25339 7.53084 7.96034 7.82344 7.69624 8.15216C7.43032 8.47908 7.22591 8.86379 7.06672 9.26837C6.91296 9.67476 6.8189 10.1082 6.78272 10.5453C6.72483 11.4249 6.86051 12.3118 7.27837 13.1426C7.49002 13.5544 7.78849 13.9373 8.15571 14.2335C8.33841 14.3834 8.53559 14.5117 8.74 14.6164C8.94441 14.723 9.15606 14.8097 9.36951 14.8747C9.79642 15.0066 10.2269 15.0716 10.6448 15.0951C11.0627 15.1222 11.4697 15.1041 11.8659 15.0698C11.9653 15.0608 12.0612 15.0499 12.1607 15.0373C12.2584 15.0246 12.3615 15.012 12.4501 14.9975C12.6328 14.9686 12.8155 14.9397 12.9946 14.9127C13.3492 14.8585 13.6929 14.8151 14.0257 14.7898C14.3586 14.7645 14.6806 14.7519 14.9827 14.7664C15.2848 14.7808 15.5688 14.8223 15.8148 14.9018C16.0608 14.9795 16.2598 15.0987 16.4009 15.245C16.4172 15.2631 16.4371 15.2829 16.4497 15.301C16.4624 15.3172 16.475 15.3335 16.4877 15.3497C16.5022 15.3714 16.5221 15.4057 16.5384 15.4328L16.551 15.4545L16.551 15.4581L16.5655 15.487C16.6035 15.5665 16.6252 15.6532 16.6324 15.7435C16.6415 15.8338 16.6324 15.9277 16.6179 16.0216C16.6017 16.1156 16.5781 16.2077 16.5474 16.2962C16.4877 16.475 16.4063 16.6357 16.3267 16.7802C16.2724 16.876 16.2182 16.9627 16.1675 17.0421C16.5781 16.708 16.9454 16.3233 17.2601 15.8988C17.2655 15.841 17.2692 15.7796 17.2674 15.7182C17.2655 15.5629 17.2366 15.3967 17.1733 15.236L17.1787 15.2468Z" fill="white"/>
<g style="mix-blend-mode:soft-light" opacity="0.4">
<path d="M10.9541 6.50856C13.5029 6.50856 15.5705 8.57301 15.5705 11.1179C15.5705 13.6628 13.5029 15.7272 10.9541 15.7272C8.40527 15.7272 6.33765 13.6628 6.33765 11.1179C6.33765 8.57301 8.40527 6.50856 10.9541 6.50856Z" fill="white"/>
</g>
<g style="mix-blend-mode:soft-light" opacity="0.4">
<path d="M12.98 8.03655C11.5685 6.62726 9.2801 6.62725 7.86864 8.03655C6.45718 9.44585 6.45718 11.7308 7.86864 13.1401C9.2801 14.5494 11.5685 14.5494 12.98 13.1401C14.3915 11.7308 14.3915 9.44585 12.98 8.03655Z" fill="white"/>
</g>
<g style="mix-blend-mode:soft-light" opacity="0.4">
<path d="M9.64273 7.23824C11.0646 7.23824 12.2169 8.38877 12.2169 9.80842C12.2169 11.2281 11.0646 12.3786 9.64273 12.3786C8.2209 12.3786 7.0686 11.2281 7.0686 9.80842C7.0686 8.38877 8.2209 7.23824 9.64273 7.23824Z" fill="white"/>
</g>
<rect y="23.9862" width="23.0111" height="22.0277" rx="3.14681" fill="#083697"/>
<rect y="46.9973" width="23.0111" height="22.0277" rx="3.14681" fill="#083697"/>
<rect x="23.9944" y="0.975098" width="23.0111" height="22.0277" rx="3.14681" fill="#007206"/>
<path d="M36.1968 5.90711C39.67 5.90711 42.4847 8.71931 42.4847 12.1853C42.4847 15.6514 39.67 18.4636 36.1968 18.4636C32.7237 18.4636 29.9089 15.6514 29.9089 12.1853C29.9089 8.71931 32.7237 5.90711 36.1968 5.90711Z" fill="#D4D921"/>
<g style="mix-blend-mode:multiply">
<path d="M38.2572 16.1896C36.7069 17.0403 34.7876 17.1162 33.0854 16.7514C32.4939 16.6249 31.915 16.4443 31.3633 16.2023C32.5174 17.584 34.254 18.4654 36.1968 18.4654C39.6699 18.4654 42.4847 15.6532 42.4847 12.1872C42.4847 11.0818 42.1988 10.045 41.696 9.14377C41.9673 11.8783 40.7155 14.8404 38.2572 16.1914L38.2572 16.1896Z" fill="#C1CCBC"/>
</g>
<g style="mix-blend-mode:multiply">
<path d="M41.477 15.5936C41.4734 15.4473 41.4463 15.2902 41.3848 15.1384L41.3594 15.0806L41.354 15.0662C41.3594 15.0752 41.3432 15.0445 41.3432 15.0463L41.3395 15.0409L41.3287 15.0192C41.3124 14.9903 41.2998 14.965 41.2817 14.9307C41.2581 14.8928 41.2328 14.8549 41.2057 14.8169C41.1804 14.7808 41.1532 14.7501 41.1261 14.7176C40.9054 14.4575 40.5943 14.2661 40.2687 14.1505C39.9412 14.0313 39.5975 13.9698 39.2502 13.9355C38.9011 13.9012 38.5447 13.8976 38.1848 13.9139C37.8248 13.9283 37.4594 13.9608 37.0903 14.0006C36.9094 14.0222 36.7249 14.0421 36.5404 14.0638C36.4464 14.0746 36.3631 14.0818 36.2727 14.0909C36.1841 14.0981 36.0936 14.1035 36.0032 14.1107C35.285 14.1559 34.5379 14.127 33.8759 13.9121C33.7094 13.8597 33.5539 13.791 33.4037 13.7152C33.2536 13.6393 33.1143 13.549 32.9877 13.4443C32.7308 13.2402 32.5246 12.9801 32.3708 12.6839C32.2152 12.3876 32.1139 12.0535 32.0488 11.7085L32.0054 11.4358L31.9819 11.1902C31.9783 11.1035 31.9765 11.0168 31.9728 10.9301C31.9765 10.8434 31.9783 10.7585 31.9819 10.6718C32 10.3304 32.0669 9.99628 32.1754 9.6802C32.2822 9.36592 32.4287 9.0661 32.6223 8.80059C32.814 8.53508 33.0347 8.28764 33.2898 8.08174C33.5358 7.865 33.818 7.69341 34.0983 7.53447L34.1508 7.50376C34.1291 7.51279 34.1508 7.50376 34.1454 7.50557L34.1526 7.50195L34.1671 7.49473L34.196 7.48028L34.3118 7.42429C34.3878 7.38817 34.4656 7.35024 34.5397 7.31411C34.6935 7.23464 34.8346 7.18588 34.9775 7.12808C35.048 7.09918 35.1204 7.07209 35.1891 7.04499C35.2597 7.01971 35.3339 6.99803 35.4062 6.97455C35.4786 6.95107 35.5491 6.9294 35.6215 6.90592C35.6577 6.89508 35.692 6.88424 35.7282 6.87341C35.7644 6.86438 35.7988 6.85715 35.8349 6.84812C36.3993 6.6964 36.9348 6.62958 37.4105 6.6061C37.8881 6.58262 38.306 6.60248 38.6478 6.63861C38.8269 6.65847 39.0729 6.65125 39.2104 6.67473C38.6478 6.36768 37.8519 6.04979 37.1247 5.97574C36.7014 5.992 36.1895 6.20693 35.7011 6.30627C35.6631 6.3135 35.6233 6.32072 35.5853 6.32794C35.5473 6.33697 35.5075 6.34601 35.4695 6.35684C35.3917 6.3749 35.314 6.39477 35.2344 6.41464C35.1548 6.43451 35.0752 6.45077 34.9938 6.47425C34.9124 6.49953 34.831 6.52482 34.7496 6.5501C34.5868 6.60248 34.4131 6.65306 34.2612 6.71627C34.1834 6.74698 34.1038 6.77768 34.0242 6.80839L33.9048 6.85535L33.874 6.86618L33.8596 6.8716L33.8523 6.87521C33.8523 6.87521 33.8596 6.8716 33.8324 6.88424L33.7709 6.91314C33.4381 7.06667 33.0998 7.24006 32.7832 7.47306C32.4594 7.69341 32.1664 7.97698 31.9023 8.29306C31.6364 8.60914 31.4302 8.98121 31.2728 9.37134C31.119 9.76509 31.025 10.1823 30.9888 10.6068C30.9309 11.4557 31.0666 12.3136 31.4844 13.1173C31.6961 13.5147 31.9945 13.885 32.3618 14.1721C32.5445 14.3166 32.7416 14.4413 32.9461 14.5424C33.1505 14.6454 33.3621 14.7302 33.5756 14.7917C34.0025 14.9199 34.433 14.9813 34.8509 15.0048C35.2687 15.0301 35.6757 15.0138 36.0719 14.9813C36.1714 14.9723 36.2673 14.9614 36.3668 14.9506C36.4644 14.938 36.5676 14.9253 36.6562 14.9127C36.8389 14.8856 37.0216 14.8567 37.2007 14.8296C37.5552 14.7772 37.8989 14.7357 38.2318 14.7104C38.5646 14.6869 38.8848 14.6743 39.1887 14.6887C39.4908 14.7032 39.7748 14.7429 40.0208 14.8187C40.2668 14.8946 40.4658 15.0084 40.6069 15.1511C40.6232 15.1691 40.6431 15.189 40.6558 15.2053C40.6684 15.2215 40.6811 15.2378 40.6938 15.2522C40.7082 15.2739 40.7281 15.3064 40.7444 15.3317L40.7571 15.3516L40.7571 15.3552L40.7715 15.3841C40.8095 15.4617 40.8312 15.5448 40.8385 15.6315C40.8475 15.7182 40.8385 15.8103 40.824 15.9006C40.8077 15.991 40.786 16.0813 40.7535 16.1661C40.6938 16.3377 40.6124 16.4949 40.5328 16.6339C40.4839 16.717 40.4369 16.7911 40.3899 16.8615C40.8041 16.4895 41.1677 16.0632 41.4716 15.5954L41.477 15.5936Z" fill="#C1CCBC"/>
</g>
<path d="M41.1731 15.2468L41.1478 15.1854L41.1424 15.1709C41.1478 15.18 41.1315 15.1493 41.1315 15.1493L41.1279 15.1438L41.117 15.1222C41.1007 15.0915 41.0881 15.0662 41.0682 15.0301C41.0429 14.9903 41.0193 14.9506 40.9922 14.9127C40.9669 14.8747 40.9397 14.844 40.9126 14.8079C40.6919 14.5388 40.3808 14.3401 40.0552 14.2209C39.7278 14.0981 39.3841 14.033 39.0367 13.9987C38.6876 13.9644 38.3313 13.9608 37.9713 13.9753C37.6113 13.9897 37.2459 14.0222 36.8769 14.0656C36.696 14.0872 36.5115 14.1089 36.3269 14.1306C36.2329 14.1432 36.1497 14.1486 36.0592 14.1577C35.9706 14.1649 35.8801 14.1721 35.7897 14.1793C35.0715 14.2263 34.3244 14.1956 33.6624 13.9734C33.4959 13.9193 33.3404 13.8488 33.1902 13.7694C33.0401 13.6899 32.9008 13.5978 32.7724 13.4894C32.5155 13.2781 32.3093 13.009 32.1555 12.7019C32 12.3949 31.8986 12.0499 31.8335 11.6923L31.7901 11.4105L31.7666 11.1558C31.763 11.0655 31.7612 10.977 31.7576 10.8867C31.7612 10.7982 31.763 10.7097 31.7666 10.6194C31.7847 10.2654 31.8516 9.9186 31.9602 9.59349C32.0669 9.26838 32.2134 8.95772 32.407 8.68318C32.5987 8.40683 32.8194 8.15216 33.0763 7.93904C33.3241 7.71507 33.6045 7.53626 33.8849 7.3719L33.9373 7.34119C33.9156 7.35022 33.9355 7.34119 33.9337 7.34119L33.9409 7.33758L33.9554 7.33036L33.9844 7.31591L34.1001 7.25811C34.1761 7.22018 34.2521 7.18225 34.3281 7.14432C34.4818 7.06304 34.6229 7.01247 34.7658 6.95287C34.8364 6.92397 34.9069 6.89507 34.9775 6.86617C35.048 6.83908 35.1222 6.8174 35.1945 6.79392C35.2669 6.77044 35.3375 6.74696 35.4098 6.72348C35.446 6.71265 35.4804 6.7 35.5165 6.68916C35.5527 6.68013 35.5871 6.6711 35.6233 6.66207C36.1877 6.50494 36.7231 6.4345 37.1989 6.41102C37.6764 6.38754 38.0943 6.4074 38.4362 6.44353C38.6153 6.46339 38.7744 6.48868 38.9101 6.51216C38.2788 6.20872 37.5896 6.01005 36.8624 5.93238C36.4391 5.94864 35.976 5.9956 35.4894 6.09855C35.4514 6.10577 35.4116 6.113 35.3736 6.12022C35.3356 6.12925 35.2958 6.14009 35.2579 6.14912C35.1801 6.16899 35.1023 6.18886 35.0227 6.20873C34.9431 6.2304 34.8635 6.24665 34.7821 6.27013C34.7007 6.29542 34.6193 6.32251 34.5379 6.34961C34.3751 6.40379 34.2014 6.45617 34.0495 6.52119C33.9717 6.5519 33.8921 6.58441 33.8125 6.61511L33.6931 6.66207L33.6624 6.67472L33.6479 6.68014L33.6407 6.68375C33.6407 6.68375 33.6479 6.68013 33.6208 6.69278L33.5593 6.72348C33.2264 6.88243 32.8881 7.06304 32.5716 7.30326C32.2478 7.53084 31.9547 7.82344 31.6906 8.15216C31.4247 8.47908 31.2203 8.86379 31.0611 9.26837C30.9073 9.67476 30.8133 10.1082 30.7771 10.5453C30.7192 11.4249 30.8549 12.3118 31.2728 13.1426C31.4844 13.5544 31.7829 13.9373 32.1501 14.2335C32.3328 14.3834 32.53 14.5117 32.7344 14.6164C32.9388 14.723 33.1504 14.8097 33.3639 14.8747C33.7908 15.0066 34.2213 15.0716 34.6392 15.0951C35.0571 15.1222 35.4641 15.1041 35.8602 15.0698C35.9597 15.0608 36.0556 15.0499 36.1551 15.0373C36.2528 15.0246 36.3559 15.012 36.4445 14.9975C36.6272 14.9686 36.8099 14.9397 36.989 14.9127C37.3436 14.8585 37.6873 14.8151 38.0201 14.7898C38.353 14.7645 38.675 14.7519 38.977 14.7664C39.2791 14.7808 39.5631 14.8223 39.8092 14.9018C40.0552 14.9795 40.2542 15.0987 40.3953 15.245C40.4115 15.2631 40.4314 15.2829 40.4441 15.301C40.4568 15.3172 40.4694 15.3335 40.4821 15.3497C40.4966 15.3714 40.5165 15.4057 40.5327 15.4328L40.5454 15.4545L40.5454 15.4581L40.5599 15.487C40.5979 15.5665 40.6196 15.6532 40.6268 15.7435C40.6358 15.8338 40.6268 15.9277 40.6123 16.0216C40.596 16.1156 40.5725 16.2077 40.5418 16.2962C40.4821 16.475 40.4007 16.6357 40.3211 16.7802C40.2668 16.876 40.2126 16.9627 40.1619 17.0421C40.5725 16.708 40.9397 16.3233 41.2545 15.8988C41.2599 15.841 41.2636 15.7796 41.2617 15.7182C41.2599 15.5629 41.231 15.3967 41.1677 15.236L41.1731 15.2468Z" fill="white"/>
<g style="mix-blend-mode:soft-light" opacity="0.4">
<path d="M34.9485 6.50856C37.4973 6.50856 39.5649 8.57301 39.5649 11.1179C39.5649 13.6628 37.4973 15.7272 34.9485 15.7272C32.3997 15.7272 30.332 13.6628 30.332 11.1179C30.332 8.57301 32.3997 6.50856 34.9485 6.50856Z" fill="white"/>
</g>
<g style="mix-blend-mode:soft-light" opacity="0.4">
<path d="M36.9744 8.03655C35.5629 6.62726 33.2745 6.62725 31.863 8.03655C30.4516 9.44585 30.4516 11.7308 31.863 13.1401C33.2745 14.5494 35.5629 14.5494 36.9744 13.1401C38.3858 11.7308 38.3858 9.44585 36.9744 8.03655Z" fill="white"/>
</g>
<g style="mix-blend-mode:soft-light" opacity="0.4">
<path d="M33.6371 7.23824C35.0589 7.23824 36.2112 8.38877 36.2112 9.80842C36.2112 11.2281 35.0589 12.3786 33.6371 12.3786C32.2153 12.3786 31.063 11.2281 31.063 9.80842C31.063 8.38877 32.2153 7.23824 33.6371 7.23824Z" fill="white"/>
</g>
<rect x="23.9944" y="23.9862" width="23.0111" height="22.0277" rx="3.14681" fill="#083697"/>
<g clip-path="url(#clip0_21_2818)">
<path d="M41.6419 41.0736C41.7394 41.183 41.7758 41.3096 41.7229 41.3561L41.1464 41.8661C41.094 41.9127 40.9721 41.8616 40.8747 41.7517C40.7772 41.6423 40.741 41.5152 40.7937 41.4692L41.3702 40.9592C41.4231 40.9127 41.5445 40.9637 41.6419 41.0736Z" fill="#2B242A"/>
<path d="M40.7453 41.753C40.7453 41.753 40.9678 41.8729 41.3571 41.5285C41.7463 41.1842 41.6535 40.9495 41.6535 40.9495C41.6535 40.9495 39.2803 38.4759 38.9845 38.1435C38.6888 37.8106 37.9541 38.3383 38.3107 38.7394C38.6672 39.1406 40.7447 41.7533 40.7447 41.7533L40.7453 41.753Z" fill="#95C11F"/>
<g style="mix-blend-mode:soft-light">
<path d="M41.5683 41.0113C41.1581 40.5835 39.2398 38.5819 38.9759 38.2847C38.9738 38.2826 38.9716 38.281 38.9701 38.2785C38.8419 38.6808 41.4927 41.0663 41.5684 41.0108L41.5683 41.0113Z" fill="white"/>
</g>
<g style="mix-blend-mode:multiply">
<path d="M41.4794 40.9949C41.3055 41.0892 41.1151 41.1415 40.9182 41.0957C40.6668 41.0372 40.4499 40.8889 40.2497 40.7331C39.7748 40.3652 39.3475 39.9594 39.0893 39.4082C38.899 39.0022 38.7879 38.5352 38.9367 38.1C38.6176 37.8646 37.9725 38.3587 38.3111 38.7396C38.6676 39.1407 40.7451 41.7535 40.7451 41.7535C40.7451 41.7535 40.9676 41.8734 41.3569 41.529C41.7461 41.1846 41.6533 40.9499 41.6533 40.9499C41.6533 40.9499 41.6392 40.9354 41.614 40.9086C41.5704 40.9412 41.5245 40.9706 41.4793 40.9954L41.4794 40.9949Z" fill="#BBCBC8"/>
</g>
<g style="mix-blend-mode:soft-light">
<path d="M41.4745 40.7604L41.123 41.6985C41.1696 41.6741 41.2203 41.6418 41.275 41.6L41.5572 40.8466C41.5332 40.8218 41.5055 40.7928 41.4745 40.7604Z" fill="white"/>
<path d="M41.1301 40.4011L40.6639 41.6449C40.7032 41.6941 40.7301 41.7281 40.7419 41.7431L41.2127 40.4873C41.1859 40.4591 41.1586 40.4308 41.1301 40.4011Z" fill="white"/>
<path d="M40.6722 39.9243L40.2305 41.1031C40.2576 41.1366 40.2837 41.1694 40.3086 41.2013L40.7549 40.0106C40.7276 39.9822 40.6999 39.9533 40.6722 39.9243Z" fill="white"/>
<path d="M40.2152 39.4467L39.7968 40.5628C39.823 40.5955 39.8492 40.6283 39.875 40.6605L40.2978 39.533C40.2702 39.504 40.243 39.4752 40.2153 39.4462L40.2152 39.4467Z" fill="white"/>
<path d="M39.7585 38.9686L39.363 40.0239C39.3893 40.0562 39.415 40.0888 39.4416 40.1217L39.8409 39.0558C39.8133 39.0264 39.7857 38.9974 39.7584 38.9691L39.7585 38.9686Z" fill="white"/>
<path d="M39.3022 38.488L38.928 39.4864C38.9539 39.5185 38.9802 39.5508 39.0068 39.5837L39.3846 38.5752C39.3562 38.545 39.3286 38.5156 39.3022 38.488Z" fill="white"/>
<path d="M38.7531 38.2554L38.4911 38.9541C38.516 38.984 38.5423 39.0162 38.5703 39.05L38.9258 38.1024L38.7537 38.255L38.7531 38.2554Z" fill="white"/>
</g>
<path d="M38.5306 37.7099C38.201 37.3392 37.5188 33.8976 37.3529 32.9575C37.1425 33.1926 36.9121 35.2743 36.9121 35.2743C36.9121 35.2743 37.2101 34.818 37.358 35.3811C37.5611 36.1537 37.77 37.0589 37.8112 37.2387C37.8769 37.5258 37.7325 37.5849 37.5163 37.5023C37.3847 37.4519 36.501 37.1339 35.7335 36.8178C35.3486 36.6592 35.6956 36.3568 35.6956 36.3568C35.6956 36.3568 32.8124 36.205 33.3234 36.5217C34.4064 36.7812 37.549 37.8587 37.9075 38.2619C38.2661 38.665 38.861 38.0814 38.5316 37.7102L38.5306 37.7099Z" fill="#352E35"/>
<path d="M31.1101 34.7216C29.6744 33.1054 29.5653 30.8631 30.8654 29.713C32.0983 28.6226 34.1558 28.9058 35.5894 30.315C35.6705 30.2258 35.7471 30.1276 35.8359 30.0472C34.2363 28.4741 31.94 28.1577 30.5645 29.3748C29.1137 30.6579 29.2356 33.1597 30.8372 34.9629C31.0301 35.1796 31.2355 35.3764 31.4502 35.5531C31.5353 35.4649 31.606 35.3652 31.6806 35.2686C31.4801 35.1061 31.2889 34.9238 31.1095 34.722L31.1101 34.7216Z" fill="#95C11F"/>
<path d="M32.2601 29.0804L32.3242 29.1521L32.0336 29.409L31.8276 29.1773C31.8053 29.1843 31.7824 29.1917 31.7605 29.1993L31.9851 29.4524L31.6945 29.7092L31.4381 29.4203L31.6364 29.2447C31.5711 29.2702 31.5065 29.2986 31.4435 29.3294L31.3947 29.3722L31.3833 29.3594C31.3638 29.3697 31.3439 29.3799 31.3248 29.3908L31.3464 29.4151L31.0558 29.672L30.9971 29.6058C30.9801 29.6188 30.9635 29.6325 30.9463 29.646L31.0071 29.7143L30.7165 29.9711L30.6647 29.913C30.65 29.9292 30.636 29.9451 30.6217 29.962L30.6682 30.014L30.4136 30.239C30.3754 30.2981 30.3395 30.3583 30.3064 30.4197L30.3722 30.3618L30.6287 30.6507L30.3381 30.9075L30.1685 30.7165C30.1596 30.7389 30.151 30.7619 30.1426 30.7845L30.2899 30.95L30.0291 31.1807C30.0202 31.2236 30.0113 31.2665 30.0044 31.3098L30.2504 31.5866L29.9597 31.8434L29.9581 31.8415C29.9577 31.8739 29.9583 31.9065 29.9589 31.9392L30.2109 32.2228L29.999 32.4102C30.0026 32.4353 30.0067 32.4604 30.0107 32.4855L30.2538 32.2708L30.5103 32.5597L30.2196 32.8165L30.0329 32.606C30.0415 32.6485 30.0504 32.6916 30.0606 32.734L30.1715 32.8589L30.1076 32.9158C30.1139 32.9383 30.1205 32.9615 30.1273 32.9842L30.2142 32.9074L30.4707 33.1963L30.2664 33.3768C30.2751 33.3978 30.2834 33.4188 30.2924 33.4394L30.5131 33.2442L30.7695 33.5331L30.4789 33.7899L30.432 33.7372C30.4773 33.8252 30.5255 33.9117 30.5771 33.9976L30.7295 34.1696L30.7016 34.1946C30.7137 34.2128 30.7255 34.2305 30.7377 34.2482L30.7722 34.2181L31.0287 34.507L30.9702 34.5589C30.9839 34.5754 30.9975 34.592 31.0111 34.6085L31.0716 34.555L31.328 34.8439L31.2703 34.8949C31.2853 34.9102 31.3003 34.9255 31.3153 34.9408L31.3709 34.8919L31.6274 35.1808L31.6009 35.204C31.6173 35.2181 31.6343 35.2318 31.6511 35.246L31.6701 35.2293L31.7684 35.34C31.8508 35.4037 31.9347 35.4641 32.0199 35.5211L32.3084 35.2664L32.5648 35.5553L32.3651 35.7322C32.3854 35.743 32.4053 35.7538 32.4256 35.7647L32.6076 35.6038L32.864 35.8927L32.8063 35.9437C32.8286 35.953 32.8511 35.9618 32.873 35.9704L32.9069 35.9407L32.9635 36.0047C33.0048 36.0198 33.0464 36.0339 33.0881 36.0476L32.9556 35.8984L33.2462 35.6415L33.5026 35.9304L33.2989 36.1105C33.3241 36.1168 33.3493 36.1231 33.3744 36.1295L33.5456 35.9779L33.7434 36.2007C33.7941 36.2076 33.845 36.2141 33.8953 36.2189L34.1581 35.9865L34.3755 36.231C34.4032 36.2296 34.4304 36.228 34.4577 36.226L34.2064 35.9436L34.497 35.6868L34.7534 35.9757L34.4709 36.2256C34.5074 36.2227 34.5441 36.2188 34.5803 36.2148L34.7963 36.0237L34.915 36.1573C34.939 36.1518 34.9625 36.1462 34.9856 36.1399L34.8445 35.9812L35.1351 35.7244L35.383 36.0038C35.4757 35.9636 35.5662 35.9182 35.6538 35.8673L35.7732 35.762L35.7911 35.7823C35.8095 35.7701 35.8273 35.7578 35.8447 35.7454L35.8215 35.7191L36.1121 35.4623L36.1443 35.4987C36.1597 35.4837 36.1751 35.4686 36.1906 35.4531L36.1609 35.4195L36.4135 35.1961C36.466 35.1264 36.5148 35.0548 36.5601 34.9807L36.4574 35.0718L36.2009 34.7829L36.4915 34.5261L36.6877 34.7469C36.6978 34.7258 36.7076 34.7041 36.7172 34.683L36.5398 34.4832L36.8304 34.2263L36.8655 34.2661C36.8719 34.2409 36.8783 34.2158 36.8848 34.1907L36.8786 34.1839L36.8888 34.1749C36.8974 34.1393 36.9055 34.1036 36.9125 34.0681L36.8357 34.1359L36.5793 33.847L36.8699 33.5902L36.9645 33.6968C36.9668 33.667 36.9689 33.6365 36.9707 33.6066L36.9182 33.5472L36.9753 33.4966C36.9758 33.4679 36.9764 33.4386 36.976 33.4097L36.8754 33.4987L36.6446 33.2389L36.9352 32.982L36.9528 33.0016C36.9483 32.9638 36.9438 32.926 36.9383 32.8879L36.6842 32.6022L36.8507 32.4547C36.8445 32.4317 36.8383 32.4086 36.8323 32.3851L36.6415 32.5537L36.385 32.2648L36.6464 32.0337L36.7659 32.1681C36.7478 32.1137 36.7281 32.0595 36.7079 32.0051L36.6952 31.9909L36.7007 31.986C36.6925 31.9645 36.6842 31.9436 36.6755 31.922L36.6525 31.9424L36.396 31.6535L36.5075 31.5546C36.4973 31.5348 36.487 31.5154 36.4768 31.496L36.3531 31.6055L36.0967 31.3166L36.2779 31.1566C36.2663 31.1385 36.2546 31.1203 36.2425 31.1021L36.0543 31.2687L35.7978 30.9799L36.0152 30.7875C36.0022 30.7706 35.9885 30.754 35.975 30.737L35.7549 30.9318L35.4985 30.643L35.7207 30.446C35.7058 30.4302 35.6913 30.4151 35.6764 30.3993L35.4557 30.5945L35.1993 30.3056L35.3956 30.1315C35.3794 30.117 35.3629 30.1034 35.3466 30.0893L35.1564 30.2576L34.8999 29.9687L35.0378 29.8465C35.0201 29.8337 35.0019 29.8207 34.984 29.8084L34.857 29.9207L34.6006 29.6318L34.6448 29.5926C34.6251 29.5813 34.6054 29.5701 34.5855 29.5593L34.5577 29.5838L34.4909 29.5083C34.4395 29.4812 34.3878 29.4556 34.3357 29.431L34.5094 29.6267L34.248 29.8578L33.9915 29.569L34.2115 29.3746C34.1898 29.365 34.168 29.3558 34.1457 29.3465L33.9486 29.521L33.6922 29.2321L33.7295 29.199C33.7051 29.1918 33.6806 29.1851 33.656 29.1784L33.6498 29.1842L33.6408 29.1741C33.6039 29.1643 33.5664 29.1549 33.5293 29.146L33.601 29.227L33.3104 29.4838L33.0539 29.1949L33.1824 29.0809C33.154 29.0769 33.1255 29.0734 33.0975 29.0701L33.0112 29.1464L32.93 29.0552C32.8995 29.0534 32.8695 29.0516 32.8393 29.0503L32.9629 29.1894L32.6723 29.4462L32.4158 29.1573L32.534 29.0528C32.4983 29.0548 32.4634 29.0576 32.428 29.0607L32.3728 29.1098L32.3377 29.0706C32.3117 29.0735 32.2861 29.077 32.2604 29.081L32.2601 29.0804ZM32.2666 35.2182L31.976 35.475L31.7195 35.1861L32.0101 34.9293L32.2666 35.2182ZM31.9673 34.8813L31.6767 35.1381L31.4202 34.8492L31.7108 34.5924L31.9673 34.8813ZM31.6679 34.5444L31.3773 34.8012L31.1208 34.5123L31.4115 34.2555L31.6679 34.5444ZM31.3686 34.2075L31.078 34.4643L30.8215 34.1754L31.1121 33.9186L31.3686 34.2075ZM31.0697 33.8707L30.7791 34.1275L30.5227 33.8387L30.8133 33.5818L31.0697 33.8707ZM33.2037 35.592L32.9131 35.8489L32.6566 35.56L32.9472 35.3032L33.2037 35.592ZM32.9048 35.2553L32.6142 35.5121L32.3578 35.2232L32.6484 34.9664L32.9048 35.2553ZM32.6055 34.9184L32.3149 35.1752L32.0584 34.8863L32.349 34.6295L32.6055 34.9184ZM32.3062 34.5815L32.0156 34.8383L31.7591 34.5494L32.0497 34.2926L32.3062 34.5815ZM32.0068 34.2446L31.7162 34.5014L31.4597 34.2126L31.7504 33.9557L32.0068 34.2446ZM31.7075 33.9077L31.4169 34.1645L31.1604 33.8757L31.451 33.6188L31.7075 33.9077ZM31.4081 33.5708L31.1175 33.8277L30.8611 33.5388L31.1517 33.2819L31.4081 33.5708ZM31.1093 33.2341L30.8187 33.4909L30.5622 33.202L30.8528 32.9452L31.1093 33.2341ZM30.81 32.8972L30.5194 33.154L30.2629 32.8651L30.5535 32.6083L30.81 32.8972ZM34.1156 35.9371L33.825 36.1939L33.5942 35.934L33.8848 35.6772L34.1156 35.9371ZM33.8419 35.6292L33.5513 35.886L33.2948 35.5971L33.5855 35.3403L33.8419 35.6292ZM33.5426 35.2923L33.252 35.5491L32.9955 35.2602L33.2861 35.0034L33.5426 35.2923ZM33.2437 34.9555L32.9531 35.2123L32.6967 34.9235L32.9873 34.6666L33.2437 34.9555ZM32.9444 34.6186L32.6538 34.8755L32.3973 34.5866L32.6879 34.3297L32.9444 34.6186ZM32.6451 34.2817L32.3545 34.5386L32.098 34.2497L32.3886 33.9928L32.6451 34.2817ZM32.3457 33.9448L32.0551 34.2017L31.7986 33.9128L32.0893 33.656L32.3457 33.9448ZM32.0464 33.608L31.7558 33.8648L31.4993 33.5759L31.7899 33.3191L32.0464 33.608ZM31.747 33.2711L31.4564 33.5279L31.2 33.239L31.4906 32.9822L31.747 33.2711ZM31.4482 32.9343L31.1576 33.1911L30.9011 32.9022L31.1917 32.6454L31.4482 32.9343ZM31.1489 32.5974L30.8583 32.8542L30.6018 32.5654L30.8924 32.3085L31.1489 32.5974ZM30.8495 32.2605L30.5589 32.5173L30.3024 32.2285L30.5931 31.9716L30.8495 32.2605ZM30.5502 31.9236L30.2596 32.1805L30.0031 31.8916L30.2937 31.6347L30.5502 31.9236ZM34.4545 35.6373L34.1639 35.8941L33.9331 35.6342L34.2237 35.3774L34.4545 35.6373ZM34.1808 35.3294L33.8902 35.5862L33.6337 35.2974L33.9244 35.0405L34.1808 35.3294ZM33.8815 34.9925L33.5909 35.2494L33.3344 34.9605L33.625 34.7036L33.8815 34.9925ZM33.5826 34.6558L33.292 34.9126L33.0356 34.6237L33.3262 34.3669L33.5826 34.6558ZM33.2833 34.3189L32.9927 34.5757L32.7362 34.2868L33.0268 34.03L33.2833 34.3189ZM32.984 33.982L32.6934 34.2388L32.4369 33.9499L32.7275 33.6931L32.984 33.982ZM32.6846 33.6451L32.394 33.9019L32.1375 33.613L32.4282 33.3562L32.6846 33.6451ZM32.3853 33.3082L32.0947 33.565L31.8382 33.2761L32.1288 33.0193L32.3853 33.3082ZM32.0859 32.9713L31.7953 33.2281L31.5389 32.9392L31.8295 32.6824L32.0859 32.9713ZM31.7871 32.6345L31.4965 32.8914L31.24 32.6025L31.5306 32.3456L31.7871 32.6345ZM31.4878 32.2976L31.1972 32.5545L30.9407 32.2656L31.2313 32.0088L31.4878 32.2976ZM31.1883 31.9612L30.8977 32.2181L30.6412 31.9292L30.9318 31.6724L31.1883 31.9612ZM30.889 31.6244L30.5984 31.8812L30.3419 31.5923L30.6325 31.3355L30.889 31.6244ZM30.5896 31.2875L30.299 31.5443L30.0425 31.2554L30.3332 30.9986L30.5896 31.2875ZM35.0926 35.6749L34.802 35.9318L34.5455 35.6429L34.8361 35.386L35.0926 35.6749ZM34.7933 35.338L34.5027 35.5949L34.2719 35.335L34.5625 35.0781L34.7933 35.338ZM34.5196 35.0301L34.229 35.287L33.9725 34.9981L34.2631 34.7413L34.5196 35.0301ZM34.2203 34.6932L33.9296 34.9501L33.6732 34.6612L33.9638 34.4044L34.2203 34.6932ZM33.9209 34.3564L33.6303 34.6132L33.3738 34.3243L33.6644 34.0675L33.9209 34.3564ZM33.6221 34.0196L33.3315 34.2764L33.075 33.9875L33.3656 33.7307L33.6221 34.0196ZM33.3227 33.6827L33.0321 33.9395L32.7757 33.6506L33.0663 33.3938L33.3227 33.6827ZM33.0234 33.3458L32.7328 33.6026L32.4763 33.3138L32.7669 33.0569L33.0234 33.3458ZM32.7241 33.0089L32.4334 33.2658L32.177 32.9769L32.4676 32.72L32.7241 33.0089ZM32.4247 32.672L32.1341 32.9289L31.8776 32.64L32.1682 32.3831L32.4247 32.672ZM32.1259 32.3353L31.8353 32.5921L31.5788 32.3032L31.8694 32.0464L32.1259 32.3353ZM31.8265 31.9984L31.5359 32.2552L31.2795 31.9663L31.5701 31.7095L31.8265 31.9984ZM31.5272 31.6615L31.2366 31.9183L30.9801 31.6294L31.2707 31.3726L31.5272 31.6615ZM31.2279 31.3246L30.9373 31.5814L30.6808 31.2925L30.9714 31.0357L31.2279 31.3246ZM30.9285 30.9877L30.6379 31.2445L30.3814 30.9556L30.6721 30.6988L30.9285 30.9877ZM35.7308 35.712L35.4402 35.9689L35.1838 35.68L35.4744 35.4232L35.7308 35.712ZM35.4315 35.3752L35.1409 35.632L34.8844 35.3431L35.175 35.0863L35.4315 35.3752ZM35.1322 35.0383L34.8416 35.2951L34.6108 35.0352L34.9014 34.7784L35.1322 35.0383ZM34.8585 34.7304L34.5679 34.9872L34.3114 34.6983L34.602 34.4415L34.8585 34.7304ZM34.5592 34.3935L34.2685 34.6503L34.0121 34.3614L34.3027 34.1046L34.5592 34.3935ZM34.2598 34.0566L33.9692 34.3134L33.7127 34.0245L34.0033 33.7677L34.2598 34.0566ZM33.961 33.7198L33.6704 33.9767L33.4139 33.6878L33.7045 33.4309L33.961 33.7198ZM33.6616 33.3829L33.371 33.6398L33.1146 33.3509L33.4052 33.0941L33.6616 33.3829ZM33.3623 33.046L33.0717 33.3029L32.8152 33.014L33.1058 32.7572L33.3623 33.046ZM33.063 32.7092L32.7723 32.966L32.5159 32.6771L32.8065 32.4203L33.063 32.7092ZM32.7636 32.3723L32.473 32.6291L32.2165 32.3402L32.5071 32.0834L32.7636 32.3723ZM32.4648 32.0355L32.1742 32.2923L31.9177 32.0034L32.2083 31.7466L32.4648 32.0355ZM32.1654 31.6986L31.8748 31.9554L31.6184 31.6666L31.909 31.4097L32.1654 31.6986ZM31.8661 31.3617L31.5755 31.6186L31.319 31.3297L31.6096 31.0728L31.8661 31.3617ZM31.5668 31.0248L31.2761 31.2817L31.0197 30.9928L31.3103 30.7359L31.5668 31.0248ZM31.2674 30.6879L30.9768 30.9448L30.7203 30.6559L31.011 30.3991L31.2674 30.6879ZM30.9681 30.351L30.6775 30.6079L30.421 30.319L30.7116 30.0622L30.9681 30.351ZM36.0697 35.4123L35.7791 35.6691L35.5227 35.3802L35.8133 35.1234L36.0697 35.4123ZM35.7704 35.0754L35.4798 35.3322L35.2233 35.0433L35.5139 34.7865L35.7704 35.0754ZM35.4711 34.7385L35.1805 34.9953L34.9497 34.7355L35.2403 34.4786L35.4711 34.7385ZM35.1974 34.4306L34.9068 34.6874L34.6503 34.3986L34.9409 34.1417L35.1974 34.4306ZM34.8981 34.0937L34.6074 34.3506L34.351 34.0617L34.6416 33.8048L34.8981 34.0937ZM34.5992 33.757L34.3086 34.0138L34.0521 33.7249L34.3427 33.4681L34.5992 33.757ZM34.2999 33.4201L34.0093 33.6769L33.7528 33.388L34.0434 33.1312L34.2999 33.4201ZM34.0005 33.0832L33.7099 33.34L33.4535 33.0511L33.7441 32.7943L34.0005 33.0832ZM33.7012 32.7463L33.4106 33.0031L33.1541 32.7142L33.4447 32.4574L33.7012 32.7463ZM33.4019 32.4094L33.1112 32.6662L32.8548 32.3773L33.1454 32.1205L33.4019 32.4094ZM33.1025 32.0725L32.8119 32.3293L32.5554 32.0405L32.846 31.7836L33.1025 32.0725ZM32.8037 31.7357L32.5131 31.9926L32.2566 31.7037L32.5472 31.4469L32.8037 31.7357ZM32.5043 31.3988L32.2137 31.6557L31.9573 31.3668L32.2479 31.11L32.5043 31.3988ZM32.205 31.062L31.9144 31.3188L31.6579 31.0299L31.9485 30.7731L32.205 31.062ZM31.9057 30.7251L31.615 30.9819L31.3586 30.693L31.6492 30.4362L31.9057 30.7251ZM31.6063 30.3882L31.3157 30.645L31.0592 30.3561L31.3498 30.0993L31.6063 30.3882ZM31.307 30.0513L31.0164 30.3081L30.7599 30.0192L31.0505 29.7624L31.307 30.0513ZM36.4086 35.1125L36.118 35.3694L35.8616 35.0805L36.1522 34.8236L36.4086 35.1125ZM36.1093 34.7756L35.8187 35.0325L35.5622 34.7436L35.8528 34.4867L36.1093 34.7756ZM35.81 34.4387L35.5193 34.6956L35.2886 34.4357L35.5792 34.1789L35.81 34.4387ZM35.5363 34.1309L35.2457 34.3877L34.9892 34.0988L35.2798 33.842L35.5363 34.1309ZM35.237 33.794L34.9463 34.0508L34.6899 33.7619L34.9805 33.5051L35.237 33.794ZM34.9376 33.4571L34.647 33.7139L34.3905 33.425L34.6811 33.1682L34.9376 33.4571ZM34.6388 33.1203L34.3482 33.3771L34.0917 33.0883L34.3823 32.8314L34.6388 33.1203ZM34.3394 32.7834L34.0488 33.0402L33.7924 32.7514L34.083 32.4945L34.3394 32.7834ZM34.0401 32.4465L33.7495 32.7034L33.493 32.4145L33.7836 32.1576L34.0401 32.4465ZM33.7408 32.1096L33.4501 32.3665L33.1937 32.0776L33.4843 31.8207L33.7408 32.1096ZM33.4414 31.7727L33.1508 32.0296L32.8943 31.7407L33.1849 31.4839L33.4414 31.7727ZM33.1421 31.4359L32.8515 31.6927L32.595 31.4038L32.8856 31.147L33.1421 31.4359ZM32.8432 31.0991L32.5526 31.3559L32.2962 31.067L32.5868 30.8102L32.8432 31.0991ZM32.5439 30.7622L32.2533 31.019L31.9968 30.7301L32.2874 30.4733L32.5439 30.7622ZM32.2446 30.4253L31.9539 30.6821L31.6975 30.3933L31.9881 30.1364L32.2446 30.4253ZM31.9452 30.0884L31.6546 30.3452L31.3981 30.0564L31.6887 29.7995L31.9452 30.0884ZM31.6459 29.7515L31.3553 30.0084L31.0988 29.7195L31.3894 29.4626L31.6459 29.7515ZM36.4481 34.4764L36.1575 34.7332L35.901 34.4443L36.1916 34.1875L36.4481 34.4764ZM36.1489 34.139L35.8582 34.3958L35.6275 34.1359L35.9181 33.8791L36.1489 34.139ZM35.8752 33.8311L35.5846 34.0879L35.3281 33.799L35.6187 33.5422L35.8752 33.8311ZM35.5759 33.4942L35.2852 33.751L35.0288 33.4621L35.3194 33.2053L35.5759 33.4942ZM35.2765 33.1573L34.9859 33.4141L34.7294 33.1253L35.02 32.8684L35.2765 33.1573ZM34.9777 32.8205L34.6871 33.0774L34.4306 32.7885L34.7212 32.5317L34.9777 32.8205ZM34.6783 32.4837L34.3877 32.7405L34.1313 32.4516L34.4219 32.1948L34.6783 32.4837ZM34.379 32.1468L34.0884 32.4036L33.8319 32.1147L34.1225 31.8579L34.379 32.1468ZM34.0797 31.8099L33.789 32.0667L33.5326 31.7778L33.8232 31.521L34.0797 31.8099ZM33.7803 31.473L33.4897 31.7298L33.2332 31.4409L33.5238 31.1841L33.7803 31.473ZM33.481 31.1361L33.1904 31.3929L32.9339 31.104L33.2245 30.8472L33.481 31.1361ZM33.182 30.7998L32.8914 31.0566L32.6349 30.7678L32.9255 30.5109L33.182 30.7998ZM32.8828 30.4624L32.5922 30.7193L32.3357 30.4304L32.6263 30.1735L32.8828 30.4624ZM32.5835 30.1255L32.2928 30.3824L32.0364 30.0935L32.327 29.8367L32.5835 30.1255ZM32.284 29.7891L31.9934 30.046L31.7369 29.7571L32.0275 29.5003L32.284 29.7891ZM36.787 34.1766L36.4964 34.4334L36.2399 34.1445L36.5305 33.8877L36.787 34.1766ZM36.4876 33.8397L36.197 34.0965L35.9662 33.8367L36.2568 33.5798L36.4876 33.8397ZM36.2141 33.5313L35.9235 33.7882L35.667 33.4993L35.9576 33.2424L36.2141 33.5313ZM35.9148 33.1944L35.6241 33.4513L35.3677 33.1624L35.6583 32.9055L35.9148 33.1944ZM35.6153 32.858L35.3247 33.1149L35.0682 32.826L35.3588 32.5692L35.6153 32.858ZM35.3161 32.5207L35.0255 32.7775L34.769 32.4886L35.0596 32.2318L35.3161 32.5207ZM35.0172 32.1839L34.7266 32.4407L34.4702 32.1518L34.7608 31.895L35.0172 32.1839ZM34.7178 31.8475L34.4272 32.1043L34.1707 31.8154L34.4613 31.5586L34.7178 31.8475ZM34.4184 31.5106L34.1278 31.7674L33.8713 31.4785L34.162 31.2217L34.4184 31.5106ZM34.1191 31.1737L33.8285 31.4305L33.572 31.1417L33.8626 30.8848L34.1191 31.1737ZM33.8198 30.8368L33.5291 31.0937L33.2727 30.8048L33.5633 30.5479L33.8198 30.8368ZM33.5209 30.5001L33.2303 30.7569L32.9738 30.468L33.2644 30.2112L33.5209 30.5001ZM33.2216 30.1632L32.931 30.42L32.6745 30.1311L32.9651 29.8743L33.2216 30.1632ZM32.9222 29.8263L32.6316 30.0831L32.3752 29.7942L32.6658 29.5374L32.9222 29.8263ZM32.6229 29.4894L32.3323 29.7462L32.0758 29.4573L32.3664 29.2005L32.6229 29.4894ZM34.2899 29.9056L34.5513 29.6745L34.8078 29.9634L34.5463 30.1945L34.2899 29.9056ZM34.5887 30.2424L34.8501 30.0112L35.1066 30.3001L34.8452 30.5313L34.5887 30.2424ZM34.888 30.5793L35.1495 30.3481L35.406 30.637L35.1445 30.8681L34.888 30.5793ZM35.1874 30.9162L35.4488 30.685L35.7053 30.9739L35.4439 31.205L35.1874 30.9162ZM35.4867 31.253L35.7482 31.0219L36.0046 31.3108L35.7432 31.5419L35.4867 31.253ZM35.7861 31.5899L36.0475 31.3588L36.304 31.6477L36.0425 31.8788L35.7861 31.5899ZM36.0854 31.9268L36.3468 31.6957L36.6033 31.9846L36.3419 32.2157L36.0854 31.9268ZM33.3523 29.5316L33.6429 29.2748L33.8994 29.5636L33.6088 29.8205L33.3523 29.5316ZM33.6516 29.8685L33.9422 29.6116L34.1987 29.9005L33.9081 30.1574L33.6516 29.8685ZM33.951 30.2054L34.2416 29.9485L34.498 30.2374L34.2074 30.4943L33.951 30.2054ZM34.2503 30.5423L34.5409 30.2854L34.7974 30.5743L34.5068 30.8311L34.2503 30.5423ZM34.5491 30.879L34.8398 30.6222L35.0962 30.9111L34.8056 31.1679L34.5491 30.879ZM34.8485 31.2159L35.1391 30.9591L35.3956 31.248L35.105 31.5048L34.8485 31.2159ZM35.1478 31.5528L35.4384 31.296L35.6949 31.5849L35.4043 31.8417L35.1478 31.5528ZM35.4472 31.8897L35.7378 31.6329L35.9942 31.9217L35.7036 32.1786L35.4472 31.8897ZM35.7465 32.2266L36.0371 31.9698L36.2936 32.2586L36.003 32.5155L35.7465 32.2266ZM36.0453 32.5634L36.336 32.3065L36.5924 32.5954L36.3018 32.8522L36.0453 32.5634ZM36.3447 32.9002L36.6353 32.6434L36.8918 32.9323L36.6012 33.1891L36.3447 32.9002ZM36.8265 33.5399L36.5359 33.7968L36.3051 33.5369L36.5957 33.2801L36.8265 33.5399ZM36.553 33.2316L36.2624 33.4884L36.0059 33.1995L36.2965 32.9427L36.553 33.2316ZM36.2535 32.8952L35.9629 33.152L35.7064 32.8631L35.9971 32.6063L36.2535 32.8952ZM35.9542 32.5583L35.6636 32.8151L35.4071 32.5262L35.6977 32.2694L35.9542 32.5583ZM35.6553 32.2215L35.3647 32.4783L35.1083 32.1895L35.3989 31.9326L35.6553 32.2215ZM35.356 31.8846L35.0654 32.1415L34.8089 31.8526L35.0995 31.5957L35.356 31.8846ZM35.0567 31.5477L34.7661 31.8046L34.5096 31.5157L34.8002 31.2588L35.0567 31.5477ZM34.7573 31.2108L34.4667 31.4677L34.2102 31.1788L34.5009 30.922L34.7573 31.2108ZM34.458 30.8739L34.1674 31.1308L33.9109 30.8419L34.2015 30.5851L34.458 30.8739ZM34.1587 30.5371L33.868 30.7939L33.6116 30.505L33.9022 30.2482L34.1587 30.5371ZM33.8598 30.2003L33.5692 30.4571L33.3127 30.1682L33.6033 29.9114L33.8598 30.2003ZM33.5605 29.8634L33.2699 30.1202L33.0134 29.8313L33.304 29.5745L33.5605 29.8634ZM33.0047 29.2376L33.2611 29.5265L32.9705 29.7833L32.7141 29.4945L33.0047 29.2376Z" fill="#9D9D9C"/>
<path d="M35.6659 29.886C35.6096 29.9972 35.5484 30.105 35.4759 30.2057C35.5962 30.3162 35.7124 30.4345 35.8242 30.5601C37.2598 32.1763 37.3694 34.4187 36.0688 35.5686C34.8835 36.6169 32.9358 36.3954 31.5132 35.1242C31.44 35.2233 31.3504 35.3355 31.2727 35.3988C32.8613 36.828 35.0428 37.08 36.3693 35.9067C37.82 34.6236 37.6981 32.1218 36.0965 30.3187C35.9591 30.1641 35.815 30.0194 35.6655 29.8854L35.6659 29.886Z" fill="#352E35"/>
<path d="M31.2093 34.8206L30.9834 35.1117C31.1824 35.3195 31.3934 35.5068 31.6128 35.6737L31.8384 35.3836C31.6179 35.2191 31.407 35.0313 31.2096 34.8213L31.2093 34.8206Z" fill="#D1D1D1"/>
<path d="M35.6947 30.4294L35.9204 30.1388C35.72 29.9327 35.5074 29.7471 35.287 29.5821L35.0606 29.873C35.2823 30.0352 35.4954 30.2209 35.6947 30.4294Z" fill="#D1D1D1"/>
<g style="mix-blend-mode:soft-light">
<path d="M30.773 29.637C32.0527 28.5054 34.1998 28.8242 35.6383 30.3331C35.6026 30.2901 35.5662 30.2474 35.5293 30.2051C34.1241 28.6232 31.9837 28.3564 30.6688 29.5191C29.3539 30.6817 29.555 32.9193 30.6224 34.2862C30.9114 34.6566 31.2394 35.0043 31.7169 35.4016C31.5384 35.2252 30.8481 34.5616 30.507 34.0192C29.5489 32.4962 29.6272 30.6502 30.7731 29.6365L30.773 29.637Z" fill="white"/>
</g>
<path d="M36.2828 35.7764C34.9441 36.9607 33.2212 36.4135 32.5426 36.2089C33.8266 36.9116 35.3417 36.8184 36.387 35.8943C37.5327 34.8812 37.6169 33.1311 36.999 31.7833C37.2734 32.5903 37.482 34.7164 36.2826 35.7769L36.2828 35.7764Z" fill="#2B242A"/>
<path d="M38.6163 37.64C38.6571 37.6858 38.6469 37.7603 38.5946 37.8069L38.0177 38.3167C37.9654 38.3633 37.8897 38.3637 37.8493 38.3184C37.8089 38.2731 37.8187 38.198 37.871 38.1514L38.4479 37.6417C38.5002 37.5951 38.5761 37.5942 38.6163 37.64Z" fill="#2B242A"/>
<path d="M37.9464 38.3346L38.2322 38.6555L38.9061 38.0609L38.6203 37.74L37.9464 38.3346Z" fill="#161013"/>
<path d="M38.9537 38.0188C38.994 38.0646 38.9843 38.1392 38.932 38.1858L38.3551 38.6956C38.3028 38.7422 38.2271 38.7426 38.1867 38.6973C38.1464 38.6515 38.1561 38.5769 38.2083 38.5308L38.7851 38.021C38.8375 37.9744 38.9132 37.974 38.9536 38.0193L38.9537 38.0188Z" fill="#2B242A"/>
</g>
<rect x="23.9944" y="46.9973" width="23.0111" height="22.0277" rx="3.14681" fill="#083697"/>
<g clip-path="url(#clip1_21_2818)">
<path d="M41.6419 64.0847C41.7394 64.1941 41.7758 64.3207 41.7229 64.3672L41.1464 64.8772C41.094 64.9238 40.9721 64.8727 40.8747 64.7628C40.7772 64.6533 40.741 64.5263 40.7937 64.4803L41.3702 63.9703C41.4231 63.9238 41.5445 63.9747 41.6419 64.0847Z" fill="#2B242A"/>
<path d="M40.7453 64.764C40.7453 64.764 40.9678 64.8839 41.3571 64.5396C41.7463 64.1952 41.6535 63.9605 41.6535 63.9605C41.6535 63.9605 39.2803 61.4869 38.9845 61.1545C38.6888 60.8217 37.9541 61.3494 38.3107 61.7505C38.6672 62.1517 40.7447 64.7644 40.7447 64.7644L40.7453 64.764Z" fill="#95C11F"/>
<g style="mix-blend-mode:soft-light">
<path d="M41.5683 64.0224C41.1581 63.5945 39.2398 61.593 38.9759 61.2958C38.9738 61.2937 38.9716 61.2921 38.9701 61.2896C38.8419 61.6918 41.4927 64.0774 41.5684 64.0219L41.5683 64.0224Z" fill="white"/>
</g>
<g style="mix-blend-mode:multiply">
<path d="M41.4794 64.006C41.3055 64.1002 41.1151 64.1525 40.9182 64.1068C40.6668 64.0483 40.4499 63.8999 40.2497 63.7442C39.7748 63.3762 39.3475 62.9704 39.0893 62.4193C38.899 62.0132 38.7879 61.5463 38.9367 61.1111C38.6176 60.8757 37.9725 61.3697 38.3111 61.7506C38.6676 62.1518 40.7451 64.7645 40.7451 64.7645C40.7451 64.7645 40.9676 64.8844 41.3569 64.5401C41.7461 64.1957 41.6533 63.961 41.6533 63.961C41.6533 63.961 41.6392 63.9464 41.614 63.9197C41.5704 63.9522 41.5245 63.9816 41.4793 64.0065L41.4794 64.006Z" fill="#BBCBC8"/>
</g>
<g style="mix-blend-mode:soft-light">
<path d="M41.4745 63.7714L41.123 64.7096C41.1696 64.6852 41.2203 64.6529 41.275 64.6111L41.5572 63.8577C41.5332 63.8328 41.5055 63.8039 41.4745 63.7714Z" fill="white"/>
<path d="M41.1301 63.4121L40.6639 64.656C40.7032 64.7052 40.7301 64.7392 40.7419 64.7542L41.2127 63.4984C41.1859 63.4702 41.1586 63.4418 41.1301 63.4121Z" fill="white"/>
<path d="M40.6722 62.9354L40.2305 64.1142C40.2576 64.1477 40.2837 64.1805 40.3086 64.2124L40.7549 63.0216C40.7276 62.9933 40.6999 62.9643 40.6722 62.9354Z" fill="white"/>
<path d="M40.2152 62.4578L39.7968 63.5738C39.823 63.6066 39.8492 63.6394 39.875 63.6715L40.2978 62.544C40.2702 62.5151 40.243 62.4862 40.2153 62.4573L40.2152 62.4578Z" fill="white"/>
<path d="M39.7585 61.9796L39.363 63.035C39.3893 63.0673 39.415 63.0999 39.4416 63.1328L39.8409 62.0669C39.8133 62.0374 39.7857 62.0085 39.7584 61.9801L39.7585 61.9796Z" fill="white"/>
<path d="M39.3022 61.499L38.928 62.4974C38.9539 62.5296 38.9802 62.5619 39.0068 62.5948L39.3846 61.5863C39.3562 61.5561 39.3286 61.5266 39.3022 61.499Z" fill="white"/>
<path d="M38.7531 61.2664L38.4911 61.9652C38.516 61.995 38.5423 62.0273 38.5703 62.0611L38.9258 61.1134L38.7537 61.2661L38.7531 61.2664Z" fill="white"/>
</g>
<path d="M38.5306 60.721C38.201 60.3503 37.5188 56.9086 37.3529 55.9686C37.1425 56.2036 36.9121 58.2854 36.9121 58.2854C36.9121 58.2854 37.2101 57.829 37.358 58.3922C37.5611 59.1648 37.77 60.07 37.8112 60.2497C37.8769 60.5368 37.7325 60.596 37.5163 60.5133C37.3847 60.463 36.501 60.145 35.7335 59.8289C35.3486 59.6703 35.6956 59.3678 35.6956 59.3678C35.6956 59.3678 32.8124 59.2161 33.3234 59.5327C34.4064 59.7923 37.549 60.8698 37.9075 61.2729C38.2661 61.6761 38.861 61.0924 38.5316 60.7212L38.5306 60.721Z" fill="#352E35"/>
<path d="M31.1101 57.7327C29.6744 56.1164 29.5653 53.8742 30.8654 52.7241C32.0983 51.6337 34.1558 51.9168 35.5894 53.326C35.6705 53.2369 35.7471 53.1387 35.8359 53.0583C34.2363 51.4852 31.94 51.1688 30.5645 52.3858C29.1137 53.669 29.2356 56.1708 30.8372 57.974C31.0301 58.1907 31.2355 58.3875 31.4502 58.5641C31.5353 58.4759 31.606 58.3763 31.6806 58.2797C31.4801 58.1171 31.2889 57.9349 31.1095 57.7331L31.1101 57.7327Z" fill="#95C11F"/>
<path d="M32.2601 52.0915L32.3242 52.1632L32.0336 52.42L31.8276 52.1884C31.8053 52.1954 31.7824 52.2027 31.7605 52.2103L31.9851 52.4634L31.6945 52.7203L31.4381 52.4314L31.6364 52.2557C31.5711 52.2813 31.5065 52.3096 31.4435 52.3405L31.3947 52.3833L31.3833 52.3704C31.3638 52.3807 31.3439 52.3909 31.3248 52.4019L31.3464 52.4262L31.0558 52.683L30.9971 52.6169C30.9801 52.6299 30.9635 52.6436 30.9463 52.6571L31.0071 52.7253L30.7165 52.9822L30.6647 52.924C30.65 52.9403 30.636 52.9562 30.6217 52.973L30.6682 53.0251L30.4136 53.2501C30.3754 53.3092 30.3395 53.3694 30.3064 53.4308L30.3722 53.3729L30.6287 53.6618L30.3381 53.9186L30.1685 53.7276C30.1596 53.75 30.151 53.773 30.1426 53.7955L30.2899 53.961L30.0291 54.1918C30.0202 54.2346 30.0113 54.2775 30.0044 54.3209L30.2504 54.5977L29.9597 54.8545L29.9581 54.8525C29.9577 54.8849 29.9583 54.9176 29.9589 54.9503L30.2109 55.2338L29.999 55.4213C30.0026 55.4463 30.0067 55.4715 30.0107 55.4966L30.2538 55.2818L30.5103 55.5707L30.2196 55.8276L30.0329 55.617C30.0415 55.6596 30.0504 55.7027 30.0606 55.7451L30.1715 55.87L30.1076 55.9268C30.1139 55.9494 30.1205 55.9726 30.1273 55.9952L30.2142 55.9185L30.4707 56.2074L30.2664 56.3878C30.2751 56.4089 30.2834 56.4299 30.2924 56.4505L30.5131 56.2553L30.7695 56.5441L30.4789 56.801L30.432 56.7483C30.4773 56.8362 30.5255 56.9228 30.5771 57.0086L30.7295 57.1807L30.7016 57.2056C30.7137 57.2239 30.7255 57.2415 30.7377 57.2593L30.7722 57.2292L31.0287 57.5181L30.9702 57.57C30.9839 57.5865 30.9975 57.603 31.0111 57.6196L31.0716 57.5661L31.328 57.8549L31.2703 57.906C31.2853 57.9213 31.3003 57.9366 31.3153 57.9519L31.3709 57.903L31.6274 58.1918L31.6009 58.2151C31.6173 58.2292 31.6343 58.2429 31.6511 58.2571L31.6701 58.2403L31.7684 58.351C31.8508 58.4147 31.9347 58.4751 32.0199 58.5322L32.3084 58.2775L32.5648 58.5663L32.3651 58.7432C32.3854 58.7541 32.4053 58.7649 32.4256 58.7757L32.6076 58.6148L32.864 58.9037L32.8063 58.9548C32.8286 58.9641 32.8511 58.9728 32.873 58.9815L32.9069 58.9517L32.9635 59.0158C33.0048 59.0309 33.0464 59.045 33.0881 59.0586L32.9556 58.9094L33.2462 58.6526L33.5026 58.9415L33.2989 59.1216C33.3241 59.1279 33.3493 59.1342 33.3744 59.1405L33.5456 58.989L33.7434 59.2117C33.7941 59.2187 33.845 59.2252 33.8953 59.23L34.1581 58.9976L34.3755 59.2421C34.4032 59.2406 34.4304 59.2391 34.4577 59.237L34.2064 58.9547L34.497 58.6978L34.7534 58.9867L34.4709 59.2367C34.5074 59.2338 34.5441 59.2299 34.5803 59.2259L34.7963 59.0347L34.915 59.1684C34.939 59.1629 34.9625 59.1572 34.9856 59.151L34.8445 58.9923L35.1351 58.7355L35.383 59.0149C35.4757 58.9747 35.5662 58.9293 35.6538 58.8784L35.7732 58.7731L35.7911 58.7933C35.8095 58.7812 35.8273 58.7689 35.8447 58.7564L35.8215 58.7302L36.1121 58.4733L36.1443 58.5097C36.1597 58.4947 36.1751 58.4797 36.1906 58.4642L36.1609 58.4305L36.4135 58.2071C36.466 58.1375 36.5148 58.0658 36.5601 57.9917L36.4574 58.0829L36.2009 57.794L36.4915 57.5372L36.6877 57.7579C36.6978 57.7369 36.7076 57.7152 36.7172 57.694L36.5398 57.4942L36.8304 57.2374L36.8655 57.2771C36.8719 57.252 36.8783 57.2269 36.8848 57.2017L36.8786 57.195L36.8888 57.186C36.8974 57.1504 36.9055 57.1147 36.9125 57.0792L36.8357 57.147L36.5793 56.8581L36.8699 56.6012L36.9645 56.7079C36.9668 56.678 36.9689 56.6476 36.9707 56.6177L36.9182 56.5583L36.9753 56.5076C36.9758 56.4789 36.9764 56.4497 36.976 56.4208L36.8754 56.5098L36.6446 56.2499L36.9352 55.9931L36.9528 56.0127C36.9483 55.9749 36.9438 55.937 36.9383 55.8989L36.6842 55.6133L36.8507 55.4658C36.8445 55.4427 36.8383 55.4197 36.8323 55.3961L36.6415 55.5648L36.385 55.2759L36.6464 55.0448L36.7659 55.1791C36.7478 55.1248 36.7281 55.0705 36.7079 55.0161L36.6952 55.002L36.7007 54.997C36.6925 54.9756 36.6842 54.9546 36.6755 54.933L36.6525 54.9535L36.396 54.6646L36.5075 54.5657C36.4973 54.5458 36.487 54.5265 36.4768 54.5071L36.3531 54.6166L36.0967 54.3277L36.2779 54.1677C36.2663 54.1495 36.2546 54.1314 36.2425 54.1131L36.0543 54.2798L35.7978 53.9909L36.0152 53.7985C36.0022 53.7816 35.9885 53.7651 35.975 53.7481L35.7549 53.9429L35.4985 53.654L35.7207 53.4571C35.7058 53.4413 35.6913 53.4261 35.6764 53.4103L35.4557 53.6055L35.1993 53.3166L35.3956 53.1426C35.3794 53.128 35.3629 53.1144 35.3466 53.1004L35.1564 53.2686L34.8999 52.9797L35.0378 52.8576C35.0201 52.8448 35.0019 52.8318 34.984 52.8194L34.857 52.9317L34.6006 52.6429L34.6448 52.6036C34.6251 52.5924 34.6054 52.5811 34.5855 52.5704L34.5577 52.5949L34.4909 52.5193C34.4395 52.4923 34.3878 52.4667 34.3357 52.4421L34.5094 52.6378L34.248 52.8689L33.9915 52.58L34.2115 52.3857C34.1898 52.376 34.168 52.3669 34.1457 52.3576L33.9486 52.532L33.6922 52.2431L33.7295 52.21C33.7051 52.2029 33.6806 52.1962 33.656 52.1895L33.6498 52.1953L33.6408 52.1851C33.6039 52.1753 33.5664 52.1659 33.5293 52.1571L33.601 52.2381L33.3104 52.4949L33.0539 52.206L33.1824 52.092C33.154 52.088 33.1255 52.0845 33.0975 52.0811L33.0112 52.1575L32.93 52.0663C32.8995 52.0644 32.8695 52.0626 32.8393 52.0614L32.9629 52.2004L32.6723 52.4573L32.4158 52.1684L32.534 52.0638C32.4983 52.0659 32.4634 52.0686 32.428 52.0718L32.3728 52.1209L32.3377 52.0816C32.3117 52.0845 32.2861 52.0881 32.2604 52.0921L32.2601 52.0915ZM32.2666 58.2292L31.976 58.486L31.7195 58.1972L32.0101 57.9403L32.2666 58.2292ZM31.9673 57.8923L31.6767 58.1492L31.4202 57.8603L31.7108 57.6034L31.9673 57.8923ZM31.6679 57.5554L31.3773 57.8123L31.1208 57.5234L31.4115 57.2665L31.6679 57.5554ZM31.3686 57.2185L31.078 57.4754L30.8215 57.1865L31.1121 56.9297L31.3686 57.2185ZM31.0697 56.8818L30.7791 57.1386L30.5227 56.8497L30.8133 56.5929L31.0697 56.8818ZM33.2037 58.6031L32.9131 58.8599L32.6566 58.5711L32.9472 58.3142L33.2037 58.6031ZM32.9048 58.2663L32.6142 58.5232L32.3578 58.2343L32.6484 57.9775L32.9048 58.2663ZM32.6055 57.9295L32.3149 58.1863L32.0584 57.8974L32.349 57.6406L32.6055 57.9295ZM32.3062 57.5926L32.0156 57.8494L31.7591 57.5605L32.0497 57.3037L32.3062 57.5926ZM32.0068 57.2557L31.7162 57.5125L31.4597 57.2236L31.7504 56.9668L32.0068 57.2557ZM31.7075 56.9188L31.4169 57.1756L31.1604 56.8867L31.451 56.6299L31.7075 56.9188ZM31.4081 56.5819L31.1175 56.8387L30.8611 56.5498L31.1517 56.293L31.4081 56.5819ZM31.1093 56.2451L30.8187 56.502L30.5622 56.2131L30.8528 55.9562L31.1093 56.2451ZM30.81 55.9082L30.5194 56.1651L30.2629 55.8762L30.5535 55.6193L30.81 55.9082ZM34.1156 58.9481L33.825 59.205L33.5942 58.9451L33.8848 58.6882L34.1156 58.9481ZM33.8419 58.6402L33.5513 58.8971L33.2948 58.6082L33.5855 58.3513L33.8419 58.6402ZM33.5426 58.3033L33.252 58.5602L32.9955 58.2713L33.2861 58.0145L33.5426 58.3033ZM33.2437 57.9666L32.9531 58.2234L32.6967 57.9345L32.9873 57.6777L33.2437 57.9666ZM32.9444 57.6297L32.6538 57.8865L32.3973 57.5976L32.6879 57.3408L32.9444 57.6297ZM32.6451 57.2928L32.3545 57.5496L32.098 57.2607L32.3886 57.0039L32.6451 57.2928ZM32.3457 56.9559L32.0551 57.2127L31.7986 56.9239L32.0893 56.667L32.3457 56.9559ZM32.0464 56.619L31.7558 56.8758L31.4993 56.587L31.7899 56.3301L32.0464 56.619ZM31.747 56.2821L31.4564 56.539L31.2 56.2501L31.4906 55.9932L31.747 56.2821ZM31.4482 55.9454L31.1576 56.2022L30.9011 55.9133L31.1917 55.6565L31.4482 55.9454ZM31.1489 55.6085L30.8583 55.8653L30.6018 55.5764L30.8924 55.3196L31.1489 55.6085ZM30.8495 55.2716L30.5589 55.5284L30.3024 55.2395L30.5931 54.9827L30.8495 55.2716ZM30.5502 54.9347L30.2596 55.1915L30.0031 54.9026L30.2937 54.6458L30.5502 54.9347ZM34.4545 58.6484L34.1639 58.9052L33.9331 58.6453L34.2237 58.3885L34.4545 58.6484ZM34.1808 58.3405L33.8902 58.5973L33.6337 58.3084L33.9244 58.0516L34.1808 58.3405ZM33.8815 58.0036L33.5909 58.2604L33.3344 57.9715L33.625 57.7147L33.8815 58.0036ZM33.5826 57.6668L33.292 57.9236L33.0356 57.6348L33.3262 57.3779L33.5826 57.6668ZM33.2833 57.3299L32.9927 57.5868L32.7362 57.2979L33.0268 57.041L33.2833 57.3299ZM32.984 56.993L32.6934 57.2499L32.4369 56.961L32.7275 56.7041L32.984 56.993ZM32.6846 56.6561L32.394 56.913L32.1375 56.6241L32.4282 56.3673L32.6846 56.6561ZM32.3853 56.3193L32.0947 56.5761L31.8382 56.2872L32.1288 56.0304L32.3853 56.3193ZM32.0859 55.9824L31.7953 56.2392L31.5389 55.9503L31.8295 55.6935L32.0859 55.9824ZM31.7871 55.6456L31.4965 55.9024L31.24 55.6135L31.5306 55.3567L31.7871 55.6456ZM31.4878 55.3087L31.1972 55.5655L30.9407 55.2767L31.2313 55.0198L31.4878 55.3087ZM31.1883 54.9723L30.8977 55.2291L30.6412 54.9403L30.9318 54.6834L31.1883 54.9723ZM30.889 54.6354L30.5984 54.8923L30.3419 54.6034L30.6325 54.3465L30.889 54.6354ZM30.5896 54.2985L30.299 54.5554L30.0425 54.2665L30.3332 54.0096L30.5896 54.2985ZM35.0926 58.686L34.802 58.9428L34.5455 58.6539L34.8361 58.3971L35.0926 58.686ZM34.7933 58.3491L34.5027 58.6059L34.2719 58.346L34.5625 58.0892L34.7933 58.3491ZM34.5196 58.0412L34.229 58.298L33.9725 58.0091L34.2631 57.7523L34.5196 58.0412ZM34.2203 57.7043L33.9296 57.9611L33.6732 57.6723L33.9638 57.4154L34.2203 57.7043ZM33.9209 57.3674L33.6303 57.6243L33.3738 57.3354L33.6644 57.0785L33.9209 57.3674ZM33.6221 57.0307L33.3315 57.2875L33.075 56.9986L33.3656 56.7418L33.6221 57.0307ZM33.3227 56.6938L33.0321 56.9506L32.7757 56.6617L33.0663 56.4049L33.3227 56.6938ZM33.0234 56.3569L32.7328 56.6137L32.4763 56.3248L32.7669 56.068L33.0234 56.3569ZM32.7241 56.02L32.4334 56.2768L32.177 55.9879L32.4676 55.7311L32.7241 56.02ZM32.4247 55.6831L32.1341 55.9399L31.8776 55.651L32.1682 55.3942L32.4247 55.6831ZM32.1259 55.3463L31.8353 55.6032L31.5788 55.3143L31.8694 55.0574L32.1259 55.3463ZM31.8265 55.0094L31.5359 55.2663L31.2795 54.9774L31.5701 54.7205L31.8265 55.0094ZM31.5272 54.6725L31.2366 54.9294L30.9801 54.6405L31.2707 54.3837L31.5272 54.6725ZM31.2279 54.3357L30.9373 54.5925L30.6808 54.3036L30.9714 54.0468L31.2279 54.3357ZM30.9285 53.9988L30.6379 54.2556L30.3814 53.9667L30.6721 53.7099L30.9285 53.9988ZM35.7308 58.7231L35.4402 58.9799L35.1838 58.6911L35.4744 58.4342L35.7308 58.7231ZM35.4315 58.3862L35.1409 58.6431L34.8844 58.3542L35.175 58.0973L35.4315 58.3862ZM35.1322 58.0493L34.8416 58.3062L34.6108 58.0463L34.9014 57.7894L35.1322 58.0493ZM34.8585 57.7414L34.5679 57.9983L34.3114 57.7094L34.602 57.4526L34.8585 57.7414ZM34.5592 57.4045L34.2685 57.6614L34.0121 57.3725L34.3027 57.1157L34.5592 57.4045ZM34.2598 57.0677L33.9692 57.3245L33.7127 57.0356L34.0033 56.7788L34.2598 57.0677ZM33.961 56.7309L33.6704 56.9877L33.4139 56.6988L33.7045 56.442L33.961 56.7309ZM33.6616 56.394L33.371 56.6508L33.1146 56.3619L33.4052 56.1051L33.6616 56.394ZM33.3623 56.0571L33.0717 56.3139L32.8152 56.0251L33.1058 55.7682L33.3623 56.0571ZM33.063 55.7202L32.7723 55.9771L32.5159 55.6882L32.8065 55.4313L33.063 55.7202ZM32.7636 55.3833L32.473 55.6402L32.2165 55.3513L32.5071 55.0944L32.7636 55.3833ZM32.4648 55.0466L32.1742 55.3034L31.9177 55.0145L32.2083 54.7577L32.4648 55.0466ZM32.1654 54.7097L31.8748 54.9665L31.6184 54.6776L31.909 54.4208L32.1654 54.7097ZM31.8661 54.3728L31.5755 54.6296L31.319 54.3407L31.6096 54.0839L31.8661 54.3728ZM31.5668 54.0359L31.2761 54.2927L31.0197 54.0038L31.3103 53.747L31.5668 54.0359ZM31.2674 53.699L30.9768 53.9558L30.7203 53.6669L31.011 53.4101L31.2674 53.699ZM30.9681 53.3621L30.6775 53.6189L30.421 53.3301L30.7116 53.0732L30.9681 53.3621ZM36.0697 58.4233L35.7791 58.6802L35.5227 58.3913L35.8133 58.1345L36.0697 58.4233ZM35.7704 58.0865L35.4798 58.3433L35.2233 58.0544L35.5139 57.7976L35.7704 58.0865ZM35.4711 57.7496L35.1805 58.0064L34.9497 57.7465L35.2403 57.4897L35.4711 57.7496ZM35.1974 57.4417L34.9068 57.6985L34.6503 57.4096L34.9409 57.1528L35.1974 57.4417ZM34.8981 57.1048L34.6074 57.3616L34.351 57.0727L34.6416 56.8159L34.8981 57.1048ZM34.5992 56.768L34.3086 57.0249L34.0521 56.736L34.3427 56.4791L34.5992 56.768ZM34.2999 56.4311L34.0093 56.688L33.7528 56.3991L34.0434 56.1422L34.2999 56.4311ZM34.0005 56.0942L33.7099 56.3511L33.4535 56.0622L33.7441 55.8054L34.0005 56.0942ZM33.7012 55.7573L33.4106 56.0142L33.1541 55.7253L33.4447 55.4685L33.7012 55.7573ZM33.4019 55.4205L33.1112 55.6773L32.8548 55.3884L33.1454 55.1316L33.4019 55.4205ZM33.1025 55.0836L32.8119 55.3404L32.5554 55.0515L32.846 54.7947L33.1025 55.0836ZM32.8037 54.7468L32.5131 55.0036L32.2566 54.7147L32.5472 54.4579L32.8037 54.7468ZM32.5043 54.4099L32.2137 54.6667L31.9573 54.3779L32.2479 54.121L32.5043 54.4099ZM32.205 54.073L31.9144 54.3299L31.6579 54.041L31.9485 53.7841L32.205 54.073ZM31.9057 53.7361L31.615 53.993L31.3586 53.7041L31.6492 53.4472L31.9057 53.7361ZM31.6063 53.3992L31.3157 53.6561L31.0592 53.3672L31.3498 53.1104L31.6063 53.3992ZM31.307 53.0623L31.0164 53.3192L30.7599 53.0303L31.0505 52.7735L31.307 53.0623ZM36.4086 58.1236L36.118 58.3804L35.8616 58.0915L36.1522 57.8347L36.4086 58.1236ZM36.1093 57.7867L35.8187 58.0435L35.5622 57.7546L35.8528 57.4978L36.1093 57.7867ZM35.81 57.4498L35.5193 57.7066L35.2886 57.4468L35.5792 57.1899L35.81 57.4498ZM35.5363 57.1419L35.2457 57.3987L34.9892 57.1099L35.2798 56.853L35.5363 57.1419ZM35.237 56.805L34.9463 57.0619L34.6899 56.773L34.9805 56.5161L35.237 56.805ZM34.9376 56.4681L34.647 56.725L34.3905 56.4361L34.6811 56.1792L34.9376 56.4681ZM34.6388 56.1314L34.3482 56.3882L34.0917 56.0993L34.3823 55.8425L34.6388 56.1314ZM34.3394 55.7945L34.0488 56.0513L33.7924 55.7624L34.083 55.5056L34.3394 55.7945ZM34.0401 55.4576L33.7495 55.7144L33.493 55.4255L33.7836 55.1687L34.0401 55.4576ZM33.7408 55.1207L33.4501 55.3775L33.1937 55.0886L33.4843 54.8318L33.7408 55.1207ZM33.4414 54.7838L33.1508 55.0406L32.8943 54.7518L33.1849 54.4949L33.4414 54.7838ZM33.1421 54.4469L32.8515 54.7037L32.595 54.4149L32.8856 54.158L33.1421 54.4469ZM32.8432 54.1101L32.5526 54.367L32.2962 54.0781L32.5868 53.8213L32.8432 54.1101ZM32.5439 53.7733L32.2533 54.0301L31.9968 53.7412L32.2874 53.4844L32.5439 53.7733ZM32.2446 53.4364L31.9539 53.6932L31.6975 53.4043L31.9881 53.1475L32.2446 53.4364ZM31.9452 53.0995L31.6546 53.3563L31.3981 53.0674L31.6887 52.8106L31.9452 53.0995ZM31.6459 52.7626L31.3553 53.0194L31.0988 52.7305L31.3894 52.4737L31.6459 52.7626ZM36.4481 57.4874L36.1575 57.7443L35.901 57.4554L36.1916 57.1985L36.4481 57.4874ZM36.1489 57.15L35.8582 57.4069L35.6275 57.147L35.9181 56.8902L36.1489 57.15ZM35.8752 56.8422L35.5846 57.099L35.3281 56.8101L35.6187 56.5533L35.8752 56.8422ZM35.5759 56.5053L35.2852 56.7621L35.0288 56.4732L35.3194 56.2164L35.5759 56.5053ZM35.2765 56.1684L34.9859 56.4252L34.7294 56.1363L35.02 55.8795L35.2765 56.1684ZM34.9777 55.8316L34.6871 56.0884L34.4306 55.7996L34.7212 55.5427L34.9777 55.8316ZM34.6783 55.4947L34.3877 55.7515L34.1313 55.4627L34.4219 55.2058L34.6783 55.4947ZM34.379 55.1578L34.0884 55.4147L33.8319 55.1258L34.1225 54.8689L34.379 55.1578ZM34.0797 54.8209L33.789 55.0778L33.5326 54.7889L33.8232 54.532L34.0797 54.8209ZM33.7803 54.484L33.4897 54.7409L33.2332 54.452L33.5238 54.1952L33.7803 54.484ZM33.481 54.1472L33.1904 54.404L32.9339 54.1151L33.2245 53.8583L33.481 54.1472ZM33.182 53.8109L32.8914 54.0677L32.6349 53.7788L32.9255 53.522L33.182 53.8109ZM32.8828 53.4735L32.5922 53.7303L32.3357 53.4414L32.6263 53.1846L32.8828 53.4735ZM32.5835 53.1366L32.2928 53.3934L32.0364 53.1046L32.327 52.8477L32.5835 53.1366ZM32.284 52.8002L31.9934 53.057L31.7369 52.7682L32.0275 52.5113L32.284 52.8002ZM36.787 57.1877L36.4964 57.4445L36.2399 57.1556L36.5305 56.8988L36.787 57.1877ZM36.4876 56.8508L36.197 57.1076L35.9662 56.8477L36.2568 56.5909L36.4876 56.8508ZM36.2141 56.5424L35.9235 56.7992L35.667 56.5103L35.9576 56.2535L36.2141 56.5424ZM35.9148 56.2055L35.6241 56.4623L35.3677 56.1734L35.6583 55.9166L35.9148 56.2055ZM35.6153 55.8691L35.3247 56.1259L35.0682 55.837L35.3588 55.5802L35.6153 55.8691ZM35.3161 55.5317L35.0255 55.7886L34.769 55.4997L35.0596 55.2428L35.3161 55.5317ZM35.0172 55.195L34.7266 55.4518L34.4702 55.1629L34.7608 54.9061L35.0172 55.195ZM34.7178 54.8586L34.4272 55.1154L34.1707 54.8265L34.4613 54.5697L34.7178 54.8586ZM34.4184 54.5217L34.1278 54.7785L33.8713 54.4896L34.162 54.2328L34.4184 54.5217ZM34.1191 54.1848L33.8285 54.4416L33.572 54.1527L33.8626 53.8959L34.1191 54.1848ZM33.8198 53.8479L33.5291 54.1047L33.2727 53.8158L33.5633 53.559L33.8198 53.8479ZM33.5209 53.5111L33.2303 53.7679L32.9738 53.4791L33.2644 53.2222L33.5209 53.5111ZM33.2216 53.1742L32.931 53.4311L32.6745 53.1422L32.9651 52.8853L33.2216 53.1742ZM32.9222 52.8373L32.6316 53.0942L32.3752 52.8053L32.6658 52.5484L32.9222 52.8373ZM32.6229 52.5004L32.3323 52.7573L32.0758 52.4684L32.3664 52.2116L32.6229 52.5004ZM34.2899 52.9167L34.5513 52.6855L34.8078 52.9744L34.5463 53.2056L34.2899 52.9167ZM34.5887 53.2534L34.8501 53.0223L35.1066 53.3112L34.8452 53.5423L34.5887 53.2534ZM34.888 53.5903L35.1495 53.3592L35.406 53.6481L35.1445 53.8792L34.888 53.5903ZM35.1874 53.9272L35.4488 53.6961L35.7053 53.985L35.4439 54.2161L35.1874 53.9272ZM35.4867 54.2641L35.7482 54.033L36.0046 54.3219L35.7432 54.553L35.4867 54.2641ZM35.7861 54.601L36.0475 54.3699L36.304 54.6588L36.0425 54.8899L35.7861 54.601ZM36.0854 54.9379L36.3468 54.7068L36.6033 54.9956L36.3419 55.2268L36.0854 54.9379ZM33.3523 52.5426L33.6429 52.2858L33.8994 52.5747L33.6088 52.8315L33.3523 52.5426ZM33.6516 52.8795L33.9422 52.6227L34.1987 52.9116L33.9081 53.1684L33.6516 52.8795ZM33.951 53.2164L34.2416 52.9596L34.498 53.2485L34.2074 53.5053L33.951 53.2164ZM34.2503 53.5533L34.5409 53.2965L34.7974 53.5854L34.5068 53.8422L34.2503 53.5533ZM34.5491 53.8901L34.8398 53.6333L35.0962 53.9221L34.8056 54.179L34.5491 53.8901ZM34.8485 54.227L35.1391 53.9701L35.3956 54.259L35.105 54.5159L34.8485 54.227ZM35.1478 54.5639L35.4384 54.307L35.6949 54.5959L35.4043 54.8528L35.1478 54.5639ZM35.4472 54.9008L35.7378 54.6439L35.9942 54.9328L35.7036 55.1896L35.4472 54.9008ZM35.7465 55.2376L36.0371 54.9808L36.2936 55.2697L36.003 55.5265L35.7465 55.2376ZM36.0453 55.5744L36.336 55.3176L36.5924 55.6065L36.3018 55.8633L36.0453 55.5744ZM36.3447 55.9113L36.6353 55.6545L36.8918 55.9434L36.6012 56.2002L36.3447 55.9113ZM36.8265 56.551L36.5359 56.8078L36.3051 56.548L36.5957 56.2911L36.8265 56.551ZM36.553 56.2426L36.2624 56.4995L36.0059 56.2106L36.2965 55.9537L36.553 56.2426ZM36.2535 55.9062L35.9629 56.1631L35.7064 55.8742L35.9971 55.6173L36.2535 55.9062ZM35.9542 55.5693L35.6636 55.8262L35.4071 55.5373L35.6977 55.2805L35.9542 55.5693ZM35.6553 55.2326L35.3647 55.4894L35.1083 55.2005L35.3989 54.9437L35.6553 55.2326ZM35.356 54.8957L35.0654 55.1525L34.8089 54.8636L35.0995 54.6068L35.356 54.8957ZM35.0567 54.5588L34.7661 54.8156L34.5096 54.5267L34.8002 54.2699L35.0567 54.5588ZM34.7573 54.2219L34.4667 54.4787L34.2102 54.1898L34.5009 53.933L34.7573 54.2219ZM34.458 53.885L34.1674 54.1418L33.9109 53.853L34.2015 53.5961L34.458 53.885ZM34.1587 53.5481L33.868 53.805L33.6116 53.5161L33.9022 53.2592L34.1587 53.5481ZM33.8598 53.2114L33.5692 53.4682L33.3127 53.1793L33.6033 52.9225L33.8598 53.2114ZM33.5605 52.8745L33.2699 53.1313L33.0134 52.8424L33.304 52.5856L33.5605 52.8745ZM33.0047 52.2487L33.2611 52.5376L32.9705 52.7944L32.7141 52.5055L33.0047 52.2487Z" fill="#9D9D9C"/>
<path d="M35.6659 52.8971C35.6096 53.0082 35.5484 53.116 35.4759 53.2168C35.5962 53.3272 35.7124 53.4456 35.8242 53.5711C37.2598 55.1874 37.3694 57.4297 36.0688 58.5796C34.8835 59.628 32.9358 59.4065 31.5132 58.1353C31.44 58.2343 31.3504 58.3465 31.2727 58.4098C32.8613 59.8391 35.0428 60.091 36.3693 58.9178C37.82 57.6347 37.6981 55.1329 36.0965 53.3298C35.9591 53.1752 35.815 53.0305 35.6655 52.8965L35.6659 52.8971Z" fill="#352E35"/>
<path d="M31.2093 57.8317L30.9834 58.1227C31.1824 58.3306 31.3934 58.5179 31.6128 58.6847L31.8384 58.3947C31.6179 58.2302 31.407 58.0424 31.2096 57.8323L31.2093 57.8317Z" fill="#D1D1D1"/>
<path d="M35.6947 53.4404L35.9204 53.1499C35.72 52.9437 35.5074 52.7581 35.287 52.5931L35.0606 52.884C35.2823 53.0462 35.4954 53.2319 35.6947 53.4404Z" fill="#D1D1D1"/>
<g style="mix-blend-mode:soft-light">
<path d="M30.773 52.648C32.0527 51.5164 34.1998 51.8352 35.6383 53.3442C35.6026 53.3011 35.5662 53.2585 35.5293 53.2162C34.1241 51.6343 31.9837 51.3675 30.6688 52.5301C29.3539 53.6927 29.555 55.9303 30.6224 57.2973C30.9114 57.6677 31.2394 58.0154 31.7169 58.4127C31.5384 58.2362 30.8481 57.5726 30.507 57.0303C29.5489 55.5073 29.6272 53.6613 30.7731 52.6476L30.773 52.648Z" fill="white"/>
</g>
<path d="M36.2828 58.7875C34.9441 59.9717 33.2212 59.4245 32.5426 59.22C33.8266 59.9226 35.3417 59.8295 36.387 58.9054C37.5327 57.8922 37.6169 56.1422 36.999 54.7944C37.2734 55.6014 37.482 57.7275 36.2826 58.7879L36.2828 58.7875Z" fill="#2B242A"/>
<path d="M38.6163 60.651C38.6571 60.6969 38.6469 60.7714 38.5946 60.818L38.0177 61.3278C37.9654 61.3744 37.8897 61.3747 37.8493 61.3295C37.8089 61.2842 37.8187 61.2091 37.871 61.1625L38.4479 60.6527C38.5002 60.6061 38.5761 60.6053 38.6163 60.651Z" fill="#2B242A"/>
<path d="M37.9464 61.3457L38.2322 61.6666L38.9061 61.072L38.6203 60.7511L37.9464 61.3457Z" fill="#161013"/>
<path d="M38.9537 61.0299C38.994 61.0757 38.9843 61.1503 38.932 61.1969L38.3551 61.7066C38.3028 61.7532 38.2271 61.7536 38.1867 61.7083C38.1464 61.6626 38.1561 61.588 38.2083 61.5418L38.7851 61.0321C38.8375 60.9855 38.9132 60.9851 38.9536 61.0304L38.9537 61.0299Z" fill="#2B242A"/>
</g>
<rect x="47.989" y="0.975098" width="23.0111" height="22.0277" rx="3.14681" fill="#007206"/>
<path d="M60.1915 5.90711C63.6646 5.90711 66.4793 8.71931 66.4793 12.1853C66.4793 15.6514 63.6646 18.4636 60.1915 18.4636C56.7183 18.4636 53.9036 15.6514 53.9036 12.1853C53.9036 8.71931 56.7183 5.90711 60.1915 5.90711Z" fill="#D4D921"/>
<g style="mix-blend-mode:multiply">
<path d="M62.2518 16.1896C60.7015 17.0403 58.7822 17.1162 57.08 16.7514C56.4885 16.6249 55.9096 16.4443 55.3579 16.2023C56.512 17.584 58.2486 18.4654 60.1914 18.4654C63.6646 18.4654 66.4793 15.6532 66.4793 12.1872C66.4793 11.0818 66.1935 10.045 65.6906 9.14377C65.9619 11.8783 64.7101 14.8404 62.2518 16.1914L62.2518 16.1896Z" fill="#C1CCBC"/>
</g>
<g style="mix-blend-mode:multiply">
<path d="M65.4717 15.5936C65.468 15.4473 65.4409 15.2902 65.3794 15.1384L65.3541 15.0806L65.3486 15.0662C65.3541 15.0752 65.3378 15.0445 65.3378 15.0463L65.3342 15.0409L65.3233 15.0192C65.307 14.9903 65.2944 14.965 65.2763 14.9307C65.2528 14.8928 65.2274 14.8549 65.2003 14.8169C65.175 14.7808 65.1479 14.7501 65.1207 14.7176C64.9 14.4575 64.5889 14.2661 64.2633 14.1505C63.9359 14.0313 63.5922 13.9698 63.2448 13.9355C62.8957 13.9012 62.5394 13.8976 62.1794 13.9139C61.8194 13.9283 61.454 13.9608 61.085 14.0006C60.9041 14.0222 60.7196 14.0421 60.5351 14.0638C60.441 14.0746 60.3578 14.0818 60.2673 14.0909C60.1787 14.0981 60.0882 14.1035 59.9978 14.1107C59.2796 14.1559 58.5326 14.127 57.8705 13.9121C57.7041 13.8597 57.5485 13.791 57.3983 13.7152C57.2482 13.6393 57.1089 13.549 56.9823 13.4443C56.7254 13.2402 56.5192 12.9801 56.3654 12.6839C56.2099 12.3876 56.1086 12.0535 56.0434 11.7085L56 11.4358L55.9765 11.1902C55.9729 11.1035 55.9711 11.0168 55.9675 10.9301C55.9711 10.8434 55.9729 10.7585 55.9765 10.6718C55.9946 10.3304 56.0615 9.99628 56.1701 9.6802C56.2768 9.36592 56.4233 9.0661 56.6169 8.80059C56.8086 8.53508 57.0293 8.28764 57.2844 8.08174C57.5304 7.865 57.8126 7.69341 58.093 7.53447L58.1454 7.50376C58.1237 7.51279 58.1454 7.50376 58.14 7.50557L58.1472 7.50195L58.1617 7.49473L58.1907 7.48028L58.3064 7.42429C58.3824 7.38817 58.4602 7.35024 58.5344 7.31411C58.6881 7.23464 58.8292 7.18588 58.9721 7.12808C59.0427 7.09918 59.115 7.07209 59.1838 7.04499C59.2543 7.01971 59.3285 6.99803 59.4008 6.97455C59.4732 6.95107 59.5437 6.9294 59.6161 6.90592C59.6523 6.89508 59.6867 6.88424 59.7228 6.87341C59.759 6.86438 59.7934 6.85715 59.8296 6.84812C60.394 6.6964 60.9294 6.62958 61.4052 6.6061C61.8827 6.58262 62.3006 6.60248 62.6425 6.6386C62.8216 6.65847 63.0676 6.65125 63.2051 6.67473C62.6425 6.36768 61.8465 6.04979 61.1193 5.97574C60.696 5.992 60.1841 6.20693 59.6957 6.30627C59.6577 6.3135 59.6179 6.32072 59.5799 6.32794C59.5419 6.33697 59.5021 6.34601 59.4642 6.35684C59.3864 6.37491 59.3086 6.39477 59.229 6.41464C59.1494 6.43451 59.0698 6.45077 58.9884 6.47425C58.907 6.49953 58.8256 6.52482 58.7442 6.5501C58.5814 6.60248 58.4077 6.65306 58.2558 6.71627C58.178 6.74698 58.0984 6.77768 58.0188 6.80839L57.8994 6.85535L57.8687 6.86618L57.8542 6.8716L57.847 6.87521C57.847 6.87521 57.8542 6.8716 57.8271 6.88424L57.7656 6.91314C57.4327 7.06667 57.0944 7.24006 56.7779 7.47306C56.4541 7.69341 56.161 7.97698 55.8969 8.29306C55.631 8.60914 55.4248 8.98121 55.2674 9.37134C55.1136 9.76509 55.0196 10.1823 54.9834 10.6068C54.9255 11.4557 55.0612 12.3136 55.4791 13.1173C55.6907 13.5147 55.9892 13.885 56.3564 14.1721C56.5391 14.3166 56.7363 14.4413 56.9407 14.5424C57.1451 14.6454 57.3567 14.7302 57.5702 14.7917C57.9971 14.9199 58.4276 14.9813 58.8455 15.0048C59.2634 15.0301 59.6704 15.0138 60.0665 14.9813C60.166 14.9723 60.2619 14.9614 60.3614 14.9506C60.4591 14.938 60.5622 14.9253 60.6508 14.9127C60.8335 14.8856 61.0162 14.8567 61.1953 14.8296C61.5499 14.7772 61.8936 14.7357 62.2264 14.7104C62.5593 14.6869 62.8794 14.6743 63.1833 14.6887C63.4854 14.7032 63.7694 14.7429 64.0155 14.8187C64.2615 14.8946 64.4605 15.0084 64.6016 15.1511C64.6178 15.1691 64.6377 15.189 64.6504 15.2053C64.6631 15.2215 64.6757 15.2378 64.6884 15.2522C64.7029 15.2739 64.7228 15.3064 64.739 15.3317L64.7517 15.3516L64.7517 15.3552L64.7662 15.3841C64.8042 15.4617 64.8259 15.5448 64.8331 15.6315C64.8421 15.7182 64.8331 15.8103 64.8186 15.9006C64.8023 15.991 64.7806 16.0813 64.7481 16.1661C64.6884 16.3377 64.607 16.4949 64.5274 16.6339C64.4785 16.717 64.4315 16.7911 64.3845 16.8615C64.7987 16.4895 65.1623 16.0632 65.4662 15.5954L65.4717 15.5936Z" fill="#C1CCBC"/>
</g>
<path d="M65.1677 15.2468L65.1424 15.1854L65.137 15.1709C65.1424 15.18 65.1261 15.1493 65.1261 15.1493L65.1225 15.1438L65.1117 15.1222C65.0954 15.0915 65.0827 15.0662 65.0628 15.0301C65.0375 14.9903 65.014 14.9506 64.9868 14.9127C64.9615 14.8747 64.9344 14.844 64.9072 14.8079C64.6866 14.5388 64.3754 14.3401 64.0498 14.2209C63.7224 14.0981 63.3787 14.033 63.0314 13.9987C62.6822 13.9644 62.3259 13.9608 61.9659 13.9753C61.6059 13.9897 61.2405 14.0222 60.8715 14.0656C60.6906 14.0872 60.5061 14.1089 60.3216 14.1306C60.2275 14.1432 60.1443 14.1486 60.0538 14.1577C59.9652 14.1649 59.8748 14.1721 59.7843 14.1793C59.0662 14.2263 58.3191 14.1956 57.657 13.9734C57.4906 13.9193 57.335 13.8488 57.1849 13.7694C57.0347 13.6899 56.8954 13.5978 56.767 13.4894C56.5101 13.2781 56.3039 13.009 56.1501 12.7019C55.9946 12.3949 55.8933 12.0499 55.8282 11.6923L55.7847 11.4105L55.7612 11.1558C55.7576 11.0655 55.7558 10.977 55.7522 10.8867C55.7558 10.7982 55.7576 10.7097 55.7612 10.6194C55.7793 10.2654 55.8462 9.9186 55.9548 9.59349C56.0615 9.26838 56.208 8.95771 56.4016 8.68318C56.5933 8.40683 56.814 8.15216 57.0709 7.93904C57.3187 7.71507 57.5991 7.53626 57.8795 7.3719L57.932 7.34119C57.9103 7.35022 57.9301 7.34119 57.9283 7.34119L57.9356 7.33758L57.95 7.33036L57.979 7.31591L58.0948 7.25811C58.1707 7.22018 58.2467 7.18225 58.3227 7.14432C58.4765 7.06304 58.6175 7.01247 58.7605 6.95287C58.831 6.92397 58.9016 6.89507 58.9721 6.86617C59.0426 6.83908 59.1168 6.8174 59.1892 6.79392C59.2615 6.77044 59.3321 6.74696 59.4044 6.72348C59.4406 6.71265 59.475 6.7 59.5112 6.68916C59.5473 6.68013 59.5817 6.6711 59.6179 6.66207C60.1823 6.50494 60.7177 6.4345 61.1935 6.41102C61.671 6.38754 62.0889 6.4074 62.4308 6.44352C62.6099 6.46339 62.7691 6.48868 62.9047 6.51216C62.2734 6.20872 61.5842 6.01005 60.857 5.93238C60.4337 5.94864 59.9706 5.9956 59.484 6.09855C59.446 6.10577 59.4062 6.113 59.3683 6.12022C59.3303 6.12925 59.2905 6.14009 59.2525 6.14912C59.1747 6.16899 59.0969 6.18886 59.0173 6.20873C58.9377 6.2304 58.8581 6.24665 58.7767 6.27013C58.6953 6.29542 58.6139 6.32251 58.5325 6.34961C58.3697 6.40379 58.1961 6.45617 58.0441 6.52119C57.9663 6.5519 57.8867 6.58441 57.8071 6.61511L57.6877 6.66207L57.657 6.67472L57.6425 6.68014L57.6353 6.68375C57.6353 6.68375 57.6425 6.68013 57.6154 6.69278L57.5539 6.72348C57.221 6.88243 56.8828 7.06304 56.5662 7.30326C56.2424 7.53084 55.9494 7.82344 55.6853 8.15216C55.4193 8.47908 55.2149 8.86379 55.0557 9.26837C54.902 9.67476 54.8079 10.1082 54.7717 10.5453C54.7138 11.4249 54.8495 12.3118 55.2674 13.1426C55.479 13.5544 55.7775 13.9373 56.1447 14.2335C56.3274 14.3834 56.5246 14.5117 56.729 14.6164C56.9334 14.723 57.1451 14.8097 57.3585 14.8747C57.7854 15.0066 58.216 15.0716 58.6338 15.0951C59.0517 15.1222 59.4587 15.1041 59.8549 15.0698C59.9544 15.0608 60.0502 15.0499 60.1497 15.0373C60.2474 15.0246 60.3505 15.012 60.4392 14.9975C60.6219 14.9686 60.8046 14.9397 60.9836 14.9127C61.3382 14.8585 61.6819 14.8151 62.0147 14.7898C62.3476 14.7645 62.6696 14.7519 62.9717 14.7664C63.2738 14.7808 63.5578 14.8223 63.8038 14.9018C64.0498 14.9795 64.2488 15.0987 64.3899 15.245C64.4062 15.2631 64.4261 15.2829 64.4387 15.301C64.4514 15.3172 64.4641 15.3335 64.4767 15.3497C64.4912 15.3714 64.5111 15.4057 64.5274 15.4328L64.54 15.4545L64.54 15.4581L64.5545 15.487C64.5925 15.5665 64.6142 15.6532 64.6214 15.7435C64.6305 15.8338 64.6214 15.9277 64.607 16.0216C64.5907 16.1156 64.5672 16.2077 64.5364 16.2962C64.4767 16.475 64.3953 16.6357 64.3157 16.7802C64.2614 16.876 64.2072 16.9627 64.1565 17.0421C64.5672 16.708 64.9344 16.3233 65.2491 15.8988C65.2546 15.841 65.2582 15.7796 65.2564 15.7182C65.2546 15.5629 65.2256 15.3967 65.1623 15.236L65.1677 15.2468Z" fill="white"/>
<g style="mix-blend-mode:soft-light" opacity="0.4">
<path d="M58.9431 6.50856C61.4919 6.50856 63.5595 8.57301 63.5595 11.1179C63.5595 13.6628 61.4919 15.7272 58.9431 15.7272C56.3943 15.7272 54.3267 13.6628 54.3267 11.1179C54.3267 8.57301 56.3943 6.50856 58.9431 6.50856Z" fill="white"/>
</g>
<g style="mix-blend-mode:soft-light" opacity="0.4">
<path d="M60.969 8.03655C59.5575 6.62726 57.2691 6.62725 55.8577 8.03655C54.4462 9.44585 54.4462 11.7308 55.8577 13.1401C57.2691 14.5494 59.5575 14.5494 60.969 13.1401C62.3805 11.7308 62.3805 9.44585 60.969 8.03655Z" fill="white"/>
</g>
<g style="mix-blend-mode:soft-light" opacity="0.4">
<path d="M57.6317 7.23824C59.0536 7.23824 60.2059 8.38877 60.2059 9.80842C60.2059 11.2281 59.0536 12.3786 57.6317 12.3786C56.2099 12.3786 55.0576 11.2281 55.0576 9.80842C55.0576 8.38877 56.2099 7.23824 57.6317 7.23824Z" fill="white"/>
</g>
<rect x="47.989" y="23.9862" width="23.0111" height="22.0277" rx="3.14681" fill="#083697"/>
<rect x="47.989" y="46.9973" width="23.0111" height="22.0277" rx="3.14681" fill="#083697"/>
<defs>
<clipPath id="clip0_21_2818">
<rect width="12.9806" height="13.1773" fill="white" transform="translate(29.3074 41.4765) rotate(-90)"/>
</clipPath>
<clipPath id="clip1_21_2818">
<rect width="12.9806" height="13.1773" fill="white" transform="translate(29.3074 64.4875) rotate(-90)"/>
</clipPath>
</defs>
</svg>
