<svg width="100" height="98" viewBox="0 0 100 98" fill="none" xmlns="http://www.w3.org/2000/svg">
<g clip-path="url(#clip0_40000008_3480)">
<path d="M93.3124 94.9608C94.0482 95.7871 94.3232 96.7427 93.9247 97.0933L89.5796 100.94C89.1848 101.291 88.2653 100.905 87.5305 100.075C86.7947 99.249 86.5207 98.2897 86.9182 97.9428L91.2633 94.0962C91.6618 93.7456 92.5776 94.1307 93.3124 94.9608Z" fill="#2B242A"/>
<path d="M86.5645 100.085C86.5645 100.085 88.2432 100.991 91.1766 98.3938C94.11 95.7967 93.4092 94.0252 93.4092 94.0252C93.4092 94.0252 75.5043 75.3484 73.2723 72.8387C71.0412 70.3253 65.5043 74.3045 68.1942 77.3332C70.8841 80.362 86.5599 100.088 86.5599 100.088L86.5645 100.085Z" fill="#95C11F"/>
<g style="mix-blend-mode:soft-light">
<path d="M92.7666 94.4881C89.6718 91.2578 75.2004 76.1466 73.2091 73.903C73.1933 73.8871 73.1766 73.875 73.1655 73.8564C72.2007 76.8909 92.1971 94.9028 92.7675 94.4844L92.7666 94.4881Z" fill="white"/>
</g>
<g style="mix-blend-mode:multiply">
<path d="M92.0969 94.3674C90.7862 95.078 89.3503 95.472 87.8656 95.1256C85.9696 94.6834 84.3339 93.5627 82.8233 92.3866C79.2414 89.6079 76.0177 86.5436 74.0683 82.3836C72.6318 79.3185 71.792 75.7943 72.9116 72.5106C70.5047 70.7325 65.6427 74.4583 68.1973 77.3342C70.8872 80.3629 86.563 100.089 86.563 100.089C86.563 100.089 88.2416 100.995 91.175 98.3975C94.1085 95.8005 93.4077 94.0289 93.4077 94.0289C93.4077 94.0289 93.301 93.9189 93.111 93.7167C92.7827 93.9625 92.4369 94.184 92.0959 94.3711L92.0969 94.3674Z" fill="#BBCBC8"/>
</g>
<g style="mix-blend-mode:soft-light">
<path d="M92.0498 92.594L89.4014 99.6754C89.7528 99.4912 90.1351 99.2476 90.5476 98.9325L92.6743 93.2457C92.4929 93.0576 92.2838 92.8389 92.0498 92.594Z" fill="white"/>
<path d="M89.4527 89.8816L85.9397 99.2706C86.2363 99.642 86.4396 99.8988 86.5292 100.012L90.077 90.5332C89.8745 90.3201 89.6682 90.1059 89.4527 89.8816Z" fill="white"/>
<path d="M86.0019 86.2821L82.6734 95.1801C82.8776 95.4332 83.0753 95.6808 83.2629 95.9218L86.6263 86.9338C86.42 86.7197 86.211 86.5009 86.0019 86.2821Z" fill="white"/>
<path d="M82.5574 82.6761L79.4048 91.1007C79.6026 91.3482 79.8003 91.5958 79.9953 91.8387L83.1817 83.3278C82.9727 83.109 82.7674 82.8912 82.5584 82.6724L82.5574 82.6761Z" fill="white"/>
<path d="M79.1135 79.0666L76.1331 87.0325C76.3318 87.2764 76.5258 87.523 76.7273 87.7715L79.7359 79.7257C79.5278 79.5032 79.3188 79.2844 79.1125 79.0703L79.1135 79.0666Z" fill="white"/>
<path d="M75.6742 75.4381L72.8548 82.9742C73.0498 83.2171 73.2485 83.461 73.45 83.7095L76.2967 76.0972C76.0821 75.8691 75.874 75.6466 75.6742 75.4381Z" fill="white"/>
<path d="M71.5367 73.6815L69.5627 78.9561C69.7503 79.1813 69.9491 79.4252 70.1608 79.6802L72.8392 72.5274L71.5414 73.6787L71.5367 73.6815Z" fill="white"/>
</g>
<path d="M69.8747 69.5658C67.388 66.7666 62.229 40.7899 60.9737 33.695C59.388 35.4679 57.6595 51.1773 57.6595 51.1773C57.6595 51.1773 59.9053 47.7347 61.023 51.9854C62.5572 57.817 64.137 64.6494 64.4483 66.006C64.945 68.1731 63.8565 68.619 62.2252 67.9942C61.2329 67.6135 54.5684 65.2099 48.7797 62.8212C45.8765 61.6226 48.4913 59.3414 48.4913 59.3414C48.4913 59.3414 26.7505 58.1838 30.605 60.5757C38.7725 62.539 62.4735 70.6843 65.1789 73.7285C67.8843 76.7726 72.3679 72.3705 69.8822 69.5676L69.8747 69.5658Z" fill="#352E35"/>
<path d="M13.9304 46.9924C3.09596 34.787 2.26346 17.8625 12.0632 9.18768C21.3559 0.962686 36.8734 3.10883 47.6909 13.7512C48.3023 13.0785 48.8796 12.3378 49.5493 11.7312C37.4792 -0.148681 20.1605 -2.547 9.79211 6.63332C-1.1431 16.3117 -0.212671 35.1954 11.8735 48.8121C13.3292 50.4489 14.8787 51.9352 16.4988 53.2692C17.1399 52.604 17.6725 51.852 18.2348 51.1234C16.7223 49.8956 15.2794 48.5192 13.9257 46.9951L13.9304 46.9924Z" fill="#95C11F"/>
<path d="M22.5725 4.41793L23.0563 4.9593L20.8661 6.89636L19.3118 5.1474C19.1439 5.20005 18.9713 5.25547 18.8061 5.31277L20.5012 7.22385L18.311 9.16091L16.3758 6.97961L17.8709 5.65482C17.3781 5.84719 16.8916 6.06097 16.4163 6.29336L16.0486 6.61619L15.9624 6.5193C15.8158 6.5971 15.6654 6.67395 15.5216 6.75641L15.6847 6.93997L13.4945 8.87703L13.0514 8.37759C12.9233 8.4759 12.798 8.57886 12.669 8.68087L13.1277 9.19614L10.9375 11.1332L10.5464 10.6943C10.4359 10.8169 10.33 10.9366 10.2223 11.0638L10.5736 11.457L8.65467 13.1538C8.36655 13.5995 8.09609 14.0537 7.84701 14.5172L8.34286 14.0803L10.278 16.2616L8.08782 18.1986L6.8079 16.7562C6.74095 16.9253 6.67678 17.0991 6.61356 17.2692L7.72482 18.5187L5.75913 20.2591C5.6924 20.5826 5.62566 20.9061 5.57381 21.2333L7.42928 23.3233L5.23907 25.2604L5.22703 25.2454C5.22401 25.49 5.22845 25.7365 5.23288 25.9829L7.1347 28.1242L5.53764 29.538C5.56471 29.7269 5.59549 29.9166 5.62628 30.1064L7.45816 28.4867L9.39333 30.668L7.20312 32.605L5.79438 31.0154C5.85903 31.3364 5.92645 31.662 6.00321 31.9821L6.84012 32.9251L6.35827 33.3537C6.40592 33.524 6.45635 33.6989 6.50772 33.8701L7.16263 33.2912L9.0978 35.4726L7.55782 36.8335C7.62416 36.9927 7.68678 37.1509 7.75406 37.3064L9.41754 35.8341L11.3527 38.0154L9.1625 39.9524L8.80845 39.5546C9.15007 40.2184 9.5141 40.872 9.9033 41.5202L11.0535 42.8191L10.8429 43.0074C10.9345 43.1452 11.0234 43.2784 11.1159 43.4125L11.376 43.1852L13.3111 45.3665L12.8705 45.758C12.9733 45.8829 13.0761 46.0077 13.179 46.1326L13.6346 45.729L15.5698 47.9103L15.1347 48.2953C15.2479 48.4109 15.361 48.5264 15.4741 48.642L15.8932 48.2728L17.8284 50.4541L17.6291 50.6294C17.7526 50.7357 17.8806 50.8392 18.0078 50.9464L18.1509 50.8203L18.8924 51.6561C19.5144 52.1373 20.1467 52.5935 20.7894 53.0245L22.9637 51.1032L24.8989 53.2845L23.3935 54.6186C23.5469 54.7008 23.6965 54.782 23.8498 54.8642L25.2214 53.6507L27.1566 55.832L26.7215 56.217C26.8898 56.2871 27.0591 56.3535 27.2246 56.419L27.48 56.1945L27.9073 56.6781C28.2189 56.7922 28.5324 56.8989 28.8468 57.0019L27.8468 55.8754L30.037 53.9383L31.9722 56.1196L30.4369 57.4778C30.6267 57.5256 30.8165 57.5735 31.0064 57.6213L32.2966 56.4784L33.7887 58.1602C34.1714 58.2131 34.555 58.2623 34.9341 58.2985L36.9147 56.5461L38.5552 58.3919C38.7639 58.3812 38.969 58.3696 39.1749 58.3542L37.2787 56.2223L39.4689 54.2852L41.4041 56.4665L39.2747 58.3516C39.5496 58.3299 39.8265 58.3008 40.0996 58.2707L41.7275 56.829L42.6228 57.8381C42.8038 57.7967 42.981 57.7543 43.1554 57.7072L42.0905 56.5089L44.2807 54.5719L46.151 56.6814C46.8503 56.3789 47.5321 56.0362 48.1926 55.6527L49.0926 54.8585L49.2279 55.0114C49.3662 54.9196 49.5008 54.8269 49.6317 54.7332L49.4566 54.5348L51.6468 52.5977L51.8896 52.8726C52.0056 52.7594 52.1217 52.6462 52.2387 52.5293L52.0144 52.2749L53.9184 50.5902C54.314 50.0646 54.6818 49.5242 55.0226 48.9651L54.2489 49.6525L52.3137 47.4712L54.5039 45.5342L55.984 47.2011C56.0602 47.0423 56.1337 46.8787 56.2062 46.7189L54.8679 45.2104L57.0581 43.2733L57.3222 43.5734C57.3706 43.3838 57.419 43.1941 57.4674 43.0045L57.4211 42.9533L57.4978 42.8856C57.5624 42.6169 57.6233 42.3474 57.6758 42.0796L57.0976 42.5908L55.1624 40.4095L57.3527 38.4724L58.0663 39.2775C58.0841 39.0525 58.0992 38.8228 58.1133 38.5969L57.7166 38.1487L58.147 37.7665C58.1508 37.5498 58.1556 37.3294 58.1519 37.1108L57.3941 37.7825L55.6526 35.8202L57.8428 33.8831L57.9754 34.0313C57.9413 33.7457 57.9073 33.4601 57.8657 33.1726L55.9482 31.0155L57.2028 29.9032C57.1561 29.7292 57.1094 29.5552 57.0636 29.3775L55.6256 30.6494L53.6905 28.4681L55.6608 26.7249L56.5626 27.7396C56.4257 27.3292 56.2767 26.9197 56.124 26.5092L56.0285 26.402L56.0697 26.3649C56.008 26.203 55.9454 26.0448 55.88 25.8819L55.706 26.0359L53.7708 23.8546L54.611 23.1087C54.5344 22.9588 54.4568 22.8126 54.3792 22.6664L53.4474 23.4921L51.5122 21.3108L52.8781 20.1038C52.7903 19.9669 52.7024 19.83 52.6108 19.6922L51.1924 20.9493L49.2573 18.768L50.8955 17.317C50.7973 17.1894 50.6945 17.0646 50.5926 16.936L48.9338 18.4055L46.9986 16.2242L48.6734 14.7389C48.5612 14.6196 48.4518 14.505 48.3396 14.3857L46.6761 15.858L44.741 13.6767L46.2211 12.364C46.0986 12.254 45.9742 12.1514 45.8508 12.0451L44.4175 13.3142L42.4823 11.1329L43.5218 10.2117C43.3881 10.1147 43.2506 10.0167 43.116 9.92346L42.1589 10.7705L40.2237 8.58915L40.5568 8.2932C40.4081 8.20825 40.2594 8.12329 40.1098 8.04206L39.9002 8.22668L39.396 7.65643C39.0085 7.45192 38.6181 7.25856 38.2258 7.07264L39.5363 8.55046L37.5659 10.2936L35.6307 8.11232L37.2886 6.64654C37.125 6.57364 36.9604 6.50447 36.7921 6.43435L35.3073 7.74984L33.3721 5.56854L33.6537 5.31899C33.4695 5.26464 33.2843 5.21402 33.0992 5.1634L33.0524 5.20701L32.9847 5.13061C32.7065 5.05654 32.4236 4.98524 32.1434 4.9186L32.6847 5.52984L30.4945 7.4669L28.5593 5.2856L29.5277 4.4256C29.3135 4.39538 29.0984 4.36887 28.887 4.34331L28.2368 4.91941L27.6242 4.23082C27.3941 4.21637 27.1678 4.20285 26.9405 4.19306L27.8728 5.24318L25.6826 7.18024L23.7475 4.99893L24.6381 4.21038C24.3688 4.22561 24.106 4.24643 23.8385 4.27003L23.423 4.64019L23.158 4.34387C22.9622 4.36577 22.7692 4.39232 22.5753 4.42259L22.5725 4.41793ZM22.6487 50.7389L20.4584 52.676L18.5233 50.4947L20.7135 48.5576L22.6487 50.7389ZM20.39 48.1951L18.1998 50.1322L16.2646 47.9509L18.4549 46.0138L20.39 48.1951ZM18.1314 45.6514L15.9412 47.5884L14.006 45.4071L16.1962 43.4701L18.1314 45.6514ZM15.8728 43.1076L13.6825 45.0446L11.7474 42.8633L13.9376 40.9263L15.8728 43.1076ZM13.6178 40.5648L11.4276 42.5018L9.49246 40.3205L11.6827 38.3835L13.6178 40.5648ZM29.7164 53.5647L27.5262 55.5017L25.591 53.3204L27.7812 51.3834L29.7164 53.5647ZM27.4615 51.0219L25.2712 52.9589L23.3361 50.7776L25.5263 48.8406L27.4615 51.0219ZM25.2028 48.4781L23.0126 50.4151L21.0774 48.2338L23.2677 46.2968L25.2028 48.4781ZM22.9442 45.9343L20.754 47.8714L18.8188 45.6901L21.009 43.753L22.9442 45.9343ZM20.6856 43.3905L18.4953 45.3276L16.5602 43.1463L18.7504 41.2092L20.6856 43.3905ZM18.4269 40.8468L16.2367 42.7838L14.3015 40.6025L16.4918 38.6655L18.4269 40.8468ZM16.1683 38.303L13.9781 40.24L12.0429 38.0587L14.2331 36.1217L16.1683 38.303ZM13.9134 35.7602L11.7232 37.6972L9.78799 35.5159L11.9782 33.5788L13.9134 35.7602ZM11.6547 33.2164L9.46453 35.1534L7.52936 32.9721L9.71957 31.0351L11.6547 33.2164ZM36.5941 56.1724L34.4039 58.1095L32.6624 56.1472L34.8526 54.2101L36.5941 56.1724ZM34.5292 53.8476L32.339 55.7847L30.4038 53.6034L32.594 51.6663L34.5292 53.8476ZM32.2705 51.3039L30.0803 53.2409L28.1452 51.0596L30.3354 49.1226L32.2705 51.3039ZM30.0156 48.761L27.8254 50.6981L25.8902 48.5168L28.0805 46.5797L30.0156 48.761ZM27.757 46.2173L25.5668 48.1543L23.6316 45.973L25.8218 44.0359L27.757 46.2173ZM25.4984 43.6735L23.3081 45.6105L21.373 43.4292L23.5632 41.4922L25.4984 43.6735ZM23.2397 41.1297L21.0495 43.0668L19.1143 40.8855L21.3046 38.9484L23.2397 41.1297ZM20.9811 38.5859L18.7909 40.523L16.8557 38.3417L19.0459 36.4046L20.9811 38.5859ZM18.7225 36.0422L16.5322 37.9792L14.5971 35.7979L16.7873 33.8609L18.7225 36.0422ZM16.4675 33.4993L14.2773 35.4364L12.3422 33.2551L14.5324 31.318L16.4675 33.4993ZM14.2089 30.9556L12.0187 32.8926L10.0835 30.7113L12.2737 28.7742L14.2089 30.9556ZM11.9503 28.4118L9.76006 30.3488L7.82489 28.1675L10.0151 26.2305L11.9503 28.4118ZM9.69164 25.868L7.50142 27.8051L5.56626 25.6238L7.75647 23.6867L9.69164 25.868ZM39.1483 53.9116L36.9581 55.8487L35.2166 53.8863L37.4068 51.9493L39.1483 53.9116ZM37.0833 51.5868L34.8931 53.5239L32.958 51.3426L35.1482 49.4055L37.0833 51.5868ZM34.8247 49.043L32.6345 50.9801L30.6993 48.7988L32.8895 46.8617L34.8247 49.043ZM32.5698 46.5002L30.3796 48.4372L28.4444 46.2559L30.6346 44.3189L32.5698 46.5002ZM30.3112 43.9564L28.1209 45.8935L26.1858 43.7122L28.376 41.7751L30.3112 43.9564ZM28.0525 41.4126L25.8623 43.3497L23.9271 41.1684L26.1174 39.2313L28.0525 41.4126ZM25.7939 38.8689L23.6037 40.8059L21.6685 38.6246L23.8587 36.6876L25.7939 38.8689ZM23.5353 36.3251L21.345 38.2622L19.4099 36.0809L21.6001 34.1438L23.5353 36.3251ZM21.2766 33.7813L19.0864 35.7184L17.1512 33.5371L19.3415 31.6L21.2766 33.7813ZM19.0217 31.2385L16.8315 33.1755L14.8963 30.9942L17.0865 29.0572L19.0217 31.2385ZM16.7631 28.6947L14.5729 30.6318L12.6377 28.4505L14.8279 26.5134L16.7631 28.6947ZM14.5035 26.1547L12.3133 28.0917L10.3781 25.9104L12.5683 23.9734L14.5035 26.1547ZM12.2449 23.6109L10.0546 25.548L8.11947 23.3666L10.3097 21.4296L12.2449 23.6109ZM9.98622 21.0671L7.79601 23.0042L5.86084 20.8229L8.05105 18.8858L9.98622 21.0671ZM43.9601 54.1983L41.7699 56.1353L39.8347 53.954L42.025 52.017L43.9601 54.1983ZM41.7015 51.6545L39.5113 53.5916L37.7698 51.6292L39.96 49.6922L41.7015 51.6545ZM39.6366 49.3297L37.4463 51.2667L35.5112 49.0854L37.7014 47.1484L39.6366 49.3297ZM37.3779 46.7859L35.1877 48.723L33.2525 46.5417L35.4428 44.6046L37.3779 46.7859ZM35.1193 44.2421L32.9291 46.1792L30.9939 43.9979L33.1841 42.0608L35.1193 44.2421ZM32.8644 41.6993L30.6742 43.6364L28.739 41.4551L30.9292 39.518L32.8644 41.6993ZM30.6057 39.1555L28.4155 41.0926L26.4804 38.9113L28.6706 36.9742L30.6057 39.1555ZM28.3471 36.6118L26.1569 38.5488L24.2217 36.3675L26.4119 34.4305L28.3471 36.6118ZM26.0885 34.068L23.8983 36.005L21.9631 33.8237L24.1533 31.8867L26.0885 34.068ZM23.8298 31.5242L21.6396 33.4613L19.7045 31.28L21.8947 29.3429L23.8298 31.5242ZM21.5749 28.9814L19.3847 30.9184L17.4495 28.7371L19.6398 26.8001L21.5749 28.9814ZM19.3163 26.4376L17.1261 28.3747L15.1909 26.1934L17.3811 24.2563L19.3163 26.4376ZM17.0577 23.8938L14.8674 25.8309L12.9323 23.6496L15.1225 21.7125L17.0577 23.8938ZM14.799 21.3501L12.6088 23.2871L10.6736 21.1058L12.8639 19.1688L14.799 21.3501ZM12.5404 18.8063L10.3502 20.7433L8.41501 18.562L10.6052 16.625L12.5404 18.8063ZM48.7729 54.4812L46.5827 56.4183L44.6475 54.237L46.8378 52.2999L48.7729 54.4812ZM46.5143 51.9374L44.3241 53.8745L42.3889 51.6932L44.5791 49.7561L46.5143 51.9374ZM44.2557 49.3937L42.0654 51.3307L40.324 49.3684L42.5142 47.4313L44.2557 49.3937ZM42.1907 47.0689L40.0005 49.0059L38.0653 46.8246L40.2556 44.8876L42.1907 47.0689ZM39.9321 44.5251L37.7419 46.4621L35.8067 44.2808L37.9969 42.3438L39.9321 44.5251ZM37.6735 41.9813L35.4832 43.9184L33.5481 41.7371L35.7383 39.8L37.6735 41.9813ZM35.4185 39.4385L33.2283 41.3755L31.2932 39.1942L33.4834 37.2572L35.4185 39.4385ZM33.1599 36.8947L30.9697 38.8318L29.0345 36.6505L31.2247 34.7134L33.1599 36.8947ZM30.9013 34.3509L28.7111 36.288L26.7759 34.1067L28.9661 32.1696L30.9013 34.3509ZM28.6426 31.8072L26.4524 33.7442L24.5173 31.5629L26.7075 29.6259L28.6426 31.8072ZM26.384 29.2634L24.1938 31.2004L22.2586 29.0191L24.4488 27.0821L26.384 29.2634ZM24.1291 26.7206L21.9389 28.6576L20.0037 26.4763L22.1939 24.5392L24.1291 26.7206ZM21.8705 24.1768L19.6802 26.1138L17.7451 23.9325L19.9353 21.9955L21.8705 24.1768ZM19.6118 21.633L17.4216 23.5701L15.4864 21.3888L17.6767 19.4517L19.6118 21.633ZM17.3532 19.0892L15.163 21.0263L13.2278 18.845L15.418 16.9079L17.3532 19.0892ZM15.0946 16.5455L12.9043 18.4825L10.9692 16.3012L13.1594 14.3642L15.0946 16.5455ZM12.8359 14.0017L10.6457 15.9387L8.71054 13.7574L10.9008 11.8204L12.8359 14.0017ZM51.3271 52.2204L49.1369 54.1574L47.2017 51.9761L49.3919 50.0391L51.3271 52.2204ZM49.0685 49.6766L46.8782 51.6137L44.9431 49.4324L47.1333 47.4953L49.0685 49.6766ZM46.8098 47.1328L44.6196 49.0699L42.8781 47.1076L45.0684 45.1705L46.8098 47.1328ZM44.7449 44.808L42.5547 46.7451L40.6195 44.5638L42.8097 42.6267L44.7449 44.808ZM42.4863 42.2643L40.296 44.2013L38.3609 42.02L40.5511 40.083L42.4863 42.2643ZM40.2313 39.7214L38.0411 41.6585L36.106 39.4772L38.2962 37.5401L40.2313 39.7214ZM37.9727 37.1777L35.7825 39.1147L33.8473 36.9334L36.0375 34.9963L37.9727 37.1777ZM35.7141 34.6339L33.5239 36.5709L31.5887 34.3896L33.7789 32.4526L35.7141 34.6339ZM33.4554 32.0901L31.2652 34.0272L29.3301 31.8459L31.5203 29.9088L33.4554 32.0901ZM31.1968 29.5463L29.0066 31.4834L27.0714 29.3021L29.2616 27.365L31.1968 29.5463ZM28.9382 27.0026L26.748 28.9396L24.8128 26.7583L27.003 24.8212L28.9382 27.0026ZM26.6833 24.4597L24.493 26.3968L22.5579 24.2155L24.7481 22.2784L26.6833 24.4597ZM24.4246 21.916L22.2344 23.853L20.2992 21.6717L22.4895 19.7346L24.4246 21.916ZM22.166 19.3722L19.9758 21.3092L18.0406 19.1279L20.2308 17.1909L22.166 19.3722ZM19.9074 16.8284L17.7171 18.7655L15.782 16.5842L17.9722 14.6471L19.9074 16.8284ZM17.6487 14.2846L15.4585 16.2217L13.5233 14.0404L15.7136 12.1033L17.6487 14.2846ZM15.3901 11.7409L13.1999 13.6779L11.2647 11.4966L13.4549 9.55956L15.3901 11.7409ZM53.8813 49.9596L51.691 51.8966L49.7559 49.7153L51.9461 47.7782L53.8813 49.9596ZM51.6226 47.4158L49.4324 49.3528L47.4972 47.1715L49.6875 45.2345L51.6226 47.4158ZM49.364 44.872L47.1738 46.8091L45.4323 44.8467L47.6225 42.9097L49.364 44.872ZM47.2991 42.5472L45.1088 44.4843L43.1737 42.303L45.3639 40.3659L47.2991 42.5472ZM45.0404 40.0034L42.8502 41.9405L40.915 39.7592L43.1053 37.8221L45.0404 40.0034ZM42.7818 37.4597L40.5916 39.3967L38.6564 37.2154L40.8466 35.2783L42.7818 37.4597ZM40.5269 34.9168L38.3367 36.8539L36.4015 34.6726L38.5917 32.7355L40.5269 34.9168ZM38.2682 32.373L36.078 34.3101L34.1429 32.1288L36.3331 30.1917L38.2682 32.373ZM36.0096 29.8293L33.8194 31.7663L31.8842 29.585L34.0744 27.648L36.0096 29.8293ZM33.751 27.2855L31.5608 29.2226L29.6256 27.0413L31.8158 25.1042L33.751 27.2855ZM31.4923 24.7417L29.3021 26.6788L27.367 24.4975L29.5572 22.5604L31.4923 24.7417ZM29.2337 22.198L27.0435 24.135L25.1083 21.9537L27.2985 20.0167L29.2337 22.198ZM26.9788 19.6551L24.7886 21.5922L22.8534 19.4109L25.0436 17.4738L26.9788 19.6551ZM24.7202 17.1113L22.5299 19.0484L20.5948 16.8671L22.785 14.93L24.7202 17.1113ZM22.4615 14.5676L20.2713 16.5046L18.3361 14.3233L20.5264 12.3863L22.4615 14.5676ZM20.2029 12.0238L18.0127 13.9609L16.0775 11.7795L18.2677 9.8425L20.2029 12.0238ZM17.9443 9.48002L15.754 11.4171L13.8189 9.23578L16.0091 7.29872L17.9443 9.48002ZM54.1759 45.1587L51.9856 47.0957L50.0505 44.9144L52.2407 42.9774L54.1759 45.1587ZM51.9182 42.6112L49.728 44.5482L47.9865 42.5859L50.1767 40.6488L51.9182 42.6112ZM49.8532 40.2864L47.663 42.2234L45.7278 40.0421L47.9181 38.1051L49.8532 40.2864ZM47.5946 37.7426L45.4044 39.6797L43.4692 37.4983L45.6594 35.5613L47.5946 37.7426ZM45.336 35.1988L43.1457 37.1359L41.2106 34.9546L43.4008 33.0175L45.336 35.1988ZM43.081 32.656L40.8908 34.593L38.9557 32.4117L41.1459 30.4747L43.081 32.656ZM40.8224 30.1122L38.6322 32.0493L36.697 29.868L38.8872 27.9309L40.8224 30.1122ZM38.5638 27.5684L36.3736 29.5055L34.4384 27.3242L36.6286 25.3871L38.5638 27.5684ZM36.3051 25.0247L34.1149 26.9617L32.1798 24.7804L34.37 22.8434L36.3051 25.0247ZM34.0465 22.4809L31.8563 24.418L29.9211 22.2366L32.1113 20.2996L34.0465 22.4809ZM31.7879 19.9371L29.5977 21.8742L27.6625 19.6929L29.8527 17.7558L31.7879 19.9371ZM29.532 17.398L27.3418 19.3351L25.4066 17.1538L27.5968 15.2167L29.532 17.398ZM27.2743 14.8505L25.0841 16.7876L23.1489 14.6063L25.3392 12.6692L27.2743 14.8505ZM25.0157 12.3067L22.8255 14.2438L20.8903 12.0625L23.0805 10.1254L25.0157 12.3067ZM22.7561 9.76668L20.5659 11.7037L18.6307 9.52244L20.8209 7.58538L22.7561 9.76668ZM56.73 42.8978L54.5398 44.8349L52.6046 42.6536L54.7948 40.7165L56.73 42.8978ZM54.4714 40.3541L52.2812 42.2911L50.5397 40.3288L52.7299 38.3917L54.4714 40.3541ZM52.4074 38.0255L50.2172 39.9626L48.282 37.7813L50.4722 35.8442L52.4074 38.0255ZM50.1488 35.4818L47.9585 37.4188L46.0234 35.2375L48.2136 33.3005L50.1488 35.4818ZM47.8892 32.9417L45.699 34.8788L43.7638 32.6975L45.954 30.7604L47.8892 32.9417ZM45.6315 30.3942L43.4413 32.3313L41.5061 30.15L43.6963 28.2129L45.6315 30.3942ZM43.3766 27.8514L41.1864 29.7884L39.2512 27.6071L41.4414 25.6701L43.3766 27.8514ZM41.117 25.3113L38.9268 27.2484L36.9916 25.0671L39.1818 23.13L41.117 25.3113ZM38.8584 22.7676L36.6681 24.7046L34.733 22.5233L36.9232 20.5863L38.8584 22.7676ZM36.5997 20.2238L34.4095 22.1608L32.4743 19.9795L34.6646 18.0425L36.5997 20.2238ZM34.3411 17.68L32.1509 19.6171L30.2157 17.4358L32.4059 15.4987L34.3411 17.68ZM32.0862 15.1372L29.896 17.0742L27.9608 14.8929L30.151 12.9559L32.0862 15.1372ZM29.8275 12.5934L27.6373 14.5305L25.7022 12.3492L27.8924 10.4121L29.8275 12.5934ZM27.5689 10.0496L25.3787 11.9867L23.4435 9.80538L25.6337 7.86833L27.5689 10.0496ZM25.3103 7.50585L23.1201 9.44291L21.1849 7.26161L23.3751 5.32455L25.3103 7.50585ZM37.8819 10.6542L39.8523 8.91104L41.7875 11.0923L39.8171 12.8355L37.8819 10.6542ZM40.1368 13.197L42.1072 11.4539L44.0424 13.6352L42.072 15.3783L40.1368 13.197ZM42.3955 15.7408L44.3658 13.9977L46.301 16.179L44.3306 17.9221L42.3955 15.7408ZM44.6541 18.2846L46.6245 16.5414L48.5596 18.7227L46.5893 20.4659L44.6541 18.2846ZM46.9127 20.8284L48.8831 19.0852L50.8183 21.2665L48.8479 23.0097L46.9127 20.8284ZM49.1714 23.3721L51.1417 21.629L53.0769 23.8103L51.1066 25.5534L49.1714 23.3721ZM51.43 25.9159L53.4004 24.1727L55.3355 26.354L53.3652 28.0972L51.43 25.9159ZM30.8105 7.82749L33.0007 5.89044L34.9359 8.07175L32.7457 10.0088L30.8105 7.82749ZM33.0691 10.3713L35.2593 8.43421L37.1945 10.6155L35.0043 12.5526L33.0691 10.3713ZM35.3278 12.915L37.518 10.978L39.4532 13.1593L37.2629 15.0963L35.3278 12.915ZM37.5864 15.4588L39.7766 13.5218L41.7118 15.7031L39.5216 17.6401L37.5864 15.4588ZM39.8413 18.0017L42.0315 16.0646L43.9667 18.2459L41.7765 20.183L39.8413 18.0017ZM42.0999 20.5454L44.2902 18.6084L46.2253 20.7897L44.0351 22.7267L42.0999 20.5454ZM44.3586 23.0892L46.5488 21.1521L48.484 23.3334L46.2938 25.2705L44.3586 23.0892ZM46.6172 25.633L48.8074 23.6959L50.7426 25.8772L48.5524 27.8143L46.6172 25.633ZM48.8759 28.1767L51.0661 26.2397L53.0012 28.421L50.811 30.358L48.8759 28.1767ZM51.1308 30.7196L53.321 28.7825L55.2561 30.9638L53.0659 32.9009L51.1308 30.7196ZM53.3894 33.2633L55.5796 31.3263L57.5148 33.5076L55.3246 35.4447L53.3894 33.2633ZM57.0255 38.0932L54.8353 40.0303L53.0939 38.068L55.2841 36.1309L57.0255 38.0932ZM54.9616 35.7647L52.7713 37.7018L50.8362 35.5205L53.0264 33.5834L54.9616 35.7647ZM52.702 33.2247L50.5118 35.1617L48.5766 32.9804L50.7668 31.0434L52.702 33.2247ZM50.4433 30.6809L48.2531 32.6179L46.318 30.4366L48.5082 28.4996L50.4433 30.6809ZM48.1884 28.138L45.9982 30.0751L44.063 27.8938L46.2533 25.9567L48.1884 28.138ZM45.9298 25.5943L43.7396 27.5313L41.8044 25.35L43.9946 23.413L45.9298 25.5943ZM43.6712 23.0505L41.4809 24.9876L39.5458 22.8063L41.736 20.8692L43.6712 23.0505ZM41.4125 20.5067L39.2223 22.4438L37.2871 20.2625L39.4774 18.3254L41.4125 20.5067ZM39.1539 17.963L36.9637 19.9L35.0285 17.7187L37.2187 15.7817L39.1539 17.963ZM36.8953 15.4192L34.705 17.3562L32.7699 15.1749L34.9601 13.2379L36.8953 15.4192ZM34.6403 12.8763L32.4501 14.8134L30.515 12.6321L32.7052 10.695L34.6403 12.8763ZM32.3817 10.3326L30.1915 12.2696L28.2563 10.0883L30.4465 8.15127L32.3817 10.3326ZM28.1879 5.60749L30.1231 7.7888L27.9329 9.72585L25.9977 7.54455L28.1879 5.60749Z" fill="#9D9D9C"/>
<path d="M48.2545 10.5059C47.8305 11.3445 47.3693 12.158 46.8227 12.9183C47.7307 13.7524 48.6077 14.6459 49.4508 15.5942C60.285 27.7994 61.1212 44.7246 51.318 53.3983C42.3837 61.306 27.6942 59.6256 16.9596 50.0249C16.4084 50.7722 15.7329 51.6186 15.1476 52.0962C27.134 62.8906 43.5866 64.8017 53.5853 55.9517C64.5203 46.2735 63.5898 27.39 51.5039 13.7736C50.4671 12.6063 49.3796 11.5134 48.2517 10.5012L48.2545 10.5059Z" fill="#352E35"/>
<path d="M14.669 47.7507L12.9674 49.946C14.4685 51.5155 16.0607 52.9299 17.716 54.19L19.4157 52.0022C17.7519 50.7597 16.1607 49.3416 14.6718 47.7554L14.669 47.7507Z" fill="#D1D1D1"/>
<path d="M48.4862 14.5966L50.1869 12.4051C48.6746 10.8486 47.0711 9.44716 45.4082 8.20097L43.7029 10.3953C45.3752 11.6201 46.9824 13.0225 48.4862 14.5966Z" fill="#D1D1D1"/>
<g style="mix-blend-mode:soft-light">
<path d="M11.3663 8.61305C21.0116 0.0773415 37.2051 2.49274 48.0601 13.8883C47.7905 13.5633 47.5163 13.241 47.2375 12.9214C36.6338 0.975971 20.4906 -1.04695 10.5796 7.72248C0.668626 16.4919 2.19523 33.3817 10.2506 43.7038C12.432 46.5007 14.9067 49.1261 18.5095 52.1269C17.1624 50.7944 11.9538 45.7828 9.37888 41.6881C2.14688 30.1888 2.72921 16.2556 11.3672 8.60934L11.3663 8.61305Z" fill="white"/>
</g>
<path d="M52.9257 54.9676C42.835 63.9007 29.839 59.7631 24.7208 58.2161C34.4076 63.5254 45.8335 62.8288 53.7123 55.8581C62.3487 48.216 62.976 35.0071 58.31 24.8314C60.3826 30.9237 61.9652 46.9722 52.9248 54.9713L52.9257 54.9676Z" fill="#2B242A"/>
<path d="M70.5069 69.0375C70.8145 69.384 70.7383 69.9463 70.3436 70.2978L65.9955 74.143C65.6008 74.4945 65.0298 74.497 64.725 74.1551C64.4202 73.8132 64.4936 73.2463 64.8883 72.8948L69.2364 69.0496C69.6312 68.6981 70.2031 68.6919 70.5069 69.0375Z" fill="#2B242A"/>
<path d="M65.4557 74.278L67.6118 76.7023L72.6899 72.2151L70.5338 69.7907L65.4557 74.278Z" fill="#161013"/>
<path d="M73.0502 71.8979C73.354 72.2435 73.2815 72.8068 72.8868 73.1583L68.5387 77.0034C68.144 77.3549 67.573 77.3574 67.2682 77.0155C66.9643 76.67 67.0368 76.1067 67.4306 75.7589L71.7787 71.9137C72.1734 71.5622 72.7444 71.5598 73.0492 71.9016L73.0502 71.8979Z" fill="#2B242A"/>
</g>
<defs>
<clipPath id="clip0_40000008_3480">
<rect width="98" height="99.3323" fill="white" transform="translate(0.33374 98) rotate(-90)"/>
</clipPath>
</defs>
</svg>
