<svg width="87" height="86" viewBox="0 0 87 86" fill="none" xmlns="http://www.w3.org/2000/svg">
<g clip-path="url(#clip0_1_2)">
<path d="M2.48252 71.3944L14.9005 83.8124C16.0721 84.984 17.9715 84.984 19.1431 83.8124L44.1741 58.7814L27.5135 42.1208L2.48252 67.1518C1.31095 68.3234 1.31095 70.2229 2.48252 71.3944Z" fill="#E9E100"/>
<path d="M42.4594 27.1758L59.12 43.8364L84.2635 18.6929C85.4351 17.5213 85.4351 15.6218 84.2635 14.4502L71.8455 2.03226C70.674 0.860688 68.7745 0.860687 67.6029 2.03226L42.4594 27.1758Z" fill="#E9E100"/>
<path d="M42.5078 58.7967L67.5632 83.8521C68.7348 85.0236 70.6343 85.0236 71.8058 83.8521L84.2238 71.4341C85.3954 70.2625 85.3954 68.3631 84.2238 67.1915L59.1684 42.1361L42.5078 58.7967Z" fill="#E9E100"/>
<path d="M2.44368 18.7317L28.0024 44.2904L44.663 27.6298L19.1043 2.07111C17.9327 0.899534 16.0332 0.899534 14.8616 2.07111L2.44368 14.4891C1.27211 15.6606 1.27211 17.5601 2.44368 18.7317Z" fill="#E9E100"/>
<path d="M26.7124 42.9616L43.373 59.6222L60.0336 42.9616L43.373 26.301L26.7124 42.9616Z" fill="#E9E100"/>
</g>
<defs>
<clipPath id="clip0_1_2">
<rect width="86" height="86" fill="white" transform="translate(0.33374 86) rotate(-90)"/>
</clipPath>
</defs>
</svg>
