<svg width="100" height="98" viewBox="0 0 100 98" fill="none" xmlns="http://www.w3.org/2000/svg">
<path d="M52.2672 3.18832C78.4485 3.18832 99.6662 24.4197 99.6662 50.5873C99.6662 76.755 78.4485 97.9863 52.2672 97.9863C26.0859 97.9863 4.86816 76.755 4.86816 50.5873C4.86816 24.4197 26.0859 3.18832 52.2672 3.18832Z" fill="#D4D921"/>
<g style="mix-blend-mode:multiply">
<path d="M67.7986 80.8185C56.1125 87.2411 41.6446 87.8139 28.8131 85.0594C24.3541 84.1048 19.9905 82.7412 15.8315 80.914C24.5314 91.3456 37.622 98 52.2672 98C78.4484 98 99.6662 76.7686 99.6662 50.601C99.6662 42.2557 97.5117 34.4286 93.7208 27.6242C95.7662 48.2692 86.3301 70.6324 67.7986 80.8322L67.7986 80.8185Z" fill="#C1CCBC"/>
</g>
<g style="mix-blend-mode:multiply">
<path d="M92.0706 76.3187C92.0433 75.2141 91.8388 74.0278 91.3751 72.8824L91.1842 72.446L91.1433 72.3369C91.1842 72.4051 91.0615 72.1733 91.0615 72.1869L91.0342 72.146L90.9524 71.9824C90.8297 71.7642 90.7342 71.5733 90.5979 71.3142C90.4206 71.0279 90.2297 70.7415 90.0252 70.4551C89.8343 70.1824 89.6297 69.9506 89.4252 69.7052C87.7616 67.7416 85.4162 66.2962 82.9617 65.4235C80.4935 64.5235 77.9027 64.0598 75.2846 63.8008C72.6528 63.5417 69.9665 63.5144 67.2529 63.6371C64.5393 63.7462 61.7848 63.9917 59.0031 64.2917C57.6395 64.4553 56.2486 64.6053 54.8577 64.7689C54.1486 64.8507 53.5214 64.9053 52.8396 64.9735C52.1714 65.028 51.4896 65.0689 50.8078 65.1235C45.3943 65.4644 39.7626 65.2462 34.7718 63.6235C33.5173 63.228 32.3446 62.7099 31.2128 62.1372C30.081 61.5644 29.031 60.8826 28.0765 60.0917C26.1401 58.5509 24.5856 56.5873 23.4266 54.3509C22.2538 52.1146 21.4902 49.592 20.9993 46.9875L20.6721 44.9284L20.4948 43.0739C20.4675 42.4194 20.4539 41.7649 20.4266 41.1103C20.4539 40.4558 20.4675 39.8149 20.4948 39.1604C20.6312 36.5831 21.1357 34.0605 21.9539 31.6742C22.7584 29.3015 23.8629 27.0379 25.322 25.0334C26.7674 23.0289 28.431 21.1607 30.3537 19.6062C32.2082 17.9699 34.3354 16.6745 36.449 15.4745L36.8444 15.2427C36.6808 15.3109 36.8444 15.2427 36.8035 15.2563L36.8581 15.229L36.9672 15.1745L37.1853 15.0654L38.0581 14.6427C38.6308 14.37 39.2171 14.0836 39.7762 13.8109C40.9353 13.2109 41.9989 12.8427 43.0761 12.4064C43.6079 12.1882 44.1534 11.9836 44.6716 11.7791C45.2034 11.5882 45.7624 11.4246 46.3079 11.2473C46.8533 11.07 47.3851 10.9064 47.9306 10.7291C48.2033 10.6473 48.4624 10.5655 48.7351 10.4837C49.0078 10.4155 49.2669 10.361 49.5397 10.2928C53.7941 9.14734 57.8304 8.64281 61.4167 8.46554C65.0166 8.28827 68.1665 8.43826 70.7437 8.71098C72.0937 8.86097 73.9482 8.80645 74.9846 8.98372C70.7437 6.66559 64.7439 4.26562 59.2622 3.70654C56.0713 3.82927 52.2123 5.45196 48.5306 6.20195C48.2442 6.25649 47.9442 6.31103 47.6579 6.36558C47.3715 6.43375 47.0715 6.50194 46.7852 6.58375C46.1988 6.72011 45.6125 6.87012 45.0125 7.02012C44.4125 7.17012 43.8125 7.29285 43.1989 7.47011C42.5852 7.66102 41.9716 7.85192 41.358 8.04283C40.1308 8.43828 38.8217 8.82008 37.6762 9.29735C37.0899 9.52916 36.4899 9.76096 35.8899 9.99277L34.9899 10.3473L34.7581 10.4291L34.649 10.47L34.5945 10.4973C34.5945 10.4973 34.649 10.47 34.4445 10.5655L33.9809 10.7837C31.4718 11.9427 28.9219 13.2518 26.5356 15.0109C24.0947 16.6745 21.8857 18.8153 19.8948 21.2016C17.8903 23.588 16.3358 26.397 15.1495 29.3424C13.9904 32.315 13.2813 35.465 13.0086 38.6695C12.5722 45.0784 13.5949 51.5556 16.7449 57.6236C18.3403 60.6236 20.5902 63.4189 23.3584 65.5871C24.7356 66.678 26.222 67.6189 27.7628 68.3825C29.3037 69.1597 30.8991 69.8006 32.5082 70.2642C35.7263 71.2324 38.9717 71.696 42.1216 71.8733C45.2716 72.0642 48.3397 71.9415 51.326 71.696C52.076 71.6279 52.7987 71.546 53.5486 71.4642C54.285 71.3688 55.0623 71.2733 55.7304 71.1779C57.1077 70.9733 58.4849 70.7552 59.8349 70.5506C62.5076 70.1552 65.0984 69.8415 67.6075 69.6506C70.1165 69.4734 72.5301 69.3779 74.8209 69.487C77.0982 69.5961 79.239 69.8961 81.0935 70.4688C82.9481 71.0415 84.448 71.9006 85.5116 72.9778C85.6343 73.1142 85.7843 73.2642 85.8798 73.3869C85.9752 73.5096 86.0707 73.6324 86.1661 73.7414C86.2752 73.9051 86.4252 74.1505 86.548 74.3414L86.6434 74.4914L86.6434 74.5187L86.7525 74.7369C87.0389 75.3232 87.2025 75.9505 87.257 76.605C87.3252 77.2596 87.257 77.955 87.1479 78.6368C87.0252 79.3186 86.8616 80.0004 86.6161 80.6413C86.1661 81.9367 85.5525 83.1231 84.9525 84.1731C84.5844 84.8003 84.2298 85.3594 83.8753 85.8912C86.998 83.0822 89.7388 79.8641 92.0297 76.3323L92.0706 76.3187Z" fill="#C1CCBC"/>
</g>
<path d="M89.7797 73.7004L89.5888 73.2368L89.5479 73.1277C89.5888 73.1959 89.4661 72.9641 89.4661 72.9641L89.4388 72.9232L89.357 72.7595C89.2342 72.5277 89.1388 72.3368 88.9888 72.0641C88.7979 71.7641 88.6206 71.4641 88.4161 71.1777C88.2252 70.8914 88.0206 70.6596 87.8161 70.3869C86.1525 68.3551 83.8071 66.8551 81.3526 65.9551C78.8844 65.0279 76.2936 64.537 73.6755 64.2779C71.0437 64.0188 68.3574 63.9916 65.6438 64.1006C62.9302 64.2097 60.1758 64.4552 57.394 64.7824C56.0304 64.9461 54.6395 65.1097 53.2486 65.2733C52.5395 65.3688 51.9123 65.4097 51.2305 65.4779C50.5623 65.5324 49.8805 65.587 49.1987 65.6415C43.7852 65.996 38.1535 65.7642 33.1627 64.087C31.9082 63.6779 30.7354 63.1461 29.6037 62.5461C28.4719 61.9461 27.4219 61.2507 26.4537 60.4325C24.5174 58.8371 22.9629 56.8053 21.8038 54.4872C20.6311 52.1691 19.8675 49.5646 19.3766 46.8646L19.0493 44.7374L18.8721 42.8147C18.8448 42.1329 18.8312 41.4647 18.8039 40.7829C18.8312 40.1148 18.8448 39.4466 18.8721 38.7648C19.0084 36.0921 19.5129 33.474 20.3311 31.0195C21.1356 28.565 22.2402 26.2196 23.6992 24.1469C25.1447 22.0606 26.8083 20.1379 28.7446 18.5289C30.6127 16.838 32.7263 15.488 34.8399 14.2471L35.2354 14.0153C35.0717 14.0835 35.2217 14.0153 35.2081 14.0153L35.2626 13.9881L35.3717 13.9335L35.5899 13.8244L36.4626 13.3881C37.0353 13.1017 37.608 12.8153 38.1808 12.529C39.3398 11.9154 40.4034 11.5336 41.4807 11.0836C42.0125 10.8654 42.5443 10.6472 43.0761 10.429C43.6079 10.2245 44.167 10.0609 44.7124 9.88358C45.2579 9.70631 45.7897 9.52904 46.3351 9.35177C46.6078 9.26996 46.8669 9.1745 47.1397 9.09269C47.4124 9.0245 47.6715 8.95634 47.9442 8.88815C52.1986 7.70181 56.2349 7.17 59.8212 6.99273C63.4211 6.81547 66.5711 6.96545 69.1483 7.23818C70.4983 7.38817 71.6982 7.57908 72.721 7.75635C67.962 5.46549 62.7666 3.96554 57.2849 3.37919C54.0941 3.50191 50.6032 3.85644 46.9351 4.6337C46.6488 4.68825 46.3488 4.74278 46.0624 4.79733C45.7761 4.86551 45.4761 4.94733 45.1897 5.01551C44.6033 5.16551 44.017 5.3155 43.417 5.46551C42.817 5.62913 42.217 5.75185 41.6034 5.92912C40.9898 6.12003 40.3762 6.32458 39.7625 6.52911C38.5353 6.9382 37.2262 7.33364 36.0808 7.82454C35.4944 8.05635 34.8945 8.30181 34.2945 8.53362L33.3945 8.88815L33.1627 8.98361L33.0536 9.02452L32.999 9.05178C32.999 9.05178 33.0536 9.02451 32.849 9.11996L32.3854 9.35178C29.8764 10.5517 27.3264 11.9154 24.9401 13.729C22.4993 15.4471 20.2902 17.6562 18.2994 20.1379C16.2948 22.606 14.754 25.5105 13.554 28.565C12.3949 31.6331 11.6858 34.9058 11.4131 38.2057C10.9768 44.8465 11.9995 51.5418 15.1494 57.8144C16.7448 60.9234 18.9948 63.8143 21.7629 66.0506C23.1402 67.1824 24.6265 68.1505 26.1674 68.9414C27.7082 69.746 29.3037 70.4005 30.9127 70.8914C34.1308 71.8868 37.3762 72.3777 40.5262 72.555C43.6761 72.7595 46.7442 72.6232 49.7305 72.3641C50.4805 72.2959 51.2032 72.2141 51.9532 72.1186C52.6895 72.0232 53.4668 71.9277 54.135 71.8186C55.5122 71.6005 56.8895 71.3823 58.2394 71.1777C60.9121 70.7687 63.5029 70.4414 66.012 70.2505C68.521 70.0596 70.9483 69.9641 73.2255 70.0732C75.5027 70.1823 77.6436 70.4959 79.4981 71.0959C81.3526 71.6823 82.8526 72.5823 83.9162 73.6868C84.0389 73.8232 84.1889 73.9732 84.2843 74.1095C84.3798 74.2322 84.4752 74.355 84.5707 74.4777C84.6798 74.6413 84.8298 74.9004 84.9525 75.1049L85.048 75.2686L85.048 75.2958L85.1571 75.514C85.4434 76.114 85.607 76.7685 85.6616 77.4504C85.7298 78.1322 85.6616 78.8412 85.5525 79.5503C85.4298 80.2594 85.2525 80.9548 85.0207 81.623C84.5707 82.973 83.9571 84.1866 83.3571 85.2775C82.948 86.0002 82.5389 86.6547 82.1571 87.2547C85.2525 84.732 88.0206 81.8275 90.3933 78.6231C90.4342 78.1867 90.4615 77.7231 90.4479 77.2594C90.4342 76.0867 90.216 74.8322 89.7388 73.6186L89.7797 73.7004Z" fill="white"/>
<g style="mix-blend-mode:soft-light" opacity="0.4">
<path d="M42.8576 7.72917C62.0709 7.72917 77.6569 23.3152 77.6569 42.5284C77.6569 61.7417 62.0709 77.3277 42.8576 77.3277C23.6444 77.3277 8.05835 61.7417 8.05835 42.5285C8.05835 23.3152 23.6444 7.72917 42.8576 7.72917Z" fill="white"/>
</g>
<g style="mix-blend-mode:soft-light" opacity="0.4">
<path d="M58.1291 19.2651C47.4893 8.62526 30.2388 8.62525 19.599 19.265C8.95918 29.9048 8.95918 47.1554 19.599 57.7952C30.2388 68.4349 47.4893 68.4349 58.1291 57.7951C68.7689 47.1553 68.7689 29.9048 58.1291 19.2651Z" fill="white"/>
</g>
<g style="mix-blend-mode:soft-light" opacity="0.4">
<path d="M32.9718 13.2381C43.6897 13.2381 52.3759 21.9243 52.3759 32.6423C52.3759 43.3602 43.6897 52.0464 32.9718 52.0464C22.2538 52.0464 13.5676 43.3602 13.5676 32.6423C13.5676 21.9243 22.2538 13.2381 32.9718 13.2381Z" fill="white"/>
</g>
</svg>
