<svg width="24" height="24" viewBox="0 0 24 24" fill="none" xmlns="http://www.w3.org/2000/svg">
<path d="M15.4941 1.98937C15.3048 1.89687 15.0935 1.85934 14.884 1.88105C14.6745 1.90276 14.4753 1.98284 14.3091 2.11219L7.86375 7.125H3.75C3.25272 7.125 2.77581 7.32254 2.42417 7.67417C2.07254 8.02581 1.875 8.50272 1.875 9V15C1.875 15.4973 2.07254 15.9742 2.42417 16.3258C2.77581 16.6775 3.25272 16.875 3.75 16.875H7.86375L14.3091 21.8878C14.4753 22.0172 14.6745 22.0973 14.884 22.119C15.0935 22.1407 15.3049 22.1032 15.4941 22.0107C15.6833 21.9182 15.8428 21.7744 15.9543 21.5957C16.0659 21.417 16.125 21.2106 16.125 21V3C16.125 2.78937 16.0658 2.58298 15.9543 2.40431C15.8428 2.22564 15.6833 2.08188 15.4941 1.98937ZM13.875 18.7003L8.94094 14.8622C8.74342 14.7085 8.50028 14.625 8.25 14.625H4.125V9.375H8.25C8.50028 9.375 8.74342 9.29153 8.94094 9.13781L13.875 5.30062V18.7003ZM19.875 9.75V14.25C19.875 14.5484 19.7565 14.8345 19.5455 15.0455C19.3345 15.2565 19.0484 15.375 18.75 15.375C18.4516 15.375 18.1655 15.2565 17.9545 15.0455C17.7435 14.8345 17.625 14.5484 17.625 14.25V9.75C17.625 9.45163 17.7435 9.16548 17.9545 8.9545C18.1655 8.74353 18.4516 8.625 18.75 8.625C19.0484 8.625 19.3345 8.74353 19.5455 8.9545C19.7565 9.16548 19.875 9.45163 19.875 9.75ZM23.25 8.25V15.75C23.25 16.0484 23.1315 16.3345 22.9205 16.5455C22.7095 16.7565 22.4234 16.875 22.125 16.875C21.8266 16.875 21.5405 16.7565 21.3295 16.5455C21.1185 16.3345 21 16.0484 21 15.75V8.25C21 7.95163 21.1185 7.66548 21.3295 7.4545C21.5405 7.24353 21.8266 7.125 22.125 7.125C22.4234 7.125 22.7095 7.24353 22.9205 7.4545C23.1315 7.66548 23.25 7.95163 23.25 8.25Z" fill="#59BE19"/>
</svg>
