<svg width="38" height="38" viewBox="0 0 38 38" fill="none" xmlns="http://www.w3.org/2000/svg">
<path d="M36.1861 23.2349L34.4048 8.98492C34.2793 7.97974 33.791 7.055 33.0316 6.3845C32.2723 5.714 31.2942 5.3439 30.2812 5.34375H4.75C3.96264 5.34375 3.20753 5.65653 2.65078 6.21328C2.09403 6.77003 1.78125 7.52514 1.78125 8.3125V21.375C1.78125 21.7649 1.85804 22.1509 2.00723 22.5111C2.15643 22.8713 2.3751 23.1985 2.65078 23.4742C2.92645 23.7499 3.25372 23.9686 3.61391 24.1178C3.97409 24.267 4.36014 24.3438 4.75 24.3438H10.7736L16.2198 35.2346C16.3677 35.5303 16.5951 35.779 16.8764 35.9528C17.1577 36.1266 17.4818 36.2187 17.8125 36.2188C19.5441 36.2168 21.2042 35.528 22.4286 34.3036C23.653 33.0792 24.3418 31.4191 24.3437 29.6875V27.9062H32.0625C32.6517 27.9062 33.2342 27.7808 33.7713 27.5384C34.3084 27.2961 34.7878 26.9423 35.1778 26.5006C35.5677 26.0588 35.8593 25.5392 36.0331 24.9762C36.207 24.4132 36.2591 23.8196 36.1861 23.2349ZM10.0937 20.7812H5.34375V8.90625H10.0937V20.7812ZM32.5078 24.1434C32.452 24.2064 32.3835 24.2569 32.3067 24.2915C32.2299 24.326 32.1467 24.3438 32.0625 24.3438H22.5625C22.0901 24.3438 21.637 24.5314 21.303 24.8655C20.9689 25.1995 20.7812 25.6526 20.7812 26.125V29.6875C20.7812 30.2973 20.5934 30.8922 20.2434 31.3915C19.8933 31.8908 19.3981 32.2702 18.8248 32.4781L13.6562 22.1424V8.90625H30.2812C30.4267 8.90511 30.5674 8.95738 30.6769 9.05314C30.7863 9.1489 30.8568 9.2815 30.875 9.42578L32.6562 23.6758C32.6662 23.7598 32.6582 23.845 32.6326 23.9256C32.607 24.0063 32.5644 24.0805 32.5078 24.1434Z" fill="#E9E100"/>
</svg>
