<svg width="38" height="38" viewBox="0 0 38 38" fill="none" xmlns="http://www.w3.org/2000/svg">
<path d="M34.4375 8.90625H31.4688V7.125C31.4688 6.65258 31.2811 6.19951 30.947 5.86547C30.613 5.53142 30.1599 5.34375 29.6875 5.34375H8.3125C7.84008 5.34375 7.38701 5.53142 7.05297 5.86547C6.71892 6.19951 6.53125 6.65258 6.53125 7.125V8.90625H3.5625C3.17264 8.90625 2.78659 8.98304 2.42641 9.13223C2.06622 9.28143 1.73895 9.5001 1.46328 9.77578C0.906528 10.3325 0.59375 11.0876 0.59375 11.875V14.25C0.595714 15.9816 1.28446 17.6417 2.50888 18.8661C3.7333 20.0905 5.39341 20.7793 7.125 20.7812H7.2393C8.00008 22.9249 9.33155 24.8201 11.0902 26.2627C12.8488 27.7054 14.9678 28.6406 17.2188 28.9676V31.4688H14.25C13.7776 31.4688 13.3245 31.6564 12.9905 31.9905C12.6564 32.3245 12.4688 32.7776 12.4688 33.25C12.4688 33.7224 12.6564 34.1755 12.9905 34.5095C13.3245 34.8436 13.7776 35.0312 14.25 35.0312H23.75C24.2224 35.0312 24.6755 34.8436 25.0095 34.5095C25.3436 34.1755 25.5312 33.7224 25.5312 33.25C25.5312 32.7776 25.3436 32.3245 25.0095 31.9905C24.6755 31.6564 24.2224 31.4688 23.75 31.4688H20.7812V28.9616C25.3739 28.2922 29.1724 25.0726 30.7266 20.7812H30.875C32.6066 20.7793 34.2667 20.0905 35.4911 18.8661C36.7155 17.6417 37.4043 15.9816 37.4062 14.25V11.875C37.4062 11.0876 37.0935 10.3325 36.5367 9.77578C35.98 9.21903 35.2249 8.90625 34.4375 8.90625ZM4.15625 14.25V12.4688H6.53125V16.625C6.53125 16.8046 6.53125 16.9827 6.54461 17.1609C5.87134 17.0266 5.26539 16.6632 4.82992 16.1325C4.39446 15.6018 4.15639 14.9365 4.15625 14.25ZM27.9062 16.4914C27.9062 21.4388 23.9415 25.4941 19.0683 25.5312C17.893 25.5403 16.7275 25.3165 15.639 24.873C14.5506 24.4295 13.5607 23.7749 12.7264 22.9469C11.8922 22.119 11.23 21.1341 10.7782 20.0491C10.3263 18.9641 10.0937 17.8004 10.0938 16.625V8.90625H27.9062V16.4914ZM33.8438 14.25C33.8438 14.9374 33.6052 15.6035 33.1688 16.1346C32.7324 16.6658 32.1253 17.029 31.4509 17.1623C31.4628 16.9397 31.4688 16.717 31.4688 16.4914V12.4688H33.8438V14.25Z" fill="#E9E100"/>
</svg>
