<svg width="38" height="38" viewBox="0 0 38 38" fill="none" xmlns="http://www.w3.org/2000/svg">
<path d="M36.0911 19.5255L31.3411 7.65047C31.184 7.25869 30.8929 6.93545 30.5196 6.73835C30.1464 6.54125 29.7152 6.48311 29.3031 6.5743L20.7813 8.46094V5.9375C20.7813 5.46508 20.5936 5.01202 20.2596 4.67797C19.9255 4.34392 19.4725 4.15625 19 4.15625C18.5276 4.15625 18.0746 4.34392 17.7405 4.67797C17.4065 5.01202 17.2188 5.46508 17.2188 5.9375V9.25805L7.9266 11.3243C7.64371 11.387 7.38039 11.5178 7.15949 11.7054C6.93859 11.8929 6.76677 12.1315 6.65894 12.4005L1.90894 24.2636C1.82314 24.4778 1.77978 24.7067 1.78129 24.9375C1.78129 26.738 2.7016 28.267 4.37152 29.2422C5.57622 29.9162 6.93215 30.2736 8.31254 30.2812C9.69293 30.2736 11.0489 29.9162 12.2536 29.2422C13.9235 28.267 14.8438 26.738 14.8438 24.9375C14.8438 24.7107 14.8004 24.486 14.7161 24.2755L10.7439 14.3465L17.2188 12.9141V30.2812H15.4375C14.9651 30.2812 14.5121 30.4689 14.178 30.803C13.844 31.137 13.6563 31.5901 13.6563 32.0625C13.6563 32.5349 13.844 32.988 14.178 33.322C14.5121 33.6561 14.9651 33.8438 15.4375 33.8438H22.5625C23.035 33.8438 23.488 33.6561 23.8221 33.322C24.1561 32.988 24.3438 32.5349 24.3438 32.0625C24.3438 31.5901 24.1561 31.137 23.8221 30.803C23.488 30.4689 23.035 30.2812 22.5625 30.2812H20.7813V12.117L26.7811 10.781L23.2839 19.524C23.1994 19.735 23.1561 19.9602 23.1563 20.1875C23.1563 21.988 24.0766 23.517 25.7465 24.4922C26.948 25.1742 28.306 25.5328 29.6875 25.5328C31.0691 25.5328 32.4271 25.1742 33.6286 24.4922C35.2985 23.517 36.2188 21.988 36.2188 20.1875C36.2188 19.9607 36.1754 19.736 36.0911 19.5255ZM8.31254 26.7188C7.76183 26.7188 5.64066 26.4412 5.37199 25.2077L8.31254 17.8585L11.2531 25.2077C10.9844 26.4412 8.86324 26.7188 8.31254 26.7188ZM29.6875 21.9688C29.1368 21.9688 27.0157 21.6912 26.747 20.4577L29.6875 13.1085L32.6281 20.4577C32.3594 21.6912 30.2382 21.9688 29.6875 21.9688Z" fill="#E9E100"/>
</svg>
