<svg width="96" height="96" viewBox="0 0 96 96" fill="none" xmlns="http://www.w3.org/2000/svg">
<path d="M26.8001 16.3C31.0527 16.3 34.5001 12.8526 34.5001 8.59999C34.5001 4.3474 31.0527 0.899994 26.8001 0.899994C22.5475 0.899994 19.1001 4.3474 19.1001 8.59999C19.1001 12.8526 22.5475 16.3 26.8001 16.3Z" fill="#E9E100"/>
<path d="M93.4 57.7H85.4V32.5V12.6V8.39999C85.4 7.39999 84.6 6.59999 83.6 6.59999C82.6 6.59999 81.8 7.39999 81.8 8.39999V11.4L62 21C61.4 21.3 61 21.9 61 22.6C61 23.3 61.4 23.9 62 24.2L81.7 33.7V57.7H56.7C55.6 57.7 54.6 58.6 54.6 59.8V67.2H44.7C45 66.8 45.1 66.2 45.2 65.7C46.9 50 45.2 48 44.3 47C43.3 45.8 41.2 44.3 34.1 41.9L34.4 24.7C38.8 24 42.1 22.2 43.2 21.5C46.7 19.3 51.6 12.3 52.6 10.9C53.6 9.39999 53.2 7.39999 51.7 6.39999C50.2 5.39999 48.2 5.79999 47.2 7.29999C45.2 10.3 41.5 14.9 39.8 16C37.9 17.1 34.6 18.5 31.3 18.5H22.4C19.1 18.5 15.7 17.2 13.9 16C12.2 14.9 8.50004 10.3 6.50004 7.29999C5.50004 5.79999 3.50004 5.39999 2.00004 6.39999C0.500036 7.39999 0.100035 9.49999 1.10004 10.9C2.00004 12.3 6.90004 19.3 10.5 21.5C11.6 22.2 14.9 24 19.3 24.7C19.4 28.3 19.7 40.4 19.8 42.1C19.9 43.8 20.1 47.2 20.2 48.4C20.5 51.8 20.8 55.7 20.8 57.2C20.8 58.8 18.7 67 16.9 73.6C16.6 74.6 16.8 75.5 17.2 76.4H10.5C9.40003 76.4 8.40004 77.3 8.40004 78.5V93C8.40004 94.1 9.30004 95.1 10.5 95.1H54.8H72.5H93.6C94.7 95.1 95.7 94.2 95.7 93V59.8C95.5 58.6 94.6 57.7 93.4 57.7ZM31.5 69.2V76.6H23.9C24 76.4 24.1 76.1 24.2 75.9C25.5 71.3 28.4 60.4 28.4 57.4C28.4 55.6 28.1 51.7 27.8 48C27.8 47.9 27.8 47.9 27.8 47.8C28.3 48 28.7 48.2 29.2 48.4C35.1 50.2 37.4 51.4 38.2 51.8C38.5 54 38.2 60 37.7 64.9C37.6 65.7 37.8 66.5 38.2 67.2H33.6C32.4 67.1 31.5 68.1 31.5 69.2Z" fill="#E9E100"/>
</svg>
